<?xml version="1.0" encoding="utf-8"?>
<!-- Generator: Adobe Illustrator 26.2.1, SVG Export Plug-In . SVG Version: 6.00 Build 0)  -->
<svg version="1.1" id="Layer_1" xmlns="http://www.w3.org/2000/svg" xmlns:xlink="http://www.w3.org/1999/xlink" x="0px" y="0px"
	 viewBox="0 0 1080 898" style="enable-background:new 0 0 1080 898;" xml:space="preserve">
<style type="text/css">
	.st0{fill:#DE193A;}
	.st1{fill:#FEFEFE;}
</style>
<g>
	<path class="st0" d="M536.3,764.2c-0.6,4.5-1.3,33.5-1.3,33.5c-135.8,9.1-133.7-120.2-133.7-120.2s-58.3,1.1-58.5,1
		c-16.4,68.6-71.3,104.1-117.9,104c-46.7-0.1-45.4-51.7-44.8-61.4c8.1-133,141.4-87.5,141.4-87.5s32.3-79.1,44.1-114.5
		c8.1-24.1,14.2-48.6,22.2-72.7l45.9-0.4l-2.1,181.8c0,0,31.1-17,33-27.6s7.4-42,41.7-61.5c39.5-22.3,68.5,3.5,68.5,3.5
		c-3-1.8,27.5-119,27.5-119l43.3,5c0,0-32.6,121.4-43.7,161.5c-25.4,92,42,151.4,42,151.4l-30.1,22.6c-35.4-11-50.5-62.2-49.7-63.3
		c-15.2,20.4-34.6,41.3-58.2,37.4c-37.3-6.3-44.2-69.6-40.9-83.5c-5.6,3.1-23.6,16.5-23.6,16.5s4.4,40,21.3,62
		C486.5,763.6,536.4,763.5,536.3,764.2z M505,630c-5.1,28.4-4.2,52.3,13.8,54.1c18,1.9,38-33.8,41-53.2c2.9-19.4,3.3-54.8-16-60.2
		C524.4,565.2,513.4,582.7,505,630z M306.6,672.9c-9.8-1.3-21.8-6.3-44.3-4.4c-31.9,2.8-52.4,58.9-34.7,73.3
		S296.8,722.3,306.6,672.9z M399.2,633.5l7.5-142.8l-45.3,142.8H399.2z M380.9,138.5c32.3,33.1-0.8,106.7-20.8,138.2
		c-26.3,41.4-67.5,81.1-117.7,87.9c0.9,17.5-3.3,40.6,12.2,52.2c26.3,19.5,50.2-8.5,98.4-80c5.7,3.2,18.4,27.9,19,28.1
		c-17.9,31.9-36.2,59-61.6,86c-23.8,25.3-79.1,20.5-93.9-9.7c-20.2-41.2-7.9-90.1-9.6-90.8c-11.9-5.6-53-39.8-26.1-107.2
		c1.8-1.2,31.6-7.6,32.6-5.2c-1.2,9.6-8.8,54.5,3.2,60.1c0.9,0,1.9,0,2.8,0.1c0.8-3.3,20.8-59.1,40.5-92.4
		C283.1,166.2,348.6,105.3,380.9,138.5z M254.6,313.1c0.1-0.5,5.7,11.9,32.7-4.5s93.3-115.2,69.2-134.4
		C346.3,166.2,264.7,219.7,254.6,313.1z M688.7,441.3c-1.6-4.9,0-35.7,0-35.7c27.2-4,66.1-41.2,66.1-41.2s-1.9-151.5,41-224.1
		c10.5-17.7,23.7-31.1,42.5-39.2c7.4-3.2,23.8,0.9,30.6,4.4c9.5,5,16.8,13.9,20.8,23.8c6.2,15.3,5.5,32.6,3.4,49
		c-8,61.2-35.2,119.7-77.2,164.9c-4.5,4.8-12.1,15.5-12.1,15.5c22.8,47.7,87-34.7,87-34.7s31.1,23.2,29.2,25.5
		c-93.5,110.2-144,43.8-144,43.8S718.1,446.9,688.7,441.3z M829.3,159c-23.9,38.5-37.4,147.5-36.5,158.2
		c8-9.4,61.7-112.9,66.8-158.2c0.4-3.5,0.7-7.1-0.1-10.5s-2.9-6.7-6.1-8.1c-3.4-1.5-7.5-0.6-10.7,1.5s-5.4,5.1-7.6,8.2
		C833.2,153,831.2,155.9,829.3,159z M668,562.1c2.4-40.5,81.5-8.6,81.5-8.6l19-40.5c0,0-47.8-24.2-89.1-8.8
		c-37.5,14-62.9,47.9-43.8,86.2c6.4,12.7,19.1,20.6,34.4,20.2c44.9-1,60.5,0,60.8,16.3c0.6,39.2-91.2,24-91.2,24l-6.9,45.5
		c0,0,46.3,3,84.5-5.8c58.8-13.6,80.3-116.5,8.3-113.1C682.1,579.6,666.9,580.6,668,562.1z"/>
	<g>
		<path class="st1" d="M717.1,238.5L717.1,238.5c-1-10.7-3.3-26.6-12.3-41.4c-17.1-28-52.9-38.6-79.7-23.5
			c-23.9,13.5-41.6,36.4-52.5,68.2c-10,29.1-11.9,58.3-11.8,77.7c0.1,16.1,3.7,31.3,10.5,43.9c8.7,16.3,22.5,27.5,38.8,31.5
			c4.7,1.2,9.6,1.8,14.6,1.8c5.6,0,11.4-0.7,17.2-2.2c21.9-5.4,51.2-22,66.6-69.9C720,288.8,718.3,252.5,717.1,238.5z M635.9,370.2
			c-7.4,1.9-14,1.9-19.7,0.5c-20.5-5.1-30.2-28.6-30.3-51.4c-0.4-42.8,10.9-101,51.6-124c16.1-9,36.8-0.5,46.1,14.8
			c5.6,9.2,7.7,20,8.7,30.6C696.1,284,687.1,357.4,635.9,370.2z"/>
		<path class="st1" d="M641.1,221.3c-13.9,9.5-32.4,58.9-28.5,68.1c0.9,2.1,13.7-32.5,32.7-29.9s21.1,29.8,21.5,39.3
			c0.7-2.1,14.5-54.3-0.5-76C661.1,215.1,650.3,215.1,641.1,221.3z"/>
	</g>
	<g>
		<path class="st1" d="M473.8,240.6c-12.3,8.4-28.8,52.4-25.3,60.5c0.8,1.9,12.2-28.9,29.1-26.6s18.8,26.5,19.2,35
			c0.7-1.9,12.9-48.2-0.4-67.5C491.6,235,482,235,473.8,240.6z"/>
		<path class="st1" d="M544.1,255.7L544.1,255.7c-0.9-9.8-3-24.4-11.3-38c-16-26.2-49.4-36-74.6-21.9c-21.9,12.3-38,33.2-48,62.1
			c-9,26.2-10.8,52.6-10.6,70c0.2,35.5,18.3,62.9,45.9,69.7c4.4,1.1,9,1.7,13.7,1.7c5.2,0,10.6-0.7,16-2.1c20.1-5,47.1-20.2,61.1-64
			C546.8,301,545.2,268.2,544.1,255.7z M469.2,373c-6.6,1.7-12.5,1.7-17.6,0.4c-18.2-4.5-26.8-25.4-27-45.6
			c-0.3-38,9.7-89.8,45.8-110.2c14.3-8,32.7-0.4,41,13.1c4.9,8.1,6.9,17.8,7.7,27.2C522.7,296.4,514.7,361.6,469.2,373z"/>
	</g>
</g>
</svg>
