<?xml version="1.0" encoding="utf-8"?>
<!-- Generator: Adobe Illustrator 26.5.0, SVG Export Plug-In . SVG Version: 6.00 Build 0)  -->
<svg version="1.1" id="Layer_1" xmlns="http://www.w3.org/2000/svg" xmlns:xlink="http://www.w3.org/1999/xlink" x="0px" y="0px"
	 viewBox="0 0 1080 700" style="enable-background:new 0 0 1080 700;" xml:space="preserve">
<style type="text/css">
	.st0{fill:#FFFFFF;}
	.st1{fill:#DE193A;}
</style>
<g>
	<polygon class="st0" points="284.8,659.5 309.6,55.8 344.6,57.2 316.4,627.5 778.5,595.5 780.3,630.5 	"/>
</g>
<path class="st1" d="M766.9,202l-5.2-18.8l-14.7,9.4c-25.2,12.2-52.3,19.9-79.2,22.9l8.8,40.9c9.9-2.9,19.6-6.4,29-10.4
	c-3.6,6.4-7,12.5-10.3,18.4c-19.4,34.5-35.2,62.7-56.8,106.7c-31.3-19.7-64.3-36.8-98.3-51.2l-12.6-5.3l-85.2,87.7
	c-33-15.9-68.3-26-104.8-29.8c-3.9-0.4-11-1.2-18.6,2.1c-6.4,2.7-10.4,7.1-12.8,9.8l-96,105.6l29.6,26.9l95-104.5
	c33.6,3.7,65.9,13.4,96.1,28.8c3.3,1.7,10.9,5.6,20.4,3.4c7.7-1.8,12.5-6.7,14.6-8.8l71.4-73.5c34.2,15.3,67.2,33.6,98.2,54.6
	l19.2,13l10-20.9c26.5-55.1,43.7-85.9,65.6-124.9c3.6-6.3,7.3-13,11.2-20l1.2,1.3c1.3-4.5,10.7,36.3,10.7,36.3l39.3-5.1L766.9,202z"
	/>
</svg>
