<?xml version="1.0" encoding="utf-8"?>
<!-- Generator: Adobe Illustrator 26.5.0, SVG Export Plug-In . SVG Version: 6.00 Build 0)  -->
<svg version="1.1" id="Layer_1" xmlns="http://www.w3.org/2000/svg" xmlns:xlink="http://www.w3.org/1999/xlink" x="0px" y="0px"
	 viewBox="0 0 1080 700" style="enable-background:new 0 0 1080 700;" xml:space="preserve">
<style type="text/css">
	.st0{fill:#DE193A;}
	.st1{fill:#FEFEFE;}
</style>
<g>
	<g>
		<path class="st0" d="M453.8,438.1l189.1-83.3c2.5-0.9,4.2-3.2,4.3-5.8l0.3-7.1c0.1-2.8-1.5-5.2-4.1-6l-204-74.1
			c-4.9-1.5-7.5,3.5-6.9,9.9l15,156.6C448,434.2,448,440,453.8,438.1z"/>
	</g>
</g>
<path class="st1" d="M765.7,610.2l30-0.3l-5-520l-35,5.3l0.5,27.3l-45.3-5.7l-0.3-26.9l-35,0.3l0.4,22.3L403.1,78.3l1.2-37.8l-40-1
	l-0.5,33.9l-34.9-4.4l0.5-28.5l-30-1l-20,620l40,1l1-61.2l6.4,19.6l28.3-1.4l-0.7,42l30,1l1.4-44.4l299.8-14.3l0.2,8.3l30-0.3
	l-0.1-9.5l49.9-2.4L765.7,610.2z M712.8,303.6h47l0.9,45.7l-47.4,3.7L712.8,303.6z M713.6,383.1l47.7-3.7l0.9,44L714,427
	L713.6,383.1z M759.2,273.6h-46.7l-0.4-42.2l46.3-1.2L759.2,273.6z M714.3,457.1l48.4-3.6l0.9,46.1l-48.9,1.2L714.3,457.1z
	 M757.1,162.9l0.7,37.3l-46,1.1l-0.4-45.2L757.1,162.9z M363.3,104.8l-1.3,79.5l-35,0.9l1.4-85.5L363.3,104.8z M326.5,215.2l35-0.9
	l-1.1,66.6l-35,2.7L326.5,215.2z M358.8,382.1l-35,2.6l1.1-71l35-2.7L358.8,382.1z M323.3,414.9l35-2.6l-1.3,77.6l-35,0.9
	L323.3,414.9z M320.5,583.8l1-63l35-0.9l-1,62.6L320.5,583.8z M386.9,581.4L402,110.5l274.9,40.6l8.1,419.5L386.9,581.4z
	 M715.3,569.5l-0.4-38.8l49.2-1.2l0.7,38.2L715.3,569.5z"/>
</svg>
