<?xml version="1.0" encoding="utf-8"?>
<!-- Generator: Adobe Illustrator 26.5.0, SVG Export Plug-In . SVG Version: 6.00 Build 0)  -->
<svg version="1.1" id="Layer_1" xmlns="http://www.w3.org/2000/svg" xmlns:xlink="http://www.w3.org/1999/xlink" x="0px" y="0px"
	 viewBox="0 0 1080 700" style="enable-background:new 0 0 1080 700;" xml:space="preserve">
<style type="text/css">
	.st0{fill:#FEFEFE;}
	.st1{fill:#DE193A;}
</style>
<g>
	<path class="st0" d="M765.6,410.6L472.7,184c-3.5-3.2-8.6-3.8-12.6-1.6l-11.2,6c-4.3,2.4-6.7,7.2-5.6,12l64.9,394.4
		c2.2,10.7,16.9,12,21.1,2l46.9-113.1L659.4,660l127.8-68.8L636.3,407.7l119.8,21.9C766.9,431.7,773.7,418.2,765.6,410.6z"/>
	<g>
		<polygon class="st1" points="517.7,45.1 501.6,128 473,124.2 479.9,40 		"/>
		<polygon class="st1" points="359.1,78.8 407.6,148.1 431.7,133.4 392.1,58.7 		"/>
		<polygon class="st1" points="597.5,87 538.5,147.5 557.7,168.6 623.3,115.4 		"/>
		<polygon class="st1" points="383.1,180.4 303.8,151.5 292.7,187.9 374.8,208 		"/>
		<polygon class="st1" points="309.7,312.7 386.6,277.7 376.2,250.9 295.8,277 		"/>
		<polygon class="st1" points="574.7,236.9 658.7,240.3 657.7,198.7 573.6,207.2 		"/>
		<polygon class="st1" points="413.5,307.6 371.1,380.6 405.5,397.9 438.9,320.4 		"/>
	</g>
</g>
</svg>
