<?xml version="1.0" encoding="utf-8"?>
<!-- Generator: Adobe Illustrator 26.5.0, SVG Export Plug-In . SVG Version: 6.00 Build 0)  -->
<svg version="1.1" id="Layer_1" xmlns="http://www.w3.org/2000/svg" xmlns:xlink="http://www.w3.org/1999/xlink" x="0px" y="0px"
	 viewBox="0 0 1080 700" style="enable-background:new 0 0 1080 700;" xml:space="preserve">
<style type="text/css">
	.st0{fill:#FEFEFE;}
	.st1{fill:#DE193A;}
</style>
<g>
	<path class="st0" d="M1658.8,328.8L1422.6,146c-2.8-2.6-6.9-3.1-10.2-1.3l-9,4.8c-3.5,1.9-5.4,5.8-4.5,9.7l52.3,318.1
		c1.8,8.6,13.6,9.7,17,1.6l37.8-91.2l67.2,142.2l103.1-55.5l-121.7-148l96.6,17.7C1659.9,345.8,1665.4,334.9,1658.8,328.8z"/>
	<g>
		<polygon class="st1" points="1458.9,34 1445.9,100.9 1422.9,97.8 1428.4,29.9 		"/>
		<polygon class="st1" points="1331,61.2 1370.1,117.1 1389.6,105.2 1357.6,45 		"/>
		<polygon class="st1" points="1523.3,67.8 1475.7,116.6 1491.2,133.6 1544.1,90.7 		"/>
		<polygon class="st1" points="1350.4,143.1 1286.4,119.8 1277.5,149.2 1343.7,165.4 		"/>
		<polygon class="st1" points="1291.2,249.8 1353.2,221.6 1344.8,200 1280,221 		"/>
		<polygon class="st1" points="1504.9,188.7 1572.6,191.4 1571.8,157.9 1504,164.7 		"/>
		<polygon class="st1" points="1374.9,245.7 1340.7,304.6 1368.4,318.5 1395.4,256 		"/>
	</g>
</g>
<g>
	<path class="st1" d="M749,47.6c-23.3-9.1-77.8-13.7-90.4,13c-0.7,1.2-1.1,2.7-1.6,4c-0.2,0.7-0.6,2.6-0.9,3.3
		c-0.2,0.7-0.4,2.8-0.6,3.6c-0.9,7-1.5,14.3-1.4,21.2c0.1,18,5.4,40.7,25.9,43.3c20,2.8,42.3-8.5,55.3-23.7
		c8.4-9.6,13.7-22,13.2-34.8c0.1-0.8-0.1-1.8-0.2-2.6c-0.1-2.5-0.8-5.4-1.2-7.8c-0.5-1.5-1-3.7-1.5-5.2c-0.6-1.5-1.4-3.7-2-5.2
		c-0.7-1.3-1.9-3.9-2.5-5.2c-1.4-2.4-2.9-5.5-4.6-7.7c-0.8-1.2-1.7-2.6-2.5-3.8c-0.7-0.9-4-5.3-4.7-6.2L748,15.5
		c14.5,15,26.6,33.6,29.9,55.1c6.2,39.5-20.3,75.1-55.2,90.8c-14.9,6.7-31.8,10-48.1,7.4c-44.8-7.7-56.5-51.5-52-91.2
		c0.5-5.8,1.4-11.7,2.7-17.4c0.3-1.3,1.5-4.8,1.9-6.2c0.5-1.4,2-4.8,2.5-6.1c3.5-7.3,8.8-14,15-19.3c15.9-13.2,37.5-17.3,57.6-17.1
		c10.2,0.1,20.2,1.3,30.1,3.3c10.5,2.3,21,5.1,30.5,10.6C762.9,25.4,749,47.6,749,47.6L749,47.6z"/>
	<path class="st0" d="M663.9,272.9c-31.4-26.2-69.4-44.5-105.6-62.7c-30.3-15.6-75.6-37-106.5-52.6c-4.2-2.1-8.9-4.4-13.8-6.8
		l51.5,3.2l2.5-39.5l-97.6,7.3l-19.4,1.5l6.4,16.2c7.2,27.1,9.6,55.1,7.4,82.1l41.8-0.9c-1.5-15.4-4.3-30.5-8.2-45.2
		c23.2,13.2,48.3,27.2,67.3,37.9c26.2,14.8,57.8,32,84.1,46.8c37.2,21,75.8,45.2,97.1,83.2c6.4,12.3,11.3,25.1,5.6,37.5
		c-13.2,25.3-58.5,40.3-85.8,50.2c-38.4,13.1-76.2,29.7-111.5,49.9c-18.5,10.9-36.6,21.4-52.8,36.8c-22.8,20.9-37.7,55.4-28.1,86.9
		c8.9,30.6,39.1,45.4,66,56.7c27.9,12.1,56.5,22.2,85.8,30.1l8.2-24.9c-9.1-3.5-18-7.3-26.9-11.1c-22.2-9.6-44-20.1-65.2-31.6
		c-15.8-8.5-33.2-19.6-31.7-38.7c2.5-33.7,39.2-51.7,65.7-66.7c25.1-13.8,51.1-26,77.9-36.2c28.6-11,56.6-19.1,84.9-34.3
		c21.2-11.5,42-26.3,52.4-49.2C735.9,351.5,698.3,301.8,663.9,272.9z"/>
	<path class="st1" d="M444.7,336.7l-22-27c-16.4,14.6-33.2,28.7-50.4,42.4l-43.8-55l-28.6,20.4l47.9,53.7
		c-17,12.9-34.4,25.3-52,37.1l14.7,21.7c18.7-12.6,37.9-24.6,56.9-36.8l39.5,44.3l20.4-16.3l-35.2-44.3
		C410.4,364.5,428.2,351.4,444.7,336.7z"/>
	<path class="st1" d="M720.7,605.9c15.6-15.7,26.7-37.6,36.2-57.4l-23.6-11.3c-8.7,18.3-21.6,34.9-37.1,48
		c-25.4-21.5-48.2-41.3-53.4-49.7l-22.2,13.8c13.5,21.6,32.3,38.2,50.7,54.3c-6.5,4.6-13,9.4-19,15c-11.3,10.4-20.3,22.4-29,34
		l24,20.7c7.9-10.7,16.1-21.7,25.8-30.5c6.6-6.1,14.2-11.4,22.2-17c0.2-0.1,0.3-0.2,0.5-0.3c18,17,35,35.1,50.7,54.1l27.2-25.6
		C765.4,644,744,625.5,720.7,605.9z"/>
</g>
</svg>
