<?xml version="1.0" encoding="utf-8"?>
<!-- Generator: Adobe Illustrator 26.5.0, SVG Export Plug-In . SVG Version: 6.00 Build 0)  -->
<svg version="1.1" id="Layer_1" xmlns="http://www.w3.org/2000/svg" xmlns:xlink="http://www.w3.org/1999/xlink" x="0px" y="0px"
	 viewBox="0 0 1080 700" style="enable-background:new 0 0 1080 700;" xml:space="preserve">
<style type="text/css">
	.st0{fill:#FEFEFE;}
	.st1{fill:#DE193A;}
</style>
<g>
	<polygon class="st0" points="540,415.2 468.8,459.6 482.4,380.3 424.8,324.1 507.8,316 540,240.4 575.6,312.6 655.2,324.1 
		601.1,383.7 611.2,459.6 	"/>
	<g>
		<polygon class="st1" points="787.9,191.2 692.3,255.7 668.3,224.4 756.3,149.8 		"/>
		<polygon class="st1" points="576.7,39.2 553.9,168.2 596.4,178.5 634.8,53.3 		"/>
		<polygon class="st1" points="384.7,623.9 449.7,504.6 411.4,480.4 332.2,590.7 		"/>
		<polygon class="st1" points="478.1,173.8 425.9,61.7 376.7,87.9 440.9,193.8 		"/>
		<polygon class="st1" points="537.2,532.4 567.8,660.8 624.8,644 580.4,519.5 		"/>
		<polygon class="st1" points="240,250.9 363.5,297.1 381.6,256.1 264.1,196.1 		"/>
		<polygon class="st1" points="840,344.2 708.3,337.3 703.4,381.9 833.6,403.6 		"/>
		<polygon class="st1" points="651.9,484.4 738.9,578.7 782.7,532.8 682.7,451.2 		"/>
		<polygon class="st1" points="362,379.9 245.6,410.7 262.8,462.8 374.7,418.4 		"/>
	</g>
</g>
</svg>
