<?xml version="1.0" encoding="utf-8"?>
<!-- Generator: Adobe Illustrator 26.2.1, SVG Export Plug-In . SVG Version: 6.00 Build 0)  -->
<svg version="1.1" id="Layer_1" xmlns="http://www.w3.org/2000/svg" xmlns:xlink="http://www.w3.org/1999/xlink" x="0px" y="0px"
	 viewBox="0 0 400 105" style="enable-background:new 0 0 400 105;" xml:space="preserve">
<style type="text/css">
	.st0{fill:#FEFEFE;}
	.st1{fill:#DE193A;}
</style>
<path class="st0" d="M12.6,101.8l5.9-67.9L10,34.4l1.1-12l29.8-1.6l-1.1,12l-8.5,0.4l-5.9,67.9L12.6,101.8z"/>
<path class="st0" d="M45,20.6l12.8-0.7l-6.9,79.9L38,100.5L45,20.6z"/>
<path class="st0" d="M65.2,19.6L78,18.9l-6,67.8L84.5,86l-1,12.1l-25.3,1.3L65.2,19.6z"/>
<path class="st0" d="M88.3,97.9L94.2,30l-8.5,0.4l1.1-12l29.8-1.6l-1.1,12l-8.5,0.4l-5.9,67.9L88.3,97.9z"/>
<path class="st0" d="M130.6,48.2l11.8-0.6l-1.2,12.1l-11.7,0.6l-2.1,23.5l14.4-0.8l-1,12.1l-27.2,1.4l6.9-79.9l27.2-1.4l-1.1,12.1
	l-14.4,0.8L130.6,48.2z"/>
<path class="st0" d="M153.5,14.9l21.1-1.1c11.4-0.6,14.2,2.9,13.1,15.4l-4.2,47.5c-1.2,12.6-4.4,16.4-15.8,17l-21.1,1.1L153.5,14.9z
	 M165.2,26.4L160.4,82l5.8-0.3c3.7-0.2,4.3-1.6,4.7-6l3.8-44.1c0.3-4.4,0.2-5.8-3.6-5.6L165.2,26.4z"/>
<path class="st0" d="M218.3,73.8c-0.3,4.4-0.2,5.8,3.5,5.6l1.8-0.1c3.7-0.2,4.2-1.6,4.7-6l1.4-16l12-0.6l-1.6,17.7
	c-1.2,12.6-4.4,16.4-15.8,17l-5.9,0.3c-11.6,0.6-14.2-2.9-13.1-15.4l4.3-48.6c1-12.6,4.4-16.4,15.9-17l5.9-0.3
	c11.4-0.6,14.1,2.9,13,15.5L243.1,40l-12,0.6l1.2-12.6c0.4-4.5,0.2-5.8-3.6-5.6l-1.8,0.1c-3.7,0.2-4.3,1.6-4.7,6L218.3,73.8z"/>
<path class="st0" d="M310.7,75l-10.9,0.6l-2.5,11.4l-11.6,0.6L303,7.1l17.6-0.9l3.2,79.4l-12.7,0.7L310.7,75z M302.3,64l7.9-0.4
	l0-2.4c-0.1-17.7-0.2-32.3,0.1-44.5c-1.7,12.4-4.3,27.1-7.5,44.9L302.3,64z"/>
<path class="st0" d="M335.6,5.4l12.8-0.7l-6.9,79.9l-12.8,0.7L335.6,5.4z"/>
<path class="st0" d="M385.4,68.3c-0.4,5.1-0.6,10,0.6,13.9L372.8,83c-1-2.6-0.7-7.3-0.3-12.4l1.3-14.6c0.4-4.8-0.3-7-4.4-6.8
	l-4.9,0.3l-3,34.1l-12.8,0.7l6.9-79.9l21.1-1.1c11.4-0.6,14.2,2.9,13.1,15.4l-0.8,8.6c-0.9,9.1-2.7,13.4-8.1,15.4
	c5,1.4,6.2,5.8,5.4,14.8L385.4,68.3z M376.8,21.1c0.4-4.5,0-5.8-3.6-5.6l-5.9,0.3l-1.8,21.6l5.8-0.3c3.7-0.2,4.1-1.7,4.6-6
	L376.8,21.1z"/>
<g>
	<g>
		<g>
			<g>
				<g>
					<path class="st1" d="M266.9,93.4c-0.3,0-0.7-0.1-1-0.3c-0.5-0.3-1.1-0.9-1.2-1c-0.3-0.2-0.7-0.7-0.7-1.4c0-0.1,0-16.2,0-28.6
						L252,55.3c-0.3,5-1,19.5-1,19.6c0,0.6-0.3,1-0.8,1.2l-1,0.7c-0.6,0.3-1.2,0.3-1.8,0l-1.1-0.8c-0.5-0.3-0.7-0.8-0.7-1.4
						c0-0.1,0.2-25.7,0.2-25.7c-6.2-39.5-6.4-39.5-6.4-39.5l-0.1-1l1.1-0.6l1.6-0.5c0.2-0.1,0.5-0.1,0.8-0.1l2.2,0.1l0.3,0.8l15-2.2
						V6c0-0.8,0.5-1.4,1.1-1.5c0.1,0,0.9-0.2,1.2-0.3s0.8-0.1,1.1,0l0.8,0.1c0.7,0.1,1.2,0.6,1.4,1.2c0,0.1,3.3,28.2,4.2,35.7
						l23.1,7.7c0.7,0.2,1,0.8,1,1.5V52l-0.5,0.3c0,5.9-0.2,27.4-0.2,27.6c0,0.1,0,0.8-0.6,1.2l-1,0.8c-0.5,0.3-1.2,0.5-1.7,0.2
						l-1.2-0.7c-0.3-0.1-0.8-0.6-0.8-1.2c0-0.1-0.5-18-0.6-23.4L271,63.1c-0.1,4.5-0.8,27.7-0.8,27.9c0,0.5-0.1,1-0.8,1.4
						c-0.2,0.1-1.2,0.7-1.4,0.8C267.6,93.3,267.2,93.4,266.9,93.4z M247.8,74.9L247.8,74.9L247.8,74.9z"/>
				</g>
			</g>
		</g>
	</g>
</g>
</svg>
