<?xml version="1.0" encoding="utf-8"?>
<!-- Generator: Adobe Illustrator 26.0.1, SVG Export Plug-In . SVG Version: 6.00 Build 0)  -->
<svg version="1.1" id="Layer_1" xmlns="http://www.w3.org/2000/svg" xmlns:xlink="http://www.w3.org/1999/xlink" x="0px" y="0px"
	 viewBox="0 0 22 22" style="enable-background:new 0 0 22 22;" xml:space="preserve">
<style type="text/css">
	.st0{fill-rule:evenodd;clip-rule:evenodd;fill:#FFFFFF;}
</style>
<path class="st0" d="M18.3,3.7C19.6,3.8,20.2,4,20.8,5s0.9,2.8,0.9,5.9l0,0l0,0c0,3.1-0.3,4.9-0.9,5.9s-1.2,1.2-2.5,1.3
	c-1.3,0.1-4.5,0.1-7.3,0.1s-6,0-7.3-0.1s-1.9-0.3-2.5-1.3S0.3,14,0.3,10.9l0,0l0,0l0,0C0.4,7.8,0.7,6,1.3,5s1.2-1.2,2.5-1.3
	C5,3.6,8.3,3.6,11,3.6C13.8,3.6,17.1,3.6,18.3,3.7z M15.1,10.9l-6.7-4v8L15.1,10.9z"/>
</svg>
