<?xml version="1.0" encoding="utf-8"?>
<!-- Generator: Adobe Illustrator 26.0.1, SVG Export Plug-In . SVG Version: 6.00 Build 0)  -->
<svg version="1.1" id="Layer_1" xmlns="http://www.w3.org/2000/svg" xmlns:xlink="http://www.w3.org/1999/xlink" x="0px" y="0px"
	 viewBox="0 0 23 22" style="enable-background:new 0 0 23 22;" xml:space="preserve">
<style type="text/css">
	.st0{fill-rule:evenodd;clip-rule:evenodd;fill:#FFFFFF;}
</style>
<path class="st0" d="M7.5,0h8c3.7,0,6.7,3,6.7,6.7v8c0,3.7-3,6.7-6.7,6.7h-8c-3.7,0-6.7-3-6.7-6.7v-8C0.8,3,3.8,0,7.5,0z M15.5,19.4
	c2.6,0,4.7-2.1,4.7-4.7v-8c0-2.6-2.1-4.7-4.7-4.7h-8C4.9,2,2.8,4.1,2.8,6.7v8c0,2.6,2.1,4.7,4.7,4.7H15.5z M6.2,10.7
	c0-3,2.4-5.3,5.3-5.3c3,0,5.3,2.4,5.3,5.3c0,3-2.4,5.3-5.3,5.3C8.5,16,6.2,13.6,6.2,10.7z M8.2,10.7c0,1.8,1.5,3.3,3.3,3.3
	s3.3-1.5,3.3-3.3s-1.5-3.3-3.3-3.3C9.7,7.3,8.2,8.8,8.2,10.7z M18,4.9c0,0.4-0.3,0.7-0.7,0.7c-0.4,0-0.7-0.3-0.7-0.7
	s0.3-0.7,0.7-0.7C17.6,4.2,18,4.5,18,4.9z"/>
</svg>
