<?xml version="1.0" encoding="utf-8"?>
<!-- Generator: Adobe Illustrator 26.0.1, SVG Export Plug-In . SVG Version: 6.00 Build 0)  -->
<svg version="1.1" id="Layer_1" xmlns="http://www.w3.org/2000/svg" xmlns:xlink="http://www.w3.org/1999/xlink" x="0px" y="0px"
	 viewBox="0 0 23 22" style="enable-background:new 0 0 23 22;" xml:space="preserve">
<style type="text/css">
	.st0{fill:#FFFFFF;}
</style>
<path class="st0" d="M22.3,3.8c-0.8,0.3-1.6,0.6-2.5,0.7c0.9-0.5,1.6-1.4,1.9-2.4c-0.8,0.5-1.8,0.9-2.8,1.1c-0.8-0.9-2-1.4-3.2-1.4
	c-2.4,0-4.4,2-4.4,4.4c0,0.3,0,0.7,0.1,1c-3.6-0.2-6.8-2-9-4.6C2,3.2,1.8,4,1.8,4.8c0,1.5,0.8,2.9,1.9,3.6c-0.7,0-1.4-0.2-2-0.5l0,0
	c0,2.1,1.5,3.9,3.5,4.3c-0.4,0.1-0.7,0.1-1.1,0.1c-0.3,0-0.6,0-0.8-0.1c0.6,1.7,2.2,3,4.1,3.1C5.9,16.5,4,17.2,2,17.2
	c-0.4,0-0.7,0-1-0.1c1.9,1.3,4.2,2,6.7,2c8.1,0,12.5-6.7,12.5-12.5c0-0.2,0-0.4,0-0.6C21,5.5,21.7,4.7,22.3,3.8z"/>
</svg>
