<?xml version="1.0" encoding="utf-8"?>
<!-- Generator: Adobe Illustrator 26.0.1, SVG Export Plug-In . SVG Version: 6.00 Build 0)  -->
<svg version="1.1" id="Layer_1" xmlns="http://www.w3.org/2000/svg" xmlns:xlink="http://www.w3.org/1999/xlink" x="0px" y="0px"
	 viewBox="0 0 22 22" style="enable-background:new 0 0 22 22;" xml:space="preserve">
<style type="text/css">
	.st0{fill-rule:evenodd;clip-rule:evenodd;fill:#FFFFFF;}
</style>
<path class="st0" d="M5.1,2.3c0,1.3-1,2.3-2.3,2.3s-2.3-1-2.3-2.3S1.5,0,2.8,0S5.1,1,5.1,2.3z M0.5,6.7h4.8v14.7H0.5V6.7z M18.3,6.9
	C18.2,6.8,18.2,6.8,18.3,6.9c-0.1,0-0.1,0-0.2,0s-0.1,0-0.2,0c-0.3-0.1-0.5-0.1-0.9-0.1c-2.8,0-4.6,2-5.1,2.8V6.7H7.1v14.7h4.8v-8
	c0,0,3.6-5,5.1-1.3v9.4h4.8v-9.9C21.8,9.2,20.3,7.4,18.3,6.9z"/>
</svg>
