<?xml version="1.0" encoding="UTF-8"?>
<!-- Generator: Adobe Illustrator 27.5.0, SVG Export Plug-In . SVG Version: 6.00 Build 0)  -->
<svg xmlns="http://www.w3.org/2000/svg" xmlns:xlink="http://www.w3.org/1999/xlink" version="1.1" id="Layer_1" x="0px" y="0px" viewBox="0 0 700 700" style="enable-background:new 0 0 700 700;" xml:space="preserve">
<style type="text/css">
	.st0{fill:#FEFEFE;}
	.st1{fill:#DE193A;}
</style>
<g>
	<path class="st0" d="M437.5,470.8c-6.8,15.6-26.5,15.6-36.8,2.5c-30.1-41.3-28.3-86.8-26.6-133c1.8-47.4,3.7-95.8-39.4-135   c-1.7,57-13.3,113.4-58.2,177.8c-19.5,28.1-26.8,67.4-15.4,99.6c8.5,25.9-30.9,39-39.4,13.1c-14.7-44.3-6.4-87.8,15.9-127.9   c-8.5-39.9-25.3-84.1-64.3-102.5c-2.5,24.3-7.7,51.1-13.2,79.4c-11.5,59.5-24.3,125.9-15.4,181.8c12.5,80.4,84.2,105.2,157,98.6   l162.9-14.5c53.7-4.9,79.4-58.6,88.8-105.4c12.2-59.6,4.4-139.6-29.6-190.8c-8.9,41.3-27,65.9-46.9,92.8   C463.1,425.2,449.1,444.5,437.5,470.8 M520.3,251.4c73.2,52.4,90.8,178,73.7,262c-13.5,66.1-52,131.9-125.9,138.5l-163,14.5   c-95.4,8.6-185.6-30.9-201.7-133.6c-9.8-63,3.6-133.1,15.7-195.8c7.2-37.1,13.7-71.6,14.2-98c0.3-13.6,11.2-24.4,24.7-21.8   c57.1,11,90.5,51.2,109.2,103.7c25.6-50.2,26.1-98.9,26.6-153.7c-0.3-16.7,16.5-27.7,31-19.5c96.2,54.4,93.4,125.2,90.8,194.1   c-1,26-2,51.7,3.9,74.9c8-12.7,16-23.6,23.9-34.2c22-29.8,41.6-56.2,44.2-113.1C488.2,252.2,506,241.2,520.3,251.4"></path>
	<g>
		<path class="st1" d="M157.5,175.2c19.5-7.2,13.5-25.3,7.3-39c-6.4-13.5-16.4-28.7-33.9-18.7c-17.2,9.7-9.5,23.9-3.6,36.2    C132.9,166.3,138.7,182,157.5,175.2"></path>
		<path class="st1" d="M459.1,177.1c0.3,11.5,9.9,20.4,21.2,20.1c11.5-0.3,20.4-9.9,20.1-21.2c-0.6-22.6,1.1-50.8,6.5-72.6    c2.7-11.1-4.1-22.4-15.2-25.1c-11.1-2.7-22.4,4.1-25.1,15.2C460.5,118.5,458.5,151.3,459.1,177.1"></path>
		<path class="st1" d="M238.7,116.3c6,9.8,18.9,12.7,28.6,6.7c9.8-6,12.7-18.9,6.7-28.6c-7.8-12.5-11.8-25.9-14.3-40.4    c-1.9-11.4-12.6-18.9-24-17c-11.4,1.9-19,12.6-17,24C222,80.3,228.2,99.6,238.7,116.3"></path>
		<path class="st1" d="M351.7,92.7c-3.2,11,3.2,22.5,14.2,25.6c11,3.2,22.5-3.2,25.7-14.2c5.1-18.2,6.5-34.5,4.4-53.3    c-1.2-11.4-11.5-19.5-22.8-18.3c-11.4,1.2-19.7,11.5-18.3,22.8C356.2,68.7,355.3,79.8,351.7,92.7"></path>
		<path class="st1" d="M243.7,163.9c-9.4-25.6-48.3-11.1-38.9,14.4l4.4,11.9c9.4,25.4,48.3,11.1,38.9-14.4L243.7,163.9z"></path>
	</g>
</g>
</svg>
