<?xml version="1.0" encoding="UTF-8"?>
<!-- Generator: Adobe Illustrator 27.5.0, SVG Export Plug-In . SVG Version: 6.00 Build 0)  -->
<svg xmlns="http://www.w3.org/2000/svg" xmlns:xlink="http://www.w3.org/1999/xlink" version="1.1" id="Layer_1" x="0px" y="0px" viewBox="0 0 700 700" style="enable-background:new 0 0 700 700;" xml:space="preserve">
<style type="text/css">
	.st0{fill:#FEFEFE;}
	.st1{fill:#DE193A;}
</style>
<g>
	<g>
		<g>
			<path class="st0" d="M528.2,299.5L528.2,299.5c-1.1-12.1-3.7-30.1-13.9-46.8C495,221,454.5,209,424.1,226     c-27,15.3-47.1,41.2-59.4,77.2c-11.3,32.9-13.5,66-13.4,87.9c0.1,18.2,4.2,35.4,11.9,49.7c9.8,18.4,25.5,31.1,43.9,35.6     c5.3,1.4,10.9,2,16.5,2c6.3,0,12.9-0.8,19.5-2.5c24.8-6.1,57.9-24.9,75.4-79.1C531.5,356.4,529.6,315.3,528.2,299.5z      M436.4,448.5c-8.4,2.1-15.8,2.1-22.3,0.6c-23.2-5.8-34.2-32.4-34.3-58.2c-0.5-48.4,12.3-114.3,58.4-140.3     c18.2-10.2,41.6-0.6,52.2,16.7c6.3,10.4,8.7,22.6,9.8,34.6C504.5,351,494.3,434,436.4,448.5z"></path>
			<path class="st0" d="M442.2,280c-15.7,10.7-36.7,66.6-32.2,77.1c1,2.4,15.5-36.8,37-33.8c21.5,2.9,23.9,33.7,24.3,44.5     c0.8-2.4,16.4-61.4-0.6-86C464.9,273,452.7,273,442.2,280z"></path>
		</g>
		<g>
			<path class="st0" d="M252.9,301.9c-13.9,9.5-32.6,59.3-28.6,68.5c0.9,2.1,13.8-32.7,32.9-30.1c19.1,2.6,21.3,30,21.7,39.6     c0.8-2.1,14.6-54.5-0.5-76.4C273.1,295.5,262.2,295.5,252.9,301.9z"></path>
			<path class="st0" d="M332.5,318.9L332.5,318.9c-1-11.1-3.4-27.6-12.8-43c-18.1-29.6-55.9-40.7-84.4-24.8     c-24.8,13.9-43,37.6-54.3,70.3c-10.2,29.6-12.2,59.5-12,79.2c0.2,40.2,20.7,71.2,51.9,78.9c5,1.2,10.2,1.9,15.5,1.9     c5.9,0,12-0.8,18.1-2.4c22.7-5.7,53.3-22.9,69.1-72.4C335.5,370.2,333.7,333.1,332.5,318.9z M247.7,451.7     c-7.5,1.9-14.1,1.9-19.9,0.5c-20.6-5.1-30.3-28.7-30.6-51.6c-0.3-43,11-101.6,51.8-124.7c16.2-9.1,37-0.5,46.4,14.8     c5.5,9.2,7.8,20.1,8.7,30.8C308.3,365,299.2,438.8,247.7,451.7z"></path>
		</g>
	</g>
	<polygon class="st1" points="414.5,41.2 385.4,160.7 344,153.3 359.9,31.2  "></polygon>
	<polygon class="st1" points="104.8,650.4 157,539 196.2,554.5 156.4,671  "></polygon>
	<polygon class="st1" points="150.5,100.3 230.9,193.8 263.7,168.9 195.4,66.4  "></polygon>
	<polygon class="st1" points="609,91.7 532.1,187.7 497.7,163.4 563.7,59.4  "></polygon>
	<polygon class="st1" points="337.7,671.2 307.4,551.9 347.6,539.1 390.7,654.4  "></polygon>
	<polygon class="st1" points="515.9,659.4 489,539.4 529.4,527.7 569.4,644.2  "></polygon>
</g>
</svg>
