<?xml version="1.0" encoding="UTF-8"?>
<!-- Generator: Adobe Illustrator 27.5.0, SVG Export Plug-In . SVG Version: 6.00 Build 0)  -->
<svg xmlns="http://www.w3.org/2000/svg" xmlns:xlink="http://www.w3.org/1999/xlink" version="1.1" id="Layer_1" x="0px" y="0px" viewBox="0 0 700 700" style="enable-background:new 0 0 700 700;" xml:space="preserve">
<style type="text/css">
	.st0{fill:#FEFEFE;}
	.st1{fill:#DE193A;}
</style>
<g>
	<path class="st0" d="M483.7,227c-19.3-26.8-51.2-56.4-85.7-37L43.2,389.7c-52.5,29.6-13.9,151.6,40.6,151l89.7-0.9   c2.6,17.8,9.6,31.6,20.5,41.7c27.5,25.5,87.4,25.1,114.3-1.1c10.6-10.3,17.3-24.2,19.6-42.3l162.9-1.8   c38.5-0.5,52.5-42.9,55.7-74.9C553.7,389.2,526,285.9,483.7,227z M288.5,560c-16.2,15.7-58.7,15.7-75.2,0.5   c-5.3-4.9-9.1-11.9-11-21.1l96.8-1C297.4,547.8,293.7,554.9,288.5,560z M84.7,502.7c-20.2,0.2-38.1-71.4-22.8-79.9L366.7,251   c-10.5,74.4,20.1,189,66.5,248.1L84.7,502.7z M508.8,457.6c-4.9,49.6-20.3,53.7-49.4,13.2c-36.8-51.2-62.1-145.6-55.8-208.4   c4.9-49.6,20.3-53.7,49.4-13.3C489.7,300.4,515,394.8,508.8,457.6z"></path>
	<polygon class="st1" points="668.1,332.2 560.8,349.9 552.6,313.6 657.4,284.3  "></polygon>
	<polygon class="st1" points="571.8,99.7 509.7,189.3 538.2,211.8 610.8,130.6  "></polygon>
	<polygon class="st1" points="681.7,481 582.2,436.8 565.3,469.4 659,524.8  "></polygon>
</g>
</svg>
