<?xml version="1.0" encoding="utf-8"?>
<!-- Generator: Adobe Illustrator 26.2.1, SVG Export Plug-In . SVG Version: 6.00 Build 0)  -->
<svg version="1.1" id="Layer_1" xmlns="http://www.w3.org/2000/svg" xmlns:xlink="http://www.w3.org/1999/xlink" x="0px" y="0px"
	 viewBox="0 0 500 500" style="enable-background:new 0 0 500 500;" xml:space="preserve">
<style type="text/css">
	.st0{fill:#FEFEFE;}
</style>
<path class="st0" d="M75.6,243.1c-1.8-1.4-3.6-2.8-5.4-4.2l0,0c-4-3.1-8.2-5.9-12.5-8.5c-5.5-3.3-12.7-1.4-15.9,4.1
	c-1.1,1.8-1.6,3.8-1.6,5.9v10.1c5.8-8.7,16.3,0,24.6,6.4c1.8,1.4,3.6,2.8,5.4,4.1l0,0c4,3.1,8.2,5.9,12.5,8.5
	c5.5,3.3,12.7,1.4,15.9-4.1c1.1-1.8,1.6-3.8,1.6-5.9v-10.1C94.3,258.2,83.9,249.5,75.6,243.1z"/>
<path class="st0" d="M65.3,261.8c-2.8-2.1-5.5-4.3-8.5-6.2c-4.1-2.7-10.7-6.9-14.9-2c-1.3,1.7-2,3.8-1.9,6c0,2.8,0.9,5.6,2.6,7.8
	c3.8,4.8,10.6,6,15.9,2.9c2-1.2,5.8-4,9.5-6.5l-0.4-0.3L65.3,261.8z"/>
<path class="st0" d="M74.9,238.2c2.8,2.1,5.5,4.3,8.5,6.2c4.1,2.7,10.7,6.9,14.9,2c1.3-1.7,2-3.8,1.9-6c0-2.8-0.9-5.6-2.6-7.8
	c-3.8-4.8-10.6-6-15.9-2.9c-2,1.2-5.8,4-9.5,6.6l0.4,0.3L74.9,238.2z"/>
<path class="st0" d="M193.7,260.1h-20.5v-7.3h9.2c1.5,0,2.7-1.2,2.7-2.7l0,0v-1.3c0-1.5-1.2-2.7-2.7-2.7l0,0h-9.2v-6.1h19.7
	c1.9,0,3.4-1.5,3.4-3.4c0-1.9-1.5-3.4-3.4-3.4c0,0,0,0,0,0h-23.1c-1.9,0-3.4,1.5-3.4,3.4c0,0,0,0,0,0v26.9c0,1.9,1.5,3.4,3.4,3.4
	c0,0,0,0,0,0h23.8c1.9,0,3.4-1.5,3.4-3.4c0,0,0,0,0,0l0,0C197.1,261.6,195.6,260.1,193.7,260.1C193.7,260.1,193.7,260.1,193.7,260.1
	z"/>
<path class="st0" d="M234.1,233.2h-24.8c-1.9,0-3.4,1.5-3.4,3.4l0,0c0,1.9,1.5,3.4,3.4,3.4c0,0,0,0,0,0h9v23.5
	c-0.1,1.9,1.3,3.5,3.2,3.6c1.9,0.1,3.5-1.3,3.6-3.2c0-0.1,0-0.2,0-0.4v-23.5h9c1.9,0,3.4-1.5,3.4-3.4c0,0,0,0,0,0l0,0
	C237.4,234.7,235.9,233.2,234.1,233.2z"/>
<path class="st0" d="M437.1,233.2h-14.8c-1.9,0-3.4,1.5-3.4,3.3c0,0,0,0,0,0v26.9c0,1.9,1.5,3.4,3.4,3.4c0,0,0,0,0,0h0.2h0.2h14.4
	c10,0,17-6.2,17-17.4C454.1,236.9,444.8,233.2,437.1,233.2z M437.1,260.1h-11.5v-20.1h11.5c5.3,0,10.2,2,10.2,9.9
	C447.4,256.7,443,260.1,437.1,260.1z"/>
<path class="st0" d="M308.8,233.2H292c-1.9,0-3.4,1.5-3.4,3.3c0,0,0,0,0,0v26.8c0,1.9,1.4,3.4,3.3,3.5c1.9,0.1,3.4-1.4,3.5-3.3
	c0,0,0-0.1,0-0.1v-8.8h13.4c6.9,0,12.1-3.3,12.1-10.9C320.9,236,315.4,233.2,308.8,233.2z M308.8,247.9h-13.4v-8h13.4
	c2.4,0,5.4,0.3,5.4,3.9C314.2,247.6,311.4,247.9,308.8,247.9z"/>
<path class="st0" d="M151.3,233L151.3,233c-1.8,0-3.3,1.5-3.3,3.3c0,0,0,0,0,0l0.1,20.6l-17.8-22.2c-1.7-2.1-4.7-2.4-6.8-0.8
	c-1.1,0.9-1.8,2.3-1.8,3.8l0.1,26c0,1.8,1.5,3.3,3.3,3.3l0,0c1.8,0,3.3-1.5,3.3-3.3v-20.7l17.8,22.2c1.7,2.1,4.7,2.4,6.8,0.7
	c1.1-0.9,1.8-2.3,1.8-3.7l-0.1-25.9C154.7,234.5,153.2,233,151.3,233C151.4,233,151.3,233,151.3,233z"/>
<path class="st0" d="M403.9,233L403.9,233c-1.8,0-3.3,1.5-3.3,3.3c0,0,0,0,0,0l0.1,20.6l-17.7-22.2c-1.7-2.1-4.7-2.4-6.8-0.8
	c-1.1,0.9-1.8,2.3-1.8,3.8v26c0,1.8,1.5,3.3,3.3,3.3l0,0c1.8,0,3.3-1.5,3.3-3.3v-20.7l17.8,22.2c1.7,2.1,4.7,2.4,6.8,0.7
	c1.1-0.9,1.8-2.3,1.8-3.7l-0.1-25.9C407.2,234.5,405.7,233,403.9,233C403.9,233,403.9,233,403.9,233z"/>
<path class="st0" d="M259.8,245.9c-4.5,0-6.2-1-6.8-1.7c-0.5-0.5-0.7-1.3-0.6-2c0.1-0.9,0.2-3.4,7.6-3.4c2.9,0,5.7,0.7,8.2,2
	c1.7,0.8,3.7,0.1,4.5-1.5c0.8-1.6,0.2-3.5-1.3-4.4c-3.6-1.8-7.5-2.8-11.5-2.8c-12,0-14.1,6.1-14.3,9.8c-0.2,2.6,0.7,5.1,2.4,6.9
	c2.4,2.5,6.2,3.7,11.6,3.7c6.9,0,9.6,2,9.8,3.7c0.2,1,0,2.1-0.7,2.9c-1.2,1.3-3.9,2.1-7,2.1c-5.9,0-9.4-1.5-11-2.4
	c-1.6-0.8-3.7-0.2-4.5,1.5c-0.8,1.5-0.3,3.4,1.2,4.3c2.6,1.5,7.2,3.2,14.3,3.2c3,0,8.6-0.6,12-4.4c1.9-2.2,2.8-5.2,2.3-8.1
	C275.5,249.4,269.5,245.9,259.8,245.9z"/>
<path class="st0" d="M359.3,260.1h-20.5v-7.3h9.5c1.5,0,2.7-1.2,2.7-2.7l0,0v-1.3c0-1.5-1.2-2.7-2.7-2.7c0,0,0,0,0,0h-9.5v-6.1h19.7
	c1.9,0,3.4-1.5,3.4-3.4c0-1.9-1.5-3.4-3.4-3.4h-23.1c-1.9,0-3.4,1.5-3.4,3.4c0,0,0,0,0,0v26.9c0,1.9,1.5,3.4,3.4,3.4c0,0,0,0,0,0
	h23.8c1.9,0,3.4-1.5,3.4-3.4c0,0,0,0,0,0l0,0C362.7,261.6,361.2,260.1,359.3,260.1L359.3,260.1z"/>
<path class="st0" d="M453.5,265.5l0.1-0.1c0.1-0.1,0.1-0.1,0.2,0c0,0,0,0,0,0c0.2,0.2,0.5,0.3,0.8,0.3c0.4,0,0.6-0.2,0.6-0.5
	c0-0.8-1.8-0.6-1.8-1.8c0-0.6,0.5-1,1.1-1c0,0,0,0,0.1,0c0.3,0,0.6,0.1,0.9,0.3c0.1,0.1,0.1,0.2,0,0.2l-0.1,0.1
	c-0.1,0.1-0.1,0.1-0.2,0c-0.2-0.1-0.4-0.2-0.7-0.2c-0.4,0-0.6,0.2-0.6,0.5c0,0.8,1.8,0.6,1.8,1.7c0,0.6-0.5,1-1.1,1c0,0,0,0-0.1,0
	c-0.4,0-0.8-0.1-1.1-0.4C453.4,265.6,453.4,265.5,453.5,265.5C453.5,265.5,453.5,265.5,453.5,265.5z"/>
<path class="st0" d="M456.6,262.5c0-0.1,0.1-0.2,0.2-0.2c0,0,0,0,0,0h0.2c0.1,0,0.2,0.1,0.2,0.1l0.8,1.8c0.1,0.2,0.2,0.5,0.2,0.5
	l0,0c0,0,0.1-0.3,0.2-0.5l0.8-1.8c0-0.1,0.1-0.1,0.2-0.1h0.2c0.1,0,0.2,0.1,0.2,0.1c0,0,0,0,0,0l0.3,3.3c0,0.1,0,0.2-0.1,0.2
	c0,0,0,0,0,0h-0.2c-0.1,0-0.2,0-0.2-0.2l-0.2-2.1c0-0.2,0-0.5,0-0.5l0,0c0,0-0.1,0.3-0.2,0.5l-0.7,1.5c0,0.1-0.1,0.1-0.2,0.1h-0.2
	c-0.1,0-0.2,0-0.2-0.1l-0.7-1.5c-0.1-0.2-0.2-0.5-0.2-0.5l0,0c0,0,0,0.3,0,0.5l-0.2,2.1c0,0.1-0.1,0.2-0.1,0.2c0,0,0,0,0,0h-0.2
	c-0.1,0-0.2,0-0.2-0.1c0,0,0,0,0,0L456.6,262.5z"/>
</svg>
