<?xml version="1.0" encoding="utf-8"?>
<!-- Generator: Adobe Illustrator 26.2.1, SVG Export Plug-In . SVG Version: 6.00 Build 0)  -->
<svg version="1.1" id="Layer_1" xmlns="http://www.w3.org/2000/svg" xmlns:xlink="http://www.w3.org/1999/xlink" x="0px" y="0px"
	 viewBox="0 0 500 500" style="enable-background:new 0 0 500 500;" xml:space="preserve">
<style type="text/css">
	.st0{fill:#FEFEFE;}
</style>
<path class="st0" d="M249.9,221.6c0,0,0-0.1,0-0.2C249.9,221.5,249.9,221.6,249.9,221.6z"/>
<path class="st0" d="M289.9,332.9l-39.8-16.7l-39.5,18.2c-0.2,2-0.8,4-1.8,5.8c-0.2,0.3-0.3,0.6-0.5,0.8c4,1.8,8,3.4,12.2,4.7
	c0-0.3,0.1-0.7,0.2-1c0.5-2.5,1.7-4.8,3.4-6.7c1.6-1.7,3.3-2.3,4.9-2s2.8,1.7,3.5,3.9c0.7,2.4,0.7,5,0.1,7.5
	c-0.1,0.4-0.2,0.8-0.3,1.1c4.1,0.7,8.3,1.2,12.4,1.5c0-0.4,0-0.8-0.1-1.2c-0.1-2.5,0.5-5.1,1.7-7.3c1.2-2,2.6-3,4.3-3.1
	c1.7,0,3.1,1,4.3,2.9c1.3,2.2,1.9,4.7,1.9,7.2c0,0.5,0,0.9,0,1.3c4.2-0.3,8.3-0.8,12.4-1.7c-0.1-0.4-0.3-0.9-0.4-1.3
	c-0.7-2.4-0.8-5-0.2-7.5c0.6-2.3,1.8-3.6,3.4-4s3.2,0.2,4.9,1.8c1.8,1.8,3,4.1,3.6,6.6c0.1,0.5,0.2,0.9,0.3,1.4
	c4-1.3,7.9-2.9,11.7-4.7c-0.3-0.4-0.5-0.8-0.8-1.3C290.8,337.3,290.1,335.1,289.9,332.9z"/>
<path class="st0" d="M331.3,189.7c-0.2,0.2-0.5,0.4-0.8,0.7c-1.9,1.7-4.2,2.8-6.7,3.3c-2.3,0.4-4-0.1-5.1-1.4s-1.2-3-0.4-5.2
	c0.9-2.4,2.4-4.5,4.4-6c0.3-0.3,0.6-0.5,0.9-0.7c-2.8-3.1-5.8-5.9-9-8.6c-0.2,0.3-0.4,0.7-0.7,1c-1.4,2.1-3.4,3.8-5.7,4.8
	c-2.1,0.9-3.9,0.9-5.3-0.1s-1.9-2.6-1.7-5c0.3-2.5,1.3-4.9,2.8-6.9c0.3-0.4,0.5-0.7,0.8-1c-3.5-2.3-7.2-4.3-11-6.1
	c-0.1,0.4-0.3,0.8-0.5,1.3c-0.9,2.4-2.4,4.5-4.4,6.1c-1.8,1.4-3.6,1.8-5.2,1.2s-2.5-2.1-2.9-4.4c-0.3-2.5,0.1-5.1,1.1-7.4
	c0.2-0.4,0.4-0.9,0.6-1.3c-4-1.3-8-2.4-12.2-3.3c0,0.5-0.1,1-0.2,1.5c-0.3,2.2-1,4.4-2.3,6.3l21.7,37.3L332,205
	c1.4-1.5,3.1-2.7,5-3.5c0.3-0.1,0.6-0.3,0.9-0.4C336.2,197,333.8,193.3,331.3,189.7z"/>
<path class="st0" d="M232.9,157.8c-1.2-1.9-2-4-2.3-6.3c-0.1-0.5-0.1-1-0.2-1.5c-4.1,0.8-8.2,1.9-12.2,3.3c0.2,0.4,0.4,0.8,0.6,1.3
	c1,2.3,1.4,4.9,1.1,7.4c-0.4,2.3-1.3,3.8-2.9,4.4c-1.6,0.6-3.3,0.2-5.2-1.2c-2-1.6-3.5-3.7-4.4-6.1c-0.2-0.4-0.3-0.9-0.5-1.3
	c-3.8,1.8-7.4,3.9-10.9,6.2c0.3,0.3,0.5,0.7,0.8,1c1.6,2,2.5,4.4,2.8,6.9c0.2,2.3-0.4,4-1.7,5c-1.4,1-3.1,1-5.3,0.1
	c-2.3-1.1-4.3-2.7-5.7-4.8c-0.2-0.3-0.5-0.7-0.7-1c-3.2,2.7-6.2,5.6-9,8.6c0.3,0.2,0.6,0.5,0.9,0.7c2,1.6,3.5,3.7,4.4,6
	c0.8,2.2,0.6,3.9-0.4,5.2c-1.1,1.3-2.8,1.8-5.1,1.4c-2.5-0.5-4.8-1.6-6.7-3.3c-0.3-0.2-0.5-0.4-0.8-0.7c-2.6,3.5-4.9,7.3-6.9,11.1
	c0.3,0.1,0.6,0.3,0.9,0.4c1.9,0.8,3.6,2,5,3.5l42.5-9.2L232.9,157.8z"/>
<path class="st0" d="M199.6,247.5v-14.2c-1-1.2-2.1-2.2-3.3-3.2c-0.2,0,3.3-3.2,3.3-3.2v-13.4l-4-4.7h-16v4.7h1.8v33.3h-1.8v5.1h16
	C195.7,251.9,199.6,247.1,199.6,247.5z M192.7,246.8h-4v-14.3h4V246.8z M192.7,227.6h-4v-14.2h4V227.6z"/>
<polygon class="st0" points="215.1,246.8 213,246.8 213,213.5 215.1,213.5 215.1,208.8 203.9,208.8 203.9,213.5 205.7,213.5 
	205.7,246.8 203.9,246.8 203.9,251.9 215.1,251.9 "/>
<path class="st0" d="M236.6,247.5v-10.3h-5.8v9.6H227v-33.3h3.8v9.6h5.8v-14.3H232l-1.8,1.9c-0.6-0.7-1.2-1.3-1.9-1.9H224l-5.1,4.7
	v34c0,0,4.1,4.4,4.4,4.4h9.4C233,251.9,236.6,247.5,236.6,247.5z"/>
<path class="st0" d="M258.3,213.5h2v-4.7h-9.7v4.7h1.8c0,0-2.3,6.6-2.5,7.9c0,0.1,0,0.2,0,0.2s0-0.1,0-0.2c-0.3-1.2-2.7-7.9-2.7-7.9
	h1.8v-4.7h-11.2v4.7h1.8c0,0,5.6,15.9,5.6,16.1v17.2h-1.9v5.1h11.9v-5.1h-2.8v-16.6C252.3,230.2,258.2,213.5,258.3,213.5z"/>
<path class="st0" d="M272.6,210.7c-0.6-0.7-1.2-1.3-1.9-1.9h-4.3l-4.5,4.7v34c0,0,4,4.4,4.2,4.4h8.9c0.3,0,3.9-4.4,3.9-4.4v-10.3
	h-5.7v9.6h-3.8v-33.3h3.8v9.6h5.8v-14.3h-4.6L272.6,210.7z"/>
<polygon class="st0" points="281.4,246.8 281.4,251.9 297.4,251.9 300.8,248.2 300.8,237.2 295.1,237.2 295.1,246.8 291.1,246.8 
	291.1,213.5 293.3,213.5 293.3,208.8 281.4,208.8 281.4,213.5 283.7,213.5 283.7,246.8 "/>
<path class="st0" d="M318.5,208.8h-15.7v4.7h1.9v33.3h-1.9v5.1h15.7l2.9-3v-11.7h-5.5v9.6h-4.3v-14.3h2.7v2.2h3.7v-9.6h-3.7v2.5
	h-2.7v-14.1h4.3v9.6h5.6v-11.3C320.5,210.7,319.5,209.7,318.5,208.8z"/>
<polygon class="st0" points="261.6,306.9 261.6,298.9 263.2,298.9 263.2,297.4 258.4,297.4 258.4,298.9 260,298.9 260,306.9 "/>
<polygon class="st0" points="272.3,298.9 272.3,297.4 267.9,297.4 267.9,306.9 272.5,306.9 272.5,305.5 269.5,305.5 269.5,302.7 
	271.6,302.7 271.6,301.3 269.5,301.3 269.5,298.9 "/>
<polygon class="st0" points="279.6,300.5 279.6,300.5 278.6,297.4 277,297.4 278.7,302 276.9,306.9 278.5,306.9 279.6,303.5 
	279.6,303.5 280.7,306.9 282.3,306.9 280.5,302 282.1,297.4 280.5,297.4 "/>
<path class="st0" d="M286.4,306.9h1.6l0.3-2.1h1.8l0.3,2.1h1.6l-1.8-9.5h-2.1L286.4,306.9z M289.1,299.3L289.1,299.3l0.6,4.1h-1.3
	L289.1,299.3z"/>
<path class="st0" d="M297.9,299.7c0-0.6,0.3-0.9,0.8-0.9c0.4,0,0.8,0.2,0.8,1.1l1.6-0.2c0-1.3-1-2.3-2.2-2.3l0,0
	c-1.6,0-2.5,0.8-2.5,2.4c0,2.7,3.3,3.2,3.3,5.1c0,0.5-0.3,0.8-0.8,0.9c-0.1,0-0.1,0-0.2,0c-0.5,0-0.9-0.5-1-1.4l-1.5,0.2
	c-0.1,1.4,1,2.5,2.3,2.6h0.1c1.3,0.1,2.4-0.8,2.6-2c0-0.1,0-0.3,0-0.4C301.2,302.1,297.9,301.3,297.9,299.7z"/>
<path class="st0" d="M198.3,297.5l-1.7,9.5h1.6l0.3-2.1h1.8l0.3,2.1h1.6l-1.7-9.5H198.3z M198.7,303.4l0.6-4.1l0,0l0.6,4.1H198.7z"
	/>
<path class="st0" d="M211.8,304.5v-7.1h-1.7v7.2c0,0.7-0.3,1-0.9,1s-0.8-0.3-0.8-1v-7.2h-1.7v7.1c0,1.4,1.1,2.5,2.5,2.5
	S211.7,305.9,211.8,304.5L211.8,304.5z"/>
<path class="st0" d="M219.2,305.7c-0.5,0-0.9-0.5-1-1.4l-1.6,0.2c-0.1,1.4,1,2.5,2.3,2.6h0.1c1.3,0.1,2.4-0.8,2.6-2
	c0-0.1,0-0.3,0-0.4c0-2.6-3.3-3.4-3.3-5c0-0.6,0.3-0.9,0.8-0.9c0.4,0,0.8,0.2,0.9,1.1l1.5-0.2c0-1.3-1-2.3-2.3-2.3l0,0
	c-1.6,0-2.5,0.8-2.5,2.4c0,2.7,3.3,3.2,3.3,5.1c0,0.5-0.3,0.9-0.8,0.9C219.3,305.7,219.2,305.7,219.2,305.7z"/>
<polygon class="st0" points="229.2,306.9 229.2,298.9 230.8,298.9 230.8,297.4 226,297.5 226,298.9 227.6,298.9 227.6,306.9 "/>
<rect x="235.7" y="297.4" class="st0" width="1.6" height="9.5"/>
<polygon class="st0" points="246.3,302.9 244.4,297.4 242.8,297.4 242.8,306.9 244.3,306.9 244.3,301 244.4,301 246.4,306.9 
	247.8,306.9 247.8,297.4 246.4,297.4 246.4,302.9 "/>
<path class="st0" d="M341.1,253.3c2.3-1.1,4.9-1.5,7.4-1.3c0.3,0,0.6,0,0.9,0.1v-0.8c0-4.1-0.3-8.2-0.7-12.3c-0.3,0.1-0.7,0.2-1,0.2
	c-2,0.4-4.1,0.5-6.1,0l-18.7,21H176l0,0L157.9,240c-2,0.4-4,0.4-6-0.1c-0.2,0-0.4-0.1-0.6-0.1c-0.5,3.8-0.7,7.7-0.7,11.6v0.7
	c0.2,0,0.5-0.1,0.7-0.1c2.5-0.2,5.1,0.3,7.4,1.4c2.1,1.1,3.1,2.5,3.2,4.1c0.1,1.7-0.8,3.2-2.8,4.5c-2.2,1.4-4.6,2.1-7.2,2.2h-0.5
	c0.6,4.3,1.4,8.5,2.5,12.7l0.4-0.1c2.4-0.9,5-1,7.5-0.5c2.3,0.5,3.7,1.6,4.2,3.1c0.5,1.6,0,3.3-1.5,5.1c-1.7,1.9-3.9,3.2-6.4,4
	l-0.3,0.1c1.5,3.8,3.3,7.5,5.3,11l0.3-0.2c2.1-1.4,4.6-2.2,7.1-2.3c2.3,0,3.9,0.6,4.8,2s0.8,3.2-0.3,5.3c-1.2,2.2-3,4.1-5.2,5.4
	l-0.1,0.1c2.5,3.5,5.3,6.7,8.3,9.8l0.1-0.1c1.3-1.4,2.8-2.5,4.4-3.4l2.4-24.2l129.2-0.1l2.4,23.3c2.2,0.8,4.1,2.2,5.7,3.9l0.3,0.3
	c3-3.1,5.7-6.5,8.3-9.9c-0.1-0.1-0.3-0.2-0.4-0.3c-2.2-1.3-4-3.1-5.2-5.4c-1.1-2.1-1.2-3.8-0.3-5.2c0.9-1.4,2.5-2.2,4.9-2.1
	c2.5,0.1,5,0.9,7.1,2.3c0.2,0.1,0.3,0.2,0.5,0.3c2-3.6,3.7-7.3,5.3-11.1c-0.2,0-0.5-0.1-0.7-0.2c-2.4-0.7-4.7-2.1-6.4-4
	c-1.5-1.7-2-3.4-1.5-5s1.9-2.7,4.2-3.2c2.5-0.5,5.1-0.3,7.5,0.6c0.3,0.1,0.5,0.2,0.7,0.2c1-4,1.8-8.1,2.4-12.2c-0.3,0-0.6,0-0.9-0.1
	c-2.5-0.1-5-0.9-7.1-2.3c-1.9-1.3-2.8-2.8-2.7-4.5C337.9,255.8,339.1,254.4,341.1,253.3z M185.6,287.7c-3.7,0-5.8-2.9-5.9-6.3
	l3.7-0.5c0.2,2.3,1.1,3.5,2.3,3.5s2.3-0.7,2.3-2.1c0-4.5-8-5.8-8-12.3c0-3.6,2.2-5.7,6.1-5.7c3.2,0,5.1,2.3,5.5,5.5l-3.7,0.4
	c-0.2-2-1.2-2.5-2.1-2.5c-1.3,0-2,0.8-2,2.3c0,3.9,8,5.8,8,12C191.8,285.6,189.3,287.7,185.6,287.7z M200.4,278h-1.7v9.4h-3.9v-22.9
	h5.6c4.9,0,7.1,1.9,7.1,6.8C207.5,276.1,205.3,278,200.4,278L200.4,278z M222.7,281.8c0,3.2-1.9,5.9-6,5.9s-6-2.6-6-5.9V270
	c0-3.2,1.9-5.9,6-5.9s6,2.6,6,5.9V281.8z M235.2,287.4l-2.8-9.5c-0.7,0.1-1.4,0.1-2,0.1v9.4h-3.9v-22.9h5.5c4.4,0,6.6,1.9,6.6,6.8
	c0,3.7-1.4,5.2-2.7,5.8l3.3,10.4L235.2,287.4z M252.3,267.9h-3.8v19.5h-3.9v-19.5h-3.8v-3.4h11.5V267.9z M266.7,287.7
	c-3.7,0-5.7-2.9-5.9-6.3l3.7-0.5c0.1,2.3,1.1,3.5,2.3,3.5c1.1,0.1,2.1-0.6,2.3-1.7c0-0.1,0-0.2,0-0.4c0-4.5-8-5.8-8-12.3
	c0-3.6,2.2-5.7,6.1-5.7c3.2,0,5.1,2.3,5.5,5.5l-3.8,0.4c-0.1-2-1.2-2.5-2.1-2.5c-1.3,0-2,0.8-2,2.3c0,3.9,8,5.8,8,12
	C272.9,285.6,270.4,287.7,266.7,287.7L266.7,287.7z M287.9,287.4H284v-10.1h-4.1v10.1h-4v-22.9h4v9.3h4.1v-9.3h3.9V287.4z
	 M303.7,281.8c0,3.2-1.9,5.9-6,5.9s-6-2.6-6-5.9V270c0-3.2,1.9-5.9,6-5.9s6,2.6,6,5.9V281.8z M313.2,278h-1.7v9.4h-3.9v-22.9h5.6
	c4.9,0,7.1,1.9,7.1,6.8C320.3,276.1,318.1,278,313.2,278L313.2,278z"/>
<path class="st0" d="M313,267.8c2.6,0,3.4,0.8,3.4,3.5s-0.8,3.5-3.4,3.5h-1.5v-7.1L313,267.8z"/>
<path class="st0" d="M299.9,270.2v11.6c0,1.7-0.5,2.5-2.1,2.5s-2.1-0.8-2.1-2.5v-11.6c0-1.7,0.5-2.5,2.1-2.5
	C299.3,267.7,299.9,268.5,299.9,270.2z"/>
<path class="st0" d="M231.8,267.8c2.1,0,2.9,0.8,2.9,3.5s-0.8,3.5-2.9,3.5h-1.4v-7.1L231.8,267.8z"/>
<path class="st0" d="M218.8,270.2v11.6c0,1.7-0.5,2.5-2.1,2.5s-2.1-0.8-2.1-2.5v-11.6c0-1.7,0.5-2.5,2.1-2.5
	S218.8,268.5,218.8,270.2z"/>
<path class="st0" d="M200.3,267.8c2.6,0,3.4,0.8,3.4,3.5s-0.8,3.5-3.4,3.5h-1.5v-7.1L200.3,267.8z"/>
<polygon class="st0" points="241.2,199.4 250.1,195.5 259,199.4 258,189.7 264.5,182.5 255,180.4 250.1,172 245.2,180.4 
	235.7,182.5 242.2,189.7 "/>
</svg>
