<?xml version="1.0" encoding="utf-8"?>
<!-- Generator: Adobe Illustrator 26.2.1, SVG Export Plug-In . SVG Version: 6.00 Build 0)  -->
<svg version="1.1" id="Layer_1" xmlns="http://www.w3.org/2000/svg" xmlns:xlink="http://www.w3.org/1999/xlink" x="0px" y="0px"
	 viewBox="0 0 500 500" style="enable-background:new 0 0 500 500;" xml:space="preserve">
<style type="text/css">
	.st0{fill-rule:evenodd;clip-rule:evenodd;fill:#FEFEFE;}
</style>
<path class="st0" d="M281.9,282.5c-15.4,11.4-37.8,17.4-57,17.4c-25.7,0.1-50.5-9.3-69.6-26.5c-1.4-1.3-0.2-3.1,1.6-2.1
	c21.2,12.1,45.2,18.5,69.7,18.5c18.3-0.1,36.3-3.8,53.1-10.9C282.3,277.8,284.5,280.7,281.9,282.5z M288.3,275.2
	c-2-2.5-13-1.2-18-0.6c-1.5,0.2-1.8-1.1-0.4-2.1c8.8-6.2,23.3-4.4,25-2.3s-0.4,16.6-8.7,23.5c-1.3,1.1-2.5,0.5-1.9-0.9
	C286.2,288.2,290.3,277.8,288.3,275.2L288.3,275.2z M270.7,228.7v-6c0-0.8,0.6-1.5,1.4-1.5h0.1h27c0.8,0,1.5,0.6,1.6,1.5l0,0v5.2
	c0,0.9-0.7,2-2,3.8l-14,20c5.2-0.1,10.7,0.7,15.4,3.3c0.9,0.5,1.4,1.4,1.4,2.4v6.4c0,0.9-1,1.9-2,1.4c-9-4.6-19.6-4.6-28.5,0.1
	c-0.9,0.5-1.9-0.5-1.9-1.4v-6.1c-0.1-1.4,0.3-2.9,1-4.1l16.2-23.2h-14.1C271.4,230.3,270.7,229.7,270.7,228.7
	C270.7,228.8,270.7,228.8,270.7,228.7L270.7,228.7z M172.3,266.4h-8.2c-0.8,0-1.4-0.6-1.5-1.4v-42.1c0-0.9,0.7-1.5,1.6-1.5l0,0h7.6
	c0.8,0,1.4,0.6,1.5,1.4v5.5h0.2c2-5.3,5.7-7.8,10.8-7.8s8.4,2.5,10.7,7.8c2.4-6.3,9.4-9.4,15.6-7c2,0.8,3.8,2.1,5.2,3.8
	c2.6,3.5,2.1,8.7,2.1,13.2v26.6c0,0.9-0.7,1.5-1.6,1.5l0,0H208c-0.8,0-1.5-0.7-1.5-1.5v-22.4c0-1.8,0.2-6.2-0.2-7.9
	c-0.6-2.8-2.5-3.6-4.8-3.6c-2.2,0.1-4.1,1.4-4.9,3.5c-0.9,2.1-0.8,5.7-0.8,8.1v22.3c0,0.9-0.7,1.5-1.6,1.5l0,0H186
	c-0.8,0-1.5-0.7-1.5-1.5v-22.3c0-4.7,0.8-11.6-5-11.6s-5.7,6.7-5.7,11.6v22.3C173.9,265.7,173.2,266.4,172.3,266.4L172.3,266.4
	L172.3,266.4z M324,220.4c12.2,0,18.8,10.5,18.8,23.8c0,12.9-7.3,23.1-18.8,23.1c-12,0-18.5-10.5-18.5-23.5
	C305.5,230.7,312.1,220.4,324,220.4L324,220.4z M324.1,229c-6.1,0-6.4,8.2-6.4,13.4c0,5.1-0.1,16.1,6.4,16.1c6.4,0,6.7-8.8,6.7-14.3
	c0-3.5-0.2-7.8-1.2-11.2C328.5,230.2,326.7,229.1,324.1,229L324.1,229z M358.6,266.4h-8.2c-0.8,0-1.5-0.7-1.5-1.5v-42.1
	c0.1-0.8,0.8-1.4,1.6-1.4h7.6c0.7,0,1.3,0.5,1.5,1.2v6.4h0.2c2.3-5.8,5.5-8.5,11.2-8.5c3.7,0,7.3,1.3,9.6,5c2.2,3.4,2.2,9,2.2,13.1
	V265c-0.1,0.8-0.8,1.3-1.6,1.3H373c-0.7,0-1.4-0.6-1.5-1.3v-22.9c0-4.6,0.5-11.4-5.1-11.4c-2.1,0.1-4,1.4-4.8,3.4
	c-1,2.5-1.5,5.2-1.3,8v22.7C360.1,265.7,359.4,266.4,358.6,266.4L358.6,266.4z M249.2,246.2c0,3.2,0.1,5.9-1.5,8.7
	c-1.3,2.3-3.4,3.7-5.7,3.7c-3.1,0-5-2.4-5-6c0-7,6.3-8.3,12.2-8.3V246.2z M257.5,266.3c-0.6,0.4-1.3,0.5-1.9,0.2
	c-2.7-2.3-3.2-3.3-4.7-5.5c-4.5,4.6-7.7,6-13.5,6c-6.9,0-12.3-4.3-12.3-12.8c-0.2-5.9,3.3-11.2,8.8-13.4c4.4-2,10.7-2.3,15.4-2.8
	v-1.1c0-2,0.2-4.3-1-6c-1.1-1.4-2.8-2.2-4.6-2.1c-3.1,0-5.9,1.6-6.6,4.9c-0.1,0.8-0.7,1.4-1.4,1.5l-8-0.9c-0.8-0.1-1.3-0.8-1.2-1.6
	c0-0.1,0-0.1,0-0.2c1.8-9.7,10.5-12.6,18.3-12.6c4,0,9.2,1.1,12.4,4.1c4,3.7,3.6,8.7,3.6,14.1V251c0,3.8,1.6,5.5,3.1,7.6
	c0.6,0.6,0.6,1.6,0,2.2C262.1,262.2,259.2,264.8,257.5,266.3L257.5,266.3L257.5,266.3z M141.6,246.2c0,3.2,0.1,5.9-1.5,8.7
	c-1.3,2.3-3.4,3.7-5.7,3.7c-3.1,0-5-2.4-5-6c0-7,6.3-8.3,12.2-8.3V246.2z M149.8,266.3c-0.6,0.4-1.3,0.5-1.9,0.2
	c-2.7-2.3-3.2-3.3-4.7-5.5c-4.5,4.6-7.7,6-13.5,6c-6.9,0-12.3-4.3-12.3-12.8c-0.2-5.9,3.3-11.2,8.8-13.4c4.4-2,10.7-2.3,15.4-2.8
	v-1.1c0-2,0.2-4.3-1-6c-1.1-1.4-2.8-2.2-4.6-2.1c-3.1,0-5.9,1.6-6.6,4.9c-0.1,0.8-0.7,1.4-1.4,1.5l-8-0.9c-0.8-0.1-1.4-0.8-1.3-1.6
	c0-0.1,0-0.1,0-0.2c1.8-9.7,10.5-12.6,18.4-12.6c4,0,9.2,1.1,12.4,4.1c4,3.7,3.6,8.7,3.6,14.1V251c0,3.8,1.6,5.5,3.1,7.6
	c0.5,0.8,0.6,1.6,0,2.2C154.5,262.2,151.5,264.8,149.8,266.3L149.8,266.3L149.8,266.3z"/>
</svg>
