<?xml version="1.0" encoding="utf-8"?>
<!-- Generator: Adobe Illustrator 26.2.1, SVG Export Plug-In . SVG Version: 6.00 Build 0)  -->
<svg version="1.1" id="Layer_1" xmlns="http://www.w3.org/2000/svg" xmlns:xlink="http://www.w3.org/1999/xlink" x="0px" y="0px"
	 viewBox="0 0 500 500" style="enable-background:new 0 0 500 500;" xml:space="preserve">
<style type="text/css">
	.st0{fill:#FEFEFE;}
</style>
<path class="st0" d="M374,251.8c3.1,1.4,5.1,4.3,5.3,7.7c0,0.6,0.4,1.2,1,1.5c3.4,1.9,5.6,5.4,6,9.3h9.8c-0.9-2.6-6.1-6.3-4.3-13.5
	c1.6,0.3,4.2,0.4,6.9,0.6c2,8.2,6.5,7.1,8.1,12.9h9.8c-2.4-3.7-3-8.3-1.6-12.4c1.8,6.4,7.2,7.4,8.5,12.5h9.9
	c-4.2-5.7-7.1-12.2-6.6-16.4c0.9-0.7,1.7-1.4,2.5-2.2c0.3,2,1,3.8,2.2,5.4h3.7c0.2-2,1-3.9,2.2-5.6c1.3,0.6,4.1,1.3,5.7-1
	c0.7-0.9,6.2-8.6,7.6-10.7c10.9-15.8-1.5-25.9-15.5-24.7c-2.4-5.3-9.4-14.9-25.1-14.9c-14.3,0.2-23.5,7.3-30.9,10.2
	c0,0-11.8,4.9-17.4,5.7c-15.4,2.3-19.8,9.4-20.7,17c-0.3,2.6,0.7,6,1.6,8.1c-5.1,1.6-4.6,5.2-8.6,5.3c-0.4,0-0.5,0.3-0.4,0.6
	c0.8,2.2,4.3,4.2,7.8,3.7c7.3-1.5,6.9-8.6,6.9-8.6l0,0l0,0c0-3.7-4.4-8.1,0.8-14.8c0.7-0.9,1.6-1.7,2.5-2.3c-2.5,5-2,10.9,1.4,15.4
	c3.3,4.8,0.9,9-2,9.9c-0.7,0.2-1,0.9-0.8,1.6c2.5,5.6-2.4,11.8,1,18.4h8.5C353.8,257.8,368.3,258.2,374,251.8 M374.6,240.5
	c-7,9.4-12.8,8.9-12.8,8.9c2.8-9.8-3.7-13-3.7-18.1c0-10.4,9.7-7.3,22.1-13.2c0.3,8.1,4.3,16.2,8.7,21.5c3,3.8,6.8,6.9,11.2,8.9
	C391.2,248.3,381.4,246.1,374.6,240.5 M442.1,228.7c-0.1,1.7,1.1,2.4,0.7,4.5c-0.4,1.4-1.6,2.5-3.1,2.5c-1.9,0.2-3.6-1.1-3.9-2.9
	c-0.8-3,0.9-7.1,5.4-8.7c1.7-0.5,3.5-0.4,5.2,0.1C446.4,224.3,442.3,225.5,442.1,228.7"/>
<path class="st0" d="M97.6,247.4h7.2v4.2h0.1c1.6-3.3,4.7-4.7,8.3-4.7c3.2,0,5.9,1.4,7.1,4.4c1.7-2.8,4.8-4.5,8.1-4.4
	c6.6,0,8,3.7,8,9.9v13.4h-7.8V258c0-2.6-0.9-4.5-3.2-4.5c-2.8,0-4.5,2.2-4.5,7.1v9.6h-7.9V258c0-2.6-0.9-4.5-3.2-4.5
	c-2.8,0-4.5,2.2-4.5,7.1v9.6h-7.9V247.4z"/>
<path class="st0" d="M146.8,256.7c0.2-2.6,1.5-4.8,4.4-4.8c3.2,0,4.4,2.1,4.4,4.8H146.8z M162.7,261.1v-1.5
	c0-6.8-3.1-12.8-11.5-12.8c-7.1,0-12.2,4.4-12.2,11.9s5.7,12,13.3,12c2.9,0,5.7-0.4,8.4-1.5v-5.6c-2.2,1.2-4.6,1.8-7,1.8
	c-3.9,0-6.3-1.2-6.7-4.4H162.7z"/>
<polygon class="st0" points="165.2,239.7 173.4,239.7 173.4,264.2 182.6,264.2 182.6,270.2 165.2,270.2 "/>
<path class="st0" d="M189.1,256.7c0.2-2.6,1.5-4.8,4.4-4.8c3.2,0,4.4,2.1,4.4,4.8H189.1z M204.9,261.1v-1.5
	c0-6.8-3.1-12.8-11.5-12.8c-7.1,0-12.2,4.4-12.2,11.9s5.7,12,13.3,12c2.9,0,5.7-0.4,8.4-1.5v-5.6c-2.2,1.2-4.6,1.8-7,1.8
	c-3.9,0-6.3-1.2-6.7-4.4H204.9z"/>
<path class="st0" d="M207.2,247.4h7.2v4.2h0.1c1.6-3.3,4.7-4.7,8.3-4.7c6.2,0,8.7,4.4,8.7,9.1v14.2h-7.9v-11c0-4.3-1.5-5.7-3.6-5.7
	c-3.2,0-4.9,2.2-4.9,7.1v9.6h-7.9V247.4z"/>
<path class="st0" d="M242.2,258.6c0-3,1.7-5.6,4.8-5.6c2.9,0,4.8,2.5,4.8,6s-2.2,5.8-4.8,5.8C243.9,264.7,242.2,262.2,242.2,258.6
	 M259.6,239.6h-7.9v10.8h-0.1c-2-2.6-4.7-3.5-7.8-3.5c-6.3,0-9.8,5.9-9.8,11.5c0,6.7,3.6,12.4,10.4,12.4c3.6,0,6.8-2.1,7.8-4.6h0.1
	v4.1h7.3V239.6z"/>
<path class="st0" d="M264.2,247.4h7.9v22.8h-7.9V247.4z M272.1,244.7h-7.9v-5.1h7.9V244.7z"/>
<path class="st0" d="M276.6,247.4h7.2v4.2h0.1c1.6-3.3,4.7-4.7,8.3-4.7c6.2,0,8.7,4.4,8.7,9.1v14.2H293v-11c0-4.3-1.5-5.7-3.6-5.7
	c-3.2,0-4.9,2.2-4.9,7.1v9.6h-7.9L276.6,247.4z"/>
<path class="st0" d="M311.5,258.6c0-3.1,1.5-5.7,4.5-5.7c3.5,0,5,2.9,5,5.4c0,3.5-2.2,5.9-5,5.9
	C313.6,264.2,311.5,262.2,311.5,258.6 M328.6,247.4h-7.1v4.1h-0.1c-1.5-2.8-4.5-4.6-7.8-4.6c-7.1,0-10.3,5.1-10.3,11.9
	s3.9,11.5,10.1,11.5c3.1,0.1,6-1.4,7.7-3.9h0.1v1.2c0,4.5-2.5,6.6-7,6.6c-2.7,0-5.3-0.6-7.7-1.9l-0.4,6.2c2.8,1,5.7,1.4,8.7,1.4
	c9.2,0,13.7-3,13.7-12.4L328.6,247.4z"/>
<path class="st0" d="M83.2,247.1c-0.6-0.1-1.2-0.1-1.9-0.1c-3.4,0-5.4,1.8-6.7,4.7h-0.1v-4.2h-7.2v22.8h7.9v-9.6
	c0-4.5,2.1-7.1,5.7-7.1c0.8,0,1.5,0,2.2,0.2V247.1z"/>
<path class="st0" d="M52.7,245.4H54c2.7,0,4.8,1,4.8,4.1s-2.1,4.2-4.8,4.2h-1.3V245.4z M45,270.2h7.7v-10.7H55
	c7.2,0,11.5-3.7,11.5-9.8c0-6.9-4.2-10-13-10H45V270.2z"/>
<path class="st0" d="M85.2,247.4h7.9v22.8h-7.9V247.4z M93.1,244.8h-7.9v-5.1h7.9V244.8z"/>
</svg>
