<?xml version="1.0" encoding="utf-8"?>
<!-- Generator: Adobe Illustrator 26.2.1, SVG Export Plug-In . SVG Version: 6.00 Build 0)  -->
<svg version="1.1" id="Layer_1" xmlns="http://www.w3.org/2000/svg" xmlns:xlink="http://www.w3.org/1999/xlink" x="0px" y="0px"
	 viewBox="0 0 500 500" style="enable-background:new 0 0 500 500;" xml:space="preserve">
<style type="text/css">
	.st0{fill:#FEFEFE;}
</style>
<path class="st0" d="M160,248.6c5-0.2,9.7,2.1,12.7,6.1v-48.5c0-0.6-0.5-1.2-1.2-1.2c-0.2,0-0.5,0.1-0.7,0.2l-60,43.9h1.6
	c6.2,0,9.4,4,9.4,8.3c0.1,2.9-1.5,5.7-4.2,7c-0.3,0.1-0.4,0.4-0.3,0.7c0.1,0.1,0.1,0.2,0.3,0.3c3,1.3,4.8,4.3,4.8,7.6
	c0,5-3.2,8.9-9.5,8.9H95.8c-0.4,0-0.6-0.3-0.7-0.6v-20.6l-44.7,32.6c-0.5,0.3-0.6,0.9-0.3,1.4c0.2,0.3,0.5,0.5,0.9,0.5h120.7
	c0.6,0,1-0.4,1-1v-16.5c-3.4,3.2-8,5-12.7,4.9c-9.6,0-17.5-6.6-17.5-16.9S150.4,248.6,160,248.6z M136.1,281.2
	c0,0.3-0.3,0.6-0.6,0.6h-5.8c-0.3,0-0.6-0.3-0.6-0.6c0,0,0,0,0,0v-31.5c0-0.3,0.3-0.6,0.6-0.6c0,0,0,0,0,0h5.8
	c0.3,0,0.6,0.3,0.6,0.6V281.2z M102.1,261.4v-5.9c0-0.2,0.1-0.3,0.3-0.3l0,0h8.4c2.3,0,3.8,1.4,3.8,3.4s-1.5,3.4-3.8,3.4h-8.1
	C102.4,262.1,102.1,261.8,102.1,261.4L102.1,261.4z M102.1,275v-6.2c0-0.4,0.3-0.6,0.7-0.6h8.4c2.7,0,4.2,1.7,4.2,3.7
	c0,2.4-1.6,3.7-4.2,3.7h-8.4C102.4,275.7,102.1,275.4,102.1,275C102.1,275,102.1,275,102.1,275L102.1,275z M168.3,258.7l4.4-2.4v7.4
	H159c-0.4,0-0.7,0.3-0.7,0.7c0,0,0,0,0,0v4.7c0,0.4,0.3,0.7,0.7,0.7c0,0,0,0,0,0h7.4c0.3,0,0.5,0.2,0.5,0.5v3.1
	c0,0.2-0.1,0.3-0.2,0.4c-1.9,1.5-4.3,2.3-6.8,2.3c-6,0-10.3-4.5-10.3-10.7s4.3-10.7,10.3-10.7c2.9,0,5.7,1.4,7.4,3.8
	C167.6,258.8,168,258.9,168.3,258.7L168.3,258.7z M177.8,265.4c0-10.1,7.2-16.9,16.6-16.9c5-0.1,9.8,2.5,12.4,6.8
	c0.2,0.3,0.1,0.6-0.2,0.8c0,0,0,0,0,0l-3.7,2c-0.3,0.1-0.6,0-0.7-0.2c-1.7-2.6-4.6-4.3-7.7-4.3c-6.3,0-10.9,4.9-10.9,11.8
	s4.6,11.8,10.9,11.8c3.1-0.1,6-1.7,7.7-4.3c0.1-0.2,0.4-0.3,0.7-0.2l3.8,1.9c0.3,0.1,0.4,0.5,0.2,0.7c0,0,0,0,0,0.1
	c-2.6,4.3-7.3,6.9-12.4,6.9C185.1,282.4,177.8,275.5,177.8,265.4L177.8,265.4z M210,265.4c0-8.1,4.6-14.5,11.7-16.3
	c11.9-3.2,22.8,8,20.2,20.4c-1.4,7.6-8.1,13-15.8,12.9C216.7,282.4,210,275.2,210,265.4L210,265.4z M236.7,265.4
	c0-6.8-4.1-11.8-10.5-11.8s-10.5,5-10.5,11.8s4.1,11.8,10.5,11.8S236.7,272.2,236.7,265.4L236.7,265.4z M276.3,281.4v-24.9l-10,25.1
	c0,0.1-0.1,0.2-0.3,0.2H264c-0.1,0-0.2-0.1-0.2-0.2l-10-25.1v24.9c0,0.2-0.2,0.4-0.4,0.4h-5c-0.2,0-0.4-0.2-0.4-0.4v-31.9
	c0-0.2,0.2-0.4,0.4-0.4h7.2c0.3,0,0.6,0.2,0.7,0.5l8.8,22.4l8.7-22.4c0.1-0.3,0.4-0.5,0.7-0.5h7.2c0.2,0,0.4,0.2,0.4,0.4
	c0,0,0,0,0,0v31.9c0,0.2-0.2,0.4-0.4,0.4h-5C276.5,281.8,276.3,281.6,276.3,281.4L276.3,281.4z M332.9,281.2v-31.5
	c0-0.3,0.2-0.6,0.6-0.6c0,0,0,0,0,0h21.3c0.3,0,0.6,0.2,0.6,0.6c0,0,0,0,0,0v3.9c0,0.3-0.3,0.6-0.6,0.6h-15.5
	c-0.3,0-0.6,0.2-0.6,0.6c0,0,0,0,0,0v7.3c0,0.3,0.2,0.6,0.6,0.6c0,0,0,0,0,0h15.2c0.3,0,0.6,0.3,0.6,0.6v3.8c0,0.3-0.3,0.6-0.6,0.6
	h-15.2c-0.3,0-0.6,0.2-0.6,0.6c0,0,0,0,0,0v7.9c0,0.3,0.3,0.6,0.6,0.6h15.5c0.3,0,0.6,0.2,0.6,0.6c0,0,0,0,0,0v3.9
	c0,0.3-0.3,0.6-0.6,0.6c0,0,0,0,0,0h-21.3C333.2,281.7,333,281.5,332.9,281.2L332.9,281.2z M382.1,281.5l-6.9-11.6
	c-0.1-0.2-0.3-0.3-0.5-0.3h-4.8c-0.3,0-0.6,0.2-0.6,0.6c0,0,0,0,0,0v11c0,0.3-0.3,0.6-0.6,0.6h-4.6c-0.3,0-0.6-0.3-0.6-0.6v-31.5
	c0-0.3,0.2-0.6,0.6-0.6c0,0,0,0,0,0H378c6.5,0,10.8,4.2,10.8,10.2c0,5.4-3.3,8.5-7,9.4c-0.3,0.1-0.5,0.4-0.5,0.7
	c0,0.1,0,0.1,0.1,0.2l7,11.2c0.2,0.3,0.1,0.6-0.2,0.8c-0.1,0.1-0.2,0.1-0.3,0.1h-5.3C382.4,281.8,382.2,281.7,382.1,281.5
	L382.1,281.5z M382.8,259.3c0-3.1-2.4-5.1-5.6-5.1h-7.3c-0.3,0-0.6,0.2-0.6,0.6c0,0,0,0,0,0v9.2c0,0.3,0.2,0.6,0.6,0.6c0,0,0,0,0,0
	h7.3C380.5,264.5,382.8,262.5,382.8,259.3L382.8,259.3z M427.5,281.2v-31.5c0-0.3,0.3-0.6,0.6-0.6h21.3c0.3,0,0.6,0.3,0.6,0.6v3.9
	c0,0.3-0.3,0.6-0.6,0.6h-15.5c-0.3,0-0.6,0.3-0.6,0.6c0,0,0,0,0,0v7.3c0,0.3,0.2,0.6,0.6,0.6c0,0,0,0,0,0h15.2
	c0.3,0,0.6,0.3,0.6,0.6v3.8c0,0.3-0.3,0.6-0.6,0.6h-15.2c-0.3,0-0.6,0.3-0.6,0.6c0,0,0,0,0,0v8c0,0.3,0.2,0.6,0.6,0.6c0,0,0,0,0,0
	h15.5c0.3,0,0.6,0.3,0.6,0.6v3.9c0,0.3-0.3,0.6-0.6,0.6h-21.3C427.8,281.8,427.5,281.5,427.5,281.2
	C427.5,281.2,427.5,281.2,427.5,281.2L427.5,281.2z M392.9,265.3c0-10.1,7.2-16.9,16.6-16.9c5-0.1,9.8,2.5,12.4,6.8
	c0.2,0.3,0.1,0.6-0.2,0.8c0,0,0,0,0,0l-3.7,2c-0.2,0.1-0.6,0-0.7-0.2c-1.7-2.6-4.6-4.3-7.7-4.3c-6.2,0-10.9,4.9-10.9,11.8
	s4.6,11.8,10.9,11.8c3.1-0.1,6-1.7,7.7-4.3c0.1-0.2,0.4-0.3,0.7-0.2l3.8,2c0.3,0.1,0.4,0.4,0.3,0.7c0,0,0,0,0,0.1
	c-2.6,4.3-7.3,7-12.4,6.9C400.2,282.2,392.9,275.4,392.9,265.3L392.9,265.3z M318.8,281.4v-24.9l-10,25.1c0,0.1-0.1,0.2-0.2,0.2h-2
	c-0.1,0-0.2-0.1-0.3-0.2l-10-25.1v24.9c0,0.2-0.2,0.4-0.4,0.4h-5c-0.2,0-0.4-0.2-0.4-0.4v-31.9c0-0.2,0.2-0.4,0.4-0.4c0,0,0,0,0,0
	h7.2c0.3,0,0.6,0.2,0.7,0.5l8.8,22.4l8.7-22.4c0.1-0.3,0.4-0.5,0.7-0.5h7.2c0.2,0,0.4,0.2,0.4,0.4v0v31.9c0,0.2-0.2,0.4-0.4,0.4h-5
	C318.9,281.8,318.8,281.6,318.8,281.4L318.8,281.4z"/>
</svg>
