<?xml version="1.0" encoding="utf-8"?>
<!-- Generator: Adobe Illustrator 26.2.1, SVG Export Plug-In . SVG Version: 6.00 Build 0)  -->
<svg version="1.1" id="Layer_1" xmlns="http://www.w3.org/2000/svg" xmlns:xlink="http://www.w3.org/1999/xlink" x="0px" y="0px"
	 viewBox="0 0 500 500" style="enable-background:new 0 0 500 500;" xml:space="preserve">
<style type="text/css">
	.st0{fill:#FEFEFE;}
</style>
<path class="st0" d="M91.2,263.7l2.8,8.7c-3.6,2.8-8,4.3-12.5,4.3c-12.5,0-21.5-8.8-21.5-21s9.2-21.2,21.4-21.2
	c4.6,0,9.1,1.5,12.7,4.3l-3,8.9c-2.5-2.4-5.9-3.8-9.4-3.9c-6.8,0-11.1,5.3-11.1,11.8c0,6.8,4.8,11.7,11.5,11.7
	C85.4,267.2,88.6,265.9,91.2,263.7z"/>
<path class="st0" d="M97.1,220.1h10.6v55.6H97.1V220.1z"/>
<path class="st0" d="M130.4,234.5c12.5,0,19.5,8.3,19.5,21.5c0,0.8,0,1.5-0.1,2.3h-28.3c0.2,5.4,4.5,9.2,10.5,9.2
	c3.9,0.1,7.5-1.8,9.8-4.9l7,5.3c-1.5,2.9-6.9,8.9-16.9,8.9c-12.9,0-21.2-8.9-21.2-21S119,234.5,130.4,234.5z M139.2,251.3
	c0-4.5-3.7-8.2-8.3-8.2c-0.1,0-0.2,0-0.3,0c-5,0-8.2,3.5-8.7,8.1H139.2z"/>
<path class="st0" d="M167.1,249.9c3-0.1,6.1,0.7,8.7,2.2v-2.6c0-3.5-2.6-5.9-7.3-5.9c-3.7,0.1-7.4,1.1-10.7,2.9l-4-7.2
	c4.7-3,10.2-4.7,15.9-4.8c12.9,0,16.8,6.8,16.8,15.8v25.5H177l-0.7-2.6c-2.1,2.2-5.1,3.6-9.8,3.6c-8.2,0-15.1-5-15.1-13.5
	C151.4,255.3,157.7,249.9,167.1,249.9z M169.1,268.5c4,0,6.9-2.1,6.9-5.5c0-3.5-2.9-5.6-7-5.6s-6.9,2.3-6.9,5.6
	S165.1,268.5,169.1,268.5z"/>
<path class="st0" d="M212.1,245.2c-7.9,0-10.9,4.9-10.9,12.9v17.5h-10.6v-40.2H201v5.9c2-4.3,6.3-7,11.1-6.9L212.1,245.2z"/>
<path class="st0" d="M318.4,245.2c-7.9,0-10.9,4.9-10.9,12.9v17.5H297v-40.2h10.4v5.9c2-4.3,6.3-7,11.1-6.9L318.4,245.2z"/>
<path class="st0" d="M342.8,245.2c-7.9,0-10.9,4.9-10.9,12.9v17.5h-10.6v-40.2h10.4v5.9c2-4.3,6.3-7,11.1-6.9V245.2z"/>
<path class="st0" d="M362.5,234.5c12.5,0,19.5,8.3,19.5,21.5c0,0.8,0,1.5-0.1,2.3h-28.3c0.2,5.4,4.5,9.2,10.5,9.2
	c3.9,0.1,7.5-1.8,9.8-4.9l7,5.3c-1.5,2.9-6.9,8.9-16.9,8.9c-12.9,0-21.2-8.9-21.2-21S351,234.5,362.5,234.5z M371.2,251.3
	c0-4.5-3.7-8.2-8.3-8.2c-0.1,0-0.2,0-0.3,0c-5,0-8.2,3.5-8.7,8.1H371.2z"/>
<path class="st0" d="M415.9,263.7l2.9,8.7c-3.6,2.8-8,4.3-12.5,4.3c-12.5,0-21.5-8.8-21.5-21s9.2-21.2,21.4-21.2
	c4.6,0,9.1,1.5,12.7,4.3l-3,8.9c-2.5-2.4-5.9-3.8-9.4-3.9c-6.8,0-11.1,5.3-11.1,11.8c0,6.8,4.8,11.7,11.5,11.7
	C410.2,267.2,413.4,265.9,415.9,263.7z"/>
<path class="st0" d="M421.7,227h10.5v8.5h7.5v8.6h-7.5v15.5c0,6,1.9,7.2,5.9,7.2c0.6,0,1.3,0,1.9-0.1v9.1c-1.5,0.3-3,0.4-4.5,0.4
	c-9.6,0-13.9-5.4-13.9-16.3v-15.8l0.1-8.6V227z"/>
<path class="st0" d="M242,264.6c-2.3,1.7-5,2.6-7.8,2.7c-6.7,0-11.5-4.9-11.5-11.7c0-6.5,4.2-11.8,11.1-11.8c2.9,0,5.8,1,8.1,2.8
	c0.9-2.9,2.3-5.6,4.1-8c-3.6-2.8-8-4.2-12.6-4.2c-12.2,0-21.4,9-21.4,21.2s8.9,21,21.5,21c4.5,0,8.9-1.5,12.5-4.3
	C244.3,270,243,267.4,242,264.6z"/>
<path class="st0" d="M269.5,230.6c-13.6,0-24.7,11-24.7,24.6c0,13.6,11,24.7,24.6,24.7c13.6,0,24.7-11,24.7-24.7c0,0,0,0,0,0
	C294.2,241.7,283.2,230.6,269.5,230.6C269.5,230.6,269.5,230.6,269.5,230.6z M269.3,272.5c-15.4,0-15.4-14.8-15.4-14.8h31.4
	C285.3,257.6,284.6,272.5,269.3,272.5z"/>
</svg>
