<?xml version="1.0" encoding="utf-8"?>
<!-- Generator: Adobe Illustrator 26.2.1, SVG Export Plug-In . SVG Version: 6.00 Build 0)  -->
<svg version="1.1" id="Layer_1" xmlns="http://www.w3.org/2000/svg" xmlns:xlink="http://www.w3.org/1999/xlink" x="0px" y="0px"
	 viewBox="0 0 500 500" style="enable-background:new 0 0 500 500;" xml:space="preserve">
<style type="text/css">
	.st0{fill:#FEFEFE;}
</style>
<g>
	<g>
		<g>
			<path class="st0" d="M248.4,267.6c7.1-1.2,13.7-7.5,16.4-11.4c0,1.3,0.2,2.6,0.7,3.9c2.4,6,10.7,5.1,16.1,1.2
				c4.5-3.2,8.6-7.8,13.5-15.8c2.5-4,6-9.3,9-14.5c3.1,0.5,6.4-0.1,9.1-1.7c-9.2,11.3-13.8,17.7-13.7,24c0,5,3.4,7.9,8.5,7
				c4.3-0.8,10.3-5.1,15.4-12.1c0,0.3,0,0.6,0,0.9c-0.4,9.9,9,12.3,16.6,7.4c3.9-2.5,9.2-6.8,15.7-15.2c10.8-14.4,18.1-10,16,0.9
				c-2.8,14.4-13.1,34.8-62.8,36.7c-51,2-98.8,5.2-129.9,25.4c29.8-5.4,52,11.2,57.6,20.7c21.8-30.7,48.3-17.9,98.4-35.1
				c45.7-15.7,48.3-57.8,36.5-62.3c-4.5-1.7-10.3-1.1-21,12.3c-5,5.7-8.3,7.7-11.3,8.4c-2.7,0.7-2.8-1.5-2.7-3.1
				c0.3-4.6,1.6-7.7,4.5-13.5c25-13.2,33.2-29.2,33.6-38.8c0.2-2.6-1.7-5-4.4-5.2c-0.4,0-0.8,0-1.2,0c-2,0.3-3.9,1-5.6,2
				c-9.3,5.5-19.3,17.4-26.2,29c-4.9,7.7-9.7,15.1-12.1,21.9v0.2c-2.5,3.1-5.5,5.8-8.9,8c-2.6,1.3-3.7,1-3.9-1.3
				c0.3-3.3,1.3-6.4,2.8-9.3c2.8-5.2,6.3-10,10.6-14.2c-1.9-1-3.7-2.3-5.3-3.8c-6.6,4.6-11.4,5.1-12.8,4.6c1.2-2.1,2-4.3,2.3-6.7
				c0-2.1-0.6-3.6-2.6-4.2c-4.3-1.4-7.9,2.5-8.8,5.7c-1.4,4.6,0.4,8.2,1.7,9.1c-2.8,4.9-5.9,9.7-9.2,14.2
				c-4.4,6.1-7.8,9.5-11.3,11.1c-1.4,0.6-2.8,0.7-3.1-1.1c-0.5-2.7,2.1-6.7,5.4-13.5c2.4-4.8,5.6-10.8,7.1-13.8
				c-4.8,0.3-8.1,0.4-11.7,0.9c-0.4,0.9-2,3.7-2.5,4.6c-1.5-1.8-4.6-3.9-9.9-3.3c-9.7,1.1-15.8,7.2-21.3,14.5
				c-2.7,4-4.5,8.4-5.5,13.1c-5.6,5-11.6,8.9-18.1,9.7c-2.7,0.3-5.6,0.5-7.2-2.7c-0.6-1.4-0.7-2.8-0.4-4.3
				c19.5-3.1,28.7-15,26.5-22.9c-0.9-3.3-4.5-4.7-9.4-4.1c-12.6,1.5-23.1,11.2-27.4,19.7c-0.6,1.3-1.2,2.6-1.6,3.9
				c-3.5,0.2-7.9-0.2-9.1-1.9c-1.1,2.6,0.1,6.8,5.4,7.6c0.9,0.1,1.8,0.2,2.6,0.4c0,7.7,6.2,13.6,17,11.9c7.3-1.2,15.3-6.3,21.4-11.7
				C238.9,265.5,241.9,268.8,248.4,267.6 M233.3,238.8c0.6,4.5-8.6,11.5-19.5,13.9c0.8-6.4,9.6-15,15.4-16
				C231.5,236.4,233.1,237.3,233.3,238.8 M354,207.9c2.5-3.9,5.4-7.6,8.6-11c2.4-2.5,6.3-2.6,4.1,3.2c-1.2,3.2-5.7,14.8-21.8,24.2
				C347.6,218.6,350.6,213.1,354,207.9 M268.1,244.6c-2.3,4.4-8.3,13.1-13.5,13.9c-2.1,0.3-3.3-0.7-3.8-3.5
				c-1.1-5.9,8.2-19.5,15.4-20.8c5-0.9,6.1,5.2-0.3,7.2c0,1.4,1,2.5,2.3,2.9L268.1,244.6L268.1,244.6z M220.4,195.9
				c4.8,13.1-4.5,29.7-20.1,34.2c-3.1,0.7-6.2,1.2-9.4,1.4l2.1-5c4.1-8.8,12.9-25.3,24-36.1C218.4,192.1,219.5,193.9,220.4,195.9
				 M218,179.3c-8.2-3.5-23.8-5.2-35.9-3.9c-35.4,3.9-53,23.5-51.7,36c0.8,7.4,7.7,13,15.9,12.2c12.6-1.1,23-10.5,27.1-17.6
				l-1.7-1.8c-1.8,1.4-3.9,2.4-6.1,3.1c-4.3,1.7-9.1-0.5-10.8-4.8c-0.1-0.3-0.2-0.5-0.3-0.8c-2.4-9.7,11.7-20.1,29.2-21.4
				c7.8-0.6,18,0.1,25.3,3.8c1.4,0.7,2.7,1.6,3.9,2.5c-16.6,11.8-26.2,27.9-34.6,42.9c-4.8-2.5-5.3-6.9-3.5-9.1
				c-2,0.2-7.7,1.3-8.3,6.6c-0.5,4.3,2.1,7.9,7.7,9.8c-3.5,6.4-9.4,20.8-21.4,23.9c-3.3,0.7-6.7-0.8-8.5-3.7
				c-0.4-0.7-2.4-6.3,4.6-8.6c-20.3-7.7-34.7,15.2-21.4,29.1c6.1,6.3,14.6,7.9,23.9,5.9c20.1-4.2,28.9-24.7,36.7-45.2
				c2.9-0.1,5.8-0.5,8.7-1.1c20.9-3.7,42.9-21.9,37.6-41.6c-1.3-4.9-4.4-9.3-8.5-12.2c1.7-1,3.5-1.8,5.3-2.5
				c-0.4-1.1-0.9-2.1-1.5-3.1c-2.6,0.9-5.2,2-7.7,3.3c-1.4-0.7-2.8-1.3-4.2-1.8"/>
		</g>
	</g>
</g>
</svg>
