<?xml version="1.0" encoding="utf-8"?>
<!-- Generator: Adobe Illustrator 26.2.1, SVG Export Plug-In . SVG Version: 6.00 Build 0)  -->
<svg version="1.1" id="Layer_1" xmlns="http://www.w3.org/2000/svg" xmlns:xlink="http://www.w3.org/1999/xlink" x="0px" y="0px"
	 viewBox="0 0 500 500" style="enable-background:new 0 0 500 500;" xml:space="preserve">
<style type="text/css">
	.st0{fill:#FEFEFE;}
</style>
<path class="st0" d="M183.7,257.1c-0.5,3,2.5,4.5,5.6,4.5c3.4,0,7-1.5,7.6-4.8l2.5-14c0.6-3.1-2.3-4.7-5.6-4.7s-7.1,1.6-7.6,4.7
	L183.7,257.1z M175.9,242.9c1.7-9.6,10.9-14.3,19.4-14.3s16.2,4.8,14.6,14.3l-2.5,14.3c-1.7,9.6-10.6,14.3-19.5,14.3
	c-8.5,0-16.1-4.8-14.5-14.3L175.9,242.9z"/>
<path class="st0" d="M233.6,246.1c6.9,1.4,14.4,4,12.2,13.8c-1.7,8-9.8,11.6-17.3,11.6c-6.2,0-11.9-3.4-13.6-10l6.6-2.8
	c1.1,4,4.4,6,8.2,6c4.2,0,8.4-1.6,9.3-5.3c1.1-4.7-3.2-6-8.1-6.7c-6.7-1.1-13.1-4.3-11.7-12.6c1.8-7.6,9.5-11.4,16.7-11.4
	c6.1,0,11.5,2.3,13.2,8.9l-6.5,2.7c-1.1-3.9-4-5.4-7.7-5.4c-4,0-8.1,1.9-8.9,5.4S229.4,245.3,233.6,246.1"/>
<path class="st0" d="M271.9,250.2c4.3,0.1,8-3,8.8-7.2c0.6-3.5-1.3-7.1-6.3-7H265l-2.5,14.2L271.9,250.2z M259.6,229.1h15.9
	c9.4,0,12.9,7,11.8,13.8c-1.3,8-8.3,13.8-16.4,13.6h-9.3l-2.5,14.5h-6.6L259.6,229.1z"/>
<path class="st0" d="M298.4,257.9c-0.8,4.5,3.7,6.8,8.7,6.8s10.4-2.3,11.2-6.8l2.7-15.6c0.9-4.8-3.8-6.8-8.8-6.8s-10.2,2.1-11,6.8
	L298.4,257.9z M294.5,242c1.6-9,10.5-13.5,18.9-13.5s15.9,4.5,14.3,13.5l-2.8,15.9c-1.6,9-10.7,13.6-19,13.6s-15.8-4.5-14.2-13.6
	L294.5,242z"/>
<path class="st0" d="M350.7,248.8c4.6,0,7.9-2,8.7-6.7s-2-6.2-6.5-6.1h-9.2l-2.2,12.8H350.7z M345.4,254.8h-4.9l-2.8,16.2H331
	l7.1-41.8H354c8,0,13.5,3.7,12.1,12.9c-1.3,7.9-6.5,11.6-12.9,12.5l9.9,16.4h-8.2L345.4,254.8z"/>
<path class="st0" d="M424.4,246.1c6.9,1.4,14.4,4,12.2,13.8c-1.7,8-9.8,11.6-17.3,11.6c-6.2,0-11.9-3.4-13.6-10l6.6-2.8
	c1.1,4,4.4,6,8.2,6c4.2,0,8.4-1.6,9.3-5.3c1.1-4.7-3.2-6-8.1-6.7c-6.7-1.1-13.1-4.3-11.7-12.6c1.8-7.6,9.5-11.4,16.7-11.4
	c6.1,0,11.5,2.3,13.2,8.9l-6.5,2.7c-1.1-3.9-4-5.4-7.7-5.4c-4,0-8.1,1.9-8.9,5.4S420.2,245.3,424.4,246.1"/>
<path class="st0" d="M160,260.8c-2.6,0-4.8-1.5-4.4-4l4.8-27.8h-10.2l-4.8,27.8c-1.5,9,4.6,14,12.7,14h6.4l1.7-10.1L160,260.8z"/>
<path class="st0" d="M100.1,247.4L98,259.6c-7.1,0-13.3,4.6-15.4,11.3H70c2.4-13.6,14.2-23.5,28-23.6
	C98.7,247.3,99.4,247.3,100.1,247.4"/>
<polygon class="st0" points="103.3,229.1 101.2,241.2 75.4,241.2 60,229.1 "/>
<polygon class="st0" points="120.4,246.6 136.2,246.6 134.5,256.5 118.7,256.5 116.3,270.9 105.8,270.9 113,229.1 141.5,229.1 
	139.7,239.1 121.7,239.1 "/>
<polygon class="st0" points="392.5,235.9 386.6,270.9 379.9,270.9 385.8,235.9 373.4,235.9 374.6,229.1 406.2,229.1 405,235.9 "/>
</svg>
