<?xml version="1.0" encoding="utf-8"?>
<!-- Generator: Adobe Illustrator 26.2.1, SVG Export Plug-In . SVG Version: 6.00 Build 0)  -->
<svg version="1.1" id="Layer_1" xmlns="http://www.w3.org/2000/svg" xmlns:xlink="http://www.w3.org/1999/xlink" x="0px" y="0px" viewBox="0 0 500 500" style="enable-background: new 0 0 500 500" xml:space="preserve">
<style>.st0 {
  fill: #fefefe;
}

</style>
<g>
	<path class="st0" d="M190.3,228.2c-5.4-0.1-9.1-0.1-13.8,0v16c4.6-0.3,9.1-0.6,13.7-0.7c1,0,1.5-0.4,1.5-1.6V230
		C191.8,228.7,191.5,228.2,190.3,228.2z"></path>
	<path class="st0" d="M350.7,202.5H149.8c-0.2,0-0.4,0.2-0.4,0.4v94.2c0,0.3,0.3,0.4,0.4,0.3c21-8.1,58.2-13.5,100.5-13.5
		c42,0,79.1,5.3,100.1,13.4c0.3,0.1,0.4-0.1,0.4-0.3v-94C351,202.6,350.8,202.5,350.7,202.5z M204.7,243.2c0,7.3-3.5,10.9-10.7,11.5
		c-5.7,0.4-11.6,0.9-17.3,1.5v18.2c0,0.2-0.1,0.3-0.3,0.3l-12,1.8c-0.3,0-0.4-0.1-0.4-0.3v-58.6c0-0.2,0.2-0.4,0.4-0.4h30
		c7.2,0,10.7,3.4,10.7,10.7C204.7,232.9,204.7,238.1,204.7,243.2z M249,217.5l-2.8,10.4c0,0.2-0.1,0.3-0.3,0.3
		c-6.9,0-14.3-0.1-21.2,0c0,3.2,0.1,6.2,0.1,9.3c6.8,0,12.2-0.1,18.4-0.1c0.3,0,0.4,0.3,0.3,0.4c-0.4,1.6-1.9,6.9-2.8,10
		c0,0.2-0.1,0.3-0.3,0.3c-5.3,0-10.4,0.1-15.7,0.3v10.9c7.9-0.3,16-0.4,24-0.4c0.3,0,0.4,0.3,0.3,0.4l-2.8,10.1
		c0,0.2-0.1,0.3-0.3,0.3c-11.2,0.1-22.6,0.6-33.8,1.3c-0.2,0-0.4-0.2-0.4-0.4c0-17.8,0-35.5,0.1-53.1c0-0.2,0.2-0.4,0.4-0.4h36.3
		C248.8,217.1,249,217.2,249,217.5z M294.4,227.9c0,0.2-0.2,0.4-0.4,0.4h-13.8V270c0,0.2-0.2,0.4-0.4,0.4c-4.1-0.1-8.1-0.4-12.2-0.4
		c-0.1,0-0.3-0.1-0.3-0.4v-41.1h-13.8c-0.2,0-0.3-0.1-0.3-0.3v-10.5c0-0.2,0.1-0.3,0.3-0.3h40.4c0.2,0,0.4,0.2,0.4,0.4L294.4,227.9z
		 M337.6,217.5l-2.8,10.4c0,0.2-0.1,0.3-0.3,0.3h-21.7v10.9c5.7,0.3,11,0.6,18.1,1c0.3,0,0.4,0.3,0.3,0.4l-2.7,10.3
		c0,0.1-0.3,0.3-0.4,0.3c-6.3-0.7-8.5-0.9-15.4-1.5v11.9c8.4,0.9,16.2,1.8,23.5,2.9c0.1,0,0.3,0.3,0.3,0.4l-2.8,10.3
		c0,0.1-0.3,0.3-0.4,0.3c-10.9-1.6-22.2-2.9-33.1-3.8c-0.2,0-0.3-0.1-0.3-0.3c0-17.9-0.1-36-0.1-53.9c0-0.2,0.2-0.4,0.4-0.4h37
		C337.6,217,337.7,217.3,337.6,217.5L337.6,217.5z"></path>
	<g id="secondary">
		<path class="st0" d="M93.8,240.6l-6.3,2.2c-3.4,1.2-5.3,2.4-5.3,5.4v8.7h18.7v-5.3H88.2v-2.4c0-0.7,0.3-0.9,1-1.2l6.2-2.2
			c3.4-1.2,5.3-2.4,5.3-5.4v-4.1c0-3.4-1.8-5.1-5.1-5.1h-7.9c-3.4,0-5.1,1.8-5.1,5.1v2.9h5.9V237c0-0.6,0.1-0.7,0.7-0.7h4.9
			c0.6,0,0.7,0.1,0.7,0.7v2.4C94.8,240.1,94.4,240.3,93.8,240.6z"></path>
		<path class="st0" d="M124.3,257c3.4,0,5.2-1.6,5.2-5.1v-15.7c0-3.5-1.6-5.2-5.2-5.2h-9.4c-3.4,0-5.2,1.6-5.2,5.2v15.6
			c0,3.4,1.6,5.1,5.2,5.1h9.4V257z M115.9,237.2c0-0.6,0.1-0.7,0.7-0.7h6c0.4,0,0.7,0.1,0.7,0.7V251c0,0.4-0.1,0.7-0.7,0.7h-6
			c-0.4,0-0.7-0.1-0.7-0.7V237.2z"></path>
		<rect x="82" y="217" class="st0" width="47.5" height="5.4"></rect>
		<rect x="82" y="265.4" class="st0" width="47.5" height="5.4"></rect>
		<path class="st0" d="M382.1,240.6l-6.3,2.2c-3.4,1.2-5.3,2.4-5.3,5.4v8.7h18.7v-5.3h-12.6v-2.4c0-0.7,0.3-0.9,1-1.2l6.2-2.2
			c3.4-1.2,5.3-2.4,5.3-5.4v-4.1c0-3.4-1.8-5.1-5.2-5.1h-8.2c-3.4,0-5.2,1.8-5.2,5.1v2.9h6V237c0-0.6,0.1-0.7,0.7-0.7h4.8
			c0.6,0,0.7,0.1,0.7,0.7v2.4C383.2,240.1,382.9,240.3,382.1,240.6z"></path>
		<path class="st0" d="M412.8,257c3.4,0,5.1-1.6,5.1-5.1v-15.7c0-3.5-1.6-5.2-5.1-5.2h-9.4c-3.4,0-5.1,1.6-5.1,5.2v15.6
			c0,3.4,1.6,5.1,5.1,5.1h9.4V257z M404.4,237.2c0-0.6,0.1-0.7,0.7-0.7h6c0.4,0,0.7,0.1,0.7,0.7V251c0,0.4-0.1,0.7-0.7,0.7h-6
			c-0.4,0-0.7-0.1-0.7-0.7V237.2z"></path>
		<rect x="370.5" y="217" class="st0" width="47.5" height="5.4"></rect>
		<rect x="370.5" y="265.4" class="st0" width="47.5" height="5.4"></rect>
	</g>
</g>
</svg>
