<?xml version="1.0" encoding="utf-8"?>
<!-- Generator: Adobe Illustrator 26.2.1, SVG Export Plug-In . SVG Version: 6.00 Build 0)  -->
<svg version="1.1" id="Layer_1" xmlns="http://www.w3.org/2000/svg" xmlns:xlink="http://www.w3.org/1999/xlink" x="0px" y="0px"
	 viewBox="0 0 500 500" style="enable-background:new 0 0 500 500;" xml:space="preserve">
<style type="text/css">
	.st0{fill:#FEFEFE;}
</style>
<g>
	<path class="st0" d="M336,307.2c-1.7-0.9-3.7-1-5.5-0.4c-2.3,1-3.9,6.5-4.2,7.9c-0.3,1.2,1,2.6,3.8,4.2c2.8,1.5,3.8,1.5,5.2,0.3
		c1.9-1.6,2.4-2.5,3.7-4.6s1-3.9,0.3-4.8C338.4,308.6,337.3,307.7,336,307.2z"/>
	<path class="st0" d="M363.3,244.4c-1.6-1.4-3.5-2.5-5.5-3.3c-1.8-0.8-3.8-1.3-5.8-1.6c-1.7-0.2-2.6,0.3-2.7,1.5
		c0,0-3.4,19.7-4.7,24.6c-3.5,13.8-8.6,29.6-10.1,33.2c-1,2.3-0.2,3.9,3.2,5.4s6.4,0.7,8-2.7c10.1-21.6,18.8-47.3,19.8-52
		C365.7,247.6,364.8,245.6,363.3,244.4z"/>
	<path class="st0" d="M333.3,280.5c-0.5,0.2-1.9,1-1.6-1.7c0.4-4.1,0.3-8.3-0.5-12.4c-0.4-2.2-1.4-4.2-2.9-5.8
		c-1.5-1.6-3.6-2.4-5.7-2.3c-1.5,0-3-0.2-4.4-0.5c-1.5-0.3-3-0.5-4.5-0.5c-8.2,0.3-14.9,5.2-20.1,14.6l-0.3,0.6
		c-1.7,1.6-3.8,2.6-6.1,3c-0.4,0.1-0.8-0.2-0.9-0.7c0-0.1,0-0.1,0-0.2c0.5-4.4,0.4-8.8-0.5-13.1c-0.4-2.2-1.5-4.3-3-6
		c-1.5-1.6-3.7-2.5-5.9-2.3c-1.5,0-3.1-0.2-4.5-0.5c-1.5-0.3-3.1-0.5-4.7-0.5c-8.4,0.3-15.3,5.4-20.6,15.1
		c-4.4,8.1-6.3,17.3-5.4,26.5c0.2,2,1,3.4,1.4,5.2c0.1,0.4,0,0.9-0.3,1.2c-2.5,2.6-5.3,3.2-6.7,2.9c-3.7-0.7-4.1-3-4.5-4.5
		c-0.6-2.5,0.3-8.2,2.9-17.7c1.6-5,3.2-10.1,4.6-15c1.3-4.6,1.3-6.7,1.1-7.7c0,0-0.3-1.1-3.6-3.2c-2.1-1.4-4.4-2.4-6.9-3
		c-2.5-0.4-7.4,0.9-17.5,14.6c-1,1.4-1.8,2.4-2.7,3.7c-0.1,0.1-0.3,0.1-0.4,0c-0.1-0.1-0.1-0.2-0.1-0.3c0.3-1.5,0.4-2.1,0.8-4.1
		c1.6-8.1,1.5-9.5,1.5-9.6c-0.2-0.8-1.1-2.2-4.4-3.9c-2.5-1.4-5.2-2.1-8-2c-0.9,0.1-3.6,0.9-10.7,10c-6,7.7-8.3,11.4-9.2,11.5
		c-0.2,0-0.2,0.1-0.3-0.2c-0.3-0.5,2.2-6.4-0.3-10.3c-1.8-2.8-5-4.6-9.8-4.6c-13,0-20.5,9.7-22.9,14.5c-2.4,4.9-3.1,9.5-2.2,13.8
		c0.2,1.5,0.7,2.9,1.6,4.2c0.6,0.9,1.1,1.2,1.5,0.9c0.6-0.3,0.9-0.9,0.8-1.6c-0.9-0.7-1.5-5-0.4-8.8c4.4-14,18.3-12.6,14.7,2.3
		c-6.5,26.2-7.7,32.5-7.4,33.8c0.2,1,1.5,1.7,3.7,2c2,0.4,4.1,0.3,6.1-0.2c0,0,1.4-1,4.5-9.7c2.4-6.6,4.9-13.3,7.3-20
		c2.9-6.8,6.6-13.2,11-19.1c5.7-7.9,6.5-7.7,7.2-8c0.4-0.2,1-0.1,1.3,0.2c0.4,0.4,0.7,0.9,0.8,1.5c0.1,0.8,0.6,2.2-4,19.5
		c-3.8,14.2-6.1,23.2-6.8,26.6c0,0.1,0,0.1,0,0.2s-0.9,2.3,3.9,1.9c2.8-0.2,5.6-0.8,8.2-1.7c0.2-0.1,0.4-0.3,0.5-0.5
		c0.2-0.4,0.4-1.5,1.1-3.6c2.9-9.2,4.4-14.6,5.2-16.5c3.7-10.4,9.8-19.7,17.9-27.2c0.5-0.4,1.1-0.6,1.7-0.6c0.3,0,0.6,0.2,0.8,0.4
		c0.8,0.6,1,1.7,0.4,2.6c-2.3,4.7-4.1,9.7-5.4,14.8c-2.3,8.8-2.7,16.2-1.2,22c0.8,2.9,2.5,5.5,4.9,7.3c2.2,1.8,5,2.9,7.8,3.2
		c3.3,0.5,7-0.4,10.8-3.9c1.3-1.2,1.8-2,3.3-3.5c0.3-0.3,0.8-0.3,1.1,0l0,0c0.4,0.5,0.9,0.9,1.4,1.3c3.3,2.5,8.1,3.4,12.9,3.3
		c6.7-0.2,12.7-3.8,17.4-11.2c2.1-3.1,3.8-6.4,5-10c0.5-1.4,1-2.8,1.4-4.2c0.1-0.5,0.5-0.9,1-1c1.1-0.3,2.2-0.7,3.2-1.1
		c0.3-0.1,0.6,0,0.8,0.3c0.1,0.1,0.1,0.3,0,0.4c-1.5,5.2-1.7,10.6-0.7,15.9c1,4.9,3.1,8.5,6.3,11c3.4,2.5,7.5,3.7,11.7,3.4
		c6.5-0.2,12-3.9,16.9-10.8c1.9-2.8,3.4-5.8,4.6-8.9c0.7-1.6,1.6-4.8,2.1-5C333.5,285.9,335.7,279.5,333.3,280.5z M276.1,283.7
		c-1.7,5-3,8.3-5.4,10.8c-2,2.1-5,3.7-7.5,3.5c-3.1-0.3-4.7-2.3-5.6-6.4c-1.3-6.3-0.5-12.4,3.3-20v-0.1c0.1-0.1,0.3-0.2,0.4-0.1
		c0.1,0,0.1,0.1,0.1,0.1c0.8,2.7,2,5.9,4,7.9c2.8,2.6,6.5,3.2,9.9,3.6C275.7,283.1,276.3,283.2,276.1,283.7L276.1,283.7z
		 M278.7,274.9c-0.1,0.4-0.5,0.7-0.9,0.6l0,0c-2-0.5-3.8-1.4-5.2-2.8c-3.4-3.3-4.1-10.9-0.6-13c0.6-0.2,1.2-0.3,1.8-0.3
		c2.7-0.1,4.4,1.7,5.2,5.3C279.5,268.1,279.4,271.6,278.7,274.9z M315.1,299.1c-1.4,1.5-3.3,2.3-5.3,2.4c-3.1,0.1-5-1.8-5.9-5.9
		c-1.3-6.1-0.8-11.7,2.9-19c0,0,0-0.1,0.1-0.1c0.1-0.1,0.3-0.2,0.4-0.1c0.1,0,0.1,0.1,0.1,0.2c0.7,2.7,2.1,5.1,4.2,6.9
		c2.8,2.3,6.3,3.6,10,3.8c0.2,0,0.4,0.2,0.3,0.4v0.1C321.1,289.7,318.4,295.8,315.1,299.1L315.1,299.1z M324.3,279.7
		c-0.1,0.3-0.3,0.5-0.6,0.4l0,0c-2-0.4-3.8-1.4-5.3-2.8c-3.3-3.2-4-10.6-0.6-12.7c0.6-0.2,1.2-0.3,1.8-0.3c2.6-0.1,4.3,1.6,5.1,5.2
		C325.2,272.9,325.1,276.3,324.3,279.7L324.3,279.7z"/>
	<path class="st0" d="M339.6,244.6c-2.6,2.6-4.8,4.2-7.8,3.4c-1.6-0.4-2.5-2-2.2-3.6c0.2-2,1.9-6.2,6.8-15.4s6.5-12.2,6.6-14.1
		c0.1-0.8-0.7-1.7-2.4-2.8c-0.8-0.5-1.7-0.9-2.6-1.1c-0.7-0.1-1.2-0.4-3,1.4c-1.1,1.1-1.8,1.8-2.3,2.3c-0.2,0.2-0.5,0.2-0.6,0
		c0,0-0.1-0.1-0.1-0.2c-0.1-0.3-0.3-0.8-0.5-1.3c-1.3-3.2-4.2-5.4-7.6-5.7c-7-0.9-13.7,2.4-20.1,10.1c-2.7,3.1-4.9,6.6-6.5,10.3l0,0
		c-1.8,3.2-3.7,6.3-5.9,9.3c-2.2,2.7-4.2,4-5.9,3.8c-0.9-0.1-1.7-0.8-1.7-1.7c-0.6-3,1.8-12,7.2-27.1c5.3-15.1,7.9-22.9,7.7-23.8
		c-0.4-1.9-1.3-3.7-2.6-5.2c-1.6-1.9-3.3-2.9-5.1-3.1c-0.7-0.1-2.6,4.1-5.4,12.5c-1.6,5-3.2,10.1-4.9,15.1c-0.1,0.2-0.2,0.2-0.4,0.2
		c-0.1,0-0.1-0.1-0.2-0.2c-0.6-1.5-1.5-2.8-2.7-3.9c-1.3-1.3-3-2.1-4.8-2.2c-7.4-0.4-13.8,3.5-19.2,11.7c-2.2,3.3-3.9,6.8-5.1,10.6
		c-0.4,0.7-1,1.7-1.6,2.9c-1.4,2.8-3.1,5.5-4.9,8.1c-2.3,2.9-4.3,4.4-6,4.4c-0.9,0-1.5-0.5-1.7-1.6c-0.4-2,1.3-7.9,4.9-17.5
		c3.7-9.7,4.6-13.6,4.4-14.4c-0.2-0.6-0.9-1.4-2.6-2.2s-4.1-1.5-5.7,0.5c-0.9,1.1-1.5,1.9-1.9,2.4c-0.2,0.3-0.6,0.3-0.8,0.1
		c-0.1,0-0.1-0.1-0.1-0.2c-0.2-0.3-0.4-0.6-0.7-1.1c-0.7-1.2-1.7-2.1-2.9-2.9c-1.7-1.1-3.8-1.6-5.9-1.5c-7.4,0.3-13.8,4.9-19.2,13.7
		c-5,8.1-7,15.7-5.9,22.5c0.7,4.7,2.8,8.1,4.6,9.7c2.3,1.9,5.2,2.9,8.2,2.7c2.5-0.2,4.9-1.1,6.9-2.7c1.7-1.2,3.3-2.7,4.6-4.3
		c0.6-0.7,1.1-1.3,1.4-1.7c0.3-0.4,0.5-0.4,0.8,0s0.5,0.9,0.9,1.4c0.9,1.4,1.9,2.7,3.2,3.8c1.5,1.3,3.5,1.9,5.5,1.9
		c2.4,0,5.2-1.8,8.3-5.4c1.8-2.2,3.5-4.6,4.9-7.1c0.1-0.2,0.4-0.3,0.6-0.2c0.1,0.1,0.2,0.2,0.2,0.3l0.1,0.3c0.6,3.6,2.4,6.9,5,9.5
		c2,2,4.8,3.2,7.7,3.4c2.6,0.1,5.1-1,7.5-3.2c1.3-1.2,2.4-2.6,3.3-4.1c0.1-0.2,0.4-0.3,0.6-0.2c0.1,0,0.1,0.1,0.2,0.2
		c0.9,1.8,2.2,3.4,3.7,4.8c2.1,1.9,4.8,3,7.6,3.3c2.5,0.2,5.3-1.3,8.4-4.5c1.1-1.2,2.1-2.5,3-3.8c0.1-0.1,0.3-0.1,0.4-0.1
		s0.1,0.1,0.1,0.2c0.2,3.1,1.3,6,3.2,8.4c1.6,2.2,4.1,3.7,6.8,4.2c2.4,0.3,4.8-0.2,6.9-1.4c1.8-0.9,3.5-2.1,5-3.5
		c2.4-2.3,2.1-1.7,2.9,0.3c2.1,5.2,8,7.7,13.3,5.6c1.1-0.4,2-1,2.9-1.8C340.2,249.5,341.2,242.9,339.6,244.6z M224.2,225.5
		c-2.7,4.7-4.4,5.6-5,6.1c-0.2,0.1-0.3,0.3-0.3,0.5c0.1,0.2,0.2,0.3,0.4,0.2c3.6-0.5,0.7,3.1-1.3,4.8c-2.1,1.8-3.7,2.7-5,2.8
		c-1.9,0.1-3.2-1.4-3.8-4.4c-0.9-4.8,0.1-10.8,3.1-18.1c3-7.5,6.4-11.3,10-11.5c1.3-0.1,2.5,0.3,3.4,1.1c1,1.1,1.6,2.5,1.9,4
		C228.4,214.9,227,220.5,224.2,225.5z M272.1,227.5c-3.7,8-6.7,12-9.1,11.9c-1.9-0.1-3.2-1.5-3.7-4.3c-0.9-5,0-10.9,2.7-17.7
		c2.9-7.2,6.2-10.7,9.9-10.5c2.5,0.1,4.2,2.4,5,6.8C277.2,215.4,275.6,220,272.1,227.5L272.1,227.5z M321.7,230.9
		c-2.8,3.8-5,5.9-6.6,6.4c-0.2,0.1-0.3,0.2-0.3,0.4l0,0c0,0.2,0.2,0.4,0.4,0.4c1.5,0.2,2.2,0.7,2.3,1.3c0,0.9-1.1,2-3.3,3.4
		s-3.9,2-5.1,1.8c-1.8-0.2-2.8-2-2.9-5.2c-0.2-5,1.7-10.8,5.6-17.4c4-6.9,7.7-10.2,11.2-9.7c1.1,0.2,2.1,0.9,2.7,1.9
		c0.7,1.2,1.1,2.5,1.1,3.9C326.8,222.1,325.1,226.4,321.7,230.9L321.7,230.9z"/>
	<path class="st0" d="M211.6,181.9c-3,0.3-11.2,2.7-12.3,4.7c-6.7,11.1-10.1,26.8-14.6,44.3c-1.5-7.7-3.8-18.4-4.9-23.5
		c-0.6-3.4-1-6.8-1.2-10.2c-0.2-3.1-0.2-5.1-0.2-6c0-0.3,0-0.5,0-0.8c-0.2-0.7-0.8-1.5-2.5-1.4c-0.9,0.1-1.8,0.2-2.7,0.5
		c-2,0.5-3.9,1.5-5.5,2.9c-4,3.8-6.3,13.3-10.2,28.8c-4.8,18.8-8.7,26.1-14.3,28.3c-2.9,1.1-6.5,0.6-8.1-1.8
		c-2.3-3.2-0.5-8.7,4.2-12.2c0.2-0.2,0.3-0.5,0.3-0.8c-0.1-0.3-0.4-0.4-1-0.4c-1.8,0.1-13.8,7.4-13,17.6c0.5,7.3,4.9,11.1,10.9,12
		c7.8,1.3,17.4-3.6,22.9-22.5c1.9-6.5,7.7-27.7,7.7-27.7c2.9,13.8,5.5,25,7.7,33.5c0.4,1.2,0.5,2.5,0.2,3.8c-0.5,1.8-0.3,2-0.2,2.2
		c0.2,0.7,1.2,0.7,1.9,0.7c0.8-0.1,1.7-0.2,2.5-0.5c3.2-1,7.6-5.6,10-11.5c1.2-2.8,2.3-8.1,3.2-11.8c0.7-2.9,1.3-5.7,2.6-9.6
		c4.1-12.5,11.6-25.9,21.3-37.6C216.5,182.7,216.7,181.3,211.6,181.9z"/>
	<path class="st0" d="M368.3,250.1L368.3,250.1c0.1-0.2,0.1-0.4,0.2-0.6c0-0.1,0-0.2,0.1-0.3s0.1-0.1,0.1-0.2
		c0.1-0.2,0.2-0.4,0.3-0.6c0.2-0.3,0.5-0.5,0.7-0.7c0.1-0.1,0.1-0.1,0.2-0.1c0.1-0.1,0.2-0.1,0.3-0.1c0.2-0.1,0.5-0.2,0.7-0.2
		c0.2-0.1,0.5-0.1,0.7,0h0.1c0.1,0,0.2,0,0.3,0c0.2,0,0.4,0.1,0.5,0.2c0.2,0,0.4,0.1,0.6,0.2c0.1,0.1,0.3,0.2,0.5,0.3
		c0.1,0,0.1,0.1,0.1,0.1c0.2,0.2,0.4,0.5,0.6,0.8c0,0.1,0.1,0.2,0.1,0.2c0.1,0.3,0.2,0.6,0.2,0.9c0,0.3,0,0.5,0,0.8s0,0.5-0.1,0.8
		c-0.1,0.4-0.3,0.7-0.6,1c-0.1,0.1-0.2,0.3-0.4,0.4c-0.1,0.1-0.4,0.3-0.6,0.4c-0.2,0.1-0.5,0.2-0.8,0.3c-0.4,0.1-0.9,0.1-1.3,0
		c-0.1,0-0.3-0.1-0.4-0.1c-0.3-0.1-0.5-0.2-0.7-0.3c0,0,0,0-0.1-0.1c-0.2-0.3-0.6-0.4-0.7-0.8c-0.1-0.2-0.2-0.3-0.3-0.4
		c-0.1-0.3-0.2-0.6-0.3-0.9c0-0.1,0-0.2,0-0.2C368.4,250.3,368.4,250.2,368.3,250.1z M374.3,250.1L374.3,250.1L374.3,250.1
		C374.4,250.1,374.4,250.2,374.3,250.1C374.3,250.2,374.3,250.2,374.3,250.1C374.3,250.2,374.3,250.2,374.3,250.1
		C374.3,250.2,374.3,250.2,374.3,250.1L374.3,250.1L374.3,250.1z M374.2,250.5L374.2,250.5L374.2,250.5L374.2,250.5L374.2,250.5
		L374.2,250.5C374.1,250.5,374.1,250.5,374.2,250.5L374.2,250.5L374.2,250.5L374.2,250.5z M368.9,250.3L368.9,250.3L368.9,250.3
		L368.9,250.3L368.9,250.3h-0.1c-0.1,0-0.1,0-0.1,0v0.1l0,0l0,0v-0.1c0,0,0,0,0.1,0l0,0C368.8,250.3,368.8,250.2,368.9,250.3
		C368.9,250.4,368.8,250.3,368.9,250.3C368.8,250.3,368.9,250.3,368.9,250.3L368.9,250.3z M368.6,250.3L368.6,250.3L368.6,250.3
		L368.6,250.3L368.6,250.3L368.6,250.3L368.6,250.3z M373.8,248.8L373.8,248.8L373.8,248.8L373.8,248.8L373.8,248.8z M369.2,248.7
		L369.2,248.7L369.2,248.7L369.2,248.7L369.2,248.7L369.2,248.7L369.2,248.7z M369,248.6L369,248.6
		C369.1,248.6,369.1,248.6,369,248.6L369,248.6C369.1,248.6,369.1,248.6,369,248.6S369,248.6,369,248.6L369,248.6z M373.6,248.4
		L373.6,248.4C373.7,248.5,373.6,248.4,373.6,248.4L373.6,248.4L373.6,248.4L373.6,248.4L373.6,248.4L373.6,248.4L373.6,248.4
		L373.6,248.4L373.6,248.4L373.6,248.4L373.6,248.4L373.6,248.4L373.6,248.4z M373.9,249.3L373.9,249.3L373.9,249.3L373.9,249.3
		C373.9,249.3,374,249.4,373.9,249.3c-0.1,0.1,0.1,0.1,0.1,0.1c0,0.1,0,0,0,0l0,0l0,0h0.1l0,0l0,0l0,0
		C374,249.4,374,249.4,373.9,249.3L373.9,249.3z M374.2,249.3L374.2,249.3L374.2,249.3L374.2,249.3L374.2,249.3
		C374.1,249.3,374.2,249.3,374.2,249.3h-0.1l0,0l0,0l0,0C374.1,249.3,374.1,249.3,374.2,249.3L374.2,249.3L374.2,249.3z M374,249.2
		L374,249.2L374,249.2L374,249.2L374,249.2L374,249.2L374,249.2z M373.8,248.9L373.8,248.9L373.8,248.9L373.8,248.9L373.8,248.9
		C373.8,248.9,373.9,248.9,373.8,248.9L373.8,248.9z M369,248.9L369,248.9L369,248.9c-0.1,0,0,0.1-0.1,0s0,0,0,0l0,0
		C368.9,248.9,368.9,248.9,369,248.9v0.1h-0.1l0,0l0,0c0,0,0.1-0.1,0.1,0V248.9L369,248.9L369,248.9L369,248.9z M374.1,251.3
		L374.1,251.3L374.1,251.3L374.1,251.3L374.1,251.3z M374.3,251.2L374.3,251.2L374.3,251.2L374.3,251.2L374.3,251.2L374.3,251.2
		L374.3,251.2L374.3,251.2C374.2,251.2,374.2,251.2,374.3,251.2L374.3,251.2z M369,251.6L369,251.6L369,251.6L369,251.6L369,251.6
		C369,251.7,369,251.6,369,251.6C369,251.5,369,251.6,369,251.6L369,251.6z M374,251.5L374,251.5L374,251.5
		C374,251.5,374.1,251.5,374,251.5L374,251.5z M373.8,251.7L373.8,251.7l-0.1,0.1l0,0l0,0l0,0h0.1l0,0l0,0l0,0V251.7z M369.4,252.1
		L369.4,252.1L369.4,252.1L369.4,252.1l0.1-0.1l0,0l0,0C369.5,251.9,369.5,252,369.4,252.1C369.5,252,369.5,252,369.4,252.1
		C369.4,252,369.4,252,369.4,252.1L369.4,252.1z M373.9,251.2L373.9,251.2L373.9,251.2L373.9,251.2L373.9,251.2
		C373.9,251.2,373.9,251.1,373.9,251.2L373.9,251.2z M371.9,253.1L371.9,253.1l0.1-0.1C372,253,372,253,371.9,253.1L371.9,253.1
		L371.9,253.1L371.9,253.1L371.9,253.1L371.9,253.1C372,253,371.9,253,371.9,253.1L371.9,253.1z M371.1,253.1L371.1,253.1
		L371.1,253.1c0,0-0.1-0.1-0.1,0c-0.1,0.1,0,0.1,0,0.1S371.1,253,371.1,253.1L371.1,253.1z M370.1,252.6L370.1,252.6L370.1,252.6
		L370.1,252.6L370.1,252.6L370.1,252.6z M369,251.8L369,251.8L369,251.8L369,251.8L369,251.8L369,251.8L369,251.8L369,251.8z
		 M368.5,250.1L368.5,250.1L368.5,250.1L368.5,250.1L368.5,250.1L368.5,250.1L368.5,250.1z M369,251.4L369,251.4L369,251.4
		L369,251.4L369,251.4L369,251.4z M374.3,250.4L374.3,250.4L374.3,250.4L374.3,250.4L374.3,250.4L374.3,250.4
		C374.3,250.4,374.4,250.3,374.3,250.4L374.3,250.4z M374.3,250.8L374.3,250.8L374.3,250.8L374.3,250.8z M368.9,250.6L368.9,250.6
		L368.9,250.6L368.9,250.6L368.9,250.6z M374,251.2v-0.1c0,0-0.1,0,0-0.1c0-0.1,0,0,0,0l0,0c0,0,0,0.1-0.1,0.1l0,0l0,0h0.1
		C374,251.1,374,251.2,374,251.2L374,251.2L374,251.2z M373.8,248.7L373.8,248.7C373.8,248.8,373.8,248.8,373.8,248.7L373.8,248.7
		L373.8,248.7L373.8,248.7L373.8,248.7L373.8,248.7z M369,251.1L369,251.1L369,251.1C369,251,369,251,369,251.1L369,251.1
		c0-0.1,0-0.1,0-0.1V251.1z M374,251.5L374,251.5L374,251.5L374,251.5L374,251.5L374,251.5z M368.7,249.3L368.7,249.3L368.7,249.3
		L368.7,249.3C368.8,249.3,368.7,249.3,368.7,249.3L368.7,249.3z M369,250.9L369,250.9L369,250.9L369,250.9L369,250.9L369,250.9
		L369,250.9z M369.8,252.3L369.8,252.3L369.8,252.3L369.8,252.3L369.8,252.3L369.8,252.3L369.8,252.3
		C369.8,252.3,369.7,252.2,369.8,252.3L369.8,252.3z M373.3,252.3L373.3,252.3L373.3,252.3L373.3,252.3L373.3,252.3L373.3,252.3
		C373.4,252.3,373.3,252.3,373.3,252.3L373.3,252.3z M369.9,252.6L369.9,252.6C370,252.6,370,252.6,369.9,252.6
		C369.8,252.5,369.9,252.6,369.9,252.6z M368.9,249.5L368.9,249.5L368.9,249.5v0.1c0,0,0,0.1-0.1,0.1h-0.1c-0.1,0-0.1,0-0.1,0.1
		s0,0,0,0v-0.1c0,0,0,0,0.1,0l0,0l0,0l0,0l0,0c0,0,0,0,0.1-0.1C368.9,249.7,368.8,249.6,368.9,249.5L368.9,249.5L368.9,249.5
		C368.9,249.6,368.9,249.6,368.9,249.5L368.9,249.5z M370.2,252.8L370.2,252.8L370.2,252.8L370.2,252.8L370.2,252.8L370.2,252.8
		L370.2,252.8L370.2,252.8L370.2,252.8L370.2,252.8z M374,249L374,249C374,249.1,374,249.1,374,249C374.1,248.9,374,248.9,374,249
		L374,249z M374.2,249.9L374.2,249.9L374.2,249.9c0,0,0.1,0,0.1-0.1l0,0l0,0C374.3,249.7,374.3,249.8,374.2,249.9L374.2,249.9z
		 M368.7,250.8L368.7,250.8L368.7,250.8C368.7,250.9,368.7,250.8,368.7,250.8L368.7,250.8L368.7,250.8L368.7,250.8z M369.2,251.9
		C369.2,251.9,369.3,251.9,369.2,251.9C369.3,251.9,369.2,251.9,369.2,251.9C369.2,251.7,369.2,251.8,369.2,251.9L369.2,251.9z
		 M368.7,251.3L368.7,251.3L368.7,251.3L368.7,251.3c0,0.1,0,0.2,0.1,0.1C368.9,251.4,368.7,251.4,368.7,251.3L368.7,251.3
		L368.7,251.3C368.7,251.3,368.7,251.2,368.7,251.3L368.7,251.3z M373.9,250.2c0.1-0.3-0.1-0.7-0.2-1c-0.2-0.4-0.5-0.8-0.9-1
		c-0.3-0.2-0.6-0.3-0.9-0.3s-0.5,0-0.8,0s-0.7,0.1-0.9,0.3c-0.2,0.1-0.4,0.3-0.6,0.6c-0.2,0.2-0.3,0.5-0.4,0.8c0,0.1,0,0.3-0.1,0.4
		c-0.1,0.5-0.1,0.9,0.1,1.4c0,0.1,0.1,0.1,0.2,0.2c0,0.2,0.2,0.4,0.4,0.6c0.1,0,0.1,0.1,0.2,0.2c0.1,0.1,0.1,0.2,0.2,0.2
		c0.2,0.1,0.4,0.2,0.6,0.3c0.3,0.1,0.6,0.1,0.9,0.1l0.3-0.1c0.4-0.1,0.7-0.2,1-0.5c0.3-0.2,0.5-0.5,0.5-0.9v-0.1
		C373.8,250.8,373.9,250.5,373.9,250.2L373.9,250.2z M373.5,252.1L373.5,252.1L373.5,252.1L373.5,252.1z"/>
	<path class="st0" d="M372.9,249.5v0.2c0,0.3-0.2,0.6-0.6,0.7h-0.1c-0.2,0.1-0.2,0.1-0.1,0.3c0.2,0.4,0.4,0.7,0.7,1.1
		c0.1,0.2,0.1,0.2-0.1,0.2c-0.1,0-0.3,0-0.4,0s-0.2,0-0.2-0.1c-0.2-0.3-0.3-0.6-0.4-0.9l-0.1-0.1c-0.1-0.1-0.1-0.2-0.1-0.2
		c0-0.1-0.1-0.2-0.2-0.2h-0.1l-0.1,0.1c0,0.2,0,0.5,0,0.7s-0.1,0.4,0,0.6S371,252,371,252h-0.2c-0.3,0-0.3,0-0.3-0.3s0-0.6,0-0.9
		c0-0.1,0-0.1,0-0.2c0-0.1,0-0.3,0-0.4v-0.1c0.1-0.4-0.1-0.8,0-1.2c0-0.1,0-0.2,0-0.3s0.1-0.1,0.2-0.1h0.1c0.5,0,0.9,0,1.4,0
		c0.1,0,0.3,0,0.4,0.1c0.3,0.1,0.5,0.4,0.5,0.7L372.9,249.5L372.9,249.5z M370.9,250.4L370.9,250.4
		C371,250.5,370.9,250.4,370.9,250.4L370.9,250.4L370.9,250.4L370.9,250.4c0-0.1,0-0.1-0.1-0.1l0,0l0,0l0,0l0,0L370.9,250.4
		L370.9,250.4L370.9,250.4L370.9,250.4L370.9,250.4C370.9,250.4,370.8,250.4,370.9,250.4L370.9,250.4z M370.7,250.4L370.7,250.4
		L370.7,250.4L370.7,250.4C370.7,250.4,370.6,250.4,370.7,250.4L370.7,250.4z M370.8,249.3L370.8,249.3L370.8,249.3L370.8,249.3
		L370.8,249.3L370.8,249.3L370.8,249.3L370.8,249.3C370.9,249.4,370.8,249.3,370.8,249.3L370.8,249.3z M370.7,250.7L370.7,250.7
		L370.7,250.7c0,0.1,0,0.1,0,0.1S370.7,250.8,370.7,250.7C370.7,250.7,370.6,250.7,370.7,250.7L370.7,250.7z M370.6,249L370.6,249
		L370.6,249L370.6,249L370.6,249C370.6,249,370.5,249,370.6,249L370.6,249z M370.8,249.8L370.8,249.8L370.8,249.8L370.8,249.8
		L370.8,249.8L370.8,249.8L370.8,249.8z M370.8,248.9C370.8,248.9,370.8,248.8,370.8,248.9C370.8,248.8,370.8,248.8,370.8,248.9
		L370.8,248.9z M370.6,250L370.6,250L370.6,250L370.6,250L370.6,250C370.6,250.1,370.5,250,370.6,250L370.6,250z M371.8,250.3
		c0.1,0,0.1,0.1,0.1,0c0.1-0.1,0,0,0,0l0,0C371.9,250.3,371.8,250.2,371.8,250.3L371.8,250.3L371.8,250.3
		C371.8,250.2,371.8,250.3,371.8,250.3L371.8,250.3L371.8,250.3z M371,249.4c0,0.2,0,0.3,0,0.4c0,0.1,0.2,0,0.3,0.1l0,0
		c0.2,0,0.4,0,0.6-0.1c0.1,0,0.2-0.2,0.2-0.3c0-0.2-0.1-0.3-0.3-0.4c-0.3,0-0.6,0-0.9,0c-0.1,0-0.1,0-0.1,0.1
		C371,249.3,371,249.3,371,249.4L371,249.4z M371,250L371,250C371.1,250.1,371.1,250.1,371,250C371.1,250,371.1,250,371,250L371,250
		C371.1,250,371.1,250,371,250S371,250,371,250L371,250z"/>
	<path class="st0" d="M369.2,251.8L369.2,251.8C369.3,251.7,369.2,251.8,369.2,251.8z"/>
	<path class="st0" d="M371.1,253L371.1,253L371.1,253C371,253,371,253,371.1,253z"/>
	<path class="st0" d="M368.8,250.8L368.8,250.8C368.8,250.8,368.7,250.8,368.8,250.8L368.8,250.8z"/>
	<path class="st0" d="M369,248.9L369,248.9C369.1,248.9,369.1,249,369,248.9L369,248.9z"/>
	<path class="st0" d="M368.8,250.3L368.8,250.3C368.8,250.3,368.7,250.3,368.8,250.3L368.8,250.3z"/>
	<path class="st0" d="M374,249L374,249C374,249.1,374,249,374,249z"/>
	<path class="st0" d="M373.8,251.8L373.8,251.8L373.8,251.8L373.8,251.8z"/>
	<path class="st0" d="M374.3,249.3L374.3,249.3L374.3,249.3C374.2,249.3,374.3,249.3,374.3,249.3z"/>
	<path class="st0" d="M373.7,251.7L373.7,251.7L373.7,251.7C373.8,251.8,373.7,251.8,373.7,251.7L373.7,251.7z"/>
	<path class="st0" d="M370.7,250.3L370.7,250.3L370.7,250.3z"/>
	<path class="st0" d="M371.8,250.3L371.8,250.3L371.8,250.3L371.8,250.3z"/>
	<path class="st0" d="M370.6,250.7L370.6,250.7C370.7,250.7,370.6,250.7,370.6,250.7z"/>
	<path class="st0" d="M370.8,248.8"/>
	<path class="st0" d="M370.8,249.3L370.8,249.3L370.8,249.3L370.8,249.3L370.8,249.3z"/>
	<path class="st0" d="M370.8,249.3L370.8,249.3L370.8,249.3L370.8,249.3L370.8,249.3z"/>
</g>
</svg>
