<?xml version="1.0" encoding="utf-8"?>
<!-- Generator: Adobe Illustrator 26.2.1, SVG Export Plug-In . SVG Version: 6.00 Build 0)  -->
<svg version="1.1" id="Layer_1" xmlns="http://www.w3.org/2000/svg" xmlns:xlink="http://www.w3.org/1999/xlink" x="0px" y="0px"
	 viewBox="0 0 500 500" style="enable-background:new 0 0 500 500;" xml:space="preserve">
<style type="text/css">
	.st0{fill:#FEFEFE;}
</style>
<g>
	<path class="st0" d="M111.1,288.4l-1.5,3.1h-2l5.4-10.7h2.3l1.4,10.7h-1.9l-0.3-3.1H111.1z M114.4,286.9l-0.3-2.7
		c0-0.6-0.1-1.4-0.2-2l0,0c-0.3,0.6-0.6,1.4-0.9,2l-1.3,2.7H114.4z"/>
	<path class="st0" d="M118.5,289.7c0.4,0.2,1.2,0.5,1.9,0.5c0.8,0,1.2-0.4,1.2-1c0-0.5-0.3-0.8-1-1.2c-0.9-0.5-1.5-1.1-1.5-2
		c0-1.5,1.3-2.5,3.1-2.5c0.8,0,1.5,0.2,1.8,0.4l-0.5,1.3c-0.3-0.2-0.8-0.4-1.4-0.4c-0.7,0-1.2,0.4-1.2,0.9c0,0.4,0.3,0.7,1,1.1
		c0.8,0.5,1.6,1.1,1.6,2.1c0,1.7-1.4,2.6-3.3,2.6c-0.9,0-1.8-0.3-2.2-0.6L118.5,289.7z"/>
	<path class="st0" d="M125.1,289.7c0.4,0.2,1.2,0.5,1.9,0.5c0.7,0,1.2-0.4,1.2-1c0-0.5-0.3-0.8-1-1.2c-0.9-0.5-1.5-1.1-1.5-2
		c0-1.5,1.3-2.5,3.1-2.5c0.8,0,1.5,0.2,1.8,0.4l-0.5,1.3c-0.3-0.2-0.8-0.4-1.4-0.4c-0.7,0-1.2,0.4-1.2,0.9c0,0.4,0.4,0.7,1,1.1
		c0.8,0.5,1.6,1.1,1.6,2.1c0,1.7-1.4,2.6-3.3,2.6c-0.9,0-1.8-0.3-2.2-0.6L125.1,289.7z"/>
	<path class="st0" d="M139.6,283.7l-1,5.4c-0.2,0.9-0.3,1.7-0.4,2.4h-1.6l0.2-1.4l0,0c-0.7,1-1.7,1.5-2.7,1.5c-1.1,0-2-0.6-2-2.2
		c0-0.4,0-0.9,0.2-1.4l0.8-4.3h1.8l-0.8,4.2c-0.1,0.4-0.1,0.8-0.1,1.1c0,0.6,0.3,1.1,1,1.1c0.9,0,1.9-1,2.2-2.6l0.7-3.8L139.6,283.7
		L139.6,283.7z"/>
	<path class="st0" d="M140.5,291.4l0.9-4.8c0.2-1.1,0.3-2.3,0.4-3h1.6c0,0.5-0.1,1.1-0.2,1.6l0,0c0.5-1.1,1.4-1.8,2.4-1.8
		c0.1,0,0.3,0,0.4,0l-0.4,1.8c-0.1,0-0.2,0-0.4,0c-1.3,0-2.2,1.3-2.5,3l-0.6,3.1L140.5,291.4L140.5,291.4z"/>
	<path class="st0" d="M151.3,291.4c0-0.5,0.1-1.1,0.1-1.8l0,0c-0.8,1.4-1.8,1.9-2.8,1.9c-1.4,0-2.3-1.1-2.3-2.6
		c0-2.6,1.8-5.5,5.5-5.5c0.8,0,1.8,0.2,2.3,0.4l-0.8,4c-0.2,1.2-0.4,2.6-0.3,3.5h-1.7V291.4z M152.1,285c-0.2,0-0.4-0.1-0.8-0.1
		c-1.7,0-3,1.9-3,3.7c0,0.8,0.3,1.5,1.1,1.5c0.9,0,1.9-1.1,2.3-3.1L152.1,285z"/>
	<path class="st0" d="M155.2,291.4l1-5.4c0.2-0.9,0.3-1.7,0.4-2.4h1.6L158,285l0,0c0.7-1.1,1.7-1.6,2.8-1.6s2,0.7,2,2.1
		c0,0.4-0.1,0.9-0.1,1.3l-0.9,4.5H160l0.8-4.4c0-0.3,0.1-0.6,0.1-0.9c0-0.6-0.2-1.1-1-1.1s-1.9,1-2.3,2.8l-0.7,3.6h-1.7V291.4z"/>
	<path class="st0" d="M169.8,291.2c-0.4,0.2-1.2,0.4-2.2,0.4c-1.9,0-3.1-1.2-3.1-3.1c0-2.7,2.1-5,4.9-5c0.7,0,1.3,0.2,1.6,0.3
		l-0.5,1.4c-0.3-0.1-0.7-0.2-1.2-0.2c-1.8,0-2.9,1.7-2.9,3.3c0,1.2,0.7,1.8,1.7,1.8c0.7,0,1.3-0.2,1.7-0.4V291.2z"/>
	<path class="st0" d="M177.3,291c-0.8,0.4-1.8,0.6-2.7,0.6c-2.1,0-3.2-1.3-3.2-3.2c0-2.3,1.7-4.9,4.4-4.9c1.5,0,2.5,0.9,2.5,2.2
		c0,2-2.1,2.6-5.1,2.6c0,0.3,0,0.8,0.2,1.1c0.3,0.5,0.9,0.8,1.6,0.8c0.9,0,1.6-0.2,2.1-0.5L177.3,291z M175.5,284.9
		c-1.2,0-1.9,1-2.1,2c1.9,0,3.1-0.2,3.1-1.2C176.5,285.2,176.1,284.9,175.5,284.9"/>
	<path class="st0" d="M182.6,287.8c0-0.9,0.7-1.7,1.6-1.7c0.9,0,1.7,0.7,1.7,1.7c0,0.9-0.7,1.7-1.7,1.7
		C183.4,289.4,182.6,288.7,182.6,287.8"/>
	<polygon class="st0" points="193.9,282.3 190.9,282.3 191.3,280.7 199.1,280.7 198.8,282.3 195.8,282.3 194.1,291.4 192.2,291.4 	
		"/>
	<path class="st0" d="M202.4,291.4c0-0.5,0.1-1.1,0.1-1.8l0,0c-0.8,1.4-1.8,1.9-2.8,1.9c-1.4,0-2.3-1.1-2.3-2.6
		c0-2.6,1.8-5.5,5.5-5.5c0.8,0,1.8,0.2,2.3,0.4l-0.8,4c-0.2,1.2-0.4,2.6-0.3,3.5h-1.7V291.4z M203.2,285c-0.2,0-0.4-0.1-0.8-0.1
		c-1.7,0-3,1.9-3,3.7c0,0.8,0.3,1.5,1.1,1.5c0.9,0,1.9-1.1,2.3-3.1L203.2,285z"/>
	<path class="st0" d="M208.8,283.7l0.6,1.4c0.2,0.6,0.4,1,0.5,1.3l0,0c0.3-0.4,0.5-0.7,0.8-1.2l1.1-1.5h2.1l-3.3,3.8l1.8,4h-2
		l-0.6-1.5c-0.2-0.6-0.4-0.9-0.5-1.4l0,0c-0.2,0.4-0.4,0.7-0.8,1.3l-1.2,1.6h-2.1l3.4-4l-1.8-3.8L208.8,283.7L208.8,283.7z"/>
	<path class="st0" d="M217.5,287.8c0-0.9,0.7-1.7,1.6-1.7c0.9,0,1.7,0.7,1.7,1.7c0,0.9-0.7,1.7-1.7,1.7
		C218.3,289.4,217.5,288.7,217.5,287.8"/>
	<path class="st0" d="M227.8,288.4l-1.5,3.1h-2l5.4-10.7h2.3l1.4,10.7h-1.9l-0.3-3.1H227.8z M231,286.9l-0.3-2.7
		c0-0.6-0.1-1.4-0.2-2l0,0c-0.3,0.6-0.6,1.4-0.9,2l-1.3,2.7H231z"/>
	<path class="st0" d="M243.4,280.1l-1.6,8.6c-0.2,0.9-0.3,1.9-0.4,2.8h-1.7l0.2-1.4l0,0c-0.7,1.1-1.7,1.6-2.7,1.6
		c-1.4,0-2.4-1.1-2.4-2.9c0-2.7,2-5.2,4.8-5.2c0.4,0,0.9,0.1,1.2,0.2l0.7-3.6h1.9V280.1z M240.6,285.2c-0.2-0.2-0.6-0.3-1.1-0.3
		c-1.6,0-2.8,1.8-2.8,3.5c0,0.9,0.4,1.7,1.2,1.7s1.8-0.9,2.1-2.5L240.6,285.2z"/>
	<path class="st0" d="M246.1,283.7l0.5,3.9c0.1,0.9,0.2,1.5,0.2,2l0,0c0.2-0.5,0.4-1.1,0.8-2l1.9-3.9h2.1l-4.3,7.8h-1.9l-1.3-7.8
		H246.1z"/>
	<path class="st0" d="M251.8,291.4l1.5-7.8h1.9l-1.5,7.8H251.8z M253.6,281.6c0-0.7,0.5-1.1,1.1-1.1s1,0.4,1,1
		c0,0.7-0.5,1.1-1.1,1.1S253.6,282.1,253.6,281.6"/>
	<path class="st0" d="M256.3,289.7c0.4,0.2,1.2,0.5,1.9,0.5c0.7,0,1.2-0.4,1.2-1c0-0.5-0.3-0.8-1-1.2c-0.9-0.5-1.5-1.1-1.5-2
		c0-1.5,1.3-2.5,3.1-2.5c0.8,0,1.5,0.2,1.8,0.4l-0.5,1.3c-0.3-0.2-0.8-0.4-1.4-0.4c-0.7,0-1.2,0.4-1.2,0.9c0,0.4,0.3,0.7,1,1.1
		c0.8,0.5,1.6,1.1,1.6,2.1c0,1.7-1.4,2.6-3.3,2.6c-0.9,0-1.8-0.3-2.2-0.6L256.3,289.7z"/>
	<path class="st0" d="M270.6,286.7c0,2.6-1.8,4.9-4.5,4.9c-2,0-3.2-1.4-3.2-3.2c0-2.6,1.8-4.9,4.5-4.9
		C269.5,283.5,270.6,285,270.6,286.7 M264.8,288.4c0,1.1,0.6,1.8,1.5,1.8c1.4,0,2.3-1.9,2.3-3.5c0-0.8-0.4-1.8-1.5-1.8
		C265.7,284.9,264.8,286.9,264.8,288.4"/>
	<path class="st0" d="M271.7,291.4l0.9-4.8c0.2-1.1,0.3-2.3,0.4-3h1.6c0,0.5-0.1,1.1-0.2,1.6l0,0c0.5-1.1,1.4-1.8,2.4-1.8
		c0.1,0,0.3,0,0.4,0l-0.4,1.8c-0.1,0-0.2,0-0.4,0c-1.3,0-2.2,1.3-2.5,3l-0.6,3.1L271.7,291.4L271.7,291.4z"/>
	<path class="st0" d="M280.2,283.7l0.6,3.7c0.1,0.8,0.2,1.4,0.3,1.9l0,0c0.2-0.5,0.4-1,0.7-1.8l1.7-3.8h2l-2.8,5.7
		c-0.9,1.9-1.8,3.3-2.8,4.3c-0.9,0.9-1.9,1.2-2.4,1.3l-0.4-1.6c0.4-0.1,0.9-0.3,1.4-0.7c0.5-0.4,1-0.9,1.4-1.5
		c0.1-0.1,0.1-0.2,0-0.4l-1.5-7.1H280.2z"/>
	<path class="st0" d="M309.5,234.6c-1.6-1.6-3.3-2.5-4.9-2.5c-2.6,0-4.7,1.5-8,5.6V233h-7.2v35.4h7.2v-21c3-5.4,5.9-8.3,7.2-8.1
		c0.3,0,0.8,0.2,1.9,1.2l0.7,0.6l0.5-0.8l2.8-4.7l0.3-0.5L309.5,234.6z"/>
	<polygon class="st0" points="140,232.9 132.1,258.3 123.6,232.9 116,232.9 118.6,239.6 111.7,258.4 104.1,232.9 96.3,232.9 
		108.1,269.3 113.9,269.3 121.8,248.3 129.4,269.3 135,269.3 135.2,268.7 147.3,232.9 	"/>
	<path class="st0" d="M172.5,245.2h-14.7c1.4-4.3,4.2-6.5,8.2-6.5S172.1,240.8,172.5,245.2 M180.2,246.9c0-8.8-5.5-14.8-13.8-14.8
		c-10.1,0-16.8,7.6-16.8,18.6c0,11,6.7,18.6,16.5,18.6h0.1c4.5,0,7.6-1.1,12.6-4.2l0.6-0.4l-2.6-5l-0.4-0.8l-0.7,0.5
		c-3.6,2.5-5.5,3.2-8.4,3.2c-6.2-0.1-10-4.2-10.3-11.7h23.1L180.2,246.9L180.2,246.9z"/>
	<path class="st0" d="M204.5,253.5v5.6c-4.6,3.3-6.1,4-8.3,4c-2.4-0.1-3.7-1.3-3.8-3.6c0-1.2,0.1-1.7,0.7-3L204.5,253.5z
		 M213.8,263.4c-1.6-0.3-2.1-0.8-2.1-1.1v-20.6c0-5.7-4.8-9.2-11.8-9.2c-7.4,0-12.9,3.2-13,8.3c0,0.9,0.1,1.6,0.7,2.5l0.3,0.5
		l6.2-1.3l0.9-0.2l-0.3-0.8c-0.2-0.6-0.3-0.7-0.3-1c0-1.3,0.9-2.1,4.4-2.1c4.3,0.1,5.6,1.2,5.6,3.4v5.5l-11.1,2.6
		c-5.2,1.2-8.2,5-8.1,10.2c0,5.8,4,9.7,9.8,9.7c2.5,0,5.3-0.8,7.6-2c0.9-0.5,1.6-1,2.7-1.9c0.7,2.6,3.1,3.8,7.1,4h0.6l0.2-0.6
		l1.3-4.7l0.2-0.8L213.8,263.4z"/>
	<polygon class="st0" points="241.6,232.9 232.9,259.1 224,232.9 216.2,232.9 229.5,269.3 235.7,269.3 235.9,268.8 249.4,232.9 	"/>
	<path class="st0" d="M274.8,245.2h-14.7c1.4-4.3,4.2-6.5,8.2-6.5C272.3,238.8,274.4,240.8,274.8,245.2 M282.5,246.9
		c0-8.8-5.5-14.8-13.8-14.8c-10.1,0-16.8,7.6-16.8,18.6c0,11,6.7,18.6,16.5,18.6h0.2c4.4,0,7.5-1.1,12.5-4.2l0.6-0.4l-2.6-5
		l-0.4-0.8l-0.7,0.5c-3.6,2.5-5.5,3.2-8.4,3.2c-6.2-0.1-10-4.2-10.3-11.7h23.1L282.5,246.9L282.5,246.9z"/>
	<path class="st0" d="M297.4,205h27.9c0,0,28.8,35.6,78.5,43.2H340L297.4,205z"/>
	<path class="st0" d="M297.4,291.5h27.9c0,0,28.8-35.6,78.5-43.2H340L297.4,291.5z"/>
</g>
</svg>
