<?xml version="1.0" encoding="utf-8"?>
<!-- Generator: Adobe Illustrator 26.2.1, SVG Export Plug-In . SVG Version: 6.00 Build 0)  -->
<svg version="1.1" id="Layer_1" xmlns="http://www.w3.org/2000/svg" xmlns:xlink="http://www.w3.org/1999/xlink" x="0px" y="0px"
	 viewBox="0 0 500 500" style="enable-background:new 0 0 500 500;" xml:space="preserve">
<style type="text/css">
	.st0{fill:#FEFEFE;}
</style>
<g id="Layer_2_1_">
	<g id="Blue">
		<path class="st0" d="M81.9,248c-0.4-0.6-1.2-0.7-1.8-0.2c-0.2,0.1-0.3,0.3-0.4,0.5l-10.9,21.8c-0.3,0.6-0.1,1.4,0.6,1.7
			c0.2,0.1,0.4,0.1,0.6,0.1h15.2c0.5,0,1-0.3,1.2-0.7C89.6,264.5,87.6,254.2,81.9,248z"/>
		<path class="st0" d="M89.9,228.2c-5.5,8.5-6.2,19.3-1.7,28.4l7.3,14.6c0.2,0.4,0.7,0.7,1.2,0.7h15.2c0.7,0,1.3-0.6,1.3-1.3
			c0-0.2,0-0.4-0.1-0.6c0,0-20.4-40.8-20.9-41.9c-0.3-0.6-1-0.9-1.6-0.6C90.2,227.7,90,227.9,89.9,228.2z"/>
		<path class="st0" d="M267.9,245.7c0,5.4,2.5,9.7,12.3,11.6c5.8,1.2,7.1,2.2,7.1,4.1s-1.2,3.1-5.3,3.1c-5-0.1-9.8-1.4-14.2-3.8v8.8
			c2.9,1.4,6.8,3.1,14.1,3.1c10.2,0,14.3-4.6,14.3-11.4 M296.1,261.1c0-6.4-3.4-9.4-13-11.5c-5.3-1.2-6.6-2.3-6.6-4
			c0-2.1,1.9-3,5.4-3c4.2,0,8.4,1.3,12.4,3.1v-8.4c-3.8-1.7-7.9-2.6-12.1-2.5c-9.5,0-14.4,4.1-14.4,10.9"/>
		<polygon class="st0" points="399.4,235.4 399.4,271.9 407.2,271.9 407.2,244.1 410.5,251.5 421.5,271.9 431.3,271.9 431.3,235.4 
			423.5,235.4 423.5,259 420.6,252.1 411.7,235.4 		"/>
		<rect x="341.4" y="235.4" class="st0" width="8.5" height="36.6"/>
		<path class="st0" d="M331.6,261.1c0-6.4-3.4-9.4-13-11.5c-5.3-1.2-6.6-2.3-6.6-4c0-2.1,1.9-3,5.4-3c4.2,0,8.4,1.3,12.4,3.1v-8.4
			c-3.8-1.7-7.9-2.6-12.1-2.5c-9.5,0-14.4,4.1-14.4,10.9c0,5.4,2.5,9.7,12.3,11.6c5.8,1.2,7.1,2.2,7.1,4.1s-1.2,3.1-5.3,3.1
			c-5-0.1-9.8-1.4-14.2-3.8v8.8c2.9,1.4,6.8,3.1,14.1,3.1C327.5,272.5,331.6,267.9,331.6,261.1"/>
		<polygon class="st0" points="201.8,235.4 201.8,271.9 219.3,271.9 222,264 210.3,264 210.3,235.4 		"/>
		<polygon class="st0" points="167.2,235.4 167.2,243.3 176.6,243.3 176.6,271.9 185.2,271.9 185.2,243.3 195.3,243.3 195.3,235.4 
					"/>
		<path class="st0" d="M154.7,235.4h-11.2L130.8,272h9.7l1.8-6.2c4.5,1.3,9.2,1.3,13.6,0l1.8,6.2h9.7L154.7,235.4z M149.1,259.2
			c-1.6,0-3.2-0.2-4.7-0.7l4.7-16l4.7,16C152.3,259,150.7,259.2,149.1,259.2z"/>
		<path class="st0" d="M249.4,235.4h-11.2L225.5,272h9.7l1.8-6.2c4.5,1.3,9.2,1.3,13.6,0l1.8,6.2h9.7L249.4,235.4z M243.8,259.2
			c-1.6,0-3.2-0.2-4.7-0.7l4.7-16l4.7,16C247,259,245.4,259.2,243.8,259.2z"/>
		<path class="st0" d="M380.6,235.4h-11.2L356.7,272h9.7l1.8-6.2c4.5,1.3,9.2,1.3,13.6,0l1.8,6.2h9.7L380.6,235.4z M375,259.2
			c-1.6,0-3.2-0.2-4.7-0.7l4.7-16l4.7,16C378.1,259,376.5,259.2,375,259.2z"/>
	</g>
</g>
</svg>
