<?xml version="1.0" encoding="utf-8"?>
<!-- Generator: Adobe Illustrator 26.2.1, SVG Export Plug-In . SVG Version: 6.00 Build 0)  -->
<svg version="1.1" id="Layer_1" xmlns="http://www.w3.org/2000/svg" xmlns:xlink="http://www.w3.org/1999/xlink" x="0px" y="0px"
	 viewBox="0 0 500 500" style="enable-background:new 0 0 500 500;" xml:space="preserve">
<style type="text/css">
	.st0{fill:#FEFEFE;}
</style>
<g>
	<g>
		<g>
			<path class="st0" d="M304.7,239c0.5-0.2,1.5-0.7,2-0.9c0.6-0.2,0.5-0.5,0.4-0.9c-0.7-2.1-1-4.4-1-6.7c0-11.9,9.7-21.6,21.6-21.6
				s21.6,9.7,21.6,21.6c0,3.1-0.7,6-1.9,8.6c-0.1,0.2-0.1,0.6,0.2,0.7c0.4,0.1,1.6,0.7,2.1,0.9c0.4,0.1,0.6,0,0.8-0.4
				c1.3-3,2.1-6.4,2.1-9.8c0-13.7-11.2-24.9-24.9-24.9c-13.8,0-24.9,11.2-24.9,24.9c0,2.9,0.5,5.5,1.4,8.1
				C304.1,239,304.2,239.3,304.7,239"/>
			<path class="st0" d="M298.4,242c0.6-0.2,2.3-1,2.8-1.3c0.5-0.2,0.4-0.6,0.4-0.8c-1-2.9-1.6-6-1.6-9.2c0-15.2,12.5-27.7,27.7-27.7
				s27.6,12.5,27.6,27.7c0,3.9-0.8,7.6-2.3,11c-0.1,0.1-0.2,0.6,0.2,0.8c0.5,0.2,2.4,1,2.8,1.3c0.4,0.1,0.7,0.1,0.8-0.4
				c1.7-3.8,2.6-8.2,2.6-12.6c0-17.5-14.3-31.9-31.9-31.9c-17.5,0-31.9,14.3-31.9,31.9c0,3.9,0.7,7.5,2,11
				C297.6,241.8,297.9,242.3,298.4,242"/>
			<path class="st0" d="M289.8,246c0.6-0.2,4.4-2,5.1-2.3c0.7-0.4,0.4-0.8,0.2-1c-1.4-3.7-2.2-7.7-2.2-12c0-19,15.5-34.5,34.5-34.5
				s34.5,15.5,34.5,34.5c0,4.9-1,9.5-2.8,13.6c-0.1,0.2-0.2,0.8,0.4,1s4.3,1.9,4.7,2.1c0.5,0.2,0.8,0.2,1.1-0.6
				c2.1-5,3.2-10.4,3.2-16.1c0-22.9-18.6-41.4-41.3-41.4c-22.9,0-41.4,18.6-41.4,41.4c0,5.3,1,10.3,2.8,14.9
				C289,245.7,289.2,246.3,289.8,246"/>
			<path class="st0" d="M327.5,221.6c2.4,0,4.4-2,4.4-4.4s-2-4.4-4.4-4.4s-4.4,2-4.4,4.4C323,219.6,325,221.6,327.5,221.6"/>
			<path class="st0" d="M329.1,244.8c0.8,0,1.6-0.7,1.6-1.6v-9.7c0-1.3,0.9-2.8,1.7-3.7l9.1-9.1c0.6-0.6,0.6-1.6,0-2.2l-1.6-1.6
				c-0.6-0.6-1.6-0.6-2.2,0l-8.3,8.3c-0.6,0.5-0.9,0.8-2,0.8s-1.4-0.4-2-0.8l-8.3-8.3c-0.6-0.6-1.6-0.6-2.2,0l-1.6,1.6
				c-0.6,0.6-0.6,1.6,0,2.2l9.1,9.1c0.9,0.9,1.7,2.5,1.7,3.7v9.7c0,0.9,0.7,1.6,1.6,1.6H329.1z"/>
			<path class="st0" d="M358,248.3c-1.6,0.6-4.5,3.5-5.8,4.6l-0.4,0.1c0.5-0.6,2.4-3,3-3.9c1.6-2.6-1.4-5.1-4.7-3.2
				c-1.3,0.7-3.4,2.9-4.3,3.7l-0.4,0.1c0.5-0.5,2.3-2.9,2.8-3.6c1.4-2.1-1.6-4.1-4.1-2.5c-1.9,1.1-3.4,2.6-4.9,3.8H339
				c0.5-0.4,1.4-1.6,1.9-2.1c1.5-1.7-0.7-3.7-3-2.5c-2.2,1.1-5.4,4.3-8.9,6.6c1.6,0.8,4.5,1,9,2.9c4.5,2,6,6.5,3,9.9
				c-2.8,3.2-6.8,2.2-10.4,1c-4.1-1.3-5.6-2.6-10.6-4.4c-3.2-1.1-4.6-1.1-4.5-2.1s2.9-0.5,5.5,0.5c7.3,2.6,17,8.6,19.4,2.2
				c1.9-5.1-6.6-7.4-9.8-8c-4.5-0.8-7.6-4.1-11.5-6.2c-5.9-3.1-10.4-3.2-13.7-2.6c-3.6,0.7-8.8,3.6-11.9,5.4c-2.2,1.3-2,3.2,0.1,6.2
				c7.5,10.6,19.9,17.5,33.8,17.5c14.9,0,27.8-7.9,35.2-19.6C364.2,249.8,361.7,247,358,248.3"/>
		</g>
		<path class="st0" d="M275.6,177.5h103.8V285H275.6V177.5z M120.6,177.5H273V285H120.6V177.5z M118.1,287.5h263.8V175H118.1V287.5z
			"/>
		<g>
			<path class="st0" d="M239.4,276.8c0,1.1,4.3,2.4,6.5,2.4s5.3-0.8,6.9-4.7c1.7-4.1,8.6-28.1,8.6-28.1h0.8c1.6-0.2,2.2-1.3,2.2-3.6
				c0-0.8-0.1-0.9-0.8-0.9h-5.8c-0.6,0-0.6,0.1-0.8,0.6l-4.7,18.5l-5-18.5c-0.1-0.6-0.2-0.6-0.8-0.7h-5.8c-0.7,0-0.8,0.1-0.8,0.9
				c0,2.4,0.6,3.4,2.2,3.6h0.8c0,0,4.6,16,7,22.9l-0.4,1.3c-0.8,2.5-2.1,3.7-4.3,3.7c-0.5,0-3.4-0.5-3.4-0.5
				c-1.6-0.1-2.1,0.6-2.2,1.1C239.6,275.7,239.4,276.5,239.4,276.8"/>
			<path class="st0" d="M219.9,232.8h-6.8c-0.6,0-0.6,0-0.7,0.7l-3.8,23.9l-4.6-23.8c-0.1-0.7-0.2-0.8-0.9-0.8H200
				c-1.1,0-1.1,0.1-1.4,0.8l-4.9,23.8l-3.7-23.9c-0.1-0.6-0.1-0.7-0.7-0.7h-7c-0.7,0-0.8,0.1-0.8,0.9c0,2.6,0.6,3.6,2.5,3.8h0.7
				l5.4,29.4c0.1,0.7,0.2,0.8,0.9,0.8h4.6c0.7,0,0.8,0,0.9-0.8l4.6-22.9l3.9,22.9c0.1,0.8,0.1,0.8,0.9,0.8h4.7
				c0.6,0,0.7-0.1,0.9-0.8l6.1-29.4h0.7c1.9-0.2,2.5-1.1,2.5-3.8C220.6,232.9,220.5,232.8,219.9,232.8"/>
			<path class="st0" d="M231.6,262c-0.7,0.7-2,2.2-3.9,2.2c-2,0-3.5-1.6-3.5-3.8c0-4.9,5.8-4.5,7.3-4.4L231.6,262L231.6,262
				L231.6,262z M237.6,263.3c-0.2-1-0.6-2.3-0.6-4.6v-9.2c0-5.8-2.5-8.4-8.3-8.4c-4,0-8.2,1.7-8.2,2.9c0,0.1,0.1,1,0.5,1.7
				c0.1,0.4,0.4,1.1,2.1,1c0.7,0,3.7-0.6,4.9-0.6c3.2,0,3.6,1.9,3.6,4.1v1.9c-4,0-12.8,0-12.8,8.9c0,5,2.8,8.1,7.1,8.1
				c3.4,0,5.1-1.9,6-3l0.4-0.5l0.1,0.7c0.2,1,0.5,1.9,1.3,1.9h5.9c0.7,0,0.8-0.1,0.8-0.9C240.5,264.3,239.9,263.4,237.6,263.3"/>
			<path class="st0" d="M196.2,219.9h-0.6V199c0-0.5,0-0.6-0.6-0.6h-8.2c-0.7,0-0.8,0-0.8,0.9c0,2.9,0.7,3.7,3.2,3.7h0.6v16.9h-0.6
				c-2.4,0-3.2,0.8-3.2,3.7c0,0.8,0.1,0.9,0.8,0.9h11.8c0.7,0,0.8-0.1,0.8-0.9C199.5,220.8,198.6,219.9,196.2,219.9"/>
			<path class="st0" d="M192.6,188.5c-2,0-3.5,1.6-3.5,3.7s1.6,3.8,3.5,3.8c2,0,3.5-1.7,3.5-3.8
				C196.1,190.2,194.5,188.5,192.6,188.5"/>
			<path class="st0" d="M153.5,195.1L153.5,195.1c2.6,0,3.5-0.9,3.5-3.8c0-0.8-0.1-0.9-0.8-0.9h-11.3c-0.7,0-0.8,0.1-0.8,0.5v0.5
				c0,2.9,0.8,3.8,3.2,3.8h0.1v17.2c0,3.2,0,7.7-5.3,7.7c-4.9,0-5.3-3.5-5.3-7.7v-17.2h0.1c2.4,0,3.2-0.9,3.2-3.8v-0.6
				c0-0.4-0.1-0.4-0.8-0.4H128c-0.7,0-0.8,0.1-0.8,0.9c0,2.9,0.8,3.8,3.4,3.8h0.1v17.2c0,9.2,3.5,13.1,11.4,13.1
				c8.1,0,11.4-3.9,11.4-13.1L153.5,195.1L153.5,195.1z"/>
			<path class="st0" d="M179.9,219.9v-14.1c0-5.8-1.9-8.3-6.1-8.3c-3.8,0-5.9,2.2-7.5,3.9c-0.1-0.6-0.2-1-0.2-1
				c-0.2-1.1-0.5-1.9-1.1-1.9h-6.4c-0.7,0-0.8,0-0.8,0.9c0,2.6,0.7,3.7,3,3.7c0.4,1.1,0.6,2.1,0.6,4.7V220c-2.4,0-3.1,0.9-3.1,3.7
				c0,0.8,0.1,0.9,0.8,0.9h7.6c0.5,0,0.5-0.1,0.5-0.6v-18.9c0.7-0.7,2.3-2.3,4.3-2.3c2.9,0,2.9,3.2,2.9,4.7V224c0,0.5,0,0.6,0.5,0.6
				h7.6c0.7,0,0.8-0.1,0.8-0.9C183.1,220.8,182.3,219.9,179.9,219.9"/>
			<path class="st0" d="M210.4,225.4c3.4,0,6.1-0.9,6.1-1.6c0-0.1-0.2-1.1-0.4-1.6c-0.5-2-0.7-2.6-4.3-2.2c-0.5,0-0.8-0.1-1.1-0.4
				c-0.7-0.7-0.7-2.2-0.7-3.5V203h3.2c2.4,0,3.2-0.9,3.2-3.7c0-0.8-0.1-0.9-0.8-0.9H210V191c0-0.7,0-0.7-0.4-0.7
				c-0.2,0-1.5,0.1-2.1,0.2c-1.6,0.2-3.5,1.5-3.5,4.5v3.4h-3.4c-0.7,0-0.8,0-0.8,0.9c0,2.9,0.7,3.7,3.2,3.7h0.9v12.2
				C204.3,220.2,204.3,225.4,210.4,225.4"/>
			<path class="st0" d="M224.6,208.5V208c0.1-1.7,0.6-5.9,4.3-5.9c3.6,0,3.7,4.1,3.7,6.4H224.6z M238.5,211.9
				c0-9.6-3.2-14.4-9.5-14.4s-10.4,5.8-10.4,14.2c0,11.3,5.8,13.7,10.6,13.7c3.9,0,8.4-1.9,8.4-3c0-0.2-0.2-1-0.5-1.9
				c-0.2-0.6-0.5-1.1-2.2-1c-1.3,0.1-3.4,0.7-5.2,0.7c-3.6,0-5.4-2.3-5.4-7h13.1C238.4,213.1,238.5,212.9,238.5,211.9"/>
			<path class="st0" d="M251.3,220.5c-3.5,0-4.3-3.2-4.3-8.8c0-5.9,0.7-9.1,4.5-9.1c1.5,0,2.6,0.4,3.8,1.1v14.9
				C254.7,219.3,253.7,220.5,251.3,220.5 M261.8,219.9c-0.4-1-0.6-2.1-0.6-4.6v-26c0-0.5,0-0.6-0.5-0.6h-7.6c-0.7,0-0.8,0.1-0.8,0.9
				c0,2.8,0.7,3.7,3,3.7h0.1v6L255,199c-0.9-0.6-2.1-1.5-4.6-1.5c-5.9,0-9.1,5.2-9.1,15c0,8.3,2.9,12.9,8.1,12.9c4.1,0,6.8-3,6.8-3
				l0.4,1.1c0.2,0.9,0.2,1,1,1h6.7c0.7,0,0.8-0.1,0.8-0.9C265.1,220.8,264.3,219.9,261.8,219.9"/>
			<path class="st0" d="M126.8,317.9c1.1,0,2.1-0.5,2.8-1.3s1-1.9,1-3.1c0-1.1-0.4-2.2-1-3c-0.7-0.8-1.6-1.3-2.8-1.3
				c-1.1,0-2.1,0.5-2.8,1.3c-0.7,0.8-1,1.9-1,3c0,1.3,0.4,2.2,1,3.1S125.6,317.9,126.8,317.9 M126.8,320.4c-2,0-3.6-0.7-4.9-2
				s-1.9-2.9-1.9-4.9s0.6-3.6,1.9-4.9s2.9-2,4.9-2c2.1,0,3.7,0.7,4.9,2c1.3,1.3,1.9,2.9,1.9,4.9s-0.6,3.6-1.9,4.9
				C130.4,319.7,128.7,320.4,126.8,320.4"/>
			<path class="st0" d="M139.6,320h-2.8v-10.5h-2.2v-2.4h2.2v-0.7c0-1.4,0.4-2.5,1.1-3.2c0.7-0.8,1.7-1.1,3-1.1
				c1.4,0,2.4,0.4,3.1,1.1l-1.1,1.7c-0.5-0.4-0.9-0.6-1.5-0.6s-1,0.2-1.3,0.6c-0.4,0.4-0.5,0.9-0.5,1.6v0.7h2.6v2.4h-2.6V320
				L139.6,320z"/>
		</g>
		<polygon class="st0" points="169.9,320 166.8,320 166.8,306.8 161.3,320 160,320 154.5,306.8 154.5,320 151.4,320 151.4,302.1 
			155.7,302.1 160.6,313.9 165.5,302.1 169.9,302.1 		"/>
		<g>
			<path class="st0" d="M183.2,312.5c0-0.9-0.4-1.7-0.9-2.4c-0.6-0.7-1.5-1-2.6-1s-2,0.4-2.6,1c-0.6,0.7-0.9,1.5-1,2.4H183.2z
				 M179.7,320.4c-2,0-3.6-0.6-4.9-1.9c-1.3-1.3-2-2.9-2-5c0-1.9,0.6-3.5,1.9-4.9c1.3-1.3,2.8-2,4.7-2c2,0,3.5,0.7,4.6,2
				s1.7,3,1.7,5.1v0.7h-10c0.1,1,0.6,1.9,1.3,2.5c0.7,0.7,1.7,1,2.9,1c0.7,0,1.4-0.1,2-0.4c0.7-0.2,1.3-0.6,1.7-1l1.3,1.9
				C183.6,319.8,181.9,320.4,179.7,320.4"/>
			<path class="st0" d="M192.4,320.4c-1,0-2-0.2-2.5-0.8c-0.6-0.7-0.8-1.4-0.8-2.4v-7.5h-2.2v-2.4h2.2v-3.6h2.8v3.6h2.6v2.4h-2.6
				v6.8c0,0.5,0.1,0.8,0.4,1.1c0.2,0.2,0.6,0.5,0.9,0.5c0.6,0,1-0.1,1.3-0.5l0.7,2.1C194.5,320.1,193.7,320.4,192.4,320.4"/>
			<path class="st0" d="M199.9,320h-2.8v-12.9h2.8v2c0.5-0.7,1.1-1.1,1.9-1.6c0.8-0.5,1.5-0.6,2.3-0.6v2.8c-0.2,0-0.6-0.1-0.9-0.1
				c-0.6,0-1.3,0.1-1.9,0.6c-0.7,0.4-1.1,0.7-1.4,1.1L199.9,320L199.9,320z"/>
			<path class="st0" d="M212,317.9c1.1,0,2.1-0.5,2.8-1.3s1-1.9,1-3.1c0-1.1-0.4-2.2-1-3c-0.7-0.8-1.6-1.3-2.8-1.3
				c-1.1,0-2.1,0.5-2.8,1.3s-1,1.9-1,3c0,1.3,0.4,2.2,1,3.1C210.1,317.5,210.9,317.9,212,317.9 M212,320.4c-2,0-3.6-0.7-4.9-2
				c-1.3-1.3-1.9-2.9-1.9-4.9s0.6-3.6,1.9-4.9c1.3-1.3,2.9-2,4.9-2c2.1,0,3.7,0.7,4.9,2c1.3,1.3,1.9,2.9,1.9,4.9s-0.6,3.6-1.9,4.9
				C215.7,319.7,214.1,320.4,212,320.4"/>
			<path class="st0" d="M227.6,317.9c1.1,0,2-0.4,2.6-1.1c0.7-0.8,1-1.9,1-3.1c0-1.3-0.4-2.3-1-3.1c-0.7-0.8-1.5-1.1-2.6-1.1
				c-0.7,0-1.3,0.1-2,0.5c-0.6,0.4-1.1,0.7-1.4,1.3v5.1c0.4,0.5,0.8,0.9,1.4,1.3C226.4,317.7,226.9,317.9,227.6,317.9 M228.4,320.4
				c-1.7,0-3.1-0.7-4.1-2.1v6.7h-2.8v-17.9h2.8v1.7c1-1.4,2.4-2.1,4.1-2.1c1.7,0,3.1,0.6,4.1,1.9s1.6,2.9,1.6,5s-0.6,3.8-1.6,5
				C231.5,319.8,230.1,320.4,228.4,320.4"/>
			<path class="st0" d="M242.9,317.9c1.1,0,2.1-0.5,2.8-1.3s1-1.9,1-3.1c0-1.1-0.4-2.2-1-3c-0.7-0.8-1.6-1.3-2.8-1.3
				c-1.1,0-2.1,0.5-2.8,1.3s-1,1.9-1,3c0,1.3,0.4,2.2,1,3.1C240.8,317.5,241.7,317.9,242.9,317.9 M242.9,320.4c-2,0-3.6-0.7-4.9-2
				c-1.3-1.3-1.9-2.9-1.9-4.9s0.6-3.6,1.9-4.9c1.3-1.3,2.9-2,4.9-2c2.1,0,3.7,0.7,4.9,2c1.3,1.3,1.9,2.9,1.9,4.9s-0.6,3.6-1.9,4.9
				C246.4,319.8,244.8,320.4,242.9,320.4"/>
		</g>
		<rect x="252.2" y="302.1" class="st0" width="2.8" height="17.9"/>
		<g>
			<path class="st0" d="M261.3,320h-2.8v-12.9h2.8V320z M259.9,305.5c-0.5,0-0.9-0.1-1.3-0.5s-0.6-0.8-0.6-1.3s0.2-0.9,0.6-1.3
				s0.8-0.5,1.3-0.5s0.9,0.1,1.3,0.5s0.5,0.8,0.5,1.3s-0.1,0.9-0.5,1.3C260.9,305.4,260.4,305.5,259.9,305.5"/>
			<path class="st0" d="M268.8,320.4c-1,0-2-0.2-2.5-0.8c-0.6-0.7-0.8-1.4-0.8-2.4v-7.5h-2.2v-2.4h2.2v-3.6h2.8v3.6h2.6v2.4h-2.6
				v6.8c0,0.5,0.1,0.8,0.4,1.1c0.2,0.2,0.6,0.5,0.9,0.5c0.6,0,1-0.1,1.3-0.5l0.7,2.1C270.9,320.1,270.1,320.4,268.8,320.4"/>
			<path class="st0" d="M278.4,318.4c1.4,0,2.4-0.5,3.1-1.4v-2c-0.7-0.9-1.7-1.4-3.1-1.4c-0.8,0-1.5,0.2-2,0.7
				c-0.6,0.5-0.8,1-0.8,1.7s0.2,1.3,0.8,1.7C276.9,318.2,277.6,318.4,278.4,318.4 M284.3,320h-2.8v-1.4c-1,1.1-2.4,1.7-4.1,1.7
				c-1.1,0-2.2-0.4-3.1-1.1c-0.9-0.8-1.4-1.9-1.4-3.1c0-1.4,0.5-2.4,1.4-3.1s2-1,3.1-1c1.9,0,3.2,0.6,4.1,1.6v-2
				c0-0.7-0.2-1.4-0.8-1.7c-0.6-0.5-1.3-0.7-2.2-0.7c-1.5,0-2.8,0.6-3.8,1.6l-1.1-2c1.5-1.4,3.2-2.1,5.4-2.1c1.6,0,2.9,0.4,3.9,1.1
				c1,0.8,1.5,2,1.5,3.6L284.3,320L284.3,320z"/>
			<path class="st0" d="M299.3,320h-2.8v-8c0-1.9-0.9-2.6-2.6-2.6c-0.7,0-1.3,0.1-2,0.5c-0.6,0.4-1,0.8-1.4,1.3v9h-2.8v-12.9h2.8
				v1.7c0.5-0.6,1.1-1,2-1.5c0.8-0.5,1.7-0.6,2.6-0.6c1.4,0,2.4,0.4,3.1,1c0.7,0.7,1,1.7,1,3.1L299.3,320L299.3,320z"/>
			<path class="st0" d="M316.6,317.3c1.9,0,3.4-0.6,4.5-1.7s1.6-2.6,1.6-4.4c0-1.9-0.6-3.4-1.6-4.5s-2.5-1.7-4.5-1.7h-3.5v12.4
				L316.6,317.3L316.6,317.3z M316.6,320h-6.7v-17.9h6.7c2.8,0,5.1,0.8,6.8,2.5c1.7,1.6,2.6,3.8,2.6,6.5c0,2.6-0.8,4.7-2.5,6.5
				C321.6,319.2,319.4,320,316.6,320"/>
			<path class="st0" d="M333.6,318.4c1.4,0,2.4-0.5,3.1-1.4v-2c-0.7-0.9-1.7-1.4-3.1-1.4c-0.8,0-1.5,0.2-2,0.7
				c-0.6,0.5-0.8,1-0.8,1.7s0.2,1.3,0.8,1.7C332.1,318.2,332.9,318.4,333.6,318.4 M339.5,320h-2.8v-1.4c-1,1.1-2.4,1.7-4.1,1.7
				c-1.1,0-2.2-0.4-3.1-1.1c-0.9-0.8-1.4-1.9-1.4-3.1c0-1.4,0.5-2.4,1.4-3.1s2-1,3.1-1c1.9,0,3.2,0.6,4.1,1.6v-2
				c0-0.7-0.2-1.4-0.8-1.7c-0.6-0.5-1.3-0.7-2.2-0.7c-1.5,0-2.8,0.6-3.8,1.6l-1.1-2c1.5-1.4,3.2-2.1,5.4-2.1c1.6,0,2.9,0.4,3.9,1.1
				c1,0.8,1.5,2,1.5,3.6L339.5,320L339.5,320z"/>
		</g>
		<rect x="343" y="302.1" class="st0" width="2.8" height="17.9"/>
		<rect x="349.2" y="302.1" class="st0" width="2.8" height="17.9"/>
		<g>
			<path class="st0" d="M360.4,318.4c1.4,0,2.4-0.5,3.1-1.4v-2c-0.7-0.9-1.7-1.4-3.1-1.4c-0.8,0-1.5,0.2-2,0.7
				c-0.6,0.5-0.8,1-0.8,1.7s0.2,1.3,0.8,1.7C358.9,318.2,359.6,318.4,360.4,318.4 M366.3,320h-2.8v-1.4c-1,1.1-2.4,1.7-4.1,1.7
				c-1.1,0-2.2-0.4-3.1-1.1c-0.9-0.8-1.4-1.9-1.4-3.1c0-1.4,0.5-2.4,1.4-3.1s2-1,3.1-1c1.9,0,3.2,0.6,4.1,1.6v-2
				c0-0.7-0.2-1.4-0.8-1.7c-0.6-0.5-1.3-0.7-2.2-0.7c-1.5,0-2.8,0.6-3.8,1.6l-1.1-2c1.5-1.4,3.2-2.1,5.4-2.1c1.6,0,2.9,0.4,3.9,1.1
				c1,0.8,1.5,2,1.5,3.6L366.3,320L366.3,320z"/>
			<path class="st0" d="M374.1,320.4c-2.3,0-4.1-0.7-5.5-2l1.3-2.1c0.5,0.5,1.1,0.9,2,1.3c0.8,0.4,1.6,0.6,2.4,0.6s1.5-0.1,1.9-0.5
				c0.5-0.4,0.7-0.7,0.7-1.3c0-0.5-0.2-0.8-0.8-1c-0.6-0.2-1.1-0.5-2-0.6c-0.8-0.1-1.5-0.4-2.3-0.6s-1.4-0.6-2-1.1
				c-0.6-0.6-0.8-1.3-0.8-2.2c0-1.1,0.5-2.1,1.4-2.8c0.9-0.8,2.2-1.1,3.7-1.1c2,0,3.7,0.6,5.1,1.9l-1.1,2c-0.5-0.5-0.9-0.8-1.6-1.1
				c-0.7-0.2-1.4-0.5-2.2-0.5c-0.7,0-1.3,0.1-1.7,0.5c-0.5,0.4-0.7,0.7-0.7,1.1s0.2,0.7,0.6,0.9c0.4,0.2,0.9,0.4,1.5,0.5
				s1.3,0.2,1.9,0.5c0.7,0.2,1.3,0.5,1.9,0.7s1,0.7,1.5,1.3c0.4,0.6,0.6,1.3,0.6,2.1c0,1.1-0.5,2.2-1.4,2.9
				C377.3,320,375.9,320.4,374.1,320.4"/>
		</g>
	</g>
</g>
</svg>
