<?xml version="1.0" encoding="utf-8"?>
<!-- Generator: Adobe Illustrator 26.2.1, SVG Export Plug-In . SVG Version: 6.00 Build 0)  -->
<svg version="1.1" id="Layer_1" xmlns="http://www.w3.org/2000/svg" xmlns:xlink="http://www.w3.org/1999/xlink" x="0px" y="0px"
	 viewBox="0 0 500 500" style="enable-background:new 0 0 500 500;" xml:space="preserve">
<style type="text/css">
	.st0{fill:#FEFEFE;}
</style>
<g>
	<path class="st0" d="M191.3,196.9L191.3,196.9L191.3,196.9z"/>
	<path class="st0" d="M197.7,195.5l-0.1-0.3c0,0-0.4,0.4-0.6,0.5c-0.2-0.4-0.8-2.2-0.8-2.2c-0.4-0.7-1.3-1-2-0.7
		c-1,0.2-2.8,2.2-2.8,2.3c-0.5,0.5-0.5,1.3-0.1,1.9c0.6,1.3,1.6,2.5,2.9,3.3c0.7,0.4,1.5,0.4,2.2,0.2c0.1,0,1-0.7,1-0.7
		c0.8-0.5,1.1-1.4,0.9-2.3L197.7,195.5z"/>
	<polygon class="st0" points="332.8,294.1 332.8,294.3 333.7,294.3 333.7,296.6 334.2,296.6 334.3,296.6 334.3,296.5 334.3,294.3 
		335,294.3 335.2,294.3 335.2,293.8 335.2,293.7 332.8,293.7 	"/>
	<path class="st0" d="M218,303.4l-0.2-0.3l-0.2,0.2c-0.4,1-0.8,1.9-1.1,2.9c-0.1,0-0.5,0-0.5,0l-1.1,5.4c0,0.1,0,0.1,0,0.2
		c0,0.2,0.1,0.4,0.2,0.6c0.3,0.2,0.6,0.2,0.9,0l0,0l0,0c0.8-0.6,1.7-1.1,2.7-1.3c0.6,0.1,1.1,0.3,1.6,0.6l0.4,0.3l-0.1-0.5
		C220.4,308.7,219.4,305.9,218,303.4z"/>
	<path class="st0" d="M334.9,303.8c0,0-3.2-3.9-4.6-4.5l1.2-0.8c0,0-8.8-5.3-13.1-5.5c-1.7-0.3-3.4,0-4.9,0.8c0,0-6.9,3.7-12.1,6.8
		c0,0-0.5-6.4-15.6-6.6v-0.5c0,0-9.4-0.1-13.2,1.2c0,0-3.9,0.8-5.8,3.2c0,0-1.6-2.7-9.4-3.5l0.6-0.8c0,0-3.3-0.4-13.8,1
		c0,0-7.4,0.8-9.9,9.2c0,0-2.5-5.5-3-6.2c0,0-1.4-2.7-6.7-3.5l0.6-1.4c0,0-11.4-0.1-17.9,1.3c-1.1,1.2-2,2.6-2.6,4.2l-0.2-3.1
		c0,0-1.6-1.4-13-1.5l0.2-1.2c0,0-13-1.2-23.7,3.4h-0.5c0,0.1-2,1.7-2.2,12.6l1-0.3c0,0-0.2,4.8,1,6.3c0,0,3.9,3.8,4.5,3.8l2.9-0.7
		l0.2,0.1c0,0-0.1,1.5,0.4,1.8c0,0,0.2,4.8,2.1,6.5c0,0,3.6,5.2,3.9,5.2c0,0-0.1,1.4,5.2,1.5c0,0,5,0.5,6.3-0.4c0,0,1.6-0.1,1.8-2.6
		l1.6-7.8l0.7,0.5c0,0,0.3,1.3,2.6-8.1l0.7-0.1c0,0-1.5,6-1.5,9.1c0,0,3.1,7.4,4.5,8.7c3.7,0.8,7.6,1,11.4,0.6l-0.6-0.8h2l1.6-5.3
		l2.7-0.5l3.8,6c0,0,0.5,1,3.2,0.9c0,0,11.6,1.1,12.4-2.5c2.8,2.1,6.3,3.2,9.8,3c0,0,10.2,1,13-3.7l2.9-3.5c0,0,0.9,6,4.9,6.1
		c0,0,11.1,2.7,17.8-0.3c1.8-1.1,3.4-2.5,4.8-4c0.4,1,1.2,1.8,2.2,2.3c0,0,6.8,7.7,15.5,3.8c0,0,4.2-1.7,5.8-3.2l-0.2,1
		c3.5-1.6,6.7-3.7,9.6-6.3v0.4c0,0,4.8-1.6,6.8-7.6c0,0,1.6-5-1.1-7.1c0,0-3.3-2.3-2.2-4C330.8,305.2,332.7,304.1,334.9,303.8z
		 M201.7,299.4c0,1.5-0.2,3.2-0.3,3.7c-0.1,0-0.4-0.1-0.4-0.1l-0.1,0.2c-0.3,1-0.7,2-1.2,2.9c-0.7,0-6.5-0.1-7.7,0.7l-0.1,0.1
		c0,0-0.2,8-0.2,8.9c-0.3-0.3-0.6-0.6-0.9-0.6h-0.2v0.2c-0.2,1.7-0.7,6.4-1.5,7.2l0,0l0,0c0,0-0.5,0.8-4,0.6c-1.2,0-4.5-0.2-5.2-0.6
		c0,0-1.2-0.7-1.2-3.6c0-0.8,0.1-1.6,0.2-2.4l0.3,0.1l-0.3-3.7l-1,1.1c-0.3-0.5-0.4-1.1-0.3-1.7c0-1.2,0.2-2.3,0.4-3.5v-0.2
		l-0.1-0.1c-0.1-0.1-2.2-1.2-8.2,0.9c-0.2-0.9-0.3-1.8-0.3-2.7c0-1,0.1-2,0.5-3l0.1-0.3l-0.9,0.1c0.1-1.8,0.5-3.5,1.2-5.2
		c0.7-0.3,6.6-2.6,15.7-2.5l-0.7,1.1h0.4c0.1,0,8.1-0.7,14.3,0.3c0.4,0,0.9,0.2,1.2,0.5s0.4,0.8,0.4,1.2
		C201.7,299.2,201.7,299.3,201.7,299.4z M235.2,321.6c-0.1,0.1-3.6,4-11.4,1.8c0-0.8-0.1-3.5-0.8-4.2c0-0.3-0.4-1.2-2.6-1.5
		c-0.1,0-3.4-0.4-4.9,0.3c-0.8,0.3-1.4,1.1-1.5,2c-0.3,1-0.5,2-0.5,3.1l-4.4-0.4l0.5,0.9l-6.9-2c0-0.1,0-0.3,0-0.5
		c0-4.4,1.1-8.7,3.1-12.6l0.2-0.3h-1.1c1.2-2.9,4-9.8,4.6-10.5c0.3-0.1,2.3-0.9,9.8-1.2l-0.5,0.3h0.7c2.7,0.1,7.3,0.4,7.8,0.8
		c0,0,5.1,6.1,6,10.2l-1-0.1l0.1,0.3c0.5,1.3,0.9,2.6,1.1,3.9l-0.1,0.6c0,0,0.6-0.6,0.7-0.7c0.2,0.6,2.3,7.2,2.3,7.2
		c0.1,0.2,0.2,0.5,0.2,0.8C236.3,320.6,235.9,321.3,235.2,321.6z M264.1,321c-0.1,0-6.6,2.8-7.4,3.1l-0.2,0.1c0,0,0.2,0.3,0.2,0.5
		c-3.2,0.6-6.4,0.4-9.5-0.4c-0.1,0-5.3-0.8-8.2-9.5l0.9,0.3l-0.1-0.4c0,0-0.6-1.6-0.7-6.5v-0.3l-1.1,0.5c0.1-2.3,0.7-4.6,1.8-6.7
		c0,0,3.4-5.1,11.8-4.9c-0.2,0.3-0.7,1.2-0.7,1.2l0.5-0.1c0.1,0,7.9-1.6,12.9,2.3c0.1,0.5,0.1,1.1,0.1,1.6c0,1.2-0.2,2.5-0.7,3.6
		l-0.3-0.5l-2,4.9c-0.6-0.5-2.3-1.5-6.2,0c0.1-0.2,0.3-0.8,0.3-0.8l-0.4,0.1c0,0-3.5,0.9-3,5.1c0.3,1,1,1.9,2,2.3
		c2.2,1,5.6,0.2,10.1-2.4c0.3,1,0.5,2,0.4,3v0.4l0.8-0.7c0,0.6,0.2,2.5,0.2,2.5C265.4,320,264.9,320.6,264.1,321z M297.5,310.2
		l-0.4-0.6l-0.1,0.5c-0.3,1.7-0.8,3.5-1.3,5.1l-0.2,0.3l0.3,0.1l0.8,0.2c-0.3,0.9-1.5,4.9-2.5,6.2c-1.1,1.3-2.7,2.1-4.3,2.1
		l-7.5,0.1c0,0,0.3,0.5,0.4,0.6c-1.3,0-5.8-0.2-7.1-1.1c-0.1,0-4.2-2.3-5.1-8.4h0.8l-0.1-0.3c-0.6-1.5-1-3-1.3-4.5V310l-0.7,0.6
		c-0.3-0.5-0.8-2.2-0.8-5.8c0-0.2,0-0.5,0-0.7l0,0c0,0,0-0.2,0-0.4c0-1.9,1.1-3.6,2.9-4.4c3-1.3,6.3-1.9,9.5-2c0,0.3,0,1,0,1h0.2
		c0.1,0,6.1-0.8,10.4,0c0.1,0,6.5,0.6,7,4.3c0.1,0.8,0.2,1.6,0.2,2.4C298.5,306.7,298.2,308.5,297.5,310.2z M324.8,307.7
		c0,0.9,0.9,1.9,2.5,3c1.2,0.9,1.9,2.3,2.1,3.8c0,0.1,0,0.3,0,0.4c0,1.6-0.8,3.3-2.4,5c-0.1-0.2-0.4-0.6-0.4-0.6l-0.2,0.3
		c0,0-1.5,3.1-6.5,6.2c-0.1-0.2-0.3-0.7-0.3-0.7l-0.2,0.3c-1.4,1.3-3.1,2.2-5,2.5c0-0.2-0.1-0.6-0.1-0.6h-0.2
		c-3.1-0.2-6.1-1.5-8.3-3.7c0.4,0,0.8,0,1.2-0.2l0.2-0.1L307,323c-1.4-1.1-2.6-2.4-3.8-3.7c0.6-0.5,3.2-2.7,3.7-3.4
		c0.1-0.2,0.2-0.3,0.2-0.5c0-0.1,0-0.2-0.1-0.3c-0.2-0.3-0.4-0.5-0.7-0.5c0.7-0.6,1.2-1.5,1.3-2.5c0-0.1,0-0.2,0-0.3l0,0l0,0
		c-0.3-0.5-0.6-0.9-1-1.3c-0.7-0.9-1-1.9-1.1-3c0-0.6,0.1-1.1,0.3-1.6c0.6-0.8,1.3-1.6,2-2.2l0.6-0.3l-1.3-0.2
		c1-0.9,5.5-4.9,6.7-5.5c1.6-0.9,3.5-1.1,5.2-0.6c0,0,3.9,1.3,5.3,1.7l-1.1,0.6l0.5,0.2c0,0,4.1,1.2,5.8,2.7
		c-0.9,0.7-4.2,3.5-4.4,4.9C324.9,307.1,324.8,307.3,324.8,307.7C324.8,307.6,324.8,307.6,324.8,307.7z"/>
	<path class="st0" d="M285.6,309.5l0.4-0.7l-0.3-0.1c-1.1-0.3-2.3-0.3-3.4-0.1c-1.3,0.3-2.2,1.3-2.4,2.6c0,0,0,1.3,0,1.7h-0.5v0.2
		c0,0.1,0.3,3.1,2.9,4.1h0.1c0.1,0,3-0.1,4.3-2.5c0.3-0.9,0.5-1.8,0.5-2.8c0-0.5,0-0.9-0.1-1.4C286.8,310,286.3,309.5,285.6,309.5z"
		/>
	<polygon class="st0" points="337.9,293.7 337,295 336.1,293.7 335.6,293.7 335.5,293.7 335.5,296.6 336,296.6 336.1,296.6 
		336.1,294.8 336.9,296 337,296 337.1,296 337.1,295.9 337.9,294.8 337.9,296.6 338.4,296.6 338.5,296.6 338.5,293.7 338,293.7 	"/>
	<path class="st0" d="M350.9,219.4l0.2,0.1c-0.2-3.2-0.6-6.4-1.2-9.6c-0.4-4.1-4.2-6.1-4.2-6.1c-0.2-0.3-3.9-1.8-6.2-2.8
		c0.9-1.6,1.3-3.5,1.1-5.3c0-0.1,0-0.1,0-0.2c0.1-0.8,0.2-1.7,0-2.5c-1-5.6-4.1-6.9-4.1-6.9c-2.4-2.1-8.3-2.6-8.3-2.6
		c-2.1,0.3-4.1,0.9-6.1,1.6c-0.5-0.7-5.9-3.2-5.9-3.2c-0.9-0.4-1.8-0.6-2.7-0.6l-0.8,0.8l-0.3-1.5l-0.5,0.1
		c-0.7,1.7-2.8,3.5-3.8,4.3c0.2-0.9,0.3-1.6,0.3-1.6c0.2-0.5,0.4-1,0.3-1.5c-0.1-0.2-0.3-0.4-0.4-0.6l0.1-0.6c0.2-0.5,0.4-1,0.3-1.5
		c-0.7-1.5-3.9-2.3-3.9-2.3l0.6-0.5c-4.8-2.7-11.8-1.2-11.8-1.2c-0.7-1.1-1.8-1.9-3-2.3l0.4-0.6c-3.2-3.5-14.6-1.4-14.6-1.4
		l-0.1-1.8c-1.1-1.8-5.4-2.1-5.4-2.1l0.8-1.4c-9.2-0.3-12.9,2.5-12.9,2.5c-1.1-1.7-4.9-1.8-4.9-1.8l0.6-0.5
		c-3.7-0.8-7.5-0.9-11.3-0.6c-7.8,0.8-10.5,4.8-10.5,4.8c-5.8-5.2-11.3-2.5-11.3-2.5c0.3,0.2,0.2,0.9,0.2,0.9
		c-5.8,1-11.3,3-16.4,5.9c-4,2.6-4,4.9-4,4.9c-0.3-0.2-0.7-0.4-1-0.5l0.5-0.4l-0.2-0.4c-3.5,0.6-6.8,1.8-9.9,3.6v-0.8
		c-6,2.3-11.1,6.4-14.7,11.7c-1.6-0.9-2-0.6-2-0.6c-0.9,0.4-1.7,0.9-2.5,1.5c-2.5,1.8-9.8,8.9-9.8,8.9l-0.6-1
		c-5.2,4.8-12,18.2-12,18.2c-0.3,0.7-0.3,1.6,0,2.3c0,0.1,0.1,0.2,0.1,0.3l-0.1,0.2c-0.3,0.7-0.3,1.6,0,2.3c0.6,2.6,4.7,6.2,4.7,6.2
		c2.3,2.4,3.1,2.2,3.1,2.2s3.9,0.8,4.9,0.4c0,0,4.4-3.4,5.8-5.4c0,0,0.3-0.5,1,0.1l1.9,1l0.4-0.3l0.5,0.4l-0.5,0.5c0,0,4.8,4,10,2.1
		l7-6.8c0,0,1.1-1.7,0.1-2.8c0.2-0.4,1-1.8-0.1-2.8l-2.3-2.7l0.8-0.1l-3.7-6.5l0.7-0.6l0.7,0.6l0.4-0.5l0.6,0.5l-0.5,0.5
		c0,0,5.4,4.2,10.3,5.3c4.9,1.1,10.2-0.6,16.5-6h-0.6l1.7-2.1c0,0,4,0.9,6.9-0.2c0,0,4.2-1.6,4.7-2.6l0.2-4.5l1,0.6h0.5
		c0,0,0,1.2,2.3,2c0,0,2.2,1.4,3.1,1.4c0,0,2.7,0.8,7.7-4.2V200c1.7,2.4,6.5,2.6,6.5,2.6c3.1,0.1,9-2.3,9-2.3
		c-0.6,0.5-0.2,1.4-0.2,1.4c0.6,1.5,8.9,2.1,8.9,2.1c3.1-0.4,4.6-4.7,4.6-4.8s0,0.1,0,0.3c0,0.1,0,0.2,0,0.2c0,0.8,0,2.1,0,2.1
		c-0.3,1.5,1.3,2.3,1.3,2.3l4.5,1.3c1.3,0.7,2.7,0.7,4,0.2c1-0.1,6.3-2.5,8.4-3.6l-0.5,1.9c-0.2,0.4-0.2,0.9,0,1.3
		c0.1,0.1,0.2,0.2,0.3,0.3l-0.3,1.1c-0.2,0.4-0.2,0.9,0,1.3c0.3,0.4,5.7,4,5.7,4c1.2,0.8,4,0.8,4,0.8c3.4,0.6,9.9-1.6,11.9-2.3
		c-0.2,2.1-0.3,4.5-0.3,4.5c0,0.4,0,0.7,0.1,1.1c0,1-0.1,1.7-0.1,1.7c0.2,5.8,3.4,6.9,3.4,6.9c1.5,0.9,14.4,5.2,14.4,5.2
		c6.7,2,10.9,1.1,10.9,1.1c3.2-1,3.4-2.7,3.4-2.7c-0.4-2.7,2.3-2.8,2.3-2.8c3.5,0.5,6.9,1.5,10.1,3l-0.3-2.9l0.3,0.2l-0.4-3.3
		l0.7,0.3C351.1,221.3,351,220.3,350.9,219.4z M180.6,220c-1.6,2-3.5,3.8-5.5,5.4c-0.7,0.6-1.1,0.2-1.1,0.1c-0.8-0.6-1.5-1.2-2.2-2
		l0.9-0.1l-0.3-0.3c-0.8-0.7-1.7-1.4-2.7-1.8l-0.4-0.2c0,0,0.1,0.9,0.2,1.3c-0.6-0.4-3.9-2.7-4.9-3.5c-0.2-0.1-0.1-0.7-0.1-0.7
		l-0.5,0.6c-1.3,1.6-5.3,6.5-6,7.4c-5-3.1-5.7-6.1-5.7-6.4c4.7-8.7,8.2-12.5,9.1-13.5l0.2,1l0.3-0.3c8.9-9.3,12.7-11.6,13.3-11.9
		c1.7,0.8,3.9,5.7,4,5.7c0.1,0.2,0.2,0.5,0.2,0.7s-0.1,0.5-0.2,0.6l-4.5,4.9l3.7,6.1l-0.9-0.1l2.9,5.1
		C180.7,218.9,180.7,219.5,180.6,220L180.6,220z M205.9,200.1c0,0.6-0.4,1.2-0.9,1.5l-3.7,2.8c0.2,0,0.5,0.1,0.7,0.2l-6.4,3.6
		c-1.3,0.7-2.9,0.7-4.2,0.2c0,0-4.4-2.6-5.5-3.8c0.1-0.1,0.3-0.1,0.4-0.1h0.5l-0.4-0.3c-0.6-0.5-2.3-2.1-2.6-3h-0.4
		c0,0-0.1,0.9-0.1,1.4c-0.8-0.8-3.3-3.4-4-5.9c-0.1-0.5-0.2-1-0.2-1.5c0-1.7,0.8-3.4,2.2-4.4c0,0,5.7-3.9,7.1-4.9c0,0.2,0,0.8,0,0.8
		l0.3-0.2c1.9-1.4,6.9-4.8,9.1-5l-0.3,0.4c0,0,2.9-0.7,4.2,1.6c0,0,1.8,4.1,3.1,7.9l-0.9,0.2l0.1,0.2c0,0.1,2.1,5.1,2.1,7.8
		C206,199.7,206,199.9,205.9,200.1L205.9,200.1z M228.1,195.7c-1.8-3.3-3.4-4-3.5-4h-0.1l-0.1,0.1c-0.1,0.1-0.2,0.3-0.2,0.5
		c-4.9-2.9-5.3-2.6-5.4-2.5l-0.1,0.1v0.2c0,0,0.6,2.8,0.7,3.2c-0.3,0-0.5,0-0.8-0.1l0.4,3.8c0,0.1,0,0.2,0,0.3
		c0,0.3-0.1,0.3-0.1,0.3l0,0l0,0c-1.4,0.7-2.9,1.2-4.5,1.5c-0.6,0.2-1.3,0-1.8-0.5c-0.3-0.3-1.8-3.7-2.6-5.8l-0.3-0.8
		c0,0-0.2,1.1-0.3,1.5c-0.4-1-1.9-4.9-2-5.1c2.5-3.4,8.2-4.7,8.2-4.8c0.6-0.1,1.3-0.1,1.9-0.1c0.3,0,0.5,0.1,0.7,0.3
		c0.1,0.2,0.2,0.4,0.2,0.6v3.1l0.3-0.1c0.9-0.4,1.7-1.1,2.1-2.1c0.4-0.7,0.6-1.6,0.4-2.4c-0.1-1-1.3-1.4-1.4-1.4
		c-3.6-0.7-7.4,1.2-7.5,1.3c-3.3,1.1-6.1,4.8-6.8,5.7c-0.1-0.2-0.2-0.4-0.3-0.6c-0.2-0.6-0.3-1.3-0.2-1.9c0-0.5,0-1,0-1.4l0.2-0.6
		l-1.2,0.5c0-0.5,0.1-2.5,0.1-2.5c0.3-2.2,1.3-2.9,1.3-2.9c3.2-3,8.2-5,8.3-5.1c6.2-2.9,13.4-2.2,13.5-2.2h0.4l-0.3-0.8
		c4.6,1.1,5.1,4.6,5.1,6c0,0.1,0,0.1,0,0.2l-0.7-0.7l-0.1,0.4c-0.7,4.2-4.4,6.6-4.4,6.7l-0.4,0.3l0.5,0.1c4.3,0.8,6.2,3,6.6,3.6
		c-0.2,0.1-0.8,0.6-0.8,0.6l0.2,0.2c2.3,1.9,2.7,2.7,2.8,2.9C233.8,193.6,229,195.3,228.1,195.7z M245.9,184.1l0.2,0.1l0.1-0.3
		c0.4,0.6,1.4,1.7,3.8,2.1c2.4-0.3,4.6-1.7,5.9-3.7c0.3,1.1,0.5,2.2,0.5,3.3v0.3l0.2-0.1c0.2,0,0.3-0.1,0.5-0.2
		c-0.3,2.2-1.7,4.1-3.7,5c-0.1,0-6.2,3.5-11.6,1.5c-1.1-0.6-2-1.6-2.4-2.8l-0.2-0.7l-0.3,1c-1.2-1.8-2.3-3.7-3.3-5.6l1-0.1l-0.2-0.3
		c-0.5-1.2-0.8-2.4-1.1-3.6v-0.5l-0.7,0.7c-0.4-1.2-0.6-2.4-0.6-3.6c-0.1-2.2,0.8-4.3,2.4-5.8c0,0,1.8-1.8,6.6-2.4
		c1.6-0.1,4.7-0.2,5.9-0.1l-0.8,0.7l3.9,0.1c0,0,4.4,0.3,5.3,2c-0.1,1.6-0.5,3.2-1.1,4.6c-0.2-0.4-0.7-1.2-0.7-1.2l-2.5,3.6
		c-0.7-0.1-4.8-0.6-6.6,1.4V179l-0.3,0.1c-0.1,0.1-1.5,0.5-1.4,2.9C244.9,182.8,245.3,183.6,245.9,184.1z M324.9,192.4
		c0-0.1,0.5-4.6,2.9-5.4c0,0,6-0.5,8.9,4.2c0.5,0.9,0.7,1.9,0.8,3c0,0.8-0.3,1.6-0.9,2.1l-0.4-0.8l-0.2,0.3c-1,0.8-2.2,1.5-3.5,2
		c0.1-0.2,0.1-0.5,0.1-0.7l-0.3,0.2c0,0-4.3,2.5-10.4-1.3C322.6,195.5,324.5,194.2,324.9,192.4L324.9,192.4z M290.7,177.8
		c0,0-2.8,6.1-3.5,7.4l-0.4-0.7c0,0-2.3,7.4-2.5,8L284,192l-0.8,3.2c-0.1,0.6-0.4,1-0.9,1.4c-6.5,0.5-6.8-1.3-6.8-1.3v-2l-0.7,0.2
		c0-0.5-0.2-6-0.2-6c-0.5-2.1-3.1-2.2-3.1-2.2c-1.3,0-2.5,1-2.7,2.3l-0.5,3.1c0,0.9-0.6,1.6-1.5,1.8c-3.7,0.8-5.7,0.1-5.7,0.1
		c-1.1-0.3-1-1.2-1-1.2v-2.6c-0.2,0.2-0.4,0.4-0.7,0.6c0-0.6-0.1-4.5-0.2-5.1c0.3,0.2,0.4,0.2,0.8,0.5l-0.2-6.5l-0.8,0.5
		c0-0.4,0-0.9,0-1.3c0-1.9,0.1-3.9,0.3-5.8c1.9-1.3,4-2.1,6.3-2.4l-0.4,0.6l6.1,0.2c0.4-0.1,0.8,0.1,1.1,0.4
		c0.3,0.4,0.4,0.9,0.4,1.3c0,0.1,0,0.3,0,0.4c0,0.8-0.7,3.6-0.9,4.5l-0.6-0.3l-0.1,0.3c-0.1,0.4-0.6,3.3-0.6,3.5l-0.1,0.5l0.4-0.3
		c0.6-0.4,1.2-0.6,1.9-0.6c1,0,2,0.3,2.9,0.7l0.2,0.1l0.1-0.2c0.8-1.6,0.9-5.2,0.9-5.9c2.5-0.8,5.2-1,7.8-0.7l-0.7,0.6l0.6,0.1
		c2.5,0.3,5.6,2.1,5.7,2.1c0.3,0.1,0.5,0.3,0.6,0.6c0,0.1,0,0.2,0,0.3C290.9,177.3,290.8,177.6,290.7,177.8L290.7,177.8z
		 M308.6,199.1L308.6,199.1L308.6,199.1c-0.1,0.1-5.7,5.7-7.7,6.5c-0.4-0.2-5.6-2.1-6.8-4.1c0-0.2,0.8-3.8,0.8-3.8s-0.6,0.1-0.9,0.2
		c0.3-1.3,0.8-2.6,1.4-3.9c0-0.1,0.2-1,0.2-1v-0.1v-0.1c-0.8-1.3-2.8-5-2.8-5.8v-0.4l-0.3,0.3c-0.1,0.1-0.2,0.1-0.2,0
		c-0.1,0-0.4-0.3-0.5-1.4c0.1-1.5,0.3-5.8,1-6.8c2.1-0.7,4.4-1,6.6-0.8l-0.4,0.8h0.3c1.3,0.1,4.8,0.6,5.6,1.5
		c-0.4,1.5-0.6,3-0.6,4.6c0,0.4,0,0.8,0,1.2h-1v0.2c0,0.1,0.2,1.8,2.6,3.8c0.2,0.1,1.3,0.6,4.5-2.8c0.1,0.3,0.1,0.5,0.1,0.8v0.4
		l0.3-0.2c1.2-0.8,2.3-1.7,3.2-2.8c0.5,0,4.2,1,8.2,5.2c0.1,0.3,0.2,0.6,0.2,1s-0.1,0.8-0.4,1.1v0.1c-1.2,1.8-3,3.1-5.1,3.6
		c0-0.1,0-0.6,0-0.6l-0.3,0.2C314,197.2,311.3,198.2,308.6,199.1L308.6,199.1z M347.3,220.7c-1.9-0.7-3.8-1.1-5.8-1.2
		c0.2-0.3,0.5-0.8,0.5-0.8l-0.2-0.1c-1.2-0.7-2.6-0.7-3.8,0c-1.7,1.1-2,3.6-2,3.7c0,1.4-1.1,2.6-2.5,2.7c-6.9,0.8-16.3-4.2-16.3-4.2
		c-1.6-0.9-1.8-1.8-1.8-2.3v-0.4c0,0,0-4.8,0-6l0.6,0.2c0,0,0.8-4,0.9-4.7c1.4,1.2,4.4,2,4.6,2c1,0.3,1.6,0.3,1.9,0
		c0.1-0.1,0.1-0.2,0.1-0.4c0-0.1,0-0.3-0.1-0.4c1.5,0.5,2.7,0.5,3.6-0.1s1.4-1.6,1.5-2.7c0.2-2.5,3.1-2.8,3.2-2.8
		c2.3-0.1,4.5,0.3,6.5,1.4l0.4,0.3c0-0.2,0-0.5,0-0.7c2.2,0.8,4.4,1.7,6.5,2.8c2.4,2.6,2.8,6.6,2.8,7.7c-0.3-0.2-1.3-0.7-1.3-0.7
		S347.3,220.1,347.3,220.7L347.3,220.7z"/>
	<path class="st0" d="M338.2,254.3l0.6-0.1c1.9-0.2,3.3-0.7,4-1.3c0-0.1,0.1-0.1,0.1-0.2c0-0.3,0.1-0.5,0.1-0.7c0-0.1,0-1.3-1.6-2
		c-2-0.9-2.4-1-3.5-1h-0.7c-1.1,0-2.2,0.1-3.2,0.3c-1.1,0.2-1.8,0.4-2.2,0.5c0.4,1.6,0.6,3.2,0.6,4.8
		C334.2,254.7,336.2,254.6,338.2,254.3z"/>
	<path class="st0" d="M176.5,250.7l-0.1-0.7l-0.3,0.7c-0.1,0.1-1.2,3.1-1.6,4.5l-0.1,0.2l0.2,0.1c0.6,0.3,1.1,0.7,1.5,1.2l0.1,0.2
		l1.2-0.8l0.1-0.1v-0.1L176.5,250.7z"/>
	<path class="st0" d="M349,255.6c-0.6,0.7-1.3,1.2-2,1.7c-2.1,1.4-4.4,2.3-6.8,2.9l-1.2,0.4c-5.1,1.6-13.8,1.2-14.2,1.2l-8.8-0.7
		c-7.6-0.5-19.2-1.3-25.5-2c-0.3,0-3.4-0.4-7.4-0.9c4.3-2.2,9-3.5,13.8-3.9l-1.8,1.7l-0.2,0.2c-0.6,0.5-1,1.2-1.1,1.9
		c0,0.3,0.1,0.6,0.3,0.8c0.2,0.2,0.6,0.3,0.9,0.2l1.6-0.5c18.1-5.9,21.7-10.4,22.2-11.2l0.9-1c0.2-0.3,0.3-0.7,0.1-1
		c-0.2-0.3-0.5-0.5-0.9-0.5l-1.5,0.2c0,0-3.3,0.2-6.3,0.2c-2.2,0-8.1-1.1-11.2-1.8l-0.7-0.2c1.2-1.5,2.3-3.1,3.1-4.8l1-2.2
		c0.2-0.4,0.1-0.9-0.3-1.1c-0.3-0.3-0.8-0.3-1.1,0l-2,1.5c-10,7.5-12.9,6.9-13.3,6.8c0-0.1,0-0.2,0.1-0.3c1.2-1.3,2.5-2.5,3.9-3.5
		c0.6-0.5,1.1-0.9,1.5-1.2l2.9-2.2c0.4-0.3,0.5-0.8,0.2-1.2c-0.2-0.4-0.8-0.6-1.2-0.4l-3.1,1.4c-6.3,2.9-9.4,2.5-10,2
		c0.3-0.7,0.8-1.3,1.4-1.7c3.2-2.7,7-4.4,11.2-5c1-0.2,2-0.3,3-0.3c0.5,0,0.9-0.4,0.9-1c0-0.3-0.2-0.6-0.4-0.7
		c-1.1-0.7-2.3-1.1-3.6-1.1c-10.4,0.3-17.6,2.9-21.3,7.8c-0.8,1-1.4,2.1-1.8,3.3v-0.5c0-1.3-0.3-2.6-0.8-3.8c-0.2-0.4-0.6-0.6-1-0.6
		c-0.4,0.1-0.7,0.4-0.8,0.9c0,1-0.2,1.9-0.4,2.9c-0.4,0.8-1,1.5-1.7,2c-0.9-7.5-4.7-14.4-10.7-19.1c-2.3-1.6-4.8-2.9-7.5-3.7
		c-0.4-2.1-1.3-4.2-2.6-5.9l-0.1-0.1c-1.3-1.4-3.2-3.2-4.8-2.4c-0.6,0.3-1.3,1.1-1,2.9c0.2,1.3,0.2,2.7-0.1,4
		c-3.9-0.2-7.7,0.5-11.2,2c-2.4,1.1-4.6,2.4-6.6,4c-1-1-1.7-2.2-2-3.6v0.1c0-0.1,0-0.2,0-0.3c-0.6-2.5-2.1-2.7-2.7-2.6
		c-2.4,0.2-3.4,4.5-3.6,7.2c-0.1,2.4,0.5,4.7,1.8,6.8c-1.7,3.1-2.6,6.6-2.5,10.2c0.1,3.1,0.6,6.2,1.6,9.1
		c-48.3-11.1-63.4,4.2-63.4,4.2s2.4,4.1,1.3,13c-0.1,1.5-1.2,4.8,1,8.2c-0.2-0.9-0.2-1.8,0.1-2.7c0.7-2.1,3-3.4,4.7-4.1
		c3-1.3,8.9-2,9.1-2c4.9-0.6,9.8-0.7,14.7-0.5c6.3,0.4,12.6,1.2,18.8,2.2c0.9,0.1,1.8,0.3,2.8,0.5c2.4,0.4,4.9,0.9,7.6,1.4
		c2.4,0.4,4.9,0.9,7.6,1.4l-11.8,6.3c0,0-3.8,1.8-2.7,4.8c0,0,1.3,4.1,5.4,2.9c2.3-0.7,7-3.6,7-3.6l8-4.4c0.9,0.5,2,0.8,3.1,0.7
		c1,1.2,3.6,3.8,7.4,3.9c0.7,0,1.4,0,2.1-0.2c-0.1,0.4-0.2,0.7-0.1,1.1c0.1,0.8,0.7,3.5,4.5,3.7c2.1,0.1,3.5,0.9,3.7,1.5l0.1,0.2
		c0.5,1.4,1.4,3.8,5.5,3.8c2.7,0,3.5-1.3,3.8-2c0.3-0.8,0.2-1.7-0.3-2.4c1.1-0.6,1.9-1.5,2.3-2.6c0-0.1,0.1-0.4,0.2-0.6
		c1.5,0.7,3.2,1,4.8,0.9c0.1,0,0.1,0,0.2,0l0,0c1-0.2,2-0.6,2.9-1.2c2.1,1.2,4.5,1.7,6.9,1.5c3.4-0.3,6.6-1.5,9.3-3.6
		c0.8,0.1,3.5,0.3,7-1.9c1.1,0.5,2.5,0.4,3.5-0.3c0.1-0.1,0.2-0.2,0.3-0.2c10.4,1.8,34.1,5.2,48.6,2.4c2.7-0.5,10.1-4.4,9-8.7
		c-0.8-4.3-0.3-12.8,1.4-17.9C349.6,255,349.3,255.3,349,255.6z M164.7,261.8l-0.4,0.1c-1.4,0.4-2.9,0.4-4.4,0.1h-0.1
		c-0.1,0-0.2,0-0.3-0.1s-0.1-0.3,0-0.5s0.2-0.3,0.4-0.3c1.4-0.1,1.4-0.1,1.3-0.3v-0.1l-0.3-7.8v-0.4l-0.3,0.2
		c-0.1,0.1-3,2.2-2.6,5.7c0,0.1,0,0.3,0,0.4c-0.1,0.1-0.3,0.1-0.4,0.1h-0.1c-0.3,0-0.6,0-0.8-0.2c-0.2-0.3-0.4-0.9,0-2.5
		c0.5-2.3,3.8-5.7,9-6.2c1.5-0.2,3.1,0.3,4.2,1.3c1.2,1.2,1.6,2.9,1.3,5.3l0,0l0,0C170.8,258.4,169.5,260.9,164.7,261.8L164.7,261.8
		z M197.8,251.3L197.8,251.3c-0.3,0-0.8,0.3-0.9,1.3c0,0.2-0.1,0.6-0.1,1.2c-0.2,1.8-0.6,4.8-0.6,6.2l0,0l0,0
		c-0.1,0.7,0.5,1.4,1.2,1.4c0.1,0.2,0.2,0.4,0.2,0.6c-0.1,0.2-0.3,0.4-0.6,0.4c-0.6,0-1.1-0.2-1.6-0.5c-0.7-0.2-1.5-0.3-2.2-0.2
		h-0.6h-0.4c-0.9,0-1.5,0-1.6-0.6l0,0c0,0,0.5-0.3,2.3-0.3h0.2v-0.2l0.9-8v-0.5l-0.4,0.2c-0.1,0-2,1.3-3.8,6.9
		c-0.1,0.2-0.2,0.3-0.3,0.4c-0.1-0.1-0.1-0.3-0.1-0.4c-0.2-1-1.5-5.5-2.6-7.2l-0.3-0.6l-0.1,0.7c-0.2,1.8-0.9,6.9-0.9,7l0,0
		c-0.1,0.3,0,0.6,0.1,0.8c0.5,0.4,1.1,0.6,1.7,0.5l0,0c0.1,0,0.4-0.1,0.5,0.1s0,0.4-0.2,0.7c-0.2,0.3-0.9,0.2-1.5,0.1h-0.3
		c-0.7-0.1-1.5-0.2-2.2-0.1c-0.8,0-1.7-0.1-2.5-0.3l0,0c-0.7-0.1-1.4-0.1-2.1,0h-0.8c-0.9,0-1.2-0.1-1.2-0.4c0-0.1,0-0.2,0.1-0.2
		c0.1-0.1,0.3-0.2,1.1-0.1h0.3l-0.1-0.3l-0.5-2.7l-0.1-0.4l-0.3,0.3l-1.2,1c-0.3-0.3-1.2-1.1-1.8-1.7l-0.3-0.3l-0.1,0.3l-1.1,3.2
		l-0.1,0.2l0.2,0.1c0.6,0.1,1.3,0.2,2,0.1c0.1,0,0.2,0,0.3,0c0,0,0.1,0.3,0.1,0.5s-0.2,0.5-1.5,0.5c-0.4,0-0.8,0-1.2-0.1
		c-0.9-0.2-1.8-0.1-2.7,0.1c-0.2,0-0.3,0-0.4-0.1c-0.1-0.1-0.1-0.3,0-0.5c0-0.2,0.1-0.6,2.1-0.6h0.2v-0.2l1.2-3.5l0.1-0.3H173
		l-0.9-0.2c-0.1-0.1-0.1-0.3-0.1-0.4c0.1-0.1,0.3-0.4,1.5-0.5h0.1v-0.1c1-2.8,1.5-4.2,1.5-4.2l0.1-0.3h-0.3l-2.3,0.2
		c-0.1-0.2-0.2-0.4-0.1-0.6c0-0.2,0.2-0.3,0.5-0.4c1.6-0.5,3.4-0.6,5.1-0.2c0.8,0.2,1.7,0.2,2.5-0.1c0.1-0.1,0.3,0,0.4,0.1l0,0
		c0.1,0.2,0.1,0.4,0,0.6l0,0c-0.4,0.3-0.9,0.5-1.4,0.5h-0.3l0.1,0.3l0.9,4v0.2l0.1-0.1c0.9-0.2,1.8-0.1,2.6,0.2
		c0.2,0.2,0.3,0.4,0.2,0.7c0,0.2-0.2,0.4-0.5,0.5c-0.6-0.1-1.3-0.2-1.9-0.2h-0.3l0.1,0.3c0.4,1.2,1.2,3.7,1.2,3.7v0.1h0.1
		c0.7,0.1,1.4,0.2,2.1,0.2h0.2v-0.2c0.3-1,1.3-8.8,1.4-9.1l0,0c0.1-0.2,0-0.4-0.1-0.6c-0.3-0.3-0.7-0.4-1-0.4l0,0l-0.5,0.1
		c-0.3,0-0.6,0.1-0.7,0c-0.1-0.1-0.2-0.3-0.2-0.5c0-0.1,0-0.3,0.1-0.4c0.1-0.1,0.4-0.2,1.1-0.1c1,0.2,3.7,0.4,4.2,0.5
		c0.8,1.4,1.5,2.8,2.1,4.2l0.1,0.5l0.3-0.5c1.1-1.5,2.5-2.8,4.1-3.7l4,0.6c0,0.1,0,0.2,0,0.3C199,251.2,198.8,251.4,197.8,251.3
		L197.8,251.3z M211.3,253.7c-0.1,0.2-0.2,0.3-0.6,0.3h-0.2c-0.3-0.1-0.6-0.1-0.9,0c-0.3,0.3-0.5,0.6-0.5,1l-1.6,9
		c-0.4,0.1-0.8,0.1-1.2,0c-0.3-0.1-0.5-0.4-0.6-0.7l-0.2-0.8c-0.6-2.2-1.7-6.4-3.4-8.4l-0.3-0.3l-0.1,0.4c-0.3,1.5-1.1,7-1.1,7.2
		v0.2l0.2,0.1l1.2,0.4c0.1,0.1,0.2,0.3,0.2,0.4c-0.1,0.1-0.2,0.2-0.3,0.3c-0.2,0-0.5-0.1-0.8-0.1c-0.7-0.1-1.4-0.2-2.1-0.2
		c-0.3,0-0.7-0.2-0.8-0.5c0-0.1,0.1-0.3,0.3-0.4l1,0.1h0.2v-0.2c0.3-2.9,0.7-5.8,1.3-8.6v-0.1c0-0.5-0.1-0.9-1.2-1.1
		c-0.1,0-0.2-0.3-0.2-0.5s0.1-0.5,0.4-0.4l3.3,0.7h0.1c0,0,1.4,0.1,3.7,6.2l0,0v0.1l0.3,0.6l0.2-0.7l0.8-3.3c0.1-0.2,0.1-0.5,0-0.7
		c-0.2-0.3-0.7-0.5-1.5-0.6h-0.1c-0.1,0-0.3-0.1-0.3-0.2c-0.1-0.1-0.1-0.2-0.1-0.4c0,0,0.2-0.2,0.8-0.3c0.9,0.1,2.4,0.4,3.2,0.6
		c0.5,0.1,0.6,0.1,0.7,0.1C211.2,253.2,211.3,253.4,211.3,253.7L211.3,253.7z M301.3,251h1l-0.5-0.9c-0.7-1.3-1.2-2.8-1.6-4.2
		c2.2,0.5,8.3,1.6,10.9,1.6c1.8,0,3.7-0.1,4.9-0.1c-1.7,1.5-6.3,4.6-17.5,8.4l2.6-2.5l1-0.9l-1.3-0.1c-0.4,0-10.4-0.9-21.3,5.6l0,0
		l0,0c-1.2,1.1-2.3,2.3-3.2,3.6c-1.2,0.1-2.4-0.1-3.6-0.5c1.4-1.6,3-3,4.8-4C282,254.1,287.4,250.9,301.3,251L301.3,251z
		 M277.3,266.3c1,0.3,1.7,1.2,1.9,2.2c0.4,1.5-1,3.2-1,3.2c-1.8,2-4,3.6-6.5,4.8c-5,2.4-7.9,0.7-8.9-0.1c-0.7-0.6-2.2-2-2.3-3.8
		c0-1.2,0.5-2.3,1.4-3.1c2.8-2.9,8.3-2.1,8.4-2.1l1.6,0.3l-1-1.3c0,0-1-1.2-2.9-3.4c-0.4-0.5-0.6-0.9-0.5-1.1c0.1-0.3,0.7-0.6,1-0.6
		c1.1,0,2.2,0.2,3.2,0.6c3.5,1.2,5.1,0.8,6.7,0.4c0.6-0.2,1.2-0.3,1.8-0.3c0.6-0.1,0.8,0.1,0.9,0.1c0,0.3,0,0.5-0.2,0.8l-0.7,1.3
		l1.4-0.4c0.1,0,0.3,0,0.3,0.1c0.2,0.1,0.3,0.3,0.3,0.6c-0.2,0.5-0.5,0.9-0.9,1.3l-0.8,0.8l1.1,0.2c0.4,0.1,0.7,0.3,0.9,0.6
		c0.2,0.3,0.2,0.7,0.1,1.1c-0.1,0.2-0.9,0.4-1.9,0.4c-0.3-1.4-1.4-2.6-2.7-3l0,0h-0.1c-0.9-0.2-1.8-0.2-2.7-0.1L277.3,266.3z
		 M265.5,255.3l8.2-3.7c1.1,0.7,2.3,1.1,3.5,1.1c1.6,0.1,3.2,0,4.7-0.3c-3,1-5.9,2.5-8.5,4.3l-0.2,0.1
		C269.9,256.3,267,255.7,265.5,255.3z M298.8,248.7c-2.2,0-4.3,0.2-6.2,0.4c1.9-1.3,3.7-2.8,5.2-4.5v0.3
		C297.9,246.2,298.3,247.5,298.8,248.7z M271.4,246.8l0.5-0.2l-0.1-0.5c-0.5-3.1,0.2-6.2,2.1-8.7c2.4-3.2,6.7-5.3,12.7-6.3
		c-2,0.9-3.9,2.2-5.6,3.6c-2.7,2.4-2.4,3.9-1.9,4.5c1.1,1.5,4.5,1.5,8.4,0.3c-0.9,0.7-1.8,1.5-2.5,2.4s-0.6,2.2,0.2,3.1
		c1.3,1.3,4.9,1.4,13.7-4.8c-3.4,5-8.3,8.7-14,10.6c0,0-6.7,1.5-10.7-0.7l-0.3-0.2l-11.9,5.7l1.1-1.2l10.7-5c2.1,1,4.4,1.5,6.7,1.3
		c11.1-0.3,18-10.1,18-10.1c-11.7,12.3-22.4,8.8-24.7,7.8c0,0-9,4-9.1,4.2c0.9-1.2,1.7-2.4,2.5-3.7L271.4,246.8z M241.1,211.6
		c0-0.1,0-0.2,0-0.4c0.8,0.5,1.4,1.1,2,1.7c4.1,5.7,1.8,8.9,0.6,10.5c-0.5,0.7-1.3,1.2-2.2,1.2c-0.8,0-1.6-0.3-2.2-0.9
		c-0.6-0.8-0.6-1.9-0.1-2.8C241,218.2,241.6,214.9,241.1,211.6z M214.9,223.1c0.1-3,1.2-5,1.6-5.2c0.2,0.3,0.3,0.6,0.4,0.9
		c0.5,2,1.6,3.9,3.2,5.3c-1.4,1.3-2.7,2.8-3.8,4.4C215.3,226.9,214.8,225,214.9,223.1z M219.7,226.3l0.3-0.3l0.6-0.6
		c0.2-0.2,0.5-0.4,0.7-0.6c2.2-1.9,4.6-3.5,7.3-4.7c3.4-1.5,7-2.1,10.7-1.8c-0.3,0.7-0.6,1.4-1,2.1c-0.9,1.3-0.8,3,0.2,4.2
		c0.8,0.9,2,1.4,3.2,1.4c1.3-0.1,2.4-0.7,3.1-1.7c1.1-1.3,1.7-2.9,1.9-4.6c2.5,0.7,4.8,1.8,7,3.3c2.9,2.2,9.3,8.4,10.1,20
		c-1.9,1.3-4,2.2-6.3,2.6c-2.3,0.3-4.5,1-6.6,1.9l0.1-0.5l0.3-1.1l-1.1,0.4c-2.6,0.9-4,3.3-4.6,4.7c-1.1-1.2-2.4-2-4-2.4
		c0.1-1.5,0-3-0.4-4.4c-0.5-2.1-1.9-3.9-3.8-4.9l0.1-0.1c1.3-1.5,2.6-3,4-3c0.8,0,1.6,0.2,2.2,0.7c0,0-0.7-1.9-2.2-2
		c-1.9,0-3.4,1.6-4.9,3.4l-0.6,0.6c-0.6,0.3-1.2,0.7-1.8,1.2c-1,0.7-2.6,0.3-2.7,0.2l-1.9-0.7l-0.9-0.4c-0.2,0.6,0,1.2,0.5,1.5
		c0,0,0.3,0.1,0.8,0.3c-1.3,1.4-1.1,3.8-1.1,3.9c0.6,4.3,1.7,6.5,2.7,7.6l-0.1,0.1c-0.8-0.7-1.6-1.2-2.6-1.6c0-1-0.1-2.8-0.3-4.7
		c-0.3-1.9-1.3-3.6-2.8-4.9c0.5-0.4,1-0.9,1.4-1.4c0.3-0.6,0.2-1.4-0.1-1.9l-0.8,1.2c-0.5,0.6-1.1,1.2-1.8,1.5c-1,0.3-2.1,0-2.7-0.8
		l-0.2-0.4l0,0c-0.1-0.2-0.2-0.3-0.3-0.5c-1.1-2.3-4-2.6-4.1-2.6c-1.2-0.2-1.6,1.4-1.6,1.4c0.5-0.2,1-0.3,1.5-0.1l0,0
		c0,0,2.3,0.2,3.1,1.9c0.1,0.1,0.1,0.3,0.2,0.4c-1.5,0.8-2.6,2.1-3.1,3.7v0.1c-0.6,4.7,0.3,7.4,1.1,8.7c-0.3,0.1-0.5,0.3-0.8,0.5
		c0.1,0,0.1-0.1,0.2-0.1c-2.1-4-3.2-8.4-3.4-12.9C214.1,234.8,216.1,229.9,219.7,226.3z M234,249.8c-0.6,0.5-1.2,1.1-1.7,1.7
		c-0.8-0.9-1.7-2.8-2.2-6.6c0,0-0.2-2.6,1.3-3.3c1.9,0.5,3.8-0.1,5.2-1.4c0.5,0.2,0.9,0.5,1.3,0.8c-1,0-4.9,0.3-4.9,5.9
		C233.1,247.8,233.4,248.8,234,249.8z M221.3,251.8c-0.7,0-1.3,0.1-2,0.3c-0.6-1-1.7-3.4-1-8.1c0.4-1.3,1.4-2.4,2.7-3
		c0.6,0.7,1.4,1.1,2.3,1.2c0.5,0,1,0,1.4-0.2c0.6,0.6,1.2,1.2,1.6,1.9c-0.9-0.1-2.4,0.1-4.2,1.7
		C220.2,247.4,220.5,250.1,221.3,251.8L221.3,251.8z M216,260.7L216,260.7v-0.1c-0.2-0.3-2.3-2.9,0.9-5.7c1.3-1.3,3.1-1.9,4.9-1.8
		c1.2,0.1,2.3,0.6,3.1,1.5l0.9,1.1l0.2-1.4c0.1-0.5,0.4-1.8,1.2-2.2c0.4-0.2,0.8-0.1,1.2,0.1c2.3,1.1,2.7,1.8,2.7,1.8l0.5,1.4
		l0.6-1.4c0,0,2-4.3,5.5-4.6c3.7-0.4,6.7,1.3,7.5,3.1l0.7,1.6l0.5-1.7c0.6-1.8,1.7-3.4,3.2-4.5l-0.1,0.5l-0.3,1.3l1.2-0.7
		c2.3-1.2,4.7-2,7.3-2.4c3.2-0.4,8-3.1,10.5-5.7c-0.5,4.6-2.5,9-5.7,12.4l-1.5,1.6c-5,5.3-5.5,5.9-12.1,6.9l-2,0.3l1.8,0.8
		c0.2,0.1,0.5,0.3,0.8,0.4l0.6,0.5c1.1,1.3,1.6,3,1.7,4.7v0.1v0.1c0.7,1.7,0.4,3.7-0.8,5.2l-0.2,0.3l0.1,0.3
		c0.3,0.8,0.4,1.7,0.5,2.6c-1.3,0.2-2.4,0.8-3.2,1.9c-0.7,1-1.7,1.8-2.9,2.2c0,0,0-0.1-0.1-0.2c-1.5-4.2,0.7-6.4,0.8-6.5
		c0.3-0.3,0.7-0.5,1.2-0.6c-0.6-0.5-1.3-0.6-2-0.3c-0.1,0.1-0.3,0.3-0.4,0.4c-4.5-4-3.1-8.3-3.1-8.5c0.1-0.7,0.4-1.3,0.7-1.9
		c-0.8,0.3-1.5,0.8-1.9,1.5c-0.1,0.2-1.7,5.4,3.6,9.9c-0.5,1.1-0.8,2.2-0.7,3.4c-1.4-0.2-5-1.6-9.2-9.5l0.9-2.5l0.2-0.6l-0.6-0.2
		c-0.3-0.1-6.7-2.5-8.4-2.7c-0.6,0-1.1,0-1.7,0C221.9,263.5,217.6,263.6,216,260.7L216,260.7z M256,267.8c-1-1.3-2.3-2.5-3.6-3.5
		l0,0c0.3-0.2,0.6-0.3,0.9-0.3c0.5,0,1.1,0.2,1.5,0.5c0.2,0.4,0.6,0.8,1,1.1c-0.1,0.3-0.2,0.6-0.2,0.9
		C255.6,267,255.8,267.4,256,267.8z M253.3,278.5c-0.2-0.4-0.4-0.7-0.8-0.9c0-1-0.1-2-0.4-3c1.3-1.7,1.6-4,0.8-6
		c0-0.9-0.2-1.8-0.5-2.7c1.2,0.9,2.8,2.4,3.2,3.8c0.9,2.8,1.7,7.5-2.2,9.7C253.5,279.1,253.4,278.8,253.3,278.5L253.3,278.5z
		 M227.9,270.7c0.1-0.1,0.3-0.1,0.4-0.1c0.1,0,0.2,0,0.3,0s0.2,0,0.2,0c0.2,0.1,0.4,0.1,0.6,0.2l0,0c0.2,0.1,0.4,0.2,0.6,0.4
		l0.2,0.1c0.5,0.7,0.8,1.6,0.8,2.5c0,0.2,0,0.4-0.1,0.6c-1.2,0.3-2.1-0.2-2.8-1.7c-0.1-0.2-0.2-0.5-0.3-0.7
		C227.5,271,227.9,270.7,227.9,270.7L227.9,270.7z M227.6,269.4c-0.2-0.6-0.4-1.2-0.7-1.8l-0.1-0.2c-0.1-0.2-0.3-0.5-0.4-0.7
		c0.1-0.2,0.3-0.4,0.5-0.5c0.4-0.1,0.9-0.1,1.2,0.2c0.8,0.8,1.2,1.8,1.2,2.9C228.8,269.2,228.2,269.2,227.6,269.4L227.6,269.4z
		 M229.4,266.5l1.6-0.8l2.6,0.9l-3.5,2C230,267.9,229.8,267.2,229.4,266.5L229.4,266.5z M230.3,269.7l3.5-2l-0.4,1.3l-2.3,1.3
		C230.9,270,230.6,269.8,230.3,269.7L230.3,269.7z M205.4,281.2L205.4,281.2c-0.4-1.2,1.5-2.1,1.7-2.2l0,0l0,0l12.2-6.6
		c0.5,0.5,1,1,1.5,1.4l-15,8.4C205.7,281.8,205.5,281.5,205.4,281.2L205.4,281.2z M214.8,279.3L214.8,279.3L214.8,279.3
		c-2.1,1.3-4.3,2.4-6.6,3.4c-0.3,0.1-0.5,0.1-0.8,0.1c-0.2,0-0.3,0-0.5-0.1l15-8.4c0.2,0.1,0.3,0.2,0.5,0.3c0.1,0.1,0.1,0.3,0.2,0.4
		L214.8,279.3z M223.5,272.9c-1,0.6-2.1-0.7-2.9-1.8c-0.4-0.6-0.5-1.4-0.4-2.1c-0.1-0.5,0.2-0.9,0.7-1c0.3-0.1,0.7,0.1,0.9,0.4
		c0.5,0.5,0.9,1,1.2,1.6s0.6,1.2,0.7,1.8C223.8,272.2,223.8,272.7,223.5,272.9L223.5,272.9z M222.9,267.7c0-0.2,0-0.5,0.1-0.7
		c0.3-0.5,0.9-0.7,1.4-0.5c0,0,0,0,0.1,0c0.2,0.2,0.4,0.4,0.6,0.6c0.4,0.5,0.7,1,1,1.5c0.3,0.6,0.4,1.2,0.4,1.8c0,0.1,0,0.1,0,0.2
		s-0.1,0.2-0.5,0.3c-0.4,0.1-0.7,0.1-1.1,0c-0.1-0.4-0.2-0.7-0.4-1C224.1,269.1,223.5,268.4,222.9,267.7L222.9,267.7z M234.4,279.1
		c-3.7-0.1-6.1-3.6-6.2-3.6l-0.2-0.3h-0.3c-2.6,0-2.9-0.5-2.9-0.6c-0.1-0.2,0.2-0.8,0.5-1l1.4-1c0.1,0.2,0.1,0.4,0.2,0.6
		c1.3,2.7,3.2,2.7,4.3,2.4c0.5-0.2,0.9-0.6,1-1.1c0.2-1.3-0.1-2.5-0.7-3.6l0,0c0.8,0,1.7,0.1,2.4,0.4c1.4,2.5,3.1,4.7,5.2,6.6
		C237.7,278.7,236.1,279.1,234.4,279.1z M253.9,283.5c-0.7,2-4.1,2.4-4.2,2.5l-1.5,0.2l1.2,0.9c0.5,0.3,1,0.5,1.5,0.5
		c0.2,0,0.5,0.1,0.7,0.2c0.2,0.2,0.3,0.5,0.2,0.8s-0.8,0.6-1.7,0.6c-2.6,0-3-1.1-3.5-2.4l-0.1-0.2c-0.7-1.8-3.4-2.7-5.7-2.8
		c-1.5-0.1-2.4-0.7-2.5-1.8c0-0.3,0.5-0.8,1-1.1c0.6,0.1,1.2,0.3,1.8,0.6c0.6,0.3,1.4,0.6,2.6,1.1c2.2,0.8,4.8-1.9,5.3-2.7
		c0.6-0.7,1.5-1.2,2.4-1.3c0.2,0,0.4,0.1,0.5,0.3c0.4,0.9-1.4,2.9-2.8,4l-0.9,0.8l1.2,0.3c0.8,0.2,1.6-0.4,2.4-1
		c0.4-0.3,0.8-0.6,1.2-0.8c0.6-0.2,0.9-0.2,0.9-0.1C254.2,282.2,254.4,282.4,253.9,283.5L253.9,283.5z M260.8,282.4
		c-1.3,0.1-2.7-0.2-3.9-0.8c0.7-0.8,1.3-1.6,1.9-2.5l0.1-0.1l0,0l0,0c0.3-0.8,0.2-1.7-0.1-2.4c-0.3,0.7-0.6,1.3-1,1.9l-0.1,0.1
		l-0.1,0.1c-0.7,1.1-1.5,2-2.6,2.7c0,0,0-0.1-0.1-0.1c-0.7-0.5-1.5-0.5-2.2-0.1l-0.1,0.1c0,0,0,0,0-0.1c6.4-2.5,5-9.1,4-11.8
		c-0.2-0.5-0.4-1-0.7-1.4c0.5,0.7,1.3,1,2.1,1c1.3,0,2.4-1.1,2.4-2.4s-1.1-2.4-2.4-2.4c-0.5,0-1,0.2-1.5,0.5
		c-0.3-0.3-0.5-0.5-0.8-0.7c0-0.1,0-0.1,0-0.2c0-0.3,0.3-0.6,0.9-0.8c1.5-0.7,4.2-1.8,6.4-0.7c1.3,0.7,2.2,2,2.7,4
		c-1.8,0.2-3.5,1.1-4.8,2.3c-1.1,1-1.8,2.5-1.7,4c0.1,2.2,1.8,3.9,2.7,4.7c1,0.8,2.2,1.4,3.5,1.6
		C264.7,280.7,262.9,282.1,260.8,282.4L260.8,282.4z M256.8,266.5c-0.1-0.7,0.5-1.3,1.2-1.4s1.3,0.5,1.4,1.2s-0.5,1.3-1.2,1.4h-0.1
		C257.5,267.7,256.9,267.2,256.8,266.5L256.8,266.5z M293.8,273.1l-0.6,0.5l0.6,0.5c0.3,0.4,0.5,0.8,0.4,1.3l0,0
		c-0.1,0.3-1.5,0.7-3.1,0.7h-0.9l0.2,0.6c-0.2,0.3-0.5,0.5-0.8,0.7c-0.4,0.2-0.8,0.3-1.2,0.2c1.1-1.1,2.1-2.3,3-3.6
		c0,0,0.7-1.3,0.1-2.1c-0.3,0.5-0.6,1-1.1,1.5c-1.1,1.5-2.5,2.9-4,4l-0.5,0.3c-1.3,0.9-2.8,1.4-4.3,1.6c0.6-0.9,1.2-1.9,1.6-2.9l0,0
		c0,0,0.5-1.6-0.3-2.1l-0.8,1.6c-0.8,1.3-1.8,2.5-3,3.5l-0.7,0.5c-2.2,1.6-4.9,2.6-7.6,2.8c-2,0.1-4-0.3-5.7-1.3
		c0.8-0.7,1.3-1.6,1.7-2.6c1.9,0,3.7-0.5,5.4-1.4c2.6-1.2,5-3,6.9-5.1c0.3-0.4,0.6-0.9,0.8-1.3c1.2-0.4,2.6-0.3,3.8,0.3l0.5,0.3
		l0.3-0.5c1-1.7,2.6-2.5,5.8-3c1.3-0.2,2.7,0.1,3.9,0.9c0.6,0.4,1.1,1,1.3,1.7C295.6,271.5,294.4,272.7,293.8,273.1L293.8,273.1z
		 M309.8,265.2L309.8,265.2c-1.2,0.7-2.2,1.8-2.9,3.1c-0.2,0.2-0.5,0.4-0.7,0.3s-0.4-0.3,0.4-2.1v-0.1v-0.1
		c-0.4-0.7-1.1-1.1-1.9-1.2c-1.1,0-2,0.6-2.4,1.6c-1.2,2.3-1.8,6.4,0,8.2l0,0l0,0l0.2,0.1c0.5,0.4,1.1,0.4,1.6,0l0,0v-0.1
		c0.4-1.3,0.5-2.7,0.4-4v-0.1h-0.1c-0.6-0.1-1.2-0.4-1.6-0.9c0.2-0.1,0.3-0.2,0.5-0.2c1.8,0.2,3.6,0.2,5.3,0c0.2,0,0.4,0.1,0.5,0.3
		c0,0.2,0,0.5-0.5,0.7h-0.1c-0.8,0.2-1.4,0.7-0.8,4.2c-0.4,0.8-2.7,2.5-7,0.8c-2-1-3.8-4.8-3-7.4c0.5-1.8,1.9-3.3,3.7-4.1
		c1.7-0.6,3.7-0.3,5.9,1.1l0.2,0.1l0.1-0.1c0.4-0.4,1.6-1.3,2.3-1.2c0.2,0,0.3,0.1,0.4,0.3c0.1,0.1,0.1,0.3,0,0.4
		C310.2,264.9,310,265.1,309.8,265.2L309.8,265.2z M317.7,276.7c-0.8,0.8-2,1.2-3.1,1.1c-2-0.3-4.6-1.4-4.5-6.7
		c0-1.7,0.4-3.9,1.8-5.1c1.1-0.8,2.6-1,3.9-0.5h0.1c0.6-0.1,1.3,0.1,1.8,0.5c1,0.7,1.6,2.3,1.8,4.4S319.1,275.3,317.7,276.7z
		 M340.9,275.2c-0.9,1-2,1.6-3.3,1.7c-1.2,0-4,0.2-5.1,0.3h-0.4c-0.5,0.1-2,0.2-2.1,0c-0.1-0.6,0.3-0.6,0.4-0.7
		c0.7-0.1,1.3-0.3,2-0.5l0.2-0.1v-0.2c-0.3-2.6-0.3-5.1,0-7.7v-0.4l-0.3,0.2c-0.3,0.1-0.5,0.3-0.7,0.6l0,0l0,0
		c-0.2,0.4-0.4,0.5-0.5,0.5s-0.3-0.1-0.5-0.3v-0.1l-0.4,0.2c0.2,0.7,0.3,1.5,0.3,2.3c0.1,2-0.6,4.6-2.2,6.1c-0.9,0.9-2.2,1.2-3.5,1
		c-1.9-0.4-4.5-1.6-4.2-6.9c0-1.7,0.6-3.9,2.1-5c1.2-0.7,2.6-0.9,3.9-0.4l0,0l0,0c0.1,0,2.3-0.3,3.3,2.4l0.4-0.1c0-0.9,1.8-2,5-2.9
		c1.7-0.6,3.6-0.4,5.1,0.5c1.3,0.9,2.1,2.3,2.1,3.9C342.8,271.8,342.2,273.7,340.9,275.2L340.9,275.2z"/>
	<path class="st0" d="M321.9,252.2c0.9,2.8,1.5,5.7,1.8,8.7l1,0.1c0.1,0,8.9,0.3,13.9-1.2c1.4-0.4,2.7-0.9,3.8-1.4
		c0-0.9,0.1-2.8,0.3-4.3c-1.2,0.6-2.5,1-3.8,1.1l-0.6,0.1c-2.7,0.4-5.5,0.5-8.2,0.1C326.5,254.9,323.7,253.8,321.9,252.2z"/>
	<path class="st0" d="M253.7,259c1.3-0.4,2.4-1.2,3.2-2.3c-1.1,0.4-2.3,0.8-3.5,1.1c-0.6,0.1-2.4,0.4-3.1-0.3
		c-0.3-0.4-0.4-1-0.3-1.5c0.8-4.1,5.8-5.3,5.9-5.4c0.4-0.1,7.8-2,10.3-5.7c0.5-0.7,0.8-1.6,0.9-2.4c-0.7,1.2-1.7,2.3-2.8,3.1
		c-3.1,2.6-8.6,3.7-8.6,3.7c-0.2,0-5.8,1.4-6.8,6.3c-0.3,0.9,0,1.9,0.6,2.6C250.8,259.7,253.4,259.1,253.7,259z"/>
	<path class="st0" d="M329.1,269.4l-0.3,0.3c-0.5,0.7-1.2,1.1-2,1.3c-0.6-0.1-1.1-0.4-1.4-0.9s-0.2-1.2,0.3-1.6c0.4-0.3,1,0,1.5,0.8
		l0.1,0.2l0.2-0.2c0.2-0.2,0.3-0.5,0.3-0.8c0-0.6-0.5-1.2-1.3-1.8c-0.3-0.2-0.8-0.2-1.1,0c-1,0.5-2,2.4-2,5.3c0,1.9,0.7,4.2,2,4.7
		c0.5,0.2,1.2,0.2,2.1-0.7c1.5-1.7,2-3.9,1.6-6.1L329.1,269.4z"/>
	<path class="st0" d="M225.3,259.5c2,1.5,6.8,4.9,11.2,3.4c5-1.7,5.8-7.4,5.8-7.6l0.2-1.4l-1.1,0.8c-2,1.5-4.6,2-7.1,1.4l-0.4-0.1
		c-1.8-0.3-3.6,0-5.1,0.9c-1.2,0.5-2.5,0.8-3.8,1l-1.6,0.3l1.4,0.9C224.8,259.2,225,259.3,225.3,259.5z M231.4,259.7
		c-0.3,0.6-0.1,1.3,0.4,1.7c0.3-0.7,0.7-1.3,1.3-1.7l0,0c0.2-0.1,3.6-2.3,5.7,0.1c-0.7,0.9-1.7,1.5-2.8,1.9
		c-2.3,0.8-4.8-0.1-6.8-1.2C229.8,260,230.6,259.7,231.4,259.7L231.4,259.7z"/>
	<path class="st0" d="M350.2,250.4c-1.1-3.2-5.9-5.4-14.9-5.5c-5.5-0.3-14,0.9-14.1,4.9c0,0.1,0,0.1,0.1,0.2c1.8,3,5.8,4.1,8.9,4.5
		l1.2,0.1c0-1.7-0.2-3.3-0.6-4.9l-0.1-0.4l0.4-0.1c0.9-0.3,1.8-0.5,2.8-0.6c1.1-0.2,2.3-0.3,3.4-0.3h0.7c1.3,0,1.9,0.2,3.9,1
		c1.1,0.4,1.9,1.3,2.1,2.4l0,0c0.1,0.5,0,1-0.2,1.5c-0.2,1.4-0.3,3.6-0.3,4.9c3.5-1.6,5.7-3.4,6.6-5.3c0.1-0.2,0.1-0.4,0.1-0.5
		C350.2,251.5,350.2,250.9,350.2,250.4z"/>
	<path class="st0" d="M174.3,271.5c0,0-0.8-0.2-2.1-0.4l-0.1,6.8v0.4l-0.4,0.1c-2.5,0.4-5,0.3-7.4-0.3c-2.1-0.5-3.7-2.1-4.2-4.2l0,0
		l0,0l0.4-6.5c-1.1,0.2-2.1,0.6-3.1,1c-1.5,0.7-3.6,1.8-4.2,3.6c-0.3,1.3-0.1,2.7,0.6,3.8l0.5,0.7c0.2,0.3,0.5,0.5,0.8,0.8
		c0.8,0.6,1.7,1.2,2.5,1.6c5.3,2.5,11.4,3.3,17.2,2.3c2.3-0.4,5.5-1.7,5.9-4.5c0-0.4-0.1-0.8-0.2-1.1
		C178.5,272.2,174.4,271.5,174.3,271.5z"/>
	<path class="st0" d="M161.1,274c0.5,1.6,1.8,2.8,3.5,3.2c2.2,0.5,4.4,0.6,6.6,0.3l0.1-6.5c-1.6-0.2-3.2-0.3-4.8-0.3
		C162.2,270.7,161.2,273.9,161.1,274L161.1,274z"/>
	<path class="st0" d="M318.1,270.2c-0.4,0.7-1.1,1.1-1.9,1.2c-0.7,0-1.5-0.3-1.9-0.9c-0.4-0.5-0.4-1.2-0.1-1.7
		c0.3-0.6,0.9-1,1.6-0.9c0.3,0.1,0.8,0.5,0.9,1c0,0.3-0.2,0.7-0.6,1l0.2,0.4c0.5-0.1,0.8-0.5,1-0.9c0.2-0.7,0.1-1.4-0.3-2
		c-0.5-0.7-1.3-1-2.1-0.9c-0.5,0.1-1.4,0.5-1.8,2.2c-0.5,2.2-0.5,6,0.9,7.3c0.3,0.3,0.7,0.5,1.1,0.5c0.9-0.1,1.7-0.6,2.2-1.4l0,0
		l0,0c0.8-1.5,1.2-3.1,1.1-4.8v-0.7L318.1,270.2z"/>
	<path class="st0" d="M174.5,270.6c2.3,0.4,4.4,1.6,6,3.3c-0.2-2.6-0.3-5.7-0.3-8c-4.6-0.2-9.2,0-13.8,0.5c0,0-2.4,0.3-4.9,0.8
		l-0.3,5c1.3-1.6,3.2-2.5,5.3-2.3C169.1,269.8,171.8,270.1,174.5,270.6z"/>
	<path class="st0" d="M340,267.1c-0.9-0.7-2.2-1-4-0.8h-0.2v0.2c-0.3,2.8-0.4,5.5-0.4,8.3l0,0c0,0.3,0.1,0.6,0.4,0.9
		c0.3,0.2,0.6,0.2,1,0.1c2.7-0.4,4.6-2.8,4.5-5.4C341.3,269.2,340.9,268,340,267.1z"/>
	<path class="st0" d="M168.1,251.3L168.1,251.3z"/>
	<path class="st0" d="M168.1,251.3c-1.1-0.6-2.4-0.6-3.4,0.1h-0.1v0.1c-0.6,3-0.6,6-0.1,9v0.2h0.2c2.1-0.2,4-1.4,5-3.2
		C170.8,255.2,170,252.7,168.1,251.3L168.1,251.3z"/>
</g>
</svg>
