<?xml version="1.0" encoding="utf-8"?>
<!-- Generator: Adobe Illustrator 26.2.1, SVG Export Plug-In . SVG Version: 6.00 Build 0)  -->
<svg version="1.1" id="Layer_1" xmlns="http://www.w3.org/2000/svg" xmlns:xlink="http://www.w3.org/1999/xlink" x="0px" y="0px"
	 viewBox="0 0 500 500" style="enable-background:new 0 0 500 500;" xml:space="preserve">
<style type="text/css">
	.st0{fill:#FEFEFE;}
</style>
<g>
	<path class="st0" d="M426.5,240.2c0,0,2.3-0.5,0.7-4.2c0,0,0.5-2-1-2.5c0,0-0.1-1.6-1.2-1.7l-0.7-0.8c0,0-0.2-0.9-1.1-0.9
		s-1.5,0.4-1.5,0.4s-1,0.1-1.4-0.2c-0.5-0.3-1.5-1-2-1c-0.4,0-1.9,0.6-2.1,0.3s-0.6-1-1.5-1.2c-0.9-0.1-1.7,0.5-1.9,0.5
		c-0.2-0.1-1-1-1.6-1.1s-3.9,0.2-4.3,0.1c-0.5-0.1-0.9-0.5-1.9-0.4c0,0-1-0.7-1.5-0.9s-2.3-0.3-3-0.2s-2.1,0.6-2.5,1.1
		s-0.8,1.3-1.7,1.4c-0.9,0.2-1.4-0.2-1.9-0.1c-0.5,0.1-1.4,0.6-1.4,0.6s-0.8-0.3-1.4,0.2c-0.5,0.5-0.8,1.6-1.5,2.1s-2.1,0.6-2.7,1.4
		c-0.6,0.8-1.3,2.3-1.3,2.3s-0.8,0.5-1.3,1.7c-0.4,1.2-1,3.1-0.8,4.8c0,0-0.5,3.2,1.4,3.8c-0.3,1.3-0.5,2.6-0.5,3.9
		c-0.8,0.9-7.4,8.1-15.6,8.1c-8.8,0-11-6.1-10.4-10.7c0.6-4.5,3.9-6.5,6.6-6.3c2.8,0.2,2.7,2.4,2.7,3.4c0,0.9-1.2,2.2-3.8,1.4
		c0,0,0,5.5,6.3,5.5s8.2-4.8,7.9-6.8c0,0,0.9,0,1.1-0.3s0.4-0.9,0.7-0.7s1,0.5,1.4-0.1s1.4-2.2,1.6-5.3s-0.8-4.4-1.2-4.5
		c-0.4-0.1-0.8-0.3-1.9-1.3s-1.4-1.3-1.5-1.6c-0.2-0.4-0.9-1.1-2.7-1.3c0,0-0.3-1.4-1.4-2s-1.5-0.5-2-0.8s-1.1-0.5-1.6-0.4
		c-0.5,0-1.3,0.2-1.5,0.5c-0.2,0.4-0.5,0.7-1,0.5s-0.9-0.9-1.7-1.1c-0.7-0.2-1.7-0.2-2,0s-0.8,0.4-1.2,0.1s-0.7-0.4-1.3-0.4
		c-0.5,0-1.2,0.9-1.6,0.7s-0.5-0.7-1-0.7s-0.7,0.5-1.1,0.5c-0.4-0.1-1.1-0.3-1.4-0.1c-0.4,0.2-0.7,0.6-1,0.8s-0.9,0.3-1.4,0.5
		c-0.5,0.3-1.1,0.7-1.4,1s-0.6,0.4-1,0.4s-1,0.3-1.2,0.6c-0.2,0.4-0.8,0.7-0.9,0.9s-0.5,0.7-0.5,1.4s-0.5,1.2-0.8,1.3
		c-0.4,0.1-1,0-1.4,0.5s0,1.6-0.4,2.1s-1,1.7-1.3,2.3s-0.5,1.8-0.5,2.3s-0.4,1.7-0.2,2.3c0.2,0.5,0.5,1.6,0.3,2.2s-0.8,2-0.7,3
		c0.1,1-0.1,2.7,2.3,3.2c0,0-0.5,5.1-3.4,5.1s-2.9-2.6-2.9-2.6V242c0,0,2.3-0.3,2.7-1.7s0.4-3.4,0-4.2c-0.3-0.6-0.6-1.4-0.5-1.6
		s0.6-1.4,0.5-1.9s-0.8-0.9-0.8-0.9s0-1.8-1.7-2.5c-1.6-0.7-2.6,0.2-3.2,0.2c-0.5,0-0.8-0.5-1.5-0.4s-1.5,0.2-1.9,0
		s-1.9-0.9-2.7-0.8c-0.8,0.1-1.9,0.5-2.3,0.7s-0.5,0.3-1.3,0.3s-1.5,0.5-1.9,0.8c-0.4,0.4-0.7,1.2-0.5,1.9s0,1.2-0.3,1.4
		c-0.3,0.3-0.5,1.5-0.4,2.3c0,0.7,0,5.5,0,5.5s0.2,2.4,2.6,2.2v9.1c0,0,0,3.8-3.2,3.8s-3.2-3.7-3.2-3.7v-9.6c0,0,1.2-1.9,1.2-2.4
		s-0.4-1.3-0.4-1.3s0.4-1.6,0.3-2.2c0-0.5-0.7-1-0.7-1.5s-0.3-1.8-1-2.2c-0.6-0.4-1.6-0.5-2.2-0.5c-0.5-0.1-1.3-0.6-1.5-1
		c-0.3-0.4-0.8-0.9-1.4-0.9s-1.8,0.3-2.3,0s-2.2-0.6-2.7-0.7c-0.5-0.1-1.7,0.1-2.5,0.6c0,0-1.6,0-2.4,0.1s-1.1,0.4-1.4,0.5
		s-0.7-0.4-0.9-0.6c-0.2-0.2-0.9-0.5-1.5-0.4s-1.4,1-1.4,1s-0.8-0.1-1.7,0.6v-1.7c0,0,2.3-1.5,2.6-2.3c0.3-0.7-0.1-1.4,0.1-2.3
		c0.2-1,0.2-2.1-0.4-2.8c0,0-0.2-1.2-0.6-1.7c-0.5-0.5-1.4-0.8-1.6-1c-0.3-0.1-0.7-0.5-1.3-0.6c-0.5,0-1.4,0.1-1.4,0.1
		s-0.9,0.2-1.5,0.1c-0.5-0.1-1.3-0.5-1.7-0.5c-0.5,0-1.2,0.3-1.9,0.2c-0.7-0.1-1.6-0.3-2.1-0.3s-1.4,0.3-2.3,1.3
		c-0.8,1-1.3,2.4-0.6,3.2c0,0-0.7,1.8-0.6,3.5s0.7,2.5,2.5,3v38h13.2v-22.6c0,0-0.1-3.5,3.5-3.5c3.7,0,3.5,3.3,3.5,3.3V260
		c0,0,0.4,8.6,9.9,8.6c7.8,0,10.5-5.9,10.5-5.9s2,5.9,10.7,5.9c8.8,0,12.4-7,12.4-7s3.2,7.3,14.8,7.3c8.8,0,17-6.4,20.5-9.6
		c3.2,5.5,9.1,9.2,15.9,9.2c10.1,0,18.4-8.2,18.4-18.4c0-1.2-0.1-2.3-0.4-3.4l6.5-2.3L426.5,240.2z M297.5,227.3
		c-0.5-0.8-0.9-1.1-1.4-1.1s-0.6,0.4-1.1,1.1c-0.4,0.6-0.5,1.4-1.1,1.6c-0.5,0.2-0.8-0.2-1.3-0.5c-0.5-0.4-0.7-0.6-0.8-1
		c-0.1-0.4,0.4-1.2,0.5-1.7c0.2-0.5-0.1-0.8-0.5-1.2c-0.5-0.4-1.1-0.4-1.4-0.1c-0.4,0.4-0.5,1.3-0.7,1.5c-0.2,0.3,0,1.2,0,1.8
		s-0.7,0.8-1.1,0.8s-0.7-0.1-0.9-0.4c-0.1-0.3-0.2-0.9-0.1-1.5s0.2-1.1,0.5-1.5c0.3-0.5,0.5-0.9,0.5-0.9c0.2-0.4-0.3-1-0.4-1.3
		c-0.2-0.3,0-0.4,0.2-0.5c0.2-0.2,0.3-0.5,0.5-0.6c0.2-0.2,0.8,0.1,1.2,0.2s0.7,0.3,1.2,0.3c0.5,0.1,0.9-0.2,1.4-0.3
		c0.5-0.2,1,0.1,1.4,0.2c0.4,0.1,1,0.4,1.8,0.4c0.7-0.1,0.9-0.4,1.3-0.4c0.4-0.1,0.5,0.3,0.9,0.5c0.5,0.2,0.9,0.5,1,0.7
		c0.1,0.4,0.5,0.8,0.5,1.1c0.2,0.3,0.3,0.6-0.1,1.2s0,1.9,0,2.2s-0.7,0.7-1.1,0.8C298,228.6,297.9,228,297.5,227.3z M320.4,241.1
		c-0.3,0.2-0.1,0.7-0.5,0.9s-0.5-0.3-0.6-0.6s-0.5-0.7-0.5-0.7s0.3-1.6-1.3-1.6s-1.2,2.3-1.2,2.3s0.2,0.5-0.5,0.5s-1-0.5-1.1-0.8
		c-0.2-0.2-0.8-0.2-0.8-0.2v-1.4c0,0-0.1-2-1.4-2c-1.4,0-1.4,1.7-1.5,2c-0.2,0.3-0.7-0.6-0.7-0.6s-0.2-0.9-0.4-1.4
		c-0.3-0.5-0.9-0.7-1.4-0.8c-0.4-0.1-1.1,0.2-1.3,0.8c-0.3,0.6,0,1.4-0.2,1.6c-0.1,0.3-0.8,0.3-1,0c-0.1-0.2-0.8-0.4-0.8-0.4
		s0.1-0.6-0.4-1.1c-0.4-0.4-1.2-0.3-1.2-0.3s-0.8-0.4-1.2,0.1c-0.5,0.5-0.8,0.2-1.5,0c-0.6-0.3-1,0-1.4,0.3s-0.6,1-1.1,1.1
		c-0.4,0.1-0.3-1-0.1-1.7c0.3-0.7,0.9-1.9,1.2-2.1c0.4-0.2,0.5-0.9,0.5-0.9c1.4,0.2,2.1-1,2.1-1c0.1,0.5,1.4,1.7,2.2,1.7
		c0.8,0,1.2-1.3,1.2-1.3s1-0.1,1.9-0.1c1,0,1.3,0,1.6-0.2c0.3-0.2,1.1-0.5,1.4-0.5s1.2,0.4,1.5,0.5c0.4,0.2,1.4,0.4,1.9,0.3
		c0.5-0.1,1.3,0,1.6,0.2s1.6,1.4,2,1.6c0.4,0.2,0.9,0.2,1.4,0.2s0.5,0.6,0.6,1.1s0.5,1.1,0.6,1.5c0.1,0.5,0,0.9-0.1,1.3
		c-0.1,0.4,0,0.8,0.1,1C320.6,240.4,320.7,240.9,320.4,241.1z M340.4,240.5c-0.5-0.1-0.6-0.7-0.7-1.1c-0.1-0.4-0.1-1.7-0.2-2.3
		c-0.1-0.5-0.2-1.6-1.3-1.7c-1.1-0.1-1.4,0.8-1.4,1.1s0.2,1.2,0.4,1.5c0.3,0.4,0.3,1.3,0.2,1.5c-0.1,0.3-1.1,1-1.3,1.2
		c-0.2,0.3-0.5,0.4-0.7,0.1c-0.2-0.2-0.6-0.2-0.6-0.2s0-1.7-0.2-3c-0.2-1.4-0.5-1.8-1.9-1.8s-2.1,1.4-2.1,1.4s0,1.6,0,2.2
		s-0.5,0.7-0.9,0.8c-0.4,0.2-0.8,0.8-1,1.2s-0.7,0.2-0.9-0.2c-0.2-0.3-0.1-2.3-0.2-3.4c-0.1-1.2,0.2-2.6,0.2-3.2s0.5-1,0.7-1.3
		s0.2-0.6-0.1-1c-0.2-0.3-0.2-0.6-0.2-0.6c0.1-0.3,1.6-0.3,2.3-0.5c0.7-0.3,0.9-0.5,1.3-0.7s0.7,0,1.2,0.3s1.1,0.4,1.6,0.5
		c0.5,0.2,1.8,0,2.3,0s0.7,0.3,1.4,0.4c0.7,0.1,1.5-0.5,1.9-0.5c0.4-0.1,0.8,0.4,0.8,0.7c-0.1,0.4,0.2,0.9,0.4,1.2
		c0.2,0.3,0.1,0.5-0.2,0.9c-0.3,0.4-0.2,0.6-0.2,1.1s0.2,0.6,0.5,0.9c0.4,0.3,0.4,0.8,0.5,1.4c0,0.6-0.1,1.7-0.1,2.3
		C341.7,240.3,340.8,240.5,340.4,240.5z M357.5,238.1c-0.5,0.1-1-0.3-1.5-0.4c-0.5-0.1-1.2-0.3-1.7,0.4c-0.5,0.5,0,1.4,0.1,1.7
		s0.3,0.9-0.2,0.9s-0.9-0.8-1.4-0.8s-1.4,0.2-1.7,0.7s-0.3,1.4,0,1.6c0.2,0.2,0.6,0.6,0.6,0.6s0.1,0.8-0.3,1.4
		c-0.4,0.6-0.5,1-0.9,1.2s-0.6-0.1-1.1,0.5c-0.5,0.5-0.2,0.6-0.2,1.1s0,1-0.3,1.3c-0.4,0.3-0.7,0.6-1.1,0.6s-0.5-0.3-0.5-0.9
		c0-0.6,0.2-1.3,0.4-1.5c0.2-0.3,0.5-1.4,0.4-2.1c-0.2-0.7-0.6-1.7-0.3-3.4c0.3-1.7,0.4-2,0.4-2s1.2-1.4,1.4-2.1
		c0.2-0.7,0.3-1.4,0.3-1.4s1.8-1.2,2-1.5c0.2-0.4-0.1-1.5,0.3-1.7s0.6,0,0.8-0.4c0.3-0.4,0.5-0.6,0.7-0.7c0.3-0.1,1.2-0.3,2-0.9
		c0.8-0.6,0.9-0.8,1.4-1s0.8-0.5,1.1-0.6s0.5,0.1,0.8,0c0.4,0,0.6-0.4,0.9-0.2c0.3,0.1,0.7,0.6,1.4,0.4c0.6-0.2,0.9-0.9,1.5-0.7
		c0.6,0.1,0.6,0.4,1.4,0.3c0.8-0.1,1.4-0.5,1.8-0.3c0.5,0.2,1.4,1,1.8,1.2s1.7,0.1,2.3-0.3c0.5-0.4,0.9-0.9,1.4-0.8
		c0.5,0.1,0.8,0.5,1.2,0.6c0.4,0.1,1.1,0.5,1.1,0.5s0,1.1,0.9,1.6s1.5,0.5,1.8,0.6c0.4,0,0.4,0.1,0.5,0.5c0.1,0.3,0.9,1.1,1.4,1.4
		c0.5,0.4,1.1,1,1.4,1.3c0.4,0.3,1.3,0.4,1.4,1.4c0,1.1,0,2.7,0,2.7s-0.4,0.9-0.4,1.3s0.1,0.8-0.3,0.9c-0.4,0.1-0.5,0-0.6,0.2
		c-0.1,0.1-0.5,0.3-0.5,0.1c-0.1-0.2,0.1-0.5-0.2-0.9c-0.3-0.4-0.5-0.4-0.5-0.6c0-0.3,0.1-0.6,0-1s-0.5-0.8-0.7-0.9
		c-0.3-0.1-0.6-0.4-0.9-0.3c-0.4,0-0.8,0.1-1.4,0.2c-0.5,0-0.9,0.2-1,0s-0.4-0.5-0.6-0.8c-0.3-0.3-0.8-0.6-0.9-0.8
		c-0.1-0.3-0.2-0.8-0.7-0.7c-0.5,0-0.9,0.1-1.1,0.4c-0.1,0.3-0.5,0.7-0.5,0.7s-0.3-1.4-1.4-1.7c-1-0.4-2-0.5-2.3-0.1
		s-0.6,0.5-0.8,0.5c-0.3,0-0.5-0.2-0.7,0c-0.3,0.2-0.3,0.6-0.7,0.5c-0.4-0.1-0.8-0.7-1.4-0.7c-0.5,0-0.8,0.5-1.2,0.4
		c-0.4,0-0.6-1.8-1.7-1.7c-1.1,0-1.6,1.4-1.6,1.4s-0.8,0.8-0.9,1.4C358.2,237.2,357.9,238,357.5,238.1z M404.4,256.2
		c-3.8,0-7-3.1-7-7c0-2.9,1.8-5.3,4.2-6.4c0,0.2,0,0.5,0,0.6c0,4.3,3.5,7.9,7.9,7.9c0.5,0,1-0.1,1.5-0.2
		C410.3,254,407.6,256.2,404.4,256.2z M409.3,246.5c-1.5,0-2.7-1.2-2.7-2.7s1.2-2.7,2.7-2.7s2.7,1.2,2.7,2.7
		S410.7,246.5,409.3,246.5z M425.5,238.6c-0.3,0.2-1,0.1-1.2-0.1c-0.2-0.2-0.7-0.8-1-0.8s-1.2,0-1.8-0.1c-0.5-0.1-1-0.5-1.2-0.7
		c-0.2-0.3-0.5-0.5-1.1-0.5c-0.5,0.1-1,0.1-1.4,0.4c-0.4,0.3-0.5,0.5-0.6,0.9c-0.1,0.3,0.1,0.8-0.4,0.7s-0.8-0.5-1-0.9
		c-0.2-0.3-0.5-0.6-1.1-0.9c-0.5-0.2-1.3-0.1-1.7-0.3c-0.4-0.2-0.7-0.5-1.3-0.5c-0.5,0-0.7-0.1-1.2,0.3c-0.5,0.4-0.3,0.5-0.7,0.7
		c-0.5,0.2-0.5,0.4-0.8,0c-0.2-0.4-0.5-0.3-0.7-0.7c-0.2-0.5-0.5-0.8-0.8-1.1c-0.4-0.2-0.5-0.4-1-0.4s-1.2,0.2-1.4,0.5
		c-0.2,0.3-0.7,0.5-1,0.8s-0.6,0.8-0.7,0.3s0-1.1-0.1-1.4c-0.1-0.4-0.5-1.5-1.4-1.5s-1.5,1-1.7,1.4c-0.1,0.5-0.1,1,0,1.4
		c0.1,0.3,0.3,0.7,0,1c-0.3,0.2-0.6,0.6-0.8,0.8c-0.2,0.2-0.7,0.3-0.8-0.2c0-0.5,0-1.5,0-1.8s-0.4-1-0.5-1.2
		c-0.2-0.2-0.3-0.5-0.8-0.5s-1.3,0.4-1.4,0.5c-0.2,0.2-0.4,0.5-0.2,0.9c0.2,0.4,0.4,0.5,0.4,0.8s0,0.5-0.2,0.9s-0.2,0.7-0.4,0.6
		c-0.2-0.1-0.7-0.6-1-0.9c-0.2-0.3-0.5-0.6-0.9-0.9c-0.4-0.3-0.7-0.6-1.2-0.5c-0.5,0.2-0.8,0.6-0.8,1s-0.1,1.2-0.1,1.6
		c0,0.5-0.1,1.2-0.3,1.5c-0.2,0.4-0.5,0.1-1,0.3s-0.5,0.7-0.9,0.8s-1,0-1.4,0.2c-0.4,0.3-0.8,0.3-0.9,0.8s-0.1,1.8-0.5,1.4
		c0,0-0.4-0.9,0-2.5s0.4-2.8,0.8-3.2c0.5-0.3,0.9-0.5,0.9-0.9s0.5-1.4,0.7-1.7c0.2-0.2,0.5-0.5,0.8-0.5s1.4-0.1,1.9-0.8
		c0.5-0.6,1.2-1.2,1.3-1.4c0-0.3,0-0.5,0.4-0.5s0.6,0.1,0.9-0.1c0.2-0.2,0.4-0.5,0.6-0.4c0.3,0.1,1,0.5,1.5,0.3
		c0.5-0.3,1.3-0.5,1.9-0.7c0.6-0.3,1.1-0.6,1.3-0.9c0.2-0.3,0.2-0.6,0.5-0.8s0.7-0.2,1.3-0.2c0.5,0,0.7-0.1,1.3,0
		c0.5,0.1,0.6-0.1,0.8,0.3c0.2,0.4,0.5,0.6,0.7,0.7c0.3,0,0.9-0.2,1.2,0s0.8,0.5,1.4,0.4c0.5-0.1,1.7,0,2.3-0.1
		c0.5-0.1,1-0.2,1.5-0.1c0.5,0.1,0.8,0.4,0.9,0.7c0.1,0.4,0.6,0.5,1,0.6c0.3,0,0.9,0,1.3-0.3c0.3-0.2,0.5-0.5,0.8-0.3
		s0.4,0.6,0.7,0.8s1.4,0.3,2,0.2s1.1-0.3,1.4,0s1,0.4,1.4,0.7s0.6,0.4,1,0.4s0.9,0.1,1.3-0.1c0.3-0.2,0.4-0.3,0.8-0.1
		c0.5,0.2,0.6,0.6,1,0.9s0.3,0.5,0.5,0.9s0.4,0.6,0.6,0.8c0.3,0.1,0.4,0.4,0.4,0.9s0.3,1.2,0.4,1.4
		C425.7,237.7,425.7,238.3,425.5,238.6z"/>
	<path class="st0" d="M271.2,247.8c0-23.8,20.6-30.8,20.6-30.8c17.9,6.6,27.4-3.5,27.4-3.5l-0.5-0.2c0,0,1.1-2.7,1.1-3.9
		s-0.9-2-1.3-2.4c-0.5-0.5-0.5-2.2-1.6-2.7s-2.3-0.2-3.1,0.2c-0.8,0.4-1.6,0.3-1.6,0.3s-1.4-1-2.1-1.1c-0.6-0.1-2.8,0.1-4.1,0.3
		c-1.3,0.2-2.1-0.5-2.1-0.5c-1.3-1.1-3.1-1-3.1-1c-1-1.2-2.5-1.5-3.3-1.4c-0.7,0.2-2.2,0.5-3.1,0.5s-3.2-0.8-5.4-0.9
		c-2.3-0.1-3.3,2.5-3.3,2.5c-1.3-0.2-3.2,1.5-3.2,1.5c-1.2-0.5-3.2,0.2-3.2,0.2c-5.7,0.2-6,6.4-6,6.4s-2.8-0.3-3.3-0.1
		s-2.7,2.1-2.7,2.1c-3.3,1.3-3,4.6-3,4.6c-1.4,0.1-2.7,0.9-4.5,2.6c-1.8,1.7-2.3,4.1-2.3,4.1c-1.9,0.6-4,4.2-4,4.2s-1-0.5-2-0.6
		c-0.9-0.1-3.1,1.6-3.1,1.6s-2.5-0.9-3.9-1.1c-1.3-0.2-3.7,1.3-3.7,1.3s-2.3-1.8-3.4-2.2s-5.7-0.4-5.7-0.4s-0.9-0.4-3.1-0.4
		c-2.2,0-3.9,1-4.3,1.3c-0.5,0.2-2.4,0.2-4.2,0.5c-1.8,0.4-4.2,2.7-4.6,3.1c-0.5,0.3-1.5,0.5-2.1,1.2c-0.5,0.7-1.7,1.4-2.3,2.2
		c-0.6,0.7-1.2,0.2-1.2,0.2c-0.1-1.1-1.3-1.4-2-1.6c-0.8-0.3-1.1-0.5-1.3-1.5s-0.9-1.3-0.9-1.3c-1.6-2.1-4.2-0.8-4.6-0.9
		c-0.4-0.1-0.8-1.5-1.5-1.9s-2.8,0.5-3.5,1c-0.6,0.5-3.3-1-4.1-1.2s-2.3,1.3-2.4,1.6c-0.2,0.4-2.5,0-2.5,0s0,0-1.2-0.5
		s-2.2-0.7-2.6-0.5c-0.5,0.2-2.8,1.2-3.8,1.5c-0.9,0.4-1.4,0.1-2.7-0.3c-1.3-0.4-3.2,0.1-3.3,1s-1.6,2-1.6,2c-2.1,2-3.2,0.5-3.2,0.5
		c-1.4-1.9-3.9-2.6-3.9-2.6c-0.5-2.9-4.9-2-4.9-2c-0.6-0.6-2.5,0.2-2.5,0.2s-2.7-0.5-4.3-1.2c-1.6-0.6-3.8,0-4.3,0.5
		s-3.6,2.2-3.6,2.2s-4.6-0.9-8.8,3.1s-3.2,8.9-3.5,10.5c-0.3,1.5-2.9,4.2-2.9,4.2l-0.8-3.3c1.6-0.4,1.7-2.7,1.6-3.9
		c-0.2-1.1,0.2-3.2,0.2-5.1s-1.4-4.5-1.4-4.5c0.2-1.4-0.5-2.5-1.8-3.2c-1.3-0.6-3.5,0.1-3.5,0.1c-1.1-2.2-2.8-1.8-2.8-1.8
		c-1.3-0.7-2.8,0.8-2.8,0.8c-1.5-1.8-3.1-1.6-3.1-1.6c-2.2-0.7-3,1.3-3,1.3c-1.6,1.1-0.3,2.7-0.2,3.3c0.1,0.6-0.9,1.9-0.9,2.5
		s1.2,2.7,1.2,2.7s-2.2,2.1-0.6,3.5c1.5,1.4,0.9,2.8,1.1,4.3s2.7,2.7,2.7,2.7c7,31.8-6.8,41.4-6.8,41.4l12.3,12.6
		c0,0,16.4-10.7,10.9-40.8l1.8-0.3h0.1c3.1,6,9.3,10,16.4,10c10.2,0,18.5-8.3,18.5-18.5c0-1.1-0.1-2.2-0.3-3.3l2.3-2v42.1l14.4-5.2
		V267c2.1,0.9,4.4,1.4,6.9,1.4c9.3,0,16.9-7.6,16.9-16.9c0-0.3,0-0.6,0-0.9l3.2-0.6c0,0.3,0,0.5,0,0.9c0,10.2,8.3,18.5,18.5,18.5
		s18.5-8.3,18.5-18.5c0-1.8-0.3-3.5-0.7-5.1l3.6-0.6c0,0-1.4,12.9,4.7,23.5c6.1,10.7,20.3,25.6,41.3,25.3
		c21-0.3,29.4-11.8,29.4-11.8c6.9-7.2,0.9-16.1,0.9-16.1C306,294.7,271.2,273,271.2,247.8z M278.7,206.9c0.6-0.3,1.2-0.1,1.8-0.5
		s1.9,0,2.7,0c0.7,0,0.9-0.5,1.4-1s1.3-0.6,2-0.9c0.7-0.3,1-1,1.2-1.4c0.2-0.5,0.5-0.4,1.1-0.6c0.6-0.3,1.6,0,2.4,0.2
		s2.6,0.5,3.6,0.6s2.2-0.3,3-0.4c0.8,0,1.2,0.5,1.5,0.9c0.4,0.4,0.7,0.5,1.4,0.5c0.6-0.1,0.8,0,1.3,0.5s1.3,0.5,2.6,0.8
		s4.2-0.2,4.8-0.2c0.5,0,1,0.4,1.4,0.7c0.3,0.4,1.1,0.5,1.6,0.5s1.5-0.3,1.8-0.5s0.8-0.3,1.4-0.2c0.5,0.1,0.3,0.7,0.5,1.4
		c0.1,0.5,1.3,1.5,1.3,1.5s0,0.2,0,0.9s-0.6,2.1-0.6,2.1c-17.7-14.4-40.7-1.7-40.7-1.7C276.1,207.8,278,207.2,278.7,206.9z
		 M129.1,238.4c0,0.5,0,1-0.1,1.5s-0.1,1.4-0.1,1.4s-0.4-0.6-0.8-0.9c-0.5-0.3-0.9-0.3-1.1-0.5s-0.5-0.5-0.5-1s0.1-0.6-0.1-1.1
		s-0.5-0.6-0.7-1.1s-0.5-1-0.9-1.2s-0.9-0.5-1.3-0.2s-1,0.8-0.9,1.5s0.1,1.1,0.4,1.4s0,0.7-0.3,0.8s-0.7,0.2-0.9,0.3
		c-0.2,0.1-0.7,0.4-1,0.2c-0.3-0.1-0.6,0-0.7-0.9c0-0.8-0.1-1.4-0.3-2c-0.2-0.5-0.4-0.8-0.6-1c-0.3-0.2-0.6-0.6-1-0.5
		c-0.5,0.1-1,0.5-1.1,0.8c-0.1,0.4-0.2,1.2-0.3,1.4c-0.1,0.4-0.1,0.9,0.1,1.4s0.5,1.3,0.6,1.7c0.2,0.5,0.5,0.9,0.3,1.4
		s0,1.4-0.6,1.4c0,0-1.4-0.7-1.5-1s-0.2-1.4-0.1-1.7c0-0.4-0.1-1.6-0.3-2c-0.2-0.4-0.5-0.8-0.6-1.2c-0.3-0.4-0.6-0.5-0.4-0.8
		c0.3-0.3,1-1.4,0.9-1.8s-0.1-1.1-0.3-1.5c-0.2-0.5-0.5-1-0.5-1.2c0-0.3-0.4-0.6,0-1c0.3-0.4,0.6-1.2,0.5-1.8s-0.8-1.3-0.6-1.5
		c0.2-0.4,0.5-0.8,0.7-0.8s0.4,0.2,0.7,0.2s0.7,0.1,1,0.5c0.4,0.3,0.8,0.7,1.4,0.9c0.5,0.1,0.9,0.3,1.3,0.2s1-0.4,1.3-0.5
		s0.6-0.3,1-0.2s0.7,0.2,1.1,0.5s0.7,0.9,0.9,1.1s0.7,0.5,1.2,0.5c0.5-0.1,1.1-0.4,1.4-0.4s0.8,0,1.1,0.1c0.3,0.1,0.6,0.5,0.6,0.6
		s0.2,1.5,0.5,2c0.2,0.5,0.5,1,0.6,1.4c0.2,0.5,0.3,1,0.4,1.8C129.3,236.7,129.2,238,129.1,238.4z M131.7,251c0-1.6,0.6-2.1,0.6-2.1
		s0,3.5,0.3,4.6C132.6,253.5,131.7,252.6,131.7,251z M153.3,256.3c-3.8,0-7-3.1-7-7c0-2.9,1.8-5.3,4.2-6.4c0,0.2,0,0.5,0,0.6
		c0,4.3,3.5,7.9,7.9,7.9c0.5,0,1-0.1,1.5-0.2C159.2,254.1,156.4,256.3,153.3,256.3z M171.9,237.7c0,0-0.6,0-1.2,0s-0.8,0.7-0.8,0.7
		s-2.6,1.2-2.9,1.1c-0.3,0-0.5-0.3-0.7-0.5c-0.3-0.3-1,0-1,0s-5.1-7.1-14.6-7.1c-9.6,0-14.9,7.7-14.9,7.7c0.1-4.4,5-6.4,5.8-6.9
		c0.9-0.5,3.3-0.2,4.1-0.2s2.3-1.1,3.2-1.7c0.9-0.6,2.4-1.2,2.8-1.3c0.4-0.1,2,0.4,2.8,0.6c0.8,0.3,2.9,0.8,3.4,0.8s1.1-0.2,1.8-0.4
		s0.6,0.2,1,0.3c0.3,0,0.5-0.3,1.2-0.3c0.6,0,1.4,0.3,1.4,0.3c0,0.7,0.5,1.4,0.8,1.7c0.4,0.4,1.3,0.6,1.9,0.8
		c0.6,0.2,1.4,1.4,1.7,1.6c0.3,0.3,1.4,0.8,1.8,0.9c0.4,0,1.4,0.1,1.7-0.1c0.2-0.2,0.9-0.4,0.9-0.4L171.9,237.7L171.9,237.7z
		 M175,232.7c0,0,0.6-0.7,0.6-1.1c0,0,1.5-0.2,2,0.1L175,232.7z M192.6,256.2c-2.1,0-3.9-0.9-5.2-2.3l-1.6,2v-8.6
		c0.8-3,3.5-5.2,6.8-5.2c3.9,0,7,3.2,7,7C199.6,253,196.4,256.2,192.6,256.2z M232.6,255.9c-3.8,0-7-3.1-7-7c0-2.9,1.8-5.3,4.2-6.4
		c0,0.2,0,0.5,0,0.6c0,4.3,3.5,7.9,7.9,7.9c0.5,0,1-0.1,1.5-0.2C238.3,253.7,235.7,255.9,232.6,255.9z M254.5,235.9l-5.1,1.4
		c-0.2-1-0.7-1.4-1.4-1.5c-0.6-0.1-1.4,0.3-1.5,0.7c-0.2,0.5-0.6,1.2-1.1,1.4s-0.8-0.6-1.1-1.1s-0.5-1.4-0.9-1.9c-0.5-0.5-2,0-2,0
		c-12.7-8.1-22.7,1.6-22.7,1.6c-1.5,0.3-1.8,1.8-1.8,1.8c-0.6,0.8-1.4,2.3-1.4,2.3s-0.4,0-1,0c-0.5,0-1.7-1.1-2.3-1s-1.2,2-1.2,2
		l-3.6,0.2c-8.4-11.5-19.5-7.2-19.5-7.2s-0.6,0-1.1,0s-0.5,0.3-0.8,0.5c-0.2,0.3-1,0.5-1,0.5v-5.3c0,0,1,0.4,1.4,0.7
		s1.4,0.3,2.1,0.4s1.9,0.1,2.4,0s1.2-1.1,1.4-1.4c0.3-0.2,0.8,0.1,1.2,0.3s1.8,0.5,2.5,0.6s1.5-0.1,1.8-0.4c0.3-0.3,1-0.5,1.4-0.6
		c0.4,0,1.3,1.9,1.8,2s2.3-0.5,3.2-0.3c0.8,0.1,1.4,1.9,1.6,2.4c0.3,0.5,2.6,1.5,2.6,1.5s0,0.3,0.4,0.7s1.4,1.1,2,1.2
		c0.6,0.1,1.2-0.3,1.7-0.6c0.5-0.4,1.4-1.3,1.8-1.8c0.4-0.5,1.4-1.3,1.7-1.4c0.4-0.2,1.4-0.6,1.9-0.9c0.5-0.3,1.4-1.2,2.2-1.8
		c0.8-0.5,2-0.7,3-0.7c0.9,0,1.5,0,2.3-0.3s2-0.7,2.8-1.1c0.7-0.4,2.8,0,3.4,0.3c0.6,0.3,2.3,0.3,3.5,0.3s2.6,0.3,3.3,0.6
		c0.6,0.4,2.1,1.6,2.7,1.8c0.6,0.2,1.3-0.3,1.9-0.6c0.6-0.4,1.4-0.7,1.8-0.7s1.5,0.5,2.3,0.8c0.7,0.4,2,0.3,2.3,0.2
		c0.4,0,1.3-0.6,2.1-1.1s1.5,0.1,2.2,0.3s1.5-0.5,2.2-1.4c0.6-0.9,2.6-2.8,2.6-2.8C254.9,232.4,254.5,235.9,254.5,235.9z
		 M260.5,223.6c0.5-1.5,1.7-2,1.7-2C261.7,221.9,260.5,223.6,260.5,223.6z M267,216.4c0.5-1.2,2-1.6,2-1.6L267,216.4z"/>
	<path class="st0" d="M325.9,220.8c0,0,1.5,6.4,8.2,6.4s8.3-6.5,8.3-6.5c2.2-0.5,2.4-2.2,2.4-2.7s-0.6-1-0.8-1.5
		c-0.1-0.5,0.5-1.1,0.7-1.6s-0.1-1.4-0.6-2.5c-0.6-1.2-2-2.8-2.3-2.8s-1.3-0.7-2.5-1.5c-1.4-0.8-2.8-0.9-2.8-0.9s-1.4-0.5-2.1-0.5
		s-1.6,0.6-1.6,0.6s-0.9-0.1-1.3,0s-0.8,0.5-1.4,0.9c-0.5,0.5-1.9,1.2-2.1,1.6c-0.2,0.5-0.9,0.8-1.7,1.5c-0.8,0.6-0.9,2.3-0.9,2.8
		s-0.8,1.6-1.4,3.7C323.6,219.8,325.9,220.8,325.9,220.8z M326.3,217.5c0.2-0.5,0.7-1.8,1-2.3s0.5-2.3,0.5-2.3
		c0-0.4,0.8-0.7,1.3-0.9s0.5-0.5,0.5-0.6c0.1-0.2,0.5-0.5,0.8-0.8s0.6-0.4,1-0.5c0.5-0.2,0.7-0.5,0.9-0.6s0.5-0.1,0.9-0.1
		s0.7-0.2,0.9-0.5c0.2-0.3,0.6-0.1,1.1,0.1s0.8,0.4,1,0.5c0.3,0.1,0.6,0.1,1,0.1s0.6,0.3,1.3,0.5c0.6,0.3,1,0.6,1.6,1
		c0.6,0.3,1,0.8,1.4,1.3c0.5,0.5,1.2,1.9,1.3,2.3c0.1,0.4-0.5,0.8-0.6,1.4c-0.3,0.5-0.1,1.2,0.1,1.4c0.2,0.3,0.5,1.2,0.2,1.3
		s-0.5-0.9-0.9-1.4c-0.3-0.5-1.2-0.7-2.1-0.5c-0.9,0.3-1.2,1.2-1.2,1.4c0,0.3-0.5,0.2-0.7,0.2c-0.2-0.1-0.5-0.8-0.8-1.3
		s-1.2-1.1-1.6-1.4c-0.5-0.4-1.2-0.3-1.3-0.1c-0.1,0.3-0.5,0.5-0.6,0.9c-0.1,0.5-0.1,1.5,0.1,1.8s-0.2,0.8-0.5,0.9
		c-0.3,0.1-0.1,0.6-0.8,0.6c-0.6,0-0.7-0.9-1.2-1.7s-1.2-1.2-1.6-1.3s-1.5,1-1.6,1.3s-0.4,1-0.9,0.9
		C326.3,218.8,326,218.1,326.3,217.5z"/>
	<path class="st0" d="M112.7,245.5l-5.3-9.5c0,0-4,4.9-10.1,4.7s-10.6-4.1-9.6-11.4c1-7.3,8.9-11.2,21.7-11.3
		c12.7-0.1,24.5,4.9,35.9,6.2c11.5,1.4,26.8,4.2,37.4,0.5c10.7-3.7,13.1-7.7,13.1-7.7c5.1,1.3,5.1-4.2,4.8-6.8
		c-0.3-2.5-1.2-3.3-1.2-3.3c0.6-1.3-0.4-2.5-0.4-2.5c-0.4-1.1-1.6-1.9-2.2-2.2c-0.5-0.3-1.1-0.5-1.4-0.5c-0.4,0-0.4-0.5-2.1-1.4
		c-1.7-0.8-3.1,0.9-3.4,1.4c-0.4,0.5-2.3,3.3-2.3,3.3c-0.9,0-3.3,2.4-3.3,2.4c-1.3-0.1-2.3,0.9-3.5,1.1c-1.2,0.1-2-1.4-3.8-1.4
		c-1.9,0.1-3,2.3-4.3,2.8c-1.4,0.4-3.5-1.5-5.1-1.5c-1.5,0-3,1.7-3.5,2.1c-0.5,0.4-2.5-2-3.3-2.3c-0.9-0.4-3,0.3-3,0.3
		s-0.9-0.5-1.5-0.5c-0.6-0.1-1.4,0.1-2.6,0.7c-1.3,0.6-2.5-0.3-2.5-0.3s-1.4-1.7-2.7-2c-1.4-0.2-3,0.9-3.5,1s-1.3-0.5-3.2-0.5
		c-1.9,0.1-3.3,1.5-4.9,1.7c-1.5,0.2-1.7-1.5-2.9-2.2c-1.2-0.6-4.7,0.4-4.7,0.4c-1.4-1.2-3.9-0.9-3.9-0.9s-1.1-0.6-2-1.1
		c-0.9-0.4-2.8-0.5-3.4-0.5c-0.6,0.1-2.4-1.7-4.5-3s-4.8-1-4.8-1c-1.3-0.5-2.9,0-3.3,0.5c-0.5,0.5-1.4,0.4-2.2-0.4
		c-0.8-0.7-2.8-0.2-2.8-0.2c-1.7,0-3.3,2.2-3.7,3.1s-5.8-0.4-5.8-0.4c-1.4-0.2-4.8-0.3-5.9,1.7s-2.8,2.4-4.9,3c-2,0.5-3,1.5-3,1.5
		c-3.5,1-4.1,4.6-4.1,4.6c-3.8,3.3-1.7,7-1.7,7s-0.5,1.4-0.9,2.4c-0.4,1.1,0,2.8,0.4,3.8s-0.5,3-0.7,7.2c-0.3,4.2,3.7,4.2,3.7,4.2
		c2.5,7.5,9,14.3,19.9,14.3C106.6,253.2,112.7,245.5,112.7,245.5z M86.6,215.9c-0.3-0.5-0.9-1-1.4-0.9c-0.5,0-1.1,0.3-1.3,1.3
		c0,0-0.5,0.8-0.5,1.4s0,1.3-0.3,1.3s-0.9-0.6-1.4-0.5c-0.5,0.3-0.8,0.8-0.7,1.5c0.1,0.7,0.7,2,0.3,2.3c-0.5,0.3-1,0.1-1.4,1.4
		s-0.3,2.1,0,2.3c0.3,0.3,0.8,0.9,0.2,1.4c-0.6,0.5-0.7,1-0.5,1.9c0.3,1,1.1,2.3,0.5,2.3c-0.5,0.1-1.3-0.2-1.7,0s-0.7,1.5-0.5,1.9
		c0,0-1.6,1.3-2.1,3.2c0,0-1.2-0.3-1.2-1.2s0.1-3.8,0.4-4.5c0.3-0.8,0.5-2,0.4-3.3s-0.9-2.7-0.5-3.5s1.1-2,1.2-2.6s-1.1-2.4-0.8-3.3
		c0.3-0.9,1.2-2.1,1.8-2.6c0.6-0.5,0.8-1.1,0.8-1.6s0-1.2,1.1-1.7c1-0.5,1.7-0.7,2-1s0.5-0.8,0.8-0.9c0.4-0.1,1.6-0.4,3.1-0.8
		c1.4-0.5,2.9-1.8,3.6-2.7c0.8-0.9,1.9-1.5,3.2-1.4c1.4,0.1,3.6,0.4,5.1,0.6c1.4,0.3,3,0.3,3.8-0.8s1.1-1.9,1.6-2.2s0.8,0,1.1-0.3
		c0.2-0.2,0.7-0.5,1.2-0.2s1.8,1.3,2.7,1c1-0.3,1.7-1,2.4-1c0.7,0,1.4,0.4,1.8,0.3c0.5,0,2-0.3,2.8,0.2s3,1.6,3.8,2.4
		c0.8,0.8,1.4,1.1,2.1,1.1c0.7,0.1,2-0.1,2.3,0.2c0.4,0.3,1.8,1,2.4,1.4c0.6,0.3,2-0.2,2.4,0.2c0.5,0.3,1.2,0.9,2.1,0.9
		s2.4,0,3.1-0.3c0.5-0.3,1,0,1.4,0.5c0.5,0.6,1.1,1.5,2.9,1.6c1.7,0,2.8-0.5,3.4-0.9c0.7-0.5,1.3-0.9,2.3-0.7s2.1,0.5,3,0.3
		s2.1-1,2.8-0.9c0.6,0.1,1.3,0.5,1.6,1.1c0.4,0.6,1.7,1.1,3,1.2c1.3,0.1,2.5-0.2,2.9-0.5s1-0.3,1.4,0c0.5,0.2,1.4,0.3,1.9,0.1
		c0.6-0.1,1.1-0.5,1.6-0.2c0.5,0.5,1.6,1.1,2.1,1.5c0.5,0.5,1.6,1.1,2.5,0.5c1-0.5,1.8-1.8,2.3-1.9c0.5,0,1.3,0.1,2.3,0.8
		c1.1,0.7,2.3,0.7,3.8,0.3c1.4-0.5,2-0.9,2.3-1.4c0.4-0.4,0.6-1.1,1.4-0.9s1.9,0.7,2.2,0.9c0.3,0.3,1,0.5,1.7,0.4
		c0.7-0.2,1.5-0.7,2.3-0.9s1.5,0,2.1-0.5c0.5-0.5,2-2.1,2.6-2.3c0.5-0.3,1.4-0.9,1.8-1.7c0.5-0.8,1.7-2.6,2.6-3.2c0,0,1.2,1,1.7,1.3
		s1.6,0.5,2,0.9c0.4,0.3,0.4,0.7,0.5,1.1c0.3,0.3,0.7,0.5,0.5,0.9c-0.3,0.4-0.2,1.3,0.1,1.6c0.3,0.4,0.8,0.8,1,3s0,3.7-0.7,4.1
		s-1.3,0-1.1-0.4c0.2-0.5,0.5-1.2,0.4-1.9c-0.1-0.6-0.5-1.8-1.4-1.7s-1.4,0.4-1.3,1.4c0.1,1,0.3,2.1-0.3,2.2
		c-0.5,0.1-1.4,0.3-1.7-0.3c-0.3-0.5-0.1-1.3-0.4-1.8c-0.3-0.5-0.8-1.9-2.6-1.8c-1.8,0.1-2.6,0.8-2.9,3.5c0,0-2.3-0.1-4.2,0.5
		s-2.7,0.9-3.2,1.5s-0.8,1.8-1.4,2.2c-0.5,0.3-1.4,0.5-1.7,0.1c-0.3-0.5-0.2-0.9,0-1.5s-0.4-1.9-1-2.1c-0.6-0.2-2-0.3-2.3,0.5
		s-0.3,2.4-0.7,2.5c-0.5,0.1-0.8,0.3-0.9-0.2c-0.2-0.5-0.8-1-1.1-0.9c0,0-0.5-1.1-1.4-1.1c-1.1,0-2.4,1.2-2.4,1.2s-1.1-0.3-1.6,0
		s-1.4,1.7-1.6,2c-0.3,0.3-0.5-0.2-0.8-0.5c-0.3-0.4-0.5-0.7-0.5-0.7s0.5-1.9-0.8-2.1c-1.4-0.1-1.9,0.9-1.9,1.6c0,0-0.5,0-0.6-0.5
		c-0.3-0.4-1.7-1.2-3.5-0.5c0,0-0.6-1.8-2.2-1.9c-1.5,0-3.5,0.9-3.5,0.9s-1-0.7-1.6-0.5s-2.6,0.7-3.5,1.4s-1.2,1.1-1.5,0.9
		s-1.1-1.4-2.4-1.6c-1.4-0.1-3.4,0.9-4.5,0.9c-1,0-1.5-0.8-2-1.4c-0.5-0.5-1-1.4-2.3-1.4s-2,0.8-2.7,1.2s-1.3,0.5-1.6,0.3
		c-0.4-0.3-1.1-1.6-2-1.7c-0.9-0.2-2.1,0.6-2.4,0.4c-0.4-0.3-3.3-3.7-3.3-3.7s-0.5-0.7-1.2-0.7c-0.6,0-0.8,0.4-1.3,0.5
		c-0.5,0-0.8-1.4-2-1.4c-1.3,0-2.7,2.5-2.8,2.6c0,0.2-0.9-0.3-1.2-0.5s-0.5-0.3-0.9-0.3s-0.7-0.8-0.8-1.2c-0.2-0.4-0.5-1.1-1.9-1.1
		s-3.4,2.2-3.4,2.2s-1.8,0-2.3,0s-1.9-1.3-2.4-1.3s-1.1,0.5-2,1.4c-0.9,1.1-2.9,3.4-3.5,3.6c-0.6,0.2-0.5-0.5-0.5-1.3
		s-0.1-2.3-1.6-2.3s-2.5,4-2.5,4s-0.2,0.7-0.2,1.1s-0.1,1.1-0.5,1.2c-0.4,0.1-0.4-0.1-0.9-0.6C86.5,215.7,86.8,216.2,86.6,215.9z"/>
	<polygon class="st0" points="335.6,281.7 338.5,281.7 338.5,289.2 340.1,289.2 340.1,281.7 343.1,281.7 343.1,280.2 335.6,280.2 	
		"/>
	<polygon class="st0" points="348,287.2 345.7,280.3 343.6,280.3 343.6,289.2 345.4,289.2 345.4,283 347.3,289.2 348.9,289.2 
		350.9,282.7 350.9,289.2 352.5,289.2 352.5,280.3 350.3,280.3 	"/>
</g>
</svg>
