<?xml version="1.0" encoding="utf-8"?>
<!-- Generator: Adobe Illustrator 26.2.1, SVG Export Plug-In . SVG Version: 6.00 Build 0)  -->
<svg version="1.1" id="Layer_1" xmlns="http://www.w3.org/2000/svg" xmlns:xlink="http://www.w3.org/1999/xlink" x="0px" y="0px"
	 viewBox="0 0 500 500" style="enable-background:new 0 0 500 500;" xml:space="preserve">
<style type="text/css">
	.st0{fill-rule:evenodd;clip-rule:evenodd;fill:#FEFEFE;}
</style>
<g>
	<path class="st0" d="M131,207.2h-8.8h-13.7c-0.9,0-8.2,0.1-8.2,0.1l-0.1,11.9h-1.4l0.1-13.3l-0.1-5.4c4.6,0.3,21.4,0.4,38.9,0.4
		c20.4,0,33.5-0.2,38.6-0.4l-0.1,6.1l0.1,13.5H175c0-1.1-0.3-5.6-0.2-6c0-0.2-0.3-6.2-0.4-6.6l-5.9-0.1H151h-6.7v83
		c0,0.1,0.1,5.4,0.2,6.5c0.6,0.1,7.1,0.5,8.3,0.5h0.5v2.3c-0.4,0-0.8,0-1.2,0c-3.7,0-9.6-0.5-13.8-0.5s-10,0.5-14.4,0.5
		c-0.1,0-1,0-1.4,0v-2.4c0,0,0.3,0,0.7,0c1.8-0.1,6.3-0.4,7.5-0.5h0.2L131,207.2L131,207.2z M209.6,299.7c-3.4,0-9.2-0.5-13.6-0.5
		c-4.3,0-10.1,0.5-14.3,0.5c-0.4,0-1-0.1-1.4-0.1v-2.4c0.8,0,4.5-0.4,5.6-0.5c1.2-0.1,2.4-0.2,2.8-0.3c0,0,0-2.8,0-7.2
		c0.1-15.2,0.1-58.3,0-77.7c0-2.1,0-7.2,0-8.1c-0.8-0.1-1.9-0.2-2.7-0.3c-1-0.1-5.1-0.5-5.7-0.5v-2.4c4,0,10,0.5,14.8,0.5
		c4.6,0,11-0.5,15.7-0.5v2.4c-0.7,0.1-2.6,0.2-2.6,0.2c-1.4,0.1-5.2,0.5-6.2,0.6c0,1.4,0,4.2,0,7.6c0,17.5,0,63.1,0,78.5
		c0,2,0,3.9,0,5c0,1.2,0,1.9,0,1.9c0,0.1,2.4,0.3,3,0.4c1.1,0.1,5.5,0.4,5.6,0.4h0.3v2.4C210.6,299.6,209.9,299.7,209.6,299.7
		L209.6,299.7z M240.2,233.4c0,0-2.2,12.1-5.3,29.3c-1.7,9.2-5.2,32.4-5.4,33.9c2,0.3,6,0.6,7.1,0.5c0.3,0,0.6,0,1,0v2.4
		c-0.5,0.1-1.5,0.1-1.5,0.1c-3.8-0.1-6.5-0.4-10.7-0.4c-1.1,0-6.8,0.3-8.8,0.4c-0.8,0-2-0.1-2.3-0.1v-2.4c0.2,0,0.6-0.1,0.8-0.1
		c1.8-0.1,4.6-0.4,7-0.6c0.2-1.2,2.3-12.6,2.9-16.6c2.5-13.4,10-58.1,10.9-64.2c0.8-6.5,1.7-14.6,1.8-15.5c2,0,5.3,0,5.3,0
		s6.6,20.5,7.6,23.4c1.1,3,21.2,54.7,21.2,54.7s9.4-22.3,17.8-46.2c1.7-4.8,3.9-11.1,5.6-16.3c2.4-7.5,5.1-15.7,5.1-15.7h5.2
		c0,0,1.3,9.1,1.7,13.2c1.4,11.9,10,59.9,13,75.7c0.7,4,1.4,7.4,1.4,7.4c0.9,0.1,4.3,0.5,6.4,0.5c0.5,0,1.6,0.1,1.9,0.1v2.4
		c0,0-0.9,0.1-1.4,0.1c-4.6,0-11.9-0.5-16.3-0.5c-4,0-7.8,0.4-11.8,0.5c-0.6,0-1.4,0-2.1,0V297c0,0,0.5,0,0.8,0
		c1.9-0.1,7.1-0.6,7.6-0.6c0-0.9-0.3-3.9-0.7-6.9c-0.3-2.2-0.8-5.9-1.3-9.5c-1.1-7.1-6.3-36.4-7.9-44.5c-0.3-1.4-0.5-2.1-0.5-2.1
		s-16.2,41.5-19.5,49.7c-0.4,0.8-0.5,1.4-0.6,1.5c-3.1,7.9-5.7,14.9-5.7,14.9h-4.6l-25.2-64.8L240.2,233.4L240.2,233.4z
		 M400.2,219.8h-1.4V219c-0.2-1.7-0.5-6.6-0.8-10.8c0-0.4-0.1-0.6-0.1-0.6c-0.8,0-4.1-0.1-4.1-0.2c-0.1-0.1-2.6-0.1-2.7-0.1
		c0,0-8.5-0.1-17.3-0.1c-6,0-11.9,0-15.5,0c-0.9,0-4.1,0.1-4.1,0.1v39.1l25.1,0.1c0.1,0,6.6-0.2,6.8-0.2c0.4,0,4.9-0.3,5.1-0.4
		c0,0,0.1-0.5,0.2-0.7c0.4-2.4,0.8-4.6,0.9-6.3c0,0,0.1-0.7,0.1-1.3h1.4c0,0.2,0.1,0.6,0.1,1.3c0,2.4-0.2,7.2-0.2,10.4
		c0,4.6,0.1,8.8,0.2,10.9c0,0.6,0,1.5,0,1.5h-1.5c0-0.2-0.1-0.5-0.1-0.7c-0.3-2.6-0.5-4.5-0.9-7.2c0-0.2-0.1-0.6-0.1-0.9
		c-0.8-0.1-2.9-0.1-4.1-0.2c-0.5,0-6.6-0.1-13.5-0.1c-2.8,0-7.9,0.1-10,0.1c-2.5,0-6.7,0.2-9.4,0.3v35.4l0.1,4.5l15.2,0.3h21.7
		c0.1,0,5-0.2,6.5-0.2c0.4,0,1-0.1,1-0.1c0.2-1.2,0.4-3.4,0.5-5.7c0-0.3,0.5-6.2,0.5-7.7h1.4c0,1.4-0.3,20.1-0.3,20.1
		c-2.4,0-10,0-19.2-0.2c-5.6-0.1-11.9-0.1-18.1-0.2c-5-0.1-10-0.3-14.5-0.3c-6.4,0-12.8,0.5-15.2,0.5c-0.5,0-1.5,0-1.7,0V297h0.5
		c1.5,0,6-0.3,8.2-0.7c0-0.5,0.2-6.2,0.2-6.3c0,0,0-73.4,0-76.7c0-3.5-0.1-9.4-0.1-10c-1.3-0.2-1.8-0.3-2.1-0.3
		c-1.4-0.2-4.2-0.5-5.6-0.5c-0.5,0-0.9,0-1.1-0.1c0,0,0-2.3,0-2.4c0.4,0,1,0,2.3,0c2.6,0,7.3,0.4,13.1,0.4c3.6,0,9.5-0.2,13.8-0.3
		c6.1,0,10.6-0.1,16.5-0.1c9.5-0.1,17.6-0.1,20.8-0.2c0.9,0,1.4,0,1.4,0c0,0.2,0,0.4,0,0.6c0,0.7,0,2,0,3.6
		C400.1,209.5,400.2,217.1,400.2,219.8L400.2,219.8z"/>
</g>
</svg>
