<?xml version="1.0" encoding="utf-8"?>
<!-- Generator: Adobe Illustrator 26.2.1, SVG Export Plug-In . SVG Version: 6.00 Build 0)  -->
<svg version="1.1" id="Layer_1" xmlns="http://www.w3.org/2000/svg" xmlns:xlink="http://www.w3.org/1999/xlink" x="0px" y="0px"
	 viewBox="0 0 500 500" style="enable-background:new 0 0 500 500;" xml:space="preserve">
<style type="text/css">
	.st0{fill:#FEFEFE;}
</style>
<g id="Layer_2_1_">
	<g id="Layer_1-2">
		<path class="st0" d="M247,329.4c-10.4,0.1-19.8-6.2-23.8-15.8l-59.6-10.4l-14.8-119.7c-0.1-0.5-0.1-1-0.1-1.4c0-6.1,4.9-11,11-11
			h174.8c6.1,0,11.1,5,11.1,11.1c0,0.5,0,1-0.1,1.4l-0.1,0.7l-15.7,119l-59,10.3C266.8,323.1,257.4,329.4,247,329.4L247,329.4z
			 M165.1,301.9l59.3,10.4l0.2,0.4c5,12.4,19.1,18.5,31.5,13.5c6.2-2.5,11-7.3,13.5-13.5l0.2-0.4l0.4-0.1l58.4-10.2l15.7-118.8
			c0-0.4,0.1-0.7,0.1-1.1c0-5.2-4.1-9.4-9.2-9.5H159.5c-5.1,0.2-9.2,4.4-9.2,9.5c0,0.3,0,0.7,0.1,1v0.2L165.1,301.9z"/>
		<path class="st0" d="M255.4,306.2c0,4.6-3.7,8.3-8.3,8.3s-8.3-3.7-8.3-8.3c0-1.1,0.2-2.2,0.6-3.2c0.9-2,2.5-3.6,4.5-4.5
			c2-0.8,4.3-0.8,6.3,0c1,0.4,1.9,1,2.7,1.8C254.5,301.9,255.4,304,255.4,306.2L255.4,306.2z M254.4,303.9h-5.6l-1.7-5.3l-1.7,5.3
			h-5.6l4.5,3.3l-1.7,5.3l4.5-3.3l4.5,3.3l-1.7-5.3L254.4,303.9z"/>
		<path class="st0" d="M236.9,301.7c0.3-0.7,0.6-1.3,1.1-1.9h-9.7c-1.8,0-3.6-0.5-5.1-1.6c-1.4-1.3-3.2-2.1-5.2-2.3
			c-4.3-0.2-5.1,0.8-5.1,0.8s2-0.4,5.7,1.5c2.4,1.3,2.4,2.7,5.7,4.2c2.9,1.2,12,0.9,12,0.9C236.5,302.8,236.7,302.3,236.9,301.7z"/>
		<path class="st0" d="M257.2,301.7c-0.3-0.7-0.7-1.3-1.1-1.9h9.7c1.8,0,3.6-0.5,5.1-1.6c1.4-1.3,3.2-2.1,5.2-2.3
			c4.3-0.2,5.1,0.8,5.1,0.8s-2-0.4-5.7,1.5c-2.4,1.3-2.4,2.7-5.7,4.2c-2.9,1.2-12,0.9-12,0.9C257.6,302.8,257.4,302.3,257.2,301.7z"
			/>
		<path class="st0" d="M207.2,275.2v9.2h5.6c1.6,0.2,3-0.9,3.2-2.5l0,0c0-0.1,0-0.3,0-0.4c0-0.9-0.4-1.8-1.2-2.3
			c0.4-0.4,0.6-0.9,0.6-1.5c0-0.9-0.4-2.5-2.9-2.5L207.2,275.2L207.2,275.2z M212.7,276.9c0.9,0,1,0.4,1,0.9s-0.1,0.9-1,0.9H209V277
			L212.7,276.9z M213.1,280.3c0.7,0,1.2,0.6,1.2,1.2c0,0.7-0.5,1.2-1.2,1.2H209v-2.5L213.1,280.3L213.1,280.3z"/>
		<path class="st0" d="M224.7,275.2l-4.5,9.2h1.9l1.1-2.3h4.2l1.1,2.3h1.9l-4.6-9.2H224.7z M225.4,277.8c0.4,0.7,1,2,1.3,2.6h-2.6
			C224.4,279.8,225,278.5,225.4,277.8L225.4,277.8z"/>
		<path class="st0" d="M234.9,275.2v9.2h1.8v-3.7h2.7l2.1,3.7h2c0,0-1.9-3.3-2.2-3.9c1.4-0.5,2.2-2,1.7-3.4c-0.4-1.2-1.6-2-2.9-1.9
			L234.9,275.2L234.9,275.2z M240.1,276.9c0.8,0,1.2,0.4,1.2,1.1c0,0.4-0.1,1-1.3,1h-3.4v-2.1H240.1z"/>
		<path class="st0" d="M248.7,275.2v9.2h5.6c1.6,0.2,3-0.9,3.2-2.5c0-0.1,0-0.3,0-0.4c0-0.9-0.4-1.8-1.2-2.3
			c0.4-0.4,0.6-0.9,0.6-1.5c0-0.9-0.4-2.5-2.9-2.5L248.7,275.2L248.7,275.2z M254.2,276.9c0.9,0,1,0.4,1,0.9s-0.1,0.9-1,0.9h-3.7
			V277L254.2,276.9z M254.6,280.3c0.7,0,1.2,0.6,1.2,1.2c0,0.7-0.5,1.2-1.2,1.2h-4.1v-2.5L254.6,280.3L254.6,280.3z"/>
		<path class="st0" d="M263.4,275.2v9.2h7.7v-1.7h-5.9v-2.3h3.4v-1.7h-3.4V277h5.6v-1.7L263.4,275.2z"/>
		<path class="st0" d="M276,279.8c-0.1,2.5,1.9,4.7,4.4,4.8l0,0h0.2h0.4l0.4,0.9h2c0,0-0.5-1.1-0.7-1.4c2.4-1.2,3.4-4,2.2-6.4
			c-1.2-2.4-4-3.4-6.4-2.2C277,276.3,275.9,278,276,279.8L276,279.8z M277.8,279.8c-0.1-1.6,1.2-3,2.8-3c1.6-0.1,2.9,1.2,3,2.7v0.3
			c0,1.1-0.6,2.2-1.6,2.7c-0.1-0.3-0.4-0.8-0.4-0.8h-2l0.5,1C278.7,282.6,277.7,281.3,277.8,279.8L277.8,279.8z"/>
		<path class="st0" d="M296.5,275.2v5.8c0,1.6-0.3,1.9-2.1,1.9s-2.1-0.3-2.1-1.9v-5.8h-1.8v6.1c0,2.3,1.1,3.3,3.8,3.3
			c2.7,0,3.8-1,3.8-3.3v-6.1H296.5z"/>
		<path class="st0" d="M303.8,275.2v9.2h7.7v-1.7h-5.9v-2.3h3.4v-1.7h-3.4V277h5.6v-1.7L303.8,275.2z"/>
		<path class="st0" d="M189,279.6c0.3,0,0.6-0.2,1-0.2c0.4-0.1,0.8,0.2,0.9,0.7l0,0v0.1c0,0.7-0.8,1.2-1.4,1.2
			c-0.8,0.1-1.5-0.5-1.6-1.3l0,0c0-0.1,0-0.1,0-0.2c0.2-1.7,1.6-3,3.3-2.9c0.5,0,1.1,0.1,1.6,0.1c0.5,0.1,1.1,0.2,1.6,0.2
			c1.1,0,2.4-0.4,2.4-1.7c0-0.4-0.1-0.7-0.6-0.7c-0.6,0-0.8,0.9-1.6,0.9c-0.4,0-0.8-0.3-0.8-0.7l0,0c0-0.9,1-1.3,1.8-1.3
			c1-0.1,1.9,0.6,2,1.6l0,0v0.1c0,1.1-0.6,2.1-1.6,2.7c-0.9,0.5-1.9,0.7-3,0.6c0.2,0.5,0.4,1,0.4,1.5c0,3.2-3.7,5-6.4,5
			c-2.5,0-5.6-1.1-5.6-3.9c0.1-1.8,1.1-3.4,2.8-4.1c-0.1-0.3-0.1-0.5-0.1-0.8c0.1-1.8,1.6-3.2,3.3-3.1c0.6,0,1.8,0.2,1.8,1
			c0,0.5-0.4,0.8-0.9,0.8l0,0c-0.8,0-0.9-0.9-1.7-0.9c-0.9,0.1-1.6,0.8-1.6,1.6c0,0.3,0.1,0.6,0.3,0.9c0.2-0.1,0.5-0.1,0.7-0.1
			c0.5,0,1.1,0.3,1.1,0.9c-0.1,0.7-0.7,1.2-1.3,1.1l0,0c-0.6,0-1.1-0.3-1.3-0.8c-1,0.4-1.6,1.3-1.6,2.3c0,2.5,3.4,3.1,5.4,3.1
			c1.7,0,4.4-0.9,4.4-3.1c0-1.1-1.1-1.7-2.2-1.7c-0.6,0-1.9,0.2-1.9,1C188.7,279.4,188.8,279.6,189,279.6z"/>
		<path class="st0" d="M180.7,235.8V262h-5v1.1h6v-22.2C181.3,238.5,180.9,236.7,180.7,235.8z"/>
		<path class="st0" d="M187.7,245.4c0.1-0.3,0.2-1,0.4-1.9l-3.6-17.4h-0.8C184.5,230.1,187.3,243.7,187.7,245.4z"/>
		<path class="st0" d="M214,247.9h1.2c0.3-2.1,1.1-6.9,1.6-10.1c-0.3-1.6-0.5-3-0.6-3.7C215.8,236.6,214.1,247.4,214,247.9z"/>
		<path class="st0" d="M194.6,235.8l-5.2,26.2h-2.7c0.1,0.7,0.2,1.1,0.2,1.1h3.5c0,0,2.6-13.3,4.2-21.1V235.8z"/>
		<polygon class="st0" points="200.6,262 195.6,262 195.6,263 201.6,263 201.6,226.2 200.6,226.2 		"/>
		<polygon class="st0" points="299.7,226.2 298.7,226.2 298.7,231.1 288.2,231.1 288.2,239.9 289.3,239.9 289.3,232.2 299.7,232.2 
					"/>
		<polygon class="st0" points="297.3,246.9 297.3,241 296.3,241 296.3,245.9 288.2,245.9 288.2,256 289.3,256 289.3,246.9 		"/>
		<path class="st0" d="M263.7,237.8c0.2-0.3,0.5-1.1,1-2.1v-9.5h-1V237.8z"/>
		<path class="st0" d="M238.8,231.9h1.9c0.9-0.1,1.9,0.1,2.7,0.5c-0.6-1.2-1.8-1.6-3.7-1.6h-1.9v10.6h1V231.9z"/>
		<path class="st0" d="M219.3,253.9H213c-0.1,0.5-1.1,8-1.1,8h-5.4l-0.2,1.1h6.6c0,0,1-7.6,1.1-8h5.5
			C219.4,254.4,219.4,254,219.3,253.9z"/>
		<path class="st0" d="M277.7,226.2h-1.5l-6.4,12.8c0.1,0.2,7.7,23,7.7,23h-6.3l0.3,1.1h6.9c0,0-7.6-22.8-7.7-23L277.7,226.2z"/>
		<polygon class="st0" points="299.4,262 282.5,262 282.5,263 300.4,263 300.4,257 299.4,257 		"/>
		<rect x="304.3" y="231.1" class="st0" width="5" height="1"/>
		<polygon class="st0" points="322.2,226.2 322.2,231.1 316.2,231.1 316.2,262 310.4,262 310.4,263 317.2,263 317.2,232.2 
			323.2,232.2 323.2,226.2 		"/>
		<path class="st0" d="M265.6,245.4c-0.4,0.7-1.8,3.4-1.9,3.4v13.1h-5.8v1.1h6.8v-13l1.5-2.7L265.6,245.4z"/>
		<path class="st0" d="M220.5,226.2l6.6,35.8h-5.8l0.1,1.1h6.6l-6.8-36.8h-0.7V226.2z"/>
		<path class="st0" d="M240.6,247c-0.7,0.1-1.7,0.1-2.7,0.1V262H232v1.1h6.8v-14.9c0.7,0,1.4,0,2-0.1
			C240.7,247.4,240.6,247,240.6,247z"/>
		<path class="st0" d="M251.9,237.2c0-4.1-1-6.9-3-8.7c1.4,1.8,2,4.3,2,7.6c0,5.8-2.3,8.3-4.3,9.3c0.1,0.4,5.3,16.6,5.3,16.6h-6.2
			c0.2,0.7,0.3,1.1,0.3,1.1h6.9l-5.3-16.6C249.6,245.4,251.9,243,251.9,237.2z"/>
		<path class="st0" d="M168.2,193.7c0,4.6,3,7.1,5.7,9.3c2.2,1.9,4.2,3.4,4.2,5.9c0,1.5-0.9,2.3-2.6,2.3c-1.5,0-2.4-1.5-2.6-4v-0.3
			l-5.2,0.7v0.3c0.2,4,2.6,8.1,7.6,8.1s8-2.9,8-7.5c0-4.4-3.1-7.1-5.9-9.4c-2.1-1.8-4-3.4-4-5.4c0-1.1,0.4-2.5,2.1-2.5
			c0.6,0,2.1,0.3,2.3,2.9v0.3l5.2-0.6v-0.3c-0.5-4.4-3.2-7.1-7-7.1C171,186.3,168.2,189,168.2,193.7z"/>
		<path class="st0" d="M186.4,193.9v14.6c0,3.6,2,7.5,7.7,7.5s7.7-3.9,7.7-7.5v-14.6c0-3.6-2-7.5-7.7-7.5S186.4,190.2,186.4,193.9z
			 M191.8,208.3V194c0-2.1,0.6-2.9,2.3-2.9s2.3,0.7,2.3,2.9v14.4c0,2.1-0.6,2.9-2.3,2.9C192.4,211.2,191.8,210.4,191.8,208.3z"/>
		<path class="st0" d="M216,186.7v21.7c0,1.9-0.7,2.8-2.3,2.8s-2.3-0.9-2.3-2.8v-21.7H206v21.5c0,4.9,2.9,7.8,7.7,7.8
			s7.7-2.9,7.7-7.8v-21.5H216z"/>
		<path class="st0" d="M224.5,186.7v4.8h4.7v24.1h5.4v-24.1h4.7v-4.8H224.5z"/>
		<path class="st0" d="M252.5,186.7v11.5h-4.6v-11.5h-5.4v28.9h5.4V203h4.6v12.6h5.4v-28.9L252.5,186.7L252.5,186.7z"/>
		<path class="st0" d="M261.3,193.7c0,4.6,3,7.1,5.7,9.3c2.2,1.9,4.2,3.4,4.2,5.9c0,1.5-0.9,2.3-2.6,2.3s-2.4-1.5-2.6-4v-0.3
			l-5.2,0.7v0.3c0.2,4,2.6,8.1,7.6,8.1s8-2.9,8-7.5c0-4.4-3.1-7.1-5.9-9.4c-2.1-1.8-4-3.4-4-5.4c0-1.1,0.4-2.5,2.1-2.5
			c0.6,0,2.1,0.3,2.3,2.9v0.3l5.2-0.6v-0.3c-0.5-4.4-3.2-7.1-7-7.1C264.1,186.3,261.3,189,261.3,193.7z"/>
		<path class="st0" d="M280.1,186.7v28.9h5.4v-28.9H280.1z"/>
		<path class="st0" d="M310.7,186.7v28.9h14.1v-4.8h-8.7v-7.7h6.3v-4.8h-6.3v-6.7h8.2v-4.8L310.7,186.7z"/>
		<path class="st0" d="M191,224.2c0,0-3.8,18.3-4.2,20.3c-0.4-2-4.2-20.3-4.2-20.3h-8.7V261h6v-26.2c0.8,4,5.2,26.2,5.2,26.2h3.5
			c0,0,4.4-22.2,5.2-26.2V261h6v-36.8H191z"/>
		<path class="st0" d="M211.1,224.2l-6.8,36.8h6.6c0,0,1-7.6,1.1-8h6.3l1.1,8h6.6l-6.8-36.8H211.1z M215.2,233.2
			c0.4,2.4,2.1,13.2,2.2,13.7h-4.3C213.1,246.4,214.9,235.6,215.2,233.2z"/>
		<path class="st0" d="M230.1,224.2V261h6.8v-14.9c1,0,2-0.1,2.7-0.1l4.4,15h6.9l-5.3-16.6c2-1,4.3-3.4,4.3-9.3
			c0-7.6-3.3-11-10.8-11h-9V224.2z M238.8,229.8c3.3,0,4.3,1.2,4.3,5.3s-1,5.3-4.3,5.3h-1.9v-10.6H238.8z"/>
		<path class="st0" d="M268.9,224.2l-6.2,12.6v-12.6h-6.8V261h6.8v-13.1l1.9-3.4l5,16.5h6.9c0,0-7.6-22.8-7.6-23l6.9-13.8H268.9z"/>
		<path class="st0" d="M280.5,224.2V261h17.9v-6h-11.2v-10.1h8v-6h-8v-8.8h10.4v-6L280.5,224.2z"/>
		<path class="st0" d="M302.4,224.2v6h6V261h6.9v-30.8h6v-6H302.4z"/>
		<rect x="248.8" y="188.7" class="st0" width="1" height="10.5"/>
		<path class="st0" d="M175.9,205c0.7,0.6,1.3,1.1,1.9,1.6c-0.9-1-1.8-1.9-2.9-2.7c-0.7-0.6-1.5-1.3-2.2-2
			C173.6,203.1,174.7,204.1,175.9,205z"/>
		<path class="st0" d="M194,212c-0.2-0.5-0.2-1.1-0.2-1.7V196c0-2.1,0.6-2.9,2.3-2.9c0.4,0,0.7,0,1.1,0.1c-0.3-0.9-0.9-1.2-2.1-1.2
			c-1.7,0-2.3,0.7-2.3,2.9v14.4C192.8,210.9,193.1,211.7,194,212z"/>
		<path class="st0" d="M177.5,193.2c0.3,0,0.6,0.1,0.9,0.2c-0.3-0.8-1.1-1.3-1.9-1.3c-1.8,0-2.1,1.4-2.1,2.5c0,1.4,0.9,2.6,2.2,3.8
			c-0.7-0.7-1.1-1.7-1.2-2.7C175.3,194.5,175.7,193.2,177.5,193.2z"/>
		<path class="st0" d="M184,194.4v0.3l-4.4,0.5c0.1,0.3,0.1,0.6,0.1,0.9v0.3l5.2-0.6v-0.3c-0.1-2.2-1.1-4.2-2.7-5.6
			C183.2,191.2,183.8,192.8,184,194.4z"/>
		<path class="st0" d="M268.6,211.9c-0.4-0.9-0.7-1.8-0.7-2.7v-0.3L267,209C267.3,210.5,267.8,211.5,268.6,211.9z"/>
		<polygon class="st0" points="326.3,188.7 325.3,188.7 325.3,192.5 317.1,192.5 317.1,199.2 318.1,199.2 318.1,193.6 326.3,193.6 
					"/>
		<path class="st0" d="M268.9,205c0.7,0.6,1.3,1.1,1.9,1.6c-0.9-1-1.8-1.9-2.9-2.7c-0.7-0.6-1.5-1.3-2.2-2
			C266.7,203.1,267.8,204.1,268.9,205z"/>
		<polygon class="st0" points="324.4,205.1 324.4,200.3 323.4,200.3 323.4,204 317.1,204 317.1,211.8 318.1,211.8 318.1,205.1 		"/>
		<path class="st0" d="M298.6,193.3h1.4c0.6,0,1.3,0.1,1.9,0.3c-0.4-1-1.3-1.4-2.9-1.4h-1.4V212h1V193.3z"/>
		<path class="st0" d="M277.1,194.4v0.3l-4.4,0.5c0.1,0.3,0.1,0.6,0.1,0.9v0.3l5.2-0.6v-0.3c-0.1-2.2-1.1-4.2-2.7-5.6
			C276.3,191.2,276.9,192.8,277.1,194.4z"/>
		<path class="st0" d="M270.6,193.2c0.3,0,0.6,0,0.9,0.2c-0.3-0.8-1.1-1.2-1.9-1.2c-1.4,0-2.1,0.9-2.1,2.5c0,1.4,0.9,2.6,2.2,3.8
			c-0.7-0.7-1.1-1.7-1.2-2.7C268.4,194.1,269.2,193.2,270.6,193.2z"/>
		<path class="st0" d="M212.4,188.7v20.6c0,1.5,0.4,2.3,1.3,2.6c-0.2-0.5-0.3-1-0.2-1.6v-21.7L212.4,188.7L212.4,188.7z"/>
		<path class="st0" d="M274.7,203.1c1.7,1.7,2.6,4,2.6,6.4c0,4.7-3.1,7.5-8,7.5c-1.7,0-3.4-0.5-4.7-1.7c1.4,1.8,3.5,2.8,5.7,2.7
			c4.9,0,8-2.9,8-7.5C278.3,207.3,276.6,205,274.7,203.1z"/>
		<polygon class="st0" points="286.5,216.6 282.1,216.6 282.1,217.6 287.5,217.6 287.5,188.7 286.5,188.7 		"/>
		<polygon class="st0" points="258.9,216.6 254.4,216.6 254.4,217.6 259.9,217.6 259.9,188.7 258.9,188.7 		"/>
		<path class="st0" d="M306,190.4c1.1,1.5,1.6,3.5,1.6,6.2v11.2c0,5.9-2.7,8.8-8,8.8h-6.5v1h7.5c5.3,0,8-3,8-8.8v-11.2
			C308.7,194.2,307.8,191.8,306,190.4z"/>
		<polygon class="st0" points="325.8,212.8 325.8,216.6 312.7,216.6 312.7,217.6 326.8,217.6 326.8,212.8 		"/>
		<path class="st0" d="M175.6,211.9c-0.4-0.9-0.7-1.8-0.7-2.7v-0.3L174,209C174.2,210.5,174.8,211.5,175.6,211.9z"/>
		<polygon class="st0" points="253.4,204 248.8,204 248.8,216.6 244.4,216.6 244.4,217.6 249.8,217.6 249.8,205.1 253.4,205.1 		"/>
		<polygon class="st0" points="240.3,192.5 235.6,192.5 235.6,216.6 231.2,216.6 231.2,217.6 236.6,217.6 236.6,193.6 241.3,193.6 
			241.3,188.7 240.3,188.7 		"/>
		<path class="st0" d="M181.6,203.1c1.7,1.7,2.6,4,2.6,6.4c0,4.7-3.1,7.5-8,7.5c-1.7,0-3.4-0.5-4.7-1.6c1.4,1.8,3.5,2.8,5.7,2.7
			c4.9,0,8-2.9,8-7.5C185.2,207.3,183.6,205,181.6,203.1z"/>
		<path class="st0" d="M201.3,190c1,1.4,1.5,3.1,1.5,4.8v14.6c0,3.6-2,7.5-7.7,7.5c-1.9,0.1-3.8-0.5-5.2-1.7
			c1.2,1.6,3.2,2.7,6.2,2.7c5.7,0,7.7-3.9,7.7-7.5v-14.6C203.9,193.7,203,191.5,201.3,190z"/>
		<path class="st0" d="M222.4,209.2c0,4.9-2.9,7.8-7.7,7.8c-1.9,0.1-3.7-0.5-5.2-1.7c1.3,1.7,3.4,2.7,6.2,2.7c4.9,0,7.7-2.9,7.7-7.8
			v-21.5h-1V209.2z"/>
		<rect x="226.5" y="192.5" class="st0" width="3.7" height="1"/>
		<path class="st0" d="M291.2,186.7v28.9h7.5c5.3,0,8-3,8-8.8v-11.3c0-5.9-2.7-8.8-8-8.8L291.2,186.7z M298.1,191.3
			c2.5,0,3.2,0.9,3.2,3.7v12.4c0,2.8-0.7,3.7-3.2,3.7h-1.4v-19.7L298.1,191.3z"/>
		<path class="st0" d="M352.8,167.6v0.8h-1.1v3.8h-0.9v-3.8h-1v-0.8H352.8z"/>
		<path class="st0" d="M353.2,172.1v-4.5h1.4l0.7,3.1l0,0l0.7-3.1h1.4v4.5h-0.9v-3.5l0,0l-0.8,3.5h-0.9l-0.8-3.5l0,0v3.5H353.2z"/>
		<path class="st0" d="M159.8,165L159.8,165c-9.4,0-17.1,7.7-17.1,17.1v0.1l0.1,2.1v0.1c0.1,0.8,15.5,121.2,15.7,122.4l0.2,1.3
			l1.3,0.2c2.2,0.4,51.4,9.1,59.6,10.4c8.4,15.3,27.6,20.8,42.9,12.4c5.2-2.9,9.5-7.2,12.4-12.4c8.1-1.3,56.7-10,58.9-10.4l1.3-0.2
			l16.5-123.6l0.2-2.2v-0.1c0-9.5-7.6-17.1-17.1-17.2H159.8z M159.8,168.6h174.8c7.5,0,13.5,6,13.5,13.5c0,0.2-0.1,1.9-0.1,1.9
			s-14.4,108-16.2,121c-8.2,1.5-54,9.6-58.3,10.3l-0.9,0.1l-0.4,0.8c-7.1,13.8-24.1,19.2-37.9,12c-5.2-2.7-9.4-6.9-12-12l-0.4-0.8
			l-0.9-0.1c-4.3-0.6-50.7-8.8-59-10.3c-13.9-108.8-15.3-119.9-15.5-121.1c0-0.1-0.1-1.7-0.1-1.8
			C146.4,174.7,152.4,168.7,159.8,168.6L159.8,168.6z"/>
		<path class="st0" d="M296.3,321.1h1.7v8.7h-1.7V321.1z"/>
		<path class="st0" d="M311,325.6c0.3,0.4,0.4,0.9,0.4,1.3c0,0.7-0.2,1.4-0.8,2c-2.1,1.4-4.8,1.4-6.9,0c-0.5-0.5-0.8-1.2-0.8-2
			c0-0.5,0.1-1,0.4-1.3s0.6-0.6,1-0.8c-0.5-0.3-0.9-0.9-0.9-1.6c0-0.6,0.2-1.2,0.7-1.5c0.9-0.6,1.9-0.9,3-0.9s2.1,0.3,3,0.9
			c0.5,0.4,0.7,0.9,0.7,1.5s-0.3,1.2-0.9,1.6C310.4,325,310.8,325.3,311,325.6z M305.2,326.1c-0.3,0.2-0.5,0.5-0.4,0.8
			c0,0.3,0.2,0.7,0.4,0.9c0.6,0.4,1.3,0.5,2.1,0.5c0.7,0,1.4-0.1,2-0.5c0.3-0.2,0.4-0.5,0.4-0.9c0-0.3-0.2-0.6-0.4-0.8
			C307.9,325.6,306.5,325.6,305.2,326.1z M305.6,322.9c-0.2,0.1-0.3,0.3-0.3,0.5s0.1,0.4,0.3,0.6c1,0.4,2.2,0.4,3.2,0
			c0.3-0.2,0.4-0.6,0.2-0.9c0-0.1-0.1-0.2-0.2-0.2C307.8,322.4,306.6,322.4,305.6,322.9z"/>
		<path class="st0" d="M322.5,325.6c0.3,0.4,0.4,0.9,0.4,1.3c0,0.7-0.2,1.4-0.8,2c-2.1,1.4-4.8,1.4-6.9,0c-0.5-0.5-0.8-1.2-0.8-2
			c0-0.5,0.1-1,0.4-1.3s0.6-0.6,1-0.8c-0.5-0.3-0.9-0.9-0.9-1.6c0-0.6,0.3-1.2,0.7-1.5c0.9-0.6,1.9-0.9,3-0.9s2.1,0.3,3,0.9
			c0.5,0.4,0.7,0.9,0.7,1.5s-0.3,1.2-0.9,1.6C321.9,325,322.3,325.3,322.5,325.6z M316.7,326.1c-0.3,0.2-0.5,0.5-0.4,0.8
			c0,0.3,0.2,0.7,0.4,0.9c0.6,0.4,1.3,0.5,2.1,0.5c0.7,0,1.4-0.1,2-0.5c0.3-0.2,0.4-0.5,0.4-0.9c0-0.3-0.2-0.6-0.4-0.8
			C319.4,325.6,318,325.6,316.7,326.1z M317.1,322.9c-0.2,0.1-0.3,0.3-0.3,0.5s0.1,0.4,0.3,0.6c1,0.4,2.2,0.4,3.2,0
			c0.2-0.1,0.3-0.3,0.3-0.6c0-0.2-0.1-0.4-0.3-0.5C319.3,322.4,318.1,322.4,317.1,322.9L317.1,322.9z"/>
		<path class="st0" d="M326.5,329.8v-0.3c0-0.3-0.1-0.9-0.1-1.2c-0.1-0.8,0.2-1.6,0.8-2.3c0.7-0.6,1.5-1.1,2.4-1.3l0.7-0.2
			c0.4-0.1,0.7-0.2,1.1-0.4c0.2-0.1,0.6-0.3,0.6-0.7c0-0.3-0.2-0.5-0.5-0.6s-0.7-0.2-1-0.2c-0.6,0-1.2,0.1-1.7,0.4s-1,0.6-1.5,1
			l-1-1.3c0.5-0.4,1.1-0.8,1.7-1.1c0.7-0.4,1.6-0.6,2.4-0.5c0.9,0,1.7,0.2,2.5,0.6c0.6,0.4,1,1.2,1,1.9c0,0.6-0.2,1.1-0.6,1.5
			c-0.5,0.4-1.1,0.7-1.6,0.9l-1,0.3c-0.7,0.2-1.4,0.5-2.1,0.9c-0.2,0.2-0.4,0.5-0.4,0.9c0,0.1,0,0.2,0,0.3h5.8v1.7h-7.5V329.8z"/>
		<path class="st0" d="M161.5,321.1h7v1.7h-5.3v1.6h3.2v1.7h-3.2v2.2h5.6v1.7h-7.3V321.1z"/>
		<path class="st0" d="M178.2,323.6c-0.5-0.3-1-0.6-1.5-0.8c-0.6-0.2-1.2-0.3-1.8-0.3c-0.4,0-0.8,0.1-1.2,0.2
			c-0.3,0.1-0.5,0.4-0.5,0.7c0,0.3,0.2,0.5,0.5,0.6c0.5,0.1,0.9,0.2,1.4,0.2l1.2,0.1c0.9,0,1.7,0.3,2.4,0.9c0.5,0.4,0.9,1.1,0.9,1.8
			c0,0.8-0.4,1.6-1,2.1c-0.9,0.6-1.9,0.9-3,0.9c-0.9,0-1.7-0.1-2.6-0.4c-0.7-0.2-1.3-0.6-1.9-1.1l1-1.5c0.5,0.4,1,0.7,1.6,1
			c0.6,0.2,1.3,0.4,1.9,0.3c0.5,0,1-0.1,1.5-0.3c0.4-0.2,0.6-0.5,0.6-1c0-0.4-0.3-0.8-0.7-0.9s-0.8-0.2-1.3-0.2l-1.3-0.1
			c-0.9,0-1.8-0.3-2.5-0.9c-0.4-0.4-0.5-0.9-0.5-1.4c0-0.8,0.3-1.5,0.9-2c0.8-0.6,1.7-0.8,2.7-0.8c0.8,0,1.6,0.1,2.4,0.4
			c0.6,0.2,1.2,0.5,1.7,0.9L178.2,323.6z"/>
		<path class="st0" d="M186.2,329.8h-1.7v-7h-3.3v-1.7h8.4v1.7h-3.3L186.2,329.8z"/>
		<path class="st0" d="M190.9,328.9c0-0.5,0.4-1,0.9-1l0,0l0,0c0.6,0.1,1,0.6,0.9,1.1c0,0.5-0.4,0.9-0.9,0.9
			C191.3,330,190.8,329.5,190.9,328.9L190.9,328.9z"/>
	</g>
</g>
</svg>
