<?xml version="1.0" encoding="utf-8"?>
<!-- Generator: Adobe Illustrator 26.2.1, SVG Export Plug-In . SVG Version: 6.00 Build 0)  -->
<svg version="1.1" id="Layer_1" xmlns="http://www.w3.org/2000/svg" xmlns:xlink="http://www.w3.org/1999/xlink" x="0px" y="0px"
	 viewBox="0 0 500 500" style="enable-background:new 0 0 500 500;" xml:space="preserve">
<style type="text/css">
	.st0{fill:#FEFEFE;}
</style>
<g>
	<path class="st0" d="M120.5,281.6c-3.1-0.3-5.4-0.9-7.7-2.7c-2-1.7-3.6-4.4-4.9-7.9c-2.7-7.6-5.5-16.9-6.8-21.6
		c17.8-6.2,26-14.3,26-23.2c0-8.2-6.8-13.6-21.7-11.7c-6.6,0.8-11.4,1.7-16.5,2.7c-19.1,3.7-26.3,12-26.3,20.5c0,5.7,5,9.8,10.9,9.8
		c4,0,4.4-2.2,3.2-3.1c-2.5-1.9-4-3.7-4-6.9c0-5,3.8-11.4,17.5-14.5c0.9-0.2,1.6-0.3,2.4-0.5c-2.3,6.5-6.4,17.9-10.1,27.7
		c-21,8.4-27.6,20-27.6,28.1c0,6,4.7,9.4,10.3,9.4c8.5,0,15.2-5.7,20.5-18.5c2-4.7,4.1-10.1,6.2-15.8c1.3,5,3.8,13.7,6.5,20.7
		c1.5,4.1,2.9,7,5,9.1c2.5,2.5,5.9,3.8,10,3.8c4.8,0,7.7-1.6,8.4-2.7C122.6,282.7,122.1,281.7,120.5,281.6L120.5,281.6z M76.1,266.1
		c-4.7,9.6-7.5,13.6-11.2,14.2c-1.6,0.3-2.9-0.5-2.9-2.9c0-2.6,2.9-12.5,17.9-20.4C78.4,260.9,77,264.1,76.1,266.1z M94.8,245.4
		c3.6-10,7-19.6,8.9-25.1c8-0.9,12.1,1.5,12.1,7.5c0,5.8-4.9,11.5-15.5,15.6C98.3,244.1,96.5,244.8,94.8,245.4L94.8,245.4z
		 M319.7,266.3c-1.6,0-4,2.6-8.2,2.6c-2.9,0-4.4-1.8-4.4-5.7c0-1,0.1-2,0.3-3.1h1.1c13.6,0,21.8-7.9,21.8-15.6
		c0-5.5-4.3-8.4-8.4-8.4c-10.2,0-22.5,12.1-24.6,24.5c-2.9,5-5.4,6.9-6.8,6.8c-1.7-0.1-1.5-2.4,0-6.9c2.4-6.8,5.7-15.9,8.7-22.9
		c5.9-13.9,9.6-21.6,10.1-23.2c0.4-1.6-0.4-1.9-2-1.6c-5.9,0.9-9.2,0.6-11.7,4.8c-4,6.6-21.1,33.2-21.1,33.2s5-32.9,5.9-36.3
		c0.4-1.8-0.5-2.4-2.2-2c-1.9,0.5-3.6,1-6.1,1.8c-2.2,0.8-2.7,1.5-4.3,5c-0.8,1.9-7.3,21.3-12,31.1c-4.8,10.4-8.8,16.5-18,17.2
		c-2.5,0.2-2.6,1.5-2,3.1c1.4,3.3,5,5.3,8.2,5.3c5.7,0,9.8-4.1,13.7-13.5c3.3-7.8,8-21.3,11.6-31.4c-3,15.8-6.5,36.7-7,42.3
		c-0.3,3.3,4.1,3.3,5.8,0.1c4.6-8.3,14.5-25.3,23.5-40.8c-3.6,8.7-7.9,19.1-9.9,24.9c-1.3,4.3-2.6,7.3-2.6,11.3
		c0,4.5,3.1,7.2,6.6,7.2s7.6-1.8,11.9-7.2c1.3,4.5,4.7,7.3,10.4,7.3c7.5,0,13-5.2,13-8.4C321.2,266.9,320.6,266.3,319.7,266.3
		L319.7,266.3z M319.5,243c4.3,0,1,11.2-10.1,11.5C312.2,248.5,316.7,243,319.5,243z M297.3,223.3c-0.1,0.1-0.1,0.1-0.1,0.2
		C297.3,223.3,297.3,223.3,297.3,223.3z M272.3,217.1c0-0.1,0-0.1,0.1-0.2C272.3,217,272.3,217.1,272.3,217.1z"/>
	<path class="st0" d="M382.9,224.7c4-2.9,7-3.1,8-3.8c1.4-1.2-0.5-7.1-6.1-7.1c-8.9,0-13.5,11.1-17,20.9c-2.3,6.4-4.8,14.1-6.8,20.3
		c1-13.7,2.6-35.7,2.7-38.1c0.1-1.3,0-2-0.6-2.2c0.1-0.1,0.1-0.1,0.1-0.1h-0.4c-0.2-0.1-0.4-0.1-0.8-0.1c-1.2,0-2.3,0.1-3.4,0.1
		h-15.4c-22.6,0-20.9,21.2-6.9,21.2c2.6,0,2.6-2.5,1.4-3.2c-5-2.6-6.1-11.8,10.8-11.8h4.6C351,228,347,240.2,342,251
		c-5.4,11.5-8.4,15.8-16.8,17.9c-2.4,0.6-2.2,2-1.5,3.5c0.8,1.9,3.8,3.9,7.6,3.9c6.6,0,10.1-4.8,13.7-14.6
		c3.5-9.4,6.4-18.6,8.6-25.8c-0.6,15.2-1.1,34.8-1.3,38.4c-0.1,2.7,1,2.7,3.1,1.8c4.3-1.8,5.7-2.5,6.9-5.9c3.6-11,7-20.1,11.1-30.4
		C375.8,233.1,379.6,227,382.9,224.7z"/>
	<path class="st0" d="M395.3,237c-17.8,0-26.5,20.6-26.5,29.5c0,6.3,4,10.2,10.7,10.2c14.9,0,23.4-20.3,23.4-29.6
		C403,240.7,400,237,395.3,237z M382.4,268.5c-6.6,0,2.2-24.9,8.1-24.9C396.1,243.6,389.4,268.5,382.4,268.5z"/>
	<path class="st0" d="M442.2,226.2c-1.5,0-6.7,0.1-14.6,0.4c1.3-3.1,2.3-5.6,3-7.3c0.5-1.3,0.3-2-1.1-2c-1.2,0-3.3,0.4-5.8,1.1
		c-3.4,0.9-3.8,1.5-5.6,5.4c-0.4,0.8-0.9,1.9-1.4,3.3c-7.7,0.3-16.7,0.7-26.6,1.1c-3.8,0.2-9.3,5-4.6,5c9.3,0,19.4,0.3,28.6,0.6
		c-1.4,3.8-3.2,8.4-5.4,13.9c-2.7,6.9-6.5,15.1-6.5,20.8c0,4.2,2.9,7.8,8,7.8c6.4,0,8.9-3.7,8.2-5.9c-0.4-1.2-1.5-1.2-4-1.2
		c-1.7,0-2.3-1.1-2.3-2.4c0-2,1-4,2-6.7c3.6-9.3,7.3-18.5,10.4-26c2.6,0.1,5,0.1,7.2,0.1c5.5,0,7.6-0.1,9.5-1.6
		c1.6-1.2,2.4-1.9,3.3-3.1C445.4,228.3,446,226.2,442.2,226.2L442.2,226.2z M217.2,235.3c2.9,0,5.9-2.7,6.6-6c0.7-3.3-1.1-6-4-6
		s-5.9,2.7-6.6,6C212.4,232.6,214.2,235.3,217.2,235.3z"/>
	<path class="st0" d="M229.6,269.4c-1.4-0.2-1.8-1.1-1.8-2.7c0-2,0.5-4.7,1.5-7.8c23.2-10.9,38.4-44.1,21.1-44.1
		c-11.5,0-25.8,25.4-30.4,42.8c-2.6,4.1-6.9,10.3-10,10.3c-2.4,0-1.8-3.1,0-7.8c4-10.8,9.8-21.9,9.8-21.9s-2.9-1.2-6.9-0.5
		c-2.6,0.4-3.7,1.8-4.9,4.1c-0.1,0.2-0.3,0.4-0.4,0.9c-7.5,16.1-12.2,25.3-16.5,25.3c-3,0-1.3-3.3,0.4-7.9c4-10.8,9.8-21.9,9.8-21.9
		s-2.9-1.2-6.9-0.5c-2.5,0.4-3.6,1.6-4.8,3.8c-0.8-2.2-2.5-4.4-6.1-4.4c-11.2,0-19.5,14.4-21.9,24.5c-2.3,3.5-5.3,7.3-7.5,7.3
		s-2.2-2-0.4-6.6c2.9-7.3,8.3-20.1,12.6-30.1c11,0.3,21.3,0.4,27.2,0.4c5.5,0,7.6-0.1,9.5-1.6c1.6-1.2,2.4-1.9,3.3-3.1
		c1-1.1,1.3-3.3-2.4-3.3c-2,0-17,0.4-34.9,1.1c1.3-3.1,2.4-5.5,3.1-6.9c0.4-0.9-0.2-1.8-1.5-1.7c-2.1,0.2-2.9,0.4-5,1
		c-3.4,0.8-4.2,1.8-6.1,5.7c-0.3,0.5-0.6,1.3-1,2.2c-7.1,0.3-14.4,0.6-21.1,0.9c-3.8,0.2-8.2,4.5-3.6,4.5c5.9,0,13.8,0.1,22.3,0.3
		c-1.5,3.3-3.1,7.1-4.5,10.5c-0.1,0.3-0.3,0.6-0.4,1c-5.7,12.9-14.4,26.5-23.9,26.5c-3.7,0-5.3-2.4-5.3-5.6c0-1.2,0.2-2.5,0.4-3.8
		c0.3,0,0.8,0.1,1.2,0.1c13.6,0,21.7-8.4,21.7-16.1c0-4.9-4.1-7.8-8.2-7.8c-11.2,0-24.9,14.6-24.9,28.1c0,7.3,3.9,12.1,10.5,12.1
		c8.9,0,15.9-5.5,20.7-11.5c-0.3,1.3-0.4,2.7-0.4,4c0,4.2,2.4,7.3,6.4,7.3c4.5,0,8.3-2.7,11.9-7.5c0.8,4.7,3.4,7.5,7.5,7.5
		c4.7,0,8.8-3.6,12.1-7.9c0.2,3.9,1.5,7.9,6.8,7.9c3.6,0,7.5-2,11.9-8.2c0.1,4.1,1.8,8.4,6.7,8.4c4.7,0,8.9-3.4,12.7-8.5
		c0.3,5.2,3.1,8.2,7.1,8.2c4.1,0,7.5-2.6,7.3-5.5C232.9,268.7,230.9,269.6,229.6,269.4z M249.5,222c2.5,0-4.3,17.9-16.9,27.9
		C238,236.7,246.5,222,249.5,222z M133.9,242.6c4.3,0,1.7,12.1-9.8,12.1H124C126.7,248.4,131.1,242.6,133.9,242.6z M172.5,268.3
		c-6.5,0,4.5-24.5,10.7-24.5c2.4,0,3.2,1.5,3.5,2.9C181.6,258.5,177.4,268.3,172.5,268.3z"/>
</g>
</svg>
