<?xml version="1.0" encoding="utf-8"?>
<!-- Generator: Adobe Illustrator 26.2.1, SVG Export Plug-In . SVG Version: 6.00 Build 0)  -->
<svg version="1.1" id="Layer_1" xmlns="http://www.w3.org/2000/svg" xmlns:xlink="http://www.w3.org/1999/xlink" x="0px" y="0px"
	 viewBox="0 0 500 500" style="enable-background:new 0 0 500 500;" xml:space="preserve">
<style type="text/css">
	.st0{fill:#FEFEFE;}
	.st1{fill-rule:evenodd;clip-rule:evenodd;fill:#FEFEFE;}
</style>
<g>
	<path class="st0" d="M371,267.8c0.4,0,2.3,0,2.3,2c0,0.9-0.7,1.6-1.5,1.7v-0.1c0.4,0.1,0.7,0.4,0.8,0.8l1.2,2.9h-1l-1.2-2.7
		c-0.2-0.4-0.3-0.6-0.9-0.6h-0.8v3.3H369v-7.2L371,267.8z M369.9,270.9h0.9c1,0,1.5-0.6,1.5-1.1s-0.1-1.1-1.3-1.1h-1.1V270.9z
		 M371.2,265.2L371.2,265.2c3.4,0,6.1,2.7,6.1,6.1s-2.7,6.1-6.1,6.1s-6.1-2.7-6.1-6.1l0,0C365.1,268,367.8,265.2,371.2,265.2z
		 M371.2,276.6L371.2,276.6c2.9,0,5.3-2.4,5.3-5.3s-2.4-5.3-5.3-5.3s-5.3,2.4-5.3,5.3l0,0C365.9,274.2,368.2,276.6,371.2,276.6
		C371.1,276.6,371.1,276.6,371.2,276.6z"/>
	<path class="st0" d="M371.2,277.5c-3.4,0-6.2-2.8-6.2-6.2c0-3.4,2.8-6.2,6.2-6.2c3.4,0,6.2,2.8,6.2,6.2l0,0
		C377.3,274.7,374.6,277.5,371.2,277.5z M371.2,265.3c-3.3,0-6,2.7-6,6s2.7,6,6,6s6-2.7,6-6S374.5,265.3,371.2,265.3L371.2,265.3z
		 M371.2,276.6c-3,0-5.3-2.4-5.3-5.3c0-3,2.4-5.3,5.3-5.3c3,0,5.3,2.4,5.3,5.3l0,0c0,2.9-2.3,5.3-5.2,5.4
		C371.3,276.7,371.2,276.7,371.2,276.6L371.2,276.6z M371.2,266.1c-2.9,0-5.2,2.3-5.2,5.2c0,2.9,2.3,5.2,5.2,5.2s5.2-2.3,5.2-5.2
		l0,0C376.4,268.5,374.1,266.1,371.2,266.1L371.2,266.1L371.2,266.1z M373.9,275h-1.2l0,0l-1.2-2.7c-0.2-0.4-0.3-0.6-0.8-0.6H370
		v3.3h-1.1v-7.3h2.1c0.7,0,2.3,0.2,2.3,2c0,0.8-0.5,1.4-1.3,1.6c0.2,0.2,0.4,0.4,0.5,0.7L373.9,275z M372.8,274.9h0.9l-1.2-2.8
		c-0.1-0.3-0.3-0.5-0.6-0.7h-0.2h-0.1v-0.2h0.1c0.1,0,0.1,0,0.2,0.1c0.7-0.1,1.3-0.8,1.3-1.5c0-1.6-1.4-1.9-2.2-1.9h-2v7.1h0.8v-3.3
		h0.9c0.4-0.1,0.8,0.2,0.9,0.6L372.8,274.9z M370.8,271h-0.9v-2.4h1.2c0.9,0,1.4,0.4,1.4,1.2C372.4,270.3,371.8,271,370.8,271z
		 M370,270.8h0.8c1,0,1.5-0.5,1.5-1.1c0-0.3,0-1.1-1.2-1.1h-1L370,270.8L370,270.8z"/>
	<path class="st0" d="M250.3,181.7h1.1h0.6l0,0h0.5c10.7,0.6,20.5,5.9,26.9,14.5c0.9-0.3,1.9-0.5,2.8-0.6h1.5c0.2,0,0.5,0.1,0.7,0.1
		h0.1l0,0h0.1l0,0h0.1l0,0h0.1l0,0h0.1l0,0h0.1l0,0h0.1l0,0h0.1h0.1l0,0h0.1l0,0h0.1l0,0c0.2,0.1,0.4,0.2,0.6,0.3l0,0l0.1,0.1l0,0
		l0.1,0.1l0,0l0.1,0.1l0,0l0.1,0.1l0,0l0.1,0.1c1.3,0.9,2.7,1.8,4.2,2.4c0.5,0.2,0.9,0.3,1.3,0.5l0.2,0.1l0.9,0.2
		c0.6,0.1,1.1,0.3,1.7,0.4c2.1,0.7,3.9,2.1,5.2,3.9c0.1,0.2,0.2,0.3,1.2,0.3c3.2,0,6.2,1.5,8.3,3.9c1,1.1,2.4,1.6,4.6,1.8
		c2.6,0.2,5.3,0.7,7.3,2.7c1.7,1.7,3.8,3,6,4c0.9,0.3,1.8,0.5,2.8,0.5c1.3,0.1,2.6-0.5,3.3-1.5c0.2-0.3,0.3-0.6,0.3-0.9
		c0-0.2,0-0.3,0-0.5c0-1.4-1-3.1-2.7-4.6l-0.2-0.2l-1-0.8c-2.1-1.6-3.6-2.9-3.9-4.3c-0.1-0.4-0.1-0.8-0.1-1.2c0-1.2,0.4-2.4,1-3.4
		c1-1.3,2.6-2.2,4.2-2.3c2.3-0.2,4.5-1.1,6.2-2.7c0.2-0.4,0.7-0.7,1.2-0.8c0.4,0,0.9,0.3,1.4,1.1c0.2,0.8,0.3,1.6,0.3,2.4
		c0,1.5-0.4,2.9-1.3,4.1c-0.9,1.2-2.8,2.6-6.4,2.6c-0.1,0-0.2,0-0.3,0.1c0.5,0.6,1.1,1,1.8,1.3c3.4,1.9,5.4,5.4,5.2,9.3
		c-0.1,1-0.3,2-0.7,2.9c-0.3,0.9-0.9,1.7-1.5,2.4c-0.1,0.1-0.2,0.2-0.3,0.3c-1.4,1.3-3.5,2.3-7,2.3c-0.4,0-0.8,0-1.1,0
		s-0.8-0.1-1.3-0.1c-0.1,2-0.6,4-1.5,5.8c-0.2,0.2-0.3,0.5-0.3,0.8v0.1l1.9,1.1l0.3,0.1c0.1,0,0.1,0.1,0.2,0.1h0.6h0.1l0,0
		c0.4,0,1-0.2,1.5-0.2c1-0.1,1.9,0.6,2.1,1.5c0.2,0.5,0.3,1,0.4,1.4c0.1,0.8,0.5,1.6,1.2,2.1l0.8-0.7c0.3-0.3,0.7-0.7,1-0.9
		c0.2-0.2,0.5-0.3,0.8-0.3c0.5,0,0.9,0.1,1.4,0.3c0.8,0.4,1.5,0.8,2.2,1.2c0.5,0.3,1,0.8,1.1,1.3c0.3,0.6,0.7,1,1.3,1.2
		c1,0.7,1.6,1.9,1.6,3.1c0,0.2,0,0.4,0.1,0.7c0,0.2,0.1,0.3,0.2,0.5c0.9,1.8,0.2,2.7-0.3,3.1c-0.7,0.4-1.5,0.6-2.2,0.6
		c-0.3,0-0.5,0-0.8-0.1v0.2l-1.7-0.2c-0.1,0-0.3,0-0.4,0c-0.5,0-1.1,0.1-1.6,0.2h-0.1c-0.2,0-0.4,0.1-0.7,0.1c-1.2,0-2.3-0.6-3-1.6
		c0-0.1-0.1-0.1-0.1-0.2c-0.4-0.7-0.9-1.3-1.5-1.7c-0.5,0.2-1.1,0.2-1.7,0.3c-0.2,0-0.3,0-0.5,0c-1.1-0.1-2.1-0.6-2.9-1.3
		c-0.2-0.1-0.3-0.3-0.5-0.5c-1.1-1-2.5-1.6-4-1.6c-0.2,0-0.5,0-0.7,0.1l-0.7,0.1c-0.8,0.2-1.6,0.3-2.4,0.3c-1,0-1.9-0.2-2.8-0.7
		c-0.5-0.3-1.1-0.6-1.7-0.8c-1.6-0.7-3.3-1.4-3.5-2.9c-0.1-0.4-0.3-0.8-0.6-1.1c-0.2-0.4-0.4-0.7-0.6-1.1c-0.2-0.4-0.3-0.8-0.3-1.2
		c-0.4,0.1-0.9,0.2-1.3,0.2h-0.3h-0.6l-0.7-0.1c-1.2-0.2-2.4-0.4-3.5-0.4c-0.3,0-0.6,0-0.8,0.1c-1.9,0.5-3.9,0.7-5.9,0.6
		c-0.6,0-1.2,0-1.8-0.1l-1-0.2c-0.4,0.5-0.9,0.9-1.5,1.3c0.2,0,0.4,0,0.6,0h0.9c0.3,0,0.6,0,0.9,0.1l1.2,0.3c0.3-0.1,0.7-0.1,1-0.1
		s0.6,0,0.9,0l1.4,0.1l1.6,0.2c0.8,0.2,1.6,0.5,1.5,2c-0.1,0.6-0.3,1.1-0.7,1.5c-0.5,0.6-0.9,1.2-1.3,1.9l-0.1,0.1
		c-0.4,0.9-1.3,1.5-2.3,1.4c-0.2,0-0.4,0-0.5,0c0,0.1-0.1,0.2-0.2,0.3c-0.3,0.9-0.9,1.7-1.7,2.4l-0.2,0.2c-0.7,0.6-1.6,0.9-2.4,0.9
		c-0.4,0-0.9-0.1-1.3-0.2l-0.6-0.2c-1.8-0.6-3.5-1.3-5.2-2.1L285,242c-1-0.5-1.3-0.7-1.6-0.7h-0.2H283c-0.3,0-0.6,0.1-0.9,0.1
		c-1.1,0-2.2-0.6-2.7-1.6l-0.1-0.2c-5.5,7.5-13.6,12.7-22.8,14.4l0,0l-1,0.2h-0.1l-0.4,0.1l-0.5,0.1h-0.3h-0.5h-0.3l-0.7,0.1h-0.2
		h-0.6h0.1h-0.7h-2h-0.7h-0.3h-0.6h-0.2l-0.7-0.1h-0.3h-0.4h-0.3l-0.7-0.1h-0.3l-0.5-0.1H244l-0.6-0.1L243,254h-0.2l-0.9-0.2h-0.1
		l-0.5-0.1l-0.2-0.1l-0.8-0.2h-0.1c-8.1-2.3-15.1-7.4-19.9-14.3l-0.6,0.9c-0.5,1-1.6,1.7-2.7,1.6c-0.3,0-0.6,0-0.9-0.1h-0.2h-0.2
		c-0.3,0-0.7,0.2-1.6,0.7l-0.2,0.1c-1.7,0.8-3.4,1.5-5.2,2.1l-0.6,0.2c-0.4,0.2-0.9,0.2-1.3,0.2c-0.9,0-1.8-0.4-2.4-0.9l-0.2-0.2
		c-0.8-0.6-1.4-1.4-1.7-2.4c0,0-0.1-0.2-0.2-0.3c-0.2,0-0.4,0-0.6,0c-1,0.1-1.9-0.4-2.3-1.4l-0.1-0.1c-0.4-0.7-0.8-1.3-1.3-1.9
		c-0.4-0.4-0.6-1-0.7-1.5c-0.2-0.9,0.3-1.8,1.2-2c0.1,0,0.2,0,0.3-0.1l1.6-0.2l1.4-0.1c0.2,0,0.5,0,0.9,0c0.3,0,0.7,0,1,0.1l1.2-0.3
		c0.3-0.1,0.6-0.1,0.9-0.1h0.9c0.2,0,0.4,0,0.6,0c-0.5-0.4-1-0.8-1.5-1.3l-1,0.2c-0.6,0.1-1.2,0.1-1.9,0.1c-2,0-4-0.2-5.9-0.6
		c-0.3-0.1-0.5-0.1-0.8-0.1c-1.2,0.1-2.4,0.2-3.5,0.4l-0.7,0.1c-0.3,0-0.5,0.1-0.8,0.1c-0.4,0-0.9-0.1-1.3-0.2
		c-0.1,0.8-0.4,1.7-0.9,2.4c-0.2,0.4-0.4,0.7-0.6,1.1c-0.2,1.5-1.9,2.2-3.5,2.9c-0.6,0.2-1.1,0.5-1.7,0.8c-0.8,0.5-1.8,0.8-2.8,0.7
		c-0.8,0-1.6-0.1-2.4-0.3l-0.7-0.2c-0.2,0-0.5-0.1-0.7-0.1c-1.5,0-2.9,0.6-4,1.6c-1,1.1-2.4,1.7-3.9,1.7c-0.6,0-1.1-0.1-1.7-0.3
		c-0.6,0.5-1.1,1.1-1.5,1.7c-0.7,1.3-2.2,2-3.7,1.7h-0.1c-0.5-0.1-1.1-0.2-1.6-0.2c-0.1,0-0.3,0-0.4,0l-1.7,0.2v-0.3
		c-0.3,0-0.5,0.1-0.8,0.1c-0.8,0-1.6-0.2-2.3-0.6c-0.5-0.4-1.2-1.3-0.3-3.1c0.2-0.3,0.3-0.7,0.3-1.1c0-1.2,0.5-2.4,1.5-3.1
		c0.6-0.2,1.1-0.7,1.3-1.2c0.2-0.6,0.6-1.1,1.1-1.3c0.7-0.5,1.4-0.9,2.2-1.2c0.4-0.2,0.9-0.3,1.4-0.3c0.3,0,0.6,0.1,0.9,0.3
		c0.5,0.5,1.8,1.6,1.8,1.6c1.1-0.9,1-1.9,1.6-3.5c0.2-1,1.1-1.6,2.1-1.5c0.5,0,1,0.1,1.5,0.1h0.1h0.6l0.2-0.1l0.3-0.1l1.8-1.1v-0.1
		c0-0.3-0.1-0.6-0.3-0.8c-0.9-1.8-1.4-3.8-1.5-5.8l-0.9,0.1c-0.6,0-1.1,0.1-1.6,0.1c-3.5,0-5.6-1-7-2.3c-0.8-0.8-1.5-1.7-1.8-2.8
		c-0.4-0.9-0.6-1.9-0.7-2.9c0-3.6,2-7,5.1-8.8c0.7-0.3,1.3-0.8,1.8-1.3c-0.1,0-0.2-0.1-0.3-0.1c-3.6,0-5.5-1.4-6.4-2.6
		c-0.9-1.2-1.4-2.7-1.3-4.1c0-0.8,0.1-1.6,0.3-2.4c0.5-0.8,1-1.1,1.4-1.1c0.5,0.1,0.9,0.3,1.2,0.8c1.7,1.5,3.9,2.5,6.2,2.7
		c1.7,0.1,3.2,0.9,4.2,2.3c0.7,1,1.1,2.2,1,3.4c0,0.4,0,0.8-0.1,1.2c-0.4,1.4-1.8,2.7-3.9,4.3l-1.2,1c-1.7,1.5-2.7,3.2-2.7,4.6
		c0,0.4,0.1,0.7,0.2,1c0,0.1,0.1,0.3,0.2,0.4c0.8,1.1,2,1.7,3.3,1.5c0.9,0,1.9-0.2,2.8-0.5c2.2-1,4.3-2.3,6-4c2-2,4.7-2.5,7.3-2.7
		c2.3-0.2,3.7-0.7,4.6-1.8c2.1-2.5,5.1-3.9,8.3-3.9c1-0.1,1.1-0.1,1.2-0.3c1.1-1.5,2.5-2.7,4.2-3.5c0.9-0.4,1.8-0.6,2.7-0.8l0.9-0.2
		l0.2-0.1c2-0.6,3.9-1.6,5.5-2.8l0.1-0.1l0,0l0.1-0.1l0,0l0.1-0.1l0,0l0.1-0.1l0,0l0.1-0.1l0,0l0.1-0.1l0,0l0.1-0.1l0,0l0.1-0.1l0,0
		h0.1l0,0h0.1l0,0h0.1l0,0h0.1h0.1l0,0h0.1l0,0h0.1l0,0h0.1l0,0h0.1l0,0h0.1l0,0h0.1l0,0h0.1l0,0h0.1l0,0h0.1h0.4h0.1h1.5h0.1h0.3
		h0.1l0,0h0.1l0,0h0.1l0,0h0.1l0,0h0.1l0,0l0.5,0.1h0.1l0,0l0.5,0.1h0.1l0,0c0.3,0.1,0.7,0.2,1,0.3h0.1h0.1
		c6.5-8.9,16.7-14.3,27.6-14.8l0,0h0.6h0.6h0.6 M284.3,195.9c-0.2,0-0.5-0.1-0.7-0.1L284.3,195.9 M286.2,196.6
		c-0.2-0.1-0.4-0.2-0.6-0.3L286.2,196.6 M329,230.8h-0.1H329 M243.3,254l0.6,0.1L243.3,254 M245,254.3l0.7,0.1L245,254.3
		 M255.3,254.3l-0.5,0.1L255.3,254.3 M246.7,254.4l0.7,0.1L246.7,254.4 M253.6,254.4l-0.7,0.1L253.6,254.4 M252.7,254.5h-0.6H252.7
		 M247.6,254.5h0.6H247.6 M251.9,254.6h-0.7H251.9 M248.5,254.6h0.7H248.5 M249.4,254.6h0.8h0.8h-0.8H249.4 M250.2,180.1H249h-0.6
		l-1.6,0.1l0,0c-10.4,0.9-20,6.1-26.5,14.3l0,0l0,0h-0.1l-0.6-0.2l0,0h-0.1c-0.2,0-0.4-0.1-0.6-0.1l0,0l0,0h-0.1h-0.1h-0.1l0,0h-0.1
		l0,0h-0.1h-0.1h-0.1H218h-0.7H217h-1.4h-0.1h-0.3h-0.1H215h-0.1l0,0h-0.1h-0.1h-0.1l0,0h-0.1l0,0l0,0h-0.1l0,0h-0.1l0,0l0,0H214
		l0,0l0,0h-0.1l0,0h-0.1h-0.1l0,0h-0.1l-0.1,0.1l0,0h-0.1l0,0l0,0l0,0l0,0h-0.1l0,0l0,0l-0.1,0.1l-0.1,0.1l0,0l0,0l-0.1,0.1l0,0l0,0
		l-0.1,0.1l-0.1,0.1l0,0l0,0l-0.1,0.1l-0.5,0.3l0,0c-1.4,1.1-3,1.9-4.7,2.4l0,0h-0.1l-0.8,0.2c-1,0.2-2,0.5-3,0.9
		c-1.8,0.8-3.4,2.1-4.6,3.7h-0.2c-3.7,0.1-7.1,1.7-9.5,4.5c-0.5,0.5-1.2,1.1-3.5,1.2c-2.8,0.2-6,0.8-8.4,3.2
		c-1.6,1.5-3.4,2.7-5.4,3.6c-0.7,0.3-1.5,0.4-2.2,0.4c-0.7,0.1-1.4-0.2-1.8-0.7c0,0,0-0.1-0.1-0.1c0-0.1-0.1-0.3-0.1-0.4
		c0-0.7,0.5-2,2.1-3.3l1.1-0.9c2.3-1.8,4.1-3.3,4.5-5.3c0.1-0.5,0.2-1.1,0.2-1.6c0-1.6-0.5-3.1-1.4-4.4c-1.3-1.8-3.3-2.9-5.5-3
		c-1.8-0.2-3.5-0.9-4.9-2c-0.6-0.9-1.5-1.4-2.5-1.5c-0.8,0-1.9,0.3-2.9,2l-0.1,0.2l-0.1,0.3c-0.2,0.9-0.4,1.9-0.4,2.8
		c0,1.9,0.5,3.7,1.6,5.2c0.9,1.2,2.2,2.1,3.6,2.6c-2.7,2.3-4.3,5.6-4.3,9.2c-0.1,1.3,0,2.6,0.3,3.9v0.1c0.5,1.3,1.3,2.5,2.3,3.5
		c1.9,1.8,4.7,2.7,8.2,2.7c0.3,0,0.6,0,0.9,0c0.2,1.4,0.6,2.8,1.1,4.1c-0.2,0.1-0.3,0.2-0.5,0.3h-0.2h-0.4c-0.4-0.1-0.8-0.1-1.3-0.1
		c-1.7-0.1-3.3,1.1-3.8,2.7c-0.2,0.5-0.3,1-0.4,1.4l-0.1-0.1c-0.6-0.5-1.3-0.8-2.1-0.8c-0.7,0-1.3,0.2-2,0.4c-0.7,0.3-1.3,0.6-1.9,1
		l-0.5,0.3c-0.9,0.5-1.6,1.3-1.9,2.2c-0.1,0.1-0.3,0.2-0.5,0.3l0,0l0,0c-1.6,1-2.5,2.8-2.4,4.6c0,0.1,0,0.3-0.1,0.4
		c-1.2,2.4-0.4,4.3,0.8,5.3c0.7,0.5,1.5,0.8,2.3,0.9l2.1,0.3l1.7-0.2h0.2c0.4,0,0.8,0.1,1.2,0.2h0.1l0,0l0,0c0.3,0.1,0.7,0.1,1,0.1
		c1.9,0,3.7-1,4.6-2.7c0.1-0.2,0.3-0.5,0.5-0.7c0.4,0.1,0.8,0.1,1.2,0.1c1.9,0,3.8-0.8,5.1-2.3c0.7-0.7,1.7-1.1,2.8-1.1
		c0.1,0,0.3,0,0.4,0l0.7,0.1c0.9,0.2,1.8,0.3,2.7,0.3c1.3,0,2.6-0.3,3.7-1c0.5-0.3,0.9-0.5,1.4-0.7h0.1c1.7-0.7,4-1.7,4.4-4.1
		c0.1-0.1,0.2-0.4,0.3-0.6l0,0l0,0c0.3-0.4,0.5-0.9,0.7-1.3l0,0c0.4,0,0.7,0,1.1-0.1l0.7-0.1l0,0c1-0.2,2.1-0.3,3.2-0.4
		c-0.6,0.8-0.9,1.8-0.7,2.8c0.1,1,0.5,1.9,1.2,2.6c0.4,0.5,0.7,0.9,1,1.5v0.1c0.6,1.3,1.8,2.2,3.3,2.3c0.4,1,1.1,1.8,2,2.4l0.2,0.1
		c1.5,1.2,3.5,1.6,5.3,0.9l0.6-0.2c1.9-0.6,3.7-1.4,5.5-2.2l0.2-0.1l0,0c0.3-0.1,0.7-0.4,0.9-0.5h0.2c0.4,0.1,0.8,0.1,1.2,0.1
		c1.3,0,2.5-0.5,3.4-1.3c4.9,6.3,11.7,10.8,19.4,13h0.1l0.9,0.2l0.2,0.1l0.5,0.1h0.1l0.9,0.2h0.2l0.4,0.1l0,0l0.6,0.1l0,0h0.3
		l0.5,0.1h0.3l0,0l0.7,0.1l0,0h0.2h0.5h0.4l0,0l0.7,0.1l0,0h0.3l0,0h0.6h0.3l0,0h0.7h2.1h0.8l0,0h0.2l0,0h0.6h0.2l0,0h0.7l0,0h0.3
		l0.5-0.1h0.3l0,0l0.5-0.1l0.4-0.1h0.1l1-0.2l0,0c8.9-1.6,16.9-6.4,22.6-13.4c0.8,0.5,1.8,0.8,2.7,0.8c0.4,0,0.8,0,1.1-0.1h0.1
		c0.2,0.1,0.6,0.3,0.9,0.5l0.2,0.1c1.7,0.8,3.5,1.6,5.3,2.2h0.1l0.6,0.2c0.6,0.2,1.2,0.3,1.9,0.3c1.3,0,2.5-0.5,3.4-1.3l0.2-0.2
		c0.9-0.6,1.5-1.5,2-2.4c1.4-0.1,2.7-1,3.3-2.3v-0.1c0.3-0.5,0.6-1,1-1.5c0.6-0.7,1-1.6,1.2-2.5l0,0c0.1-1-0.1-2-0.7-2.8
		c1.1,0.1,2.1,0.2,3.1,0.4l0.7,0.1c0.3,0,0.5,0.1,0.8,0.1h0.4l0,0c0.2,0.5,0.5,0.9,0.7,1.3c0.2,0.4,0.3,0.5,0.4,0.6
		c0.4,2.4,2.7,3.4,4.5,4.1c0.5,0.2,1,0.4,1.5,0.7c1.1,0.7,2.4,1,3.7,1c0.9,0,1.8-0.1,2.7-0.3l0.7-0.1c0.1,0,0.3,0,0.4,0
		c1,0,2,0.4,2.8,1.1c0.2,0.2,0.4,0.4,0.6,0.6c1.1,0.9,2.4,1.5,3.8,1.6c0.2,0,0.5,0,0.7,0c0.4,0,0.8,0,1.2-0.1
		c0.2,0.2,0.3,0.4,0.5,0.7c0,0.1,0.1,0.1,0.1,0.2c1,1.6,2.6,2.5,4.5,2.5c0.3,0,0.7,0,1-0.1h0.1l0,0h0.1c0.4-0.1,0.8-0.2,1.2-0.2h0.2
		l1.6,0.2l2-0.3c0.8-0.1,1.6-0.4,2.3-0.9c1.2-0.9,2.1-2.8,0.9-5.3c0-0.1-0.1-0.1-0.1-0.2v-0.1c0-1.9-0.9-3.6-2.4-4.6l0,0l0,0
		c-0.2-0.1-0.3-0.2-0.5-0.3c-0.3-1-1-1.8-1.9-2.2l-0.5-0.3c-0.6-0.4-1.2-0.7-1.9-1c-0.6-0.3-1.3-0.4-2-0.4c-0.8,0-1.5,0.3-2.1,0.8
		l-0.1,0.1c-0.1-0.4-0.2-0.8-0.4-1.4c-0.5-1.7-2-2.8-3.8-2.7c-0.4,0-0.8,0-1.2,0.1h-0.4h-0.2l-0.5-0.3c0.6-1.3,1-2.7,1.2-4.1
		c0.3,0,0.6,0,0.9,0c3.5,0,6.2-0.9,8.2-2.7c0.1-0.1,0.2-0.2,0.4-0.4c0.9-0.9,1.5-1.9,1.9-3.1c0.5-1.1,0.7-2.3,0.8-3.5
		c0-3.6-1.6-6.9-4.3-9.2c1.4-0.5,2.7-1.4,3.6-2.6c1.1-1.5,1.7-3.3,1.6-5.2c0-1-0.1-1.9-0.4-2.8l-0.1-0.2l-0.1-0.2
		c-1-1.6-2.1-2-2.9-2c-1,0-2,0.6-2.5,1.5c-1.4,1.1-3.1,1.8-4.9,2c-2.2,0.1-4.2,1.2-5.5,3c-0.9,1.3-1.4,2.8-1.4,4.4
		c0,0.5,0.1,1.1,0.2,1.6c0.5,2,2.3,3.5,4.5,5.3l1,0.8l0.2,0.2c1.5,1.3,2.1,2.6,2.1,3.3c0,0.1,0,0.1,0,0.2c0,0.1-0.1,0.2-0.1,0.3
		c-0.5,0.5-1.2,0.8-1.8,0.7c-0.8,0-1.5-0.2-2.2-0.4c-2-0.9-3.8-2.1-5.4-3.6c-2.4-2.4-5.6-3-8.4-3.2c-2.2-0.2-3-0.7-3.4-1.2
		c-2.4-2.8-5.8-4.4-9.5-4.5h-0.2c-1.5-1.9-3.5-3.3-5.8-4.1c-0.6-0.2-1.2-0.4-1.8-0.5l-0.8-0.2l-0.2-0.1h-0.1
		c-0.4-0.1-0.8-0.3-1.2-0.4c-1.1-0.5-2.2-1.1-3.2-1.8l0,0l-0.8-0.5l-0.1-0.1h-0.1l0,0h-0.1l0,0l0,0l0,0l-0.1-0.1l0,0L287,195
		c-0.2-0.1-0.4-0.2-0.7-0.3l0,0h-0.1l0,0l0,0h-0.1l0,0l0,0H286h0h-0.1l0,0l0,0h-0.1l0,0h-0.1l0,0h-0.1h-0.1l0,0l0,0h-0.1l0,0h-0.1
		l0,0h-0.1l0,0H285l0,0c-0.3-0.1-0.5-0.1-0.8-0.1h-1.8c-0.7,0-1.4,0.2-2.1,0.3c-6.7-8.4-16.7-13.5-27.4-14.2h-0.6l0,0h-0.5h-0.6
		L250.2,180.1z"/>
	<path class="st1" d="M218.1,208.6c-0.2-0.4-0.2-1,0.1-1.4c0.6-0.9,1.1,0.1,1.1,0.1c2,2.8,0.5,7,0.5,7
		C219.6,210.4,218.1,208.6,218.1,208.6L218.1,208.6z M235.5,227.2c0-0.8,0.1-2.7-0.7-3.3c-0.3-0.2-1.5-1.6-1.5-1.6
		c-0.2-0.3-0.3-0.4-0.3-0.4c-0.3,0-0.6,0.6-0.6,0.6c-0.9,1.7-1.7,1.5-1.7,1.5c0-0.2,0.1-0.4,0.2-0.6c0.2-0.4,1.3-2.4,1.3-2.4
		c0.1-0.3,0.2-0.7,0.2-0.7c0.8-1.3,1.6-0.3,1.6-0.3c0.7,1,1.4,2,2.2,2.9c0.2,0.3,0.4,0.7,0.5,1C237,227,235.5,227.2,235.5,227.2
		L235.5,227.2z M230.5,235.1c-0.4,0-0.4-0.1-0.4-0.5c0.1-0.7,0.5-1.2,1.1-1.6c1.6-1,1.9,0,1.9,0c0.3,1.8-1.1,2-1.1,2
		C231.5,235,231,235.1,230.5,235.1L230.5,235.1z M158.8,240.2c0.2,0.2,0.3,0.5,0.2,0.8c-0.4,1.1-0.7,2.2-0.9,3.4c0,0-2,0.4-2.3-0.6
		c0-0.3,0.1-0.7,0.3-0.9c0.3-0.5,0.4-1,0.4-1.5c0,0,0-2.4,1.5-1.8C158.3,239.7,158.6,240,158.8,240.2L158.8,240.2z M161.2,236.2
		c0.3-0.3,0.8-0.4,1.3-0.3c1,0.2,0.4,1.1,0.4,1.1c-0.5,0.7-1,1.4-1.7,2c-0.6,0.5-1.5,0.4-2.1-0.2c-0.3-0.2-0.4-0.6-0.2-1
		c0.1-0.2,0.3-0.3,0.4-0.3C160.1,237.1,160.7,236.7,161.2,236.2L161.2,236.2z M173.1,221.1c-0.2,2.3,0.3,4.6,1.2,6.7
		c0,0,1.2,1.7,0,2.8l-2.4,1.4c0,0-0.3,0.2-1.4,0.2c0,0-1.5-0.4-2,0.3c-0.3,0.8-0.6,1.6-1,2.3c0,0-1.1,2.6-3,3.4
		c-0.9,0.2-1.6,0.8-1.9,1.6c-0.3,0.5-0.8,0.9-1.4,0.9c0,0-0.7,0.2-1.2,1.8c-0.1,0.6-0.2,1.2-0.2,1.8c0.7-0.1,1.4,0,2,0.1
		c0,0,1.9,0.7,2.8-0.9c0,0,1.7-2.9,2.9-2.4c1.5,0.5,3.1,0.1,4.3-1c0,0,2.4-2.7,5.9-2.1c0,0,3.9,0.8,5.1-0.1c0,0,2.4-1.3,3.4-1.6
		c0.7-0.2,1.2-0.8,1.2-1.6c0.3-0.8,0.7-1.6,1.2-2.3h-1.9c-1.1,1.7-2.6,2.9-4.5,3.6c0,0-1.5,0.6-4.7,0.1c0,0-4.5-1-8.4,3.3
		c-0.3,0.4-0.8,0.6-1.3,0.5c1.6-2.4,4.1-4.1,6.9-4.6c0.9-0.2,1.9-0.2,2.9-0.1c4-0.1,7.7-2.5,9.4-6.1c0,0-0.3-5.4,1.1-6.7
		c0,0,0.5-0.2,0.4,0.9c0,0-1,5.6,0.9,6.7c0.9,0.6,2,0.8,3,0.5c1.8-0.4,3.6-0.5,5.4-0.3c2.3,0.5,4.6,0.7,6.9,0.5
		c-0.5-0.8-0.7-1.8-0.7-2.8c0,0,0.5-1.1,1-0.4c0,0,1.2,4.1,4.6,5.3c1.9,0.9,3.1,2.8,3,4.9c0,0-0.5,0.5-4.5,1.9c0,0-1.5,0.5-2-0.6
		c0,0-1.9-4.1-3.6-4l-3.2,0.3c0,0-1.1,0.3-0.3,1.1c0.6,0.7,1.1,1.5,1.5,2.3c0,0,0.1,0.7,1.1,0.6c0,0,1.4-0.7,2.2,1.9
		c0.4,0.8,1.1,1.4,1.9,1.7c0.7,0.2,1.5,0.1,2.2-0.2c0,0,5.2-1.9,6.1-2.6c0.6-0.3,1.3-0.5,2-0.3c0,0,1.6,0.4,2.2-0.9l1.6-2.5
		c0.2-0.4,0.3-0.9,0.3-1.4c0.1-0.6-0.1-1.1-0.5-1.5c-0.3-0.3-0.6-0.7-0.7-1.1l-1.1-2.7c-0.3-0.4-0.6-0.7-1-1l-1.5,0.1
		c0.5,1.3,1.1,2.6,1.8,3.8c0.5,0.8,0.9,1.7,1,2.6c0,0.4-0.1,0.7-0.4,1c0,0-0.4,0.6-0.5,0.8c-0.2,0.5-0.5,0.9-0.8,1.2
		c-0.3,0.2-0.5,0.3-0.8,0.4c0,0-0.3,0.1-0.1-0.4c0.4-0.9,0.7-1.8,0.8-2.8c0.1-0.6-0.1-1.2-0.5-1.6c-0.7-1.1-1.4-2.2-1.9-3.4
		c-0.2-0.4-0.5-0.9-0.8-1.2s-0.2-0.7,0.1-1c0.1-0.1,0.2-0.1,0.3-0.2c0.9-0.2,1.9-0.5,2.8-0.8c0,0,1.1-0.3,1.9-2.7
		c0.5-1.4,0.9-2.9,1-4.4c1.1,2.6,0.7,5.6-1.2,7.7c0,0,2.5,0.7,3.5,0c0,0,3.1-0.5,3.7-0.6c0,0,0.8-0.2,0.3,0.4
		c-0.5,0.7-0.8,1.4-1,2.2c-0.1,0.4-0.3,0.8-0.6,1.1c0,0-1.8,1.2-1.9,2.4c0,0-0.4,1.1,0.4,0.9c0,0,1.1-0.5,1.4,0c0,0,0.1,0.1-0.3,0.5
		c-0.6,0.6-1,1.3-1.1,2.2c0.1,0.7,0.3,1.3,0.6,1.9c0.3,0.4,0.8,0.6,1.2,0.4c0.2-0.1,0.4-0.1,0.6,0c0.5-0.1,0.9-0.2,1.4-0.3
		c0,0,1.5-0.4,2-0.6c0.9-0.3,1.9-0.5,2.8-0.6c0.5,0,0.9,0,1.4,0.1c1.5,0.1,2.9-0.4,3.9-1.5c0,0,1.2-0.9,1.6,0c0,0,2.9,3.8,7.5,2.8
		c0,0-3.7-1.5-4.6-3.6c0,0-0.1-1.8-2.1-4.2c0,0-0.6-0.8,0-1c0,0,0.3-0.2,1.1,0.5c1,1,1.9,2.1,2.5,3.4c0,0,2.3,3.4,5.6,2.3
		c-1.5-0.6-2.8-1.6-3.8-2.9c-0.6-1.8-1.8-3.3-3.3-4.4c0,0-0.1-2.8-1.3-4.4c0,0-0.6-2.7-0.8-3.3c-0.3-1-0.5-2-0.6-3
		c0.1-2-0.6-3.9-1.8-5.4c-0.9-1.6-2-3.1-3.4-4.3c0,0-1.6-1.9-2.7-3.1c-1.5-1.5-3.1-2.9-4.8-4.1c-0.9-0.7-1.8-1.4-2.6-2.3
		c0,0-5.9-4.2-10.1-0.8c-1.7,1.1-3.5,2-5.4,2.6c0,0-5,0.6-7.2,4.1c0,0-0.2,0.6-2.2,0.9c-3.1-0.1-6,1.3-7.7,3.8
		c-1.3,1.1-2.9,1.7-4.5,1.8c0,0-4.9-0.5-8.1,3.3c0,0-8.1,7-12.9,2.4c0,0-2.5-2.4,0.4-6.6c1.5-1.7,3.1-3.2,4.9-4.5
		c0,0,2.5-1.8,1.4-4.5c0,0-0.6-2.6-4.4-2.7c0,0-4.7-0.9-6.6-3.3c0,0-2.1,7.5,6.2,7.3c0,0,2.2,0.3,1.4,2c-0.6,0.9-1.5,1.6-2.5,2
		c0,0-2.5,1.1-3.6,4.8c0,0-2.5,6.4,3.7,8.9c2.4,0.8,5.1,0.6,7.6,0.1L173.1,221.1z"/>
	<path class="st1" d="M281.5,208.6c0.2-0.4,0.2-1-0.1-1.4c-0.6-0.9-1.1,0.1-1.1,0.1c-2,2.8-0.5,7-0.5,7
		C279.9,210.4,281.5,208.6,281.5,208.6L281.5,208.6z M264.1,227.2c0-0.8-0.1-2.7,0.7-3.3c0.3-0.2,1.5-1.6,1.5-1.6
		c0.2-0.3,0.3-0.4,0.3-0.4c0.3,0,0.6,0.6,0.6,0.6c0.9,1.7,1.7,1.5,1.7,1.5c0-0.2-0.1-0.4-0.2-0.6c-0.2-0.4-1.2-2.4-1.2-2.4
		c-0.1-0.2-0.2-0.4-0.2-0.7c-0.8-1.3-1.6-0.3-1.6-0.3c-0.7,1-1.4,2-2.2,2.9c-0.3,0.3-0.4,0.7-0.5,1
		C262.6,227,264.1,227.2,264.1,227.2L264.1,227.2z M269.1,235.1c0.4,0,0.4-0.1,0.4-0.5c-0.1-0.7-0.5-1.2-1.1-1.6c-1.6-1-1.9,0-1.9,0
		c-0.3,1.8,1.1,2,1.1,2C268.1,235,268.6,235.1,269.1,235.1L269.1,235.1z M340.8,240.2c-0.2,0.2-0.3,0.5-0.2,0.8
		c0.4,1.1,0.7,2.2,0.9,3.4c0,0,2,0.4,2.3-0.6c0-0.3-0.1-0.7-0.3-0.9c-0.3-0.5-0.4-1-0.4-1.5c0,0,0-2.4-1.5-1.8
		C341.3,239.7,341,240,340.8,240.2L340.8,240.2z M338.3,236.2c-0.3-0.3-0.8-0.4-1.3-0.3c-1,0.2-0.4,1.1-0.4,1.1
		c0.5,0.7,1.1,1.4,1.7,2c0.6,0.5,1.5,0.4,2.1-0.2c0.9-0.8-0.3-1.3-0.3-1.3C339.5,237.2,338.9,236.7,338.3,236.2L338.3,236.2z
		 M326.4,221.1c0.2,2.3-0.3,4.6-1.2,6.7c0,0-1.2,1.7,0,2.8l2.4,1.4c0.4,0.2,0.9,0.3,1.4,0.2c0,0,1.5-0.4,2,0.3
		c0.3,0.8,0.6,1.6,1,2.3c0,0,1.1,2.6,3,3.4c0.9,0.2,1.6,0.8,1.9,1.6c0.3,0.5,0.8,0.9,1.4,0.9c0,0,0.7,0.2,1.2,1.8
		c0.1,0.6,0.2,1.2,0.2,1.8c-0.7-0.1-1.4,0-2,0.1c0,0-1.9,0.7-2.8-0.9c0,0-1.7-2.9-2.9-2.4c-1.5,0.5-3.1,0.1-4.3-1
		c0,0-2.4-2.7-5.9-2.1c0,0-3.9,0.8-5.1-0.1c0,0-2.4-1.3-3.4-1.6c-0.7-0.2-1.2-0.8-1.2-1.6c-0.3-0.8-0.7-1.6-1.2-2.3h1.8
		c1.1,1.7,2.6,3,4.5,3.7c0,0,1.6,0.6,4.7,0.1c0,0,4.5-1,8.4,3.3c0.3,0.4,0.8,0.6,1.3,0.5c-1.6-2.4-4.1-4.1-6.9-4.6
		c-0.9-0.2-1.9-0.2-2.9-0.1c-4-0.1-7.7-2.5-9.4-6.1c0,0,0.3-5.4-1.1-6.7c0,0-0.5-0.2-0.4,0.9c0,0,1,5.6-0.9,6.7
		c-0.9,0.6-2,0.8-3,0.5c-1.8-0.4-3.6-0.5-5.4-0.3c-2.3,0.5-4.6,0.7-6.9,0.5c0.5-0.8,0.7-1.8,0.7-2.8c0,0-0.5-1.1-1-0.4
		c0,0-1.2,4.1-4.6,5.3c-1.9,0.8-3.1,2.8-3,4.9c0,0,0.5,0.5,4.5,1.9c0,0,1.5,0.5,2-0.6c0,0,1.9-4.1,3.6-4l3.1,0.3
		c0,0,1.1,0.3,0.3,1.1c-0.6,0.7-1.1,1.5-1.5,2.3c0,0-0.1,0.7-1.1,0.6c0,0-1.4-0.7-2.2,1.9c-0.4,0.8-1.1,1.4-2,1.7
		c-0.7,0.2-1.5,0.1-2.2-0.2c0,0-5.2-1.9-6.1-2.6c-0.6-0.3-1.3-0.5-2-0.3c-0.8,0.2-1.7-0.1-2.2-0.9l-1.6-2.5
		c-0.2-0.4-0.3-0.9-0.3-1.4c-0.1-0.6,0.1-1.1,0.5-1.5c0.3-0.3,0.5-0.7,0.7-1.1l1.1-2.7c0.3-0.4,0.6-0.7,1-1l1.5,0.1
		c-0.5,1.3-1.1,2.6-1.8,3.8c-0.5,0.8-0.9,1.7-1,2.6c0,0.4,0.2,0.7,0.4,1c0,0,0.4,0.6,0.5,0.8c0.2,0.5,0.5,0.9,0.8,1.2
		c0.3,0.2,0.5,0.3,0.8,0.4c0,0,0.3,0.1,0.1-0.4c-0.4-0.9-0.7-1.8-0.8-2.8c-0.1-0.6,0.1-1.2,0.5-1.6c0.7-1.1,1.4-2.2,1.9-3.4
		c0.2-0.4,0.5-0.9,0.8-1.2s0.2-0.7-0.1-1c-0.1-0.1-0.2-0.1-0.3-0.2c-0.9-0.2-1.9-0.5-2.8-0.8c0,0-1.1-0.3-1.9-2.7
		c-0.5-1.4-0.9-2.9-1-4.4c-1.1,2.6-0.7,5.6,1.2,7.7c0,0-2.5,0.7-3.5,0c0,0-3.1-0.5-3.7-0.6c0,0-0.8-0.2-0.3,0.4
		c0.5,0.7,0.8,1.4,1,2.2c0.1,0.4,0.3,0.8,0.6,1.1c0,0,1.8,1.2,1.9,2.4c0,0,0.4,1.1-0.4,0.9c0,0-1.1-0.5-1.4,0c0,0-0.1,0.1,0.3,0.5
		c0.6,0.5,1.1,1.3,1.2,2.1c-0.1,0.7-0.3,1.3-0.6,1.9c-0.3,0.4-0.8,0.6-1.2,0.4c-0.2-0.1-0.4-0.1-0.6,0c-0.5-0.1-0.9-0.2-1.4-0.3
		c0,0-1.5-0.4-2-0.6c-0.9-0.3-1.9-0.5-2.8-0.6c-0.5,0-0.9,0-1.4,0.1c-1.5,0.1-2.9-0.4-3.9-1.5c0,0-1.2-0.9-1.6,0
		c0,0-2.9,3.8-7.5,2.8c0,0,3.7-1.5,4.7-3.6c0,0,0.1-1.8,2.1-4.2c0,0,0.6-0.8,0-1c0,0-0.3-0.2-1,0.5c-1,1-1.9,2.1-2.5,3.4
		c0,0-2.3,3.4-5.6,2.3c1.5-0.6,2.8-1.6,3.8-2.9c0.6-1.8,1.8-3.3,3.3-4.4c0,0,0.1-2.8,1.3-4.4c0,0,0.6-2.7,0.8-3.3c0.3-1,0.5-2,0.6-3
		c-0.1-2,0.6-3.9,1.8-5.4c0.9-1.6,2-3.1,3.4-4.3c0,0,1.6-1.9,2.7-3.1c1.5-1.5,3.1-2.9,4.8-4.1c0.9-0.7,1.8-1.4,2.6-2.3
		c0,0,5.9-4.2,10.1-0.8c1.7,1.1,3.5,2,5.4,2.6c0,0,5,0.6,7.2,4.1c0,0,0.2,0.6,2.2,0.9c3.1-0.1,6,1.3,7.7,3.8
		c1.3,1.1,2.9,1.7,4.5,1.8c0,0,4.9-0.5,8.1,3.3c0,0,8.1,7,12.9,2.4c0,0,2.5-2.4-0.4-6.6c-1.5-1.7-3.1-3.2-4.9-4.5
		c0,0-2.5-1.8-1.4-4.5c0,0,0.6-2.6,4.3-2.7c0,0,4.7-0.9,6.6-3.3c0,0,2.1,7.5-6.2,7.3c0,0-2.2,0.3-1.4,2c0.6,0.9,1.5,1.6,2.5,2
		c0,0,2.5,1.1,3.6,4.8c0,0,2.5,6.4-3.7,8.9C331.5,221.9,328.8,221.6,326.4,221.1L326.4,221.1z"/>
	<path class="st1" d="M179.2,298.9h12.4c0,0-0.5-5.8-6.1-5.8C179.8,293.1,179.2,298.9,179.2,298.9z M185.6,286.1
		c16.7,0,16,16.3,16,16.3v2.6h-22.7c0.1,3.9,3.3,7,7.2,6.9h0.1c4.2,0,6.4-4.1,6.4-4.1l8,4c-3.7,5.6-8.7,7.8-14.3,7.8
		c-17.4,0-17.7-14.5-17.7-16.3S168.9,286,185.6,286.1L185.6,286.1z M222.7,310.4L222.7,310.4c-0.5,0-7,0.1-7-7.8s7.1-8.2,7.1-8.2
		s7.9,0.3,7.9,8S223.2,310.4,222.7,310.4L222.7,310.4z M230.3,265.9v23.8c0,0-4.8-3.7-10.3-3.7s-14.8,3.9-14.8,16.1
		s7.9,16.9,14.7,16.9c4,0,7.8-1.6,10.6-4.5v4h9.8v-52.6L230.3,265.9z M296.4,287.7h10v17.6c0,0,0.3,5.9,5.9,5.9s5.5-5.9,5.5-5.9
		v-17.6h10.1v18.2c0,0,1.3,14.2-15.3,14.2c-16.6,0-16.2-12.5-16.2-14.7V287.7L296.4,287.7z M333.7,265.9h9.8v52.6h-9.8V265.9
		L333.7,265.9z M350.5,265.9h9.7v52.6h-9.7V265.9L350.5,265.9z M276.4,309.7h-9.3v-32.9h5c0,0,6.8-0.5,6.8,5.4s-5.4,5.4-5.4,5.4
		h-3.1v8.9h6.1c1.6,0,6.7,0.8,6.7,6.6S276.5,309.7,276.4,309.7L276.4,309.7z M284.8,291c2.9-2.6,4.6-6.3,4.6-10.3
		c0-6.7-4.9-12.8-15.3-12.8h-17.4v50.5h21.4c0,0,15.4-0.2,15.4-14.1C293.5,296.3,290.4,293.3,284.8,291L284.8,291z M132.7,266.9
		v51.6h10.4v-41.7h4.9c0,0,7.7-0.3,7.7,6.6c0,7-6.8,6.8-6.8,6.8h-2.5V302l10.4,16.4H169l-14.5-21.1c0,0,12-1,12-14
		s-9-16.5-21.1-16.5h-12.7V266.9z"/>
</g>
</svg>
