<?xml version="1.0" encoding="utf-8"?>
<!-- Generator: Adobe Illustrator 26.2.1, SVG Export Plug-In . SVG Version: 6.00 Build 0)  -->
<svg version="1.1" id="Layer_1" xmlns="http://www.w3.org/2000/svg" xmlns:xlink="http://www.w3.org/1999/xlink" x="0px" y="0px"
	 viewBox="0 0 1080 1080" style="enable-background:new 0 0 1080 1080;" xml:space="preserve">
<style type="text/css">
	.st0{fill:#DE193A;}
</style>
<g>
	<polygon class="st0" points="174.4,823.5 195.4,801.3 148,808.4 178.4,788.9 155.4,780.2 784,618.7 787.6,571.7 766.1,577.1 
		746.9,371.4 762.2,375.9 763.7,356.5 777.2,369.7 791.1,356.5 804.6,524.6 812.6,524.4 850.2,349.6 861.8,365.6 878.9,353.2 
		883.1,371.6 905.5,361.6 845,523.5 873.7,519.8 851.9,542.1 866,558.7 828.1,564.9 818,653.3 	"/>
	<path class="st0" d="M248.6,529.3l-28.7,8.1l-12.3,207.3l-16.8-4.2l-7.1,14.1l-8.8-5.7l-6.3,16.4c0,0-6.7-5.9-9.3-8.1
		c-1-16.6,15-201.4,15-201.4s-78.9,40.5-80.9,40.7c-1.1-0.7,7.3-18.4,7.3-18.4L84.6,569l11.1-13.8l-8.6-19.1l87.2-27.4L185.7,389
		l13.8,6.9l10.1-11.5l10.9,6.1l8.4-7.9L217.3,495l30.8-12.8l11.4-112.3l12.2,5.9l8.4-11.3l9.6,13l13-13l-6.8,103.2l78.6-30.5
		l-10.8,21.1l15.7,4l-6.7,12.2l10.6,7.6l-91.4,29.6l-8.6,195.6l-10.6,12.4l-11.5-8.1l-10.5,12.6l-18.9-6.9L248.6,529.3z"/>
	<polygon class="st0" points="497.6,654.7 479.7,650.4 476.2,665.4 461.4,655.4 450.4,669.8 390.6,420 405.3,426.7 408.6,406.2 
		423.6,415 435.9,399.9 471.9,537.3 483.2,521.7 469,386.1 494.7,401.2 520,379.5 517.4,508.6 533.9,536.1 562.8,361.6 572.9,383.1 
		588.2,371 594.3,394.4 611.8,373.1 577.5,632 565.1,622.1 559.5,639.4 542.2,632.4 528.1,647.2 516.3,575.2 505.8,554.6 493.8,575 
			"/>
	<path class="st0" d="M691.7,425c1.3-14.8-8.6-127-8.6-127l17.2,17.2l15.1-33.1L722,314l16.3-23L735,596.9l-9.7,13.1l-14.4-9.4
		l-9.8,14.1l-10.7-6.4c0,0,5.7-23.8,6.4-23.6c-0.7-0.1-86.4,56.8-82.8-88.7C615.1,451.1,633.1,395.7,691.7,425L691.7,425z
		 M672.8,464.2c-7.9,0.3-15.5,9.4-17.6,41.1s6.3,47.2,16,46.8c9.8-0.4,17.7-27.9,15.7-56.3C685.8,478.9,680.7,463.9,672.8,464.2z"/>
	<path class="st0" d="M413.5,623.3c-4.3,30-16.6,62.3-51,72.9c-12.6,3.9-27,4.6-38.6-0.7c-30.5-14-30.1-98.5-18.6-137.7
		c7.3-24.9,20.9-46.4,47.8-51.4C421.8,493.5,419.4,581.9,413.5,623.3z M351.1,653.3c13.9,0,25.2-17.9,25.2-72
		c0-3.8-0.4-20.7-2.2-24.1c-5.7-11.2-16-4.9-21.4,2.5c-5.7,7.9-8,17.9-9.9,27.3C339.2,605.7,337.2,653.3,351.1,653.3z"/>
	<polygon class="st0" points="938.5,268.7 948.8,278.7 966.4,256.5 978.2,274.4 995.4,271.7 924.1,561.2 911.4,548.6 891.7,561.2 	
		"/>
	<path class="st0" d="M922,598.7c-0.3,12.3-7,38.3-22.8,39.8c-15.9,1.4-24.3-8.4-21.3-30.7c3-22.4,11.7-32.6,24.9-33.8
		C916,572.8,922.4,586.4,922,598.7z"/>
</g>
</svg>
